ISO-10303-21;
HEADER;

/* File generated by Shapr3D Version 26.123.0.11423 */

FILE_DESCRIPTION(('HOOPS Exchange Step'),'2;1');

FILE_NAME('/Users/koichiro.amito/Library/Containers/com.shapr3d.shapr/Data/tmp/export/temp_export',
'2026-08-02T22:35:13+09:00',
('koichiro.amito'),
('Shapr3D Limited'),
'HOOPS Exchange 2026.3',
'Shapr3D',
'Authorized');

FILE_SCHEMA( ('AP242_MANAGED_MODEL_BASED_3D_ENGINEERING_MIM_LF {1 0 10303 442 1 1 4}') );

ENDSEC;

DATA;
#3=(NAMED_UNIT(*)PLANE_ANGLE_UNIT()SI_UNIT($,.RADIAN.));
#4=PLANE_ANGLE_MEASURE_WITH_UNIT(PLANE_ANGLE_MEASURE(0.0174532925),#3);
#5=(CONVERSION_BASED_UNIT('DEGREE',#4)NAMED_UNIT(#6)PLANE_ANGLE_UNIT());
#6=DIMENSIONAL_EXPONENTS(0.,0.,0.,0.,0.,0.,0.);
#7=(NAMED_UNIT(*)SI_UNIT($,.STERADIAN.)SOLID_ANGLE_UNIT());
#8=(LENGTH_UNIT()NAMED_UNIT(*)SI_UNIT(.MILLI.,.METRE.));
#9=UNCERTAINTY_MEASURE_WITH_UNIT(LENGTH_MEASURE(1.000000E-05),#8,'DISTANCE_ACCURACY_VALUE','Maximum Tolerance applied to model');
#10=(GEOMETRIC_REPRESENTATION_CONTEXT(3)GLOBAL_UNCERTAINTY_ASSIGNED_CONTEXT((#9))GLOBAL_UNIT_ASSIGNED_CONTEXT((#8,#5,#7))REPRESENTATION_CONTEXT('','root'));
#12=CARTESIAN_POINT('',(0.,0.,0.));
#13=DIRECTION('',(0.,0.,1.));
#14=DIRECTION('',(1.,0.,0.));
#15=AXIS2_PLACEMENT_3D('TS3D_PRODUCT_CSYS',#12,#13,#14);
#27=CARTESIAN_POINT('',(0.,0.,13.));
#28=DIRECTION('',(0.,0.,1.));
#29=DIRECTION('',(0.,-1.,0.));
#30=AXIS2_PLACEMENT_3D('',#27,#28,#29);
#31=PLANE('',#30);
#32=CARTESIAN_POINT('',(10.,-7.1,13.));
#33=VERTEX_POINT('',#32);
#34=CARTESIAN_POINT('',(12.944486373,-8.8,13.));
#35=VERTEX_POINT('',#34);
#36=CARTESIAN_POINT('',(10.,-7.1,13.));
#37=DIRECTION('',(0.866025404,-0.5,0.));
#38=VECTOR('',#37,3.4);
#39=LINE('',#36,#38);
#40=EDGE_CURVE('',#33,#35,#39,.T.);
#41=ORIENTED_EDGE('',*,*,#40,.F.);
#42=CARTESIAN_POINT('',(7.055513627,-8.8,13.));
#43=VERTEX_POINT('',#42);
#44=CARTESIAN_POINT('',(7.055513627,-8.8,13.));
#45=DIRECTION('',(0.866025404,0.5,0.));
#46=VECTOR('',#45,3.4);
#47=LINE('',#44,#46);
#48=EDGE_CURVE('',#43,#33,#47,.T.);
#49=ORIENTED_EDGE('',*,*,#48,.F.);
#50=CARTESIAN_POINT('',(7.055513627,-12.2,13.));
#51=VERTEX_POINT('',#50);
#52=CARTESIAN_POINT('',(7.055513627,-12.2,13.));
#53=DIRECTION('',(0.,1.,0.));
#54=VECTOR('',#53,3.4);
#55=LINE('',#52,#54);
#56=EDGE_CURVE('',#51,#43,#55,.T.);
#57=ORIENTED_EDGE('',*,*,#56,.F.);
#58=CARTESIAN_POINT('',(10.,-13.9,13.));
#59=VERTEX_POINT('',#58);
#60=CARTESIAN_POINT('',(10.,-13.9,13.));
#61=DIRECTION('',(-0.866025404,0.5,0.));
#62=VECTOR('',#61,3.4);
#63=LINE('',#60,#62);
#64=EDGE_CURVE('',#59,#51,#63,.T.);
#65=ORIENTED_EDGE('',*,*,#64,.F.);
#66=CARTESIAN_POINT('',(12.944486373,-12.2,13.));
#67=VERTEX_POINT('',#66);
#68=CARTESIAN_POINT('',(12.944486373,-12.2,13.));
#69=DIRECTION('',(-0.866025404,-0.5,0.));
#70=VECTOR('',#69,3.4);
#71=LINE('',#68,#70);
#72=EDGE_CURVE('',#67,#59,#71,.T.);
#73=ORIENTED_EDGE('',*,*,#72,.F.);
#74=CARTESIAN_POINT('',(12.944486373,-8.8,13.));
#75=DIRECTION('',(-0.,-1.,0.));
#76=VECTOR('',#75,3.4);
#77=LINE('',#74,#76);
#78=EDGE_CURVE('',#35,#67,#77,.T.);
#79=ORIENTED_EDGE('',*,*,#78,.F.);
#80=EDGE_LOOP('',(#41,#49,#57,#65,#73,#79));
#81=FACE_BOUND('',#80,.T.);
#82=CARTESIAN_POINT('',(6.010052129,-0.,13.));
#83=VERTEX_POINT('',#82);
#84=CARTESIAN_POINT('',(-7.010052129,0.,13.));
#85=VERTEX_POINT('',#84);
#86=CARTESIAN_POINT('',(-0.5,-0.,13.));
#87=DIRECTION('',(0.,0.,1.));
#88=DIRECTION('',(1.,0.,-0.));
#89=AXIS2_PLACEMENT_3D('',#86,#87,#88);
#90=CIRCLE('',#89,6.510052129);
#91=EDGE_CURVE('',#83,#85,#90,.T.);
#92=ORIENTED_EDGE('',*,*,#91,.T.);
#93=CARTESIAN_POINT('',(-0.5,-0.,13.));
#94=DIRECTION('',(0.,0.,1.));
#95=DIRECTION('',(1.,0.,-0.));
#96=AXIS2_PLACEMENT_3D('',#93,#94,#95);
#97=CIRCLE('',#96,6.510052129);
#98=EDGE_CURVE('',#85,#83,#97,.T.);
#99=ORIENTED_EDGE('',*,*,#98,.T.);
#100=EDGE_LOOP('',(#92,#99));
#101=FACE_BOUND('',#100,.T.);
#102=CARTESIAN_POINT('',(-12.545546506,15.498488146,13.));
#103=VERTEX_POINT('',#102);
#104=CARTESIAN_POINT('',(-5.906273815,17.502486038,13.));
#105=VERTEX_POINT('',#104);
#106=CARTESIAN_POINT('',(-5.906273815,5.502486038,13.));
#107=DIRECTION('',(-0.,-0.,-1.));
#108=DIRECTION('',(1.,0.,-0.));
#109=AXIS2_PLACEMENT_3D('',#106,#107,#108);
#110=CIRCLE('',#109,12.);
#111=EDGE_CURVE('',#103,#105,#110,.T.);
#112=ORIENTED_EDGE('',*,*,#111,.T.);
#113=CARTESIAN_POINT('',(5.093726185,17.502486038,13.));
#114=VERTEX_POINT('',#113);
#115=CARTESIAN_POINT('',(-5.906273815,17.502486038,13.));
#116=DIRECTION('',(1.,0.,0.));
#117=VECTOR('',#116,11.);
#118=LINE('',#115,#117);
#119=EDGE_CURVE('',#105,#114,#118,.T.);
#120=ORIENTED_EDGE('',*,*,#119,.T.);
#121=CARTESIAN_POINT('',(11.730375361,15.50023017,13.));
#122=VERTEX_POINT('',#121);
#123=CARTESIAN_POINT('',(5.093726185,5.502486038,13.));
#124=DIRECTION('',(-0.,-0.,-1.));
#125=DIRECTION('',(1.,0.,-0.));
#126=AXIS2_PLACEMENT_3D('',#123,#124,#125);
#127=CIRCLE('',#126,12.);
#128=EDGE_CURVE('',#114,#122,#127,.T.);
#129=ORIENTED_EDGE('',*,*,#128,.T.);
#130=CARTESIAN_POINT('',(17.093726185,5.502486038,13.));
#131=VERTEX_POINT('',#130);
#132=CARTESIAN_POINT('',(5.093726185,5.502486038,13.));
#133=DIRECTION('',(-0.,-0.,-1.));
#134=DIRECTION('',(1.,0.,-0.));
#135=AXIS2_PLACEMENT_3D('',#132,#133,#134);
#136=CIRCLE('',#135,12.);
#137=EDGE_CURVE('',#122,#131,#136,.T.);
#138=ORIENTED_EDGE('',*,*,#137,.T.);
#139=CARTESIAN_POINT('',(17.093726185,-5.497513962,13.));
#140=VERTEX_POINT('',#139);
#141=CARTESIAN_POINT('',(17.093726185,5.502486038,13.));
#142=DIRECTION('',(0.,-1.,0.));
#143=VECTOR('',#142,11.);
#144=LINE('',#141,#143);
#145=EDGE_CURVE('',#131,#140,#144,.T.);
#146=ORIENTED_EDGE('',*,*,#145,.T.);
#147=CARTESIAN_POINT('',(11.721248283,-15.501310783,13.));
#148=VERTEX_POINT('',#147);
#149=CARTESIAN_POINT('',(5.093726185,-5.497513962,13.));
#150=DIRECTION('',(-0.,-0.,-1.));
#151=DIRECTION('',(1.,0.,-0.));
#152=AXIS2_PLACEMENT_3D('',#149,#150,#151);
#153=CIRCLE('',#152,12.);
#154=EDGE_CURVE('',#140,#148,#153,.T.);
#155=ORIENTED_EDGE('',*,*,#154,.T.);
#156=CARTESIAN_POINT('',(5.093726185,-17.497513962,13.));
#157=VERTEX_POINT('',#156);
#158=CARTESIAN_POINT('',(5.093726185,-5.497513962,13.));
#159=DIRECTION('',(-0.,-0.,-1.));
#160=DIRECTION('',(1.,0.,-0.));
#161=AXIS2_PLACEMENT_3D('',#158,#159,#160);
#162=CIRCLE('',#161,12.);
#163=EDGE_CURVE('',#148,#157,#162,.T.);
#164=ORIENTED_EDGE('',*,*,#163,.T.);
#165=CARTESIAN_POINT('',(-5.906273815,-17.497513962,13.));
#166=VERTEX_POINT('',#165);
#167=CARTESIAN_POINT('',(5.093726185,-17.497513962,13.));
#168=DIRECTION('',(-1.,-0.,0.));
#169=VECTOR('',#168,11.);
#170=LINE('',#167,#169);
#171=EDGE_CURVE('',#157,#166,#170,.T.);
#172=ORIENTED_EDGE('',*,*,#171,.T.);
#173=CARTESIAN_POINT('',(-12.53561111,-15.500107977,13.));
#174=VERTEX_POINT('',#173);
#175=CARTESIAN_POINT('',(-5.906273815,-5.497513962,13.));
#176=DIRECTION('',(-0.,-0.,-1.));
#177=DIRECTION('',(1.,0.,-0.));
#178=AXIS2_PLACEMENT_3D('',#175,#176,#177);
#179=CIRCLE('',#178,12.);
#180=EDGE_CURVE('',#166,#174,#179,.T.);
#181=ORIENTED_EDGE('',*,*,#180,.T.);
#182=CARTESIAN_POINT('',(-17.906273815,-5.497513962,13.));
#183=VERTEX_POINT('',#182);
#184=CARTESIAN_POINT('',(-5.906273815,-5.497513962,13.));
#185=DIRECTION('',(-0.,-0.,-1.));
#186=DIRECTION('',(1.,0.,-0.));
#187=AXIS2_PLACEMENT_3D('',#184,#185,#186);
#188=CIRCLE('',#187,12.);
#189=EDGE_CURVE('',#174,#183,#188,.T.);
#190=ORIENTED_EDGE('',*,*,#189,.T.);
#191=CARTESIAN_POINT('',(-17.906273815,5.502486038,13.));
#192=VERTEX_POINT('',#191);
#193=CARTESIAN_POINT('',(-17.906273815,-5.497513962,13.));
#194=DIRECTION('',(0.,1.,0.));
#195=VECTOR('',#194,11.);
#196=LINE('',#193,#195);
#197=EDGE_CURVE('',#183,#192,#196,.T.);
#198=ORIENTED_EDGE('',*,*,#197,.T.);
#199=CARTESIAN_POINT('',(-5.906273815,5.502486038,13.));
#200=DIRECTION('',(-0.,-0.,-1.));
#201=DIRECTION('',(1.,0.,-0.));
#202=AXIS2_PLACEMENT_3D('',#199,#200,#201);
#203=CIRCLE('',#202,12.);
#204=EDGE_CURVE('',#192,#103,#203,.T.);
#205=ORIENTED_EDGE('',*,*,#204,.T.);
#206=EDGE_LOOP('',(#112,#120,#129,#138,#146,#155,#164,#172,#181,#190,#198,#205));
#207=FACE_BOUND('',#206,.T.);
#208=CARTESIAN_POINT('',(-11.,13.9,13.));
#209=VERTEX_POINT('',#208);
#210=CARTESIAN_POINT('',(-8.055513627,12.2,13.));
#211=VERTEX_POINT('',#210);
#212=CARTESIAN_POINT('',(-11.,13.9,13.));
#213=DIRECTION('',(0.866025404,-0.5,0.));
#214=VECTOR('',#213,3.4);
#215=LINE('',#212,#214);
#216=EDGE_CURVE('',#209,#211,#215,.T.);
#217=ORIENTED_EDGE('',*,*,#216,.F.);
#218=CARTESIAN_POINT('',(-13.944486373,12.2,13.));
#219=VERTEX_POINT('',#218);
#220=CARTESIAN_POINT('',(-13.944486373,12.2,13.));
#221=DIRECTION('',(0.866025404,0.5,0.));
#222=VECTOR('',#221,3.4);
#223=LINE('',#220,#222);
#224=EDGE_CURVE('',#219,#209,#223,.T.);
#225=ORIENTED_EDGE('',*,*,#224,.F.);
#226=CARTESIAN_POINT('',(-13.944486373,8.8,13.));
#227=VERTEX_POINT('',#226);
#228=CARTESIAN_POINT('',(-13.944486373,8.8,13.));
#229=DIRECTION('',(-0.,1.,0.));
#230=VECTOR('',#229,3.4);
#231=LINE('',#228,#230);
#232=EDGE_CURVE('',#227,#219,#231,.T.);
#233=ORIENTED_EDGE('',*,*,#232,.F.);
#234=CARTESIAN_POINT('',(-11.,7.1,13.));
#235=VERTEX_POINT('',#234);
#236=CARTESIAN_POINT('',(-11.,7.1,13.));
#237=DIRECTION('',(-0.866025404,0.5,0.));
#238=VECTOR('',#237,3.4);
#239=LINE('',#236,#238);
#240=EDGE_CURVE('',#235,#227,#239,.T.);
#241=ORIENTED_EDGE('',*,*,#240,.F.);
#242=CARTESIAN_POINT('',(-8.055513627,8.8,13.));
#243=VERTEX_POINT('',#242);
#244=CARTESIAN_POINT('',(-8.055513627,8.8,13.));
#245=DIRECTION('',(-0.866025404,-0.5,0.));
#246=VECTOR('',#245,3.4);
#247=LINE('',#244,#246);
#248=EDGE_CURVE('',#243,#235,#247,.T.);
#249=ORIENTED_EDGE('',*,*,#248,.F.);
#250=CARTESIAN_POINT('',(-8.055513627,12.2,13.));
#251=DIRECTION('',(0.,-1.,0.));
#252=VECTOR('',#251,3.4);
#253=LINE('',#250,#252);
#254=EDGE_CURVE('',#211,#243,#253,.T.);
#255=ORIENTED_EDGE('',*,*,#254,.F.);
#256=EDGE_LOOP('',(#217,#225,#233,#241,#249,#255));
#257=FACE_BOUND('',#256,.T.);
#258=ADVANCED_FACE('',(#81,#101,#207,#257),#31,.F.);
#259=COLOUR_RGB('',0.929411769,0.909803927,0.858823538);
#260=FILL_AREA_STYLE_COLOUR('',#259);
#261=FILL_AREA_STYLE('',(#260));
#262=SURFACE_STYLE_FILL_AREA(#261);
#263=SURFACE_SIDE_STYLE('',(#262));
#264=SURFACE_STYLE_USAGE(.BOTH.,#263);
#265=PRESENTATION_STYLE_ASSIGNMENT((#264));
#266=OVER_RIDING_STYLED_ITEM('',(#265),#258,#26);
#267=CARTESIAN_POINT('',(-10.141046905,-5.148763232,20.632810175));
#268=DIRECTION('',(0.82821758,0.478171643,0.292245651));
#269=DIRECTION('',(-0.5,0.866025404,0.));
#270=AXIS2_PLACEMENT_3D('',#267,#268,#269);
#271=PLANE('',#270);
#272=CARTESIAN_POINT('',(-9.701552887,-5.062393873,19.245976701));
#273=VERTEX_POINT('',#272);
#274=CARTESIAN_POINT('',(-10.488539194,-4.548342,20.635187681));
#275=VERTEX_POINT('',#274);
#276=CARTESIAN_POINT('',(-9.701552887,-5.062393873,19.245976701));
#277=DIRECTION('',(-0.469184238,0.306466623,0.82821758));
#278=VECTOR('',#277,1.677350269);
#279=LINE('',#276,#278);
#280=EDGE_CURVE('',#273,#275,#279,.T.);
#281=ORIENTED_EDGE('',*,*,#280,.T.);
#282=CARTESIAN_POINT('',(-10.436850368,-5.486918072,22.024398662));
#283=VERTEX_POINT('',#282);
#284=CARTESIAN_POINT('',(-10.488539194,-4.548342,20.635187681));
#285=DIRECTION('',(0.030815762,-0.559558781,0.82821758));
#286=VECTOR('',#285,1.677350269);
#287=LINE('',#284,#286);
#288=EDGE_CURVE('',#275,#283,#287,.T.);
#289=ORIENTED_EDGE('',*,*,#288,.T.);
#290=CARTESIAN_POINT('',(-10.175525502,-5.939546016,22.024398662));
#291=VERTEX_POINT('',#290);
#292=CARTESIAN_POINT('',(-10.436850368,-5.486918072,22.024398662));
#293=DIRECTION('',(0.5,-0.866025404,0.));
#294=VECTOR('',#293,0.522649731);
#295=LINE('',#292,#294);
#296=EDGE_CURVE('',#283,#291,#295,.T.);
#297=ORIENTED_EDGE('',*,*,#296,.T.);
#298=CARTESIAN_POINT('',(-9.388539194,-6.453597888,20.635187681));
#299=VERTEX_POINT('',#298);
#300=CARTESIAN_POINT('',(-10.175525502,-5.939546016,22.024398662));
#301=DIRECTION('',(0.469184238,-0.306466623,-0.82821758));
#302=VECTOR('',#301,1.677350269);
#303=LINE('',#300,#302);
#304=EDGE_CURVE('',#291,#299,#303,.T.);
#305=ORIENTED_EDGE('',*,*,#304,.T.);
#306=CARTESIAN_POINT('',(-9.440228021,-5.515021817,19.245976701));
#307=VERTEX_POINT('',#306);
#308=CARTESIAN_POINT('',(-9.388539194,-6.453597888,20.635187681));
#309=DIRECTION('',(-0.030815762,0.559558781,-0.82821758));
#310=VECTOR('',#309,1.677350269);
#311=LINE('',#308,#310);
#312=EDGE_CURVE('',#299,#307,#311,.T.);
#313=ORIENTED_EDGE('',*,*,#312,.T.);
#314=CARTESIAN_POINT('',(-9.440228021,-5.515021817,19.245976701));
#315=DIRECTION('',(-0.5,0.866025404,-0.));
#316=VECTOR('',#315,0.522649731);
#317=LINE('',#314,#316);
#318=EDGE_CURVE('',#307,#273,#317,.T.);
#319=ORIENTED_EDGE('',*,*,#318,.T.);
#320=EDGE_LOOP('',(#281,#289,#297,#305,#313,#319));
#321=FACE_BOUND('',#320,.T.);
#322=ADVANCED_FACE('',(#321),#271,.T.);
#323=CARTESIAN_POINT('',(0.,11.295574455,20.54513648));
#324=DIRECTION('',(0.,-0.956343285,0.292245651));
#325=DIRECTION('',(1.,0.,0.));
#326=AXIS2_PLACEMENT_3D('',#323,#324,#325);
#327=PLANE('',#326);
#328=CARTESIAN_POINT('',(-0.14494895,10.87177679,19.158303005));
#329=VERTEX_POINT('',#328);
#330=CARTESIAN_POINT('',(0.693726185,11.296300989,20.547513986));
#331=VERTEX_POINT('',#330);
#332=CARTESIAN_POINT('',(-0.14494895,10.87177679,19.158303005));
#333=DIRECTION('',(0.5,0.253092158,0.82821758));
#334=VECTOR('',#333,1.677350269);
#335=LINE('',#332,#334);
#336=EDGE_CURVE('',#329,#331,#335,.T.);
#337=ORIENTED_EDGE('',*,*,#336,.T.);
#338=CARTESIAN_POINT('',(-0.14494895,11.720825188,21.936724967));
#339=VERTEX_POINT('',#338);
#340=CARTESIAN_POINT('',(0.693726185,11.296300989,20.547513986));
#341=DIRECTION('',(-0.5,0.253092158,0.82821758));
#342=VECTOR('',#341,1.677350269);
#343=LINE('',#340,#342);
#344=EDGE_CURVE('',#331,#339,#343,.T.);
#345=ORIENTED_EDGE('',*,*,#344,.T.);
#346=CARTESIAN_POINT('',(-0.667598681,11.720825188,21.936724967));
#347=VERTEX_POINT('',#346);
#348=CARTESIAN_POINT('',(-0.14494895,11.720825188,21.936724967));
#349=DIRECTION('',(-1.,0.,0.));
#350=VECTOR('',#349,0.522649731);
#351=LINE('',#348,#350);
#352=EDGE_CURVE('',#339,#347,#351,.T.);
#353=ORIENTED_EDGE('',*,*,#352,.T.);
#354=CARTESIAN_POINT('',(-1.506273815,11.296300989,20.547513986));
#355=VERTEX_POINT('',#354);
#356=CARTESIAN_POINT('',(-0.667598681,11.720825188,21.936724967));
#357=DIRECTION('',(-0.5,-0.253092158,-0.82821758));
#358=VECTOR('',#357,1.677350269);
#359=LINE('',#356,#358);
#360=EDGE_CURVE('',#347,#355,#359,.T.);
#361=ORIENTED_EDGE('',*,*,#360,.T.);
#362=CARTESIAN_POINT('',(-0.667598681,10.87177679,19.158303005));
#363=VERTEX_POINT('',#362);
#364=CARTESIAN_POINT('',(-1.506273815,11.296300989,20.547513986));
#365=DIRECTION('',(0.5,-0.253092158,-0.82821758));
#366=VECTOR('',#365,1.677350269);
#367=LINE('',#364,#366);
#368=EDGE_CURVE('',#355,#363,#367,.T.);
#369=ORIENTED_EDGE('',*,*,#368,.T.);
#370=CARTESIAN_POINT('',(-0.667598681,10.87177679,19.158303005));
#371=DIRECTION('',(1.,-0.,-0.));
#372=VECTOR('',#371,0.522649731);
#373=LINE('',#370,#372);
#374=EDGE_CURVE('',#363,#329,#373,.T.);
#375=ORIENTED_EDGE('',*,*,#374,.T.);
#376=EDGE_LOOP('',(#337,#345,#353,#361,#369,#375));
#377=FACE_BOUND('',#376,.T.);
#378=ADVANCED_FACE('',(#377),#327,.T.);
#379=CARTESIAN_POINT('',(8.922225459,-5.852450122,20.632810175));
#380=DIRECTION('',(-0.82821758,0.478171643,0.292245651));
#381=DIRECTION('',(-0.5,-0.866025404,0.));
#382=AXIS2_PLACEMENT_3D('',#379,#380,#381);
#383=PLANE('',#382);
#384=CARTESIAN_POINT('',(8.627680391,-5.515021817,19.245976701));
#385=VERTEX_POINT('',#384);
#386=CARTESIAN_POINT('',(8.575991564,-6.453597888,20.635187681));
#387=VERTEX_POINT('',#386);
#388=CARTESIAN_POINT('',(8.627680391,-5.515021817,19.245976701));
#389=DIRECTION('',(-0.030815762,-0.559558781,0.82821758));
#390=VECTOR('',#389,1.677350269);
#391=LINE('',#388,#390);
#392=EDGE_CURVE('',#385,#387,#391,.T.);
#393=ORIENTED_EDGE('',*,*,#392,.T.);
#394=CARTESIAN_POINT('',(9.362977872,-5.939546016,22.024398662));
#395=VERTEX_POINT('',#394);
#396=CARTESIAN_POINT('',(8.575991564,-6.453597888,20.635187681));
#397=DIRECTION('',(0.469184238,0.306466623,0.82821758));
#398=VECTOR('',#397,1.677350269);
#399=LINE('',#396,#398);
#400=EDGE_CURVE('',#387,#395,#399,.T.);
#401=ORIENTED_EDGE('',*,*,#400,.T.);
#402=CARTESIAN_POINT('',(9.624302737,-5.486918072,22.024398662));
#403=VERTEX_POINT('',#402);
#404=CARTESIAN_POINT('',(9.362977872,-5.939546016,22.024398662));
#405=DIRECTION('',(0.5,0.866025404,0.));
#406=VECTOR('',#405,0.522649731);
#407=LINE('',#404,#406);
#408=EDGE_CURVE('',#395,#403,#407,.T.);
#409=ORIENTED_EDGE('',*,*,#408,.T.);
#410=CARTESIAN_POINT('',(9.675991564,-4.548342,20.635187681));
#411=VERTEX_POINT('',#410);
#412=CARTESIAN_POINT('',(9.624302737,-5.486918072,22.024398662));
#413=DIRECTION('',(0.030815762,0.559558781,-0.82821758));
#414=VECTOR('',#413,1.677350269);
#415=LINE('',#412,#414);
#416=EDGE_CURVE('',#403,#411,#415,.T.);
#417=ORIENTED_EDGE('',*,*,#416,.T.);
#418=CARTESIAN_POINT('',(8.889005256,-5.062393873,19.245976701));
#419=VERTEX_POINT('',#418);
#420=CARTESIAN_POINT('',(9.675991564,-4.548342,20.635187681));
#421=DIRECTION('',(-0.469184238,-0.306466623,-0.82821758));
#422=VECTOR('',#421,1.677350269);
#423=LINE('',#420,#422);
#424=EDGE_CURVE('',#411,#419,#423,.T.);
#425=ORIENTED_EDGE('',*,*,#424,.T.);
#426=CARTESIAN_POINT('',(8.889005256,-5.062393873,19.245976701));
#427=DIRECTION('',(-0.5,-0.866025404,-0.));
#428=VECTOR('',#427,0.522649731);
#429=LINE('',#426,#428);
#430=EDGE_CURVE('',#419,#385,#429,.T.);
#431=ORIENTED_EDGE('',*,*,#430,.T.);
#432=EDGE_LOOP('',(#393,#401,#409,#417,#425,#431));
#433=FACE_BOUND('',#432,.T.);
#434=ADVANCED_FACE('',(#433),#383,.T.);
#435=CARTESIAN_POINT('',(-9.229264155,-4.138841865,21.529075826));
#436=DIRECTION('',(0.559558781,-0.676938587,-0.478171643));
#437=DIRECTION('',(-0.030815762,0.559558781,-0.82821758));
#438=AXIS2_PLACEMENT_3D('',#435,#436,#437);
#439=PLANE('',#438);
#440=CARTESIAN_POINT('',(-9.646092192,-4.061954996,20.93245434));
#441=VERTEX_POINT('',#440);
#442=CARTESIAN_POINT('',(-9.457422115,-4.921444906,22.370000656));
#443=VERTEX_POINT('',#442);
#444=CARTESIAN_POINT('',(-1.232074495,0.885643281,23.774357065));
#445=DIRECTION('',(-0.559558781,0.676938587,0.478171643));
#446=DIRECTION('',(0.7707668,0.637117368,-0.));
#447=AXIS2_PLACEMENT_3D('',#444,#445,#446);
#448=CIRCLE('',#447,10.166161203);
#449=EDGE_CURVE('',#441,#443,#448,.T.);
#450=ORIENTED_EDGE('',*,*,#449,.T.);
#451=CARTESIAN_POINT('',(-9.457422115,-4.921444906,22.370000656));
#452=DIRECTION('',(-0.82821758,-0.478171643,-0.292245651));
#453=VECTOR('',#452,1.182573609);
#454=LINE('',#451,#453);
#455=EDGE_CURVE('',#443,#283,#454,.T.);
#456=ORIENTED_EDGE('',*,*,#455,.T.);
#457=ORIENTED_EDGE('',*,*,#288,.F.);
#458=CARTESIAN_POINT('',(-9.646092192,-4.061954996,20.93245434));
#459=DIRECTION('',(-0.82821758,-0.478171643,-0.292245651));
#460=VECTOR('',#459,1.017180779);
#461=LINE('',#458,#460);
#462=EDGE_CURVE('',#441,#275,#461,.T.);
#463=ORIENTED_EDGE('',*,*,#462,.F.);
#464=EDGE_LOOP('',(#450,#456,#457,#463));
#465=FACE_BOUND('',#464,.T.);
#466=ADVANCED_FACE('',(#465),#439,.T.);
#467=CARTESIAN_POINT('',(-9.063861565,-4.99597458,22.462767138));
#468=DIRECTION('',(0.253092158,0.146122825,-0.956343285));
#469=DIRECTION('',(-0.5,0.866025404,-0.));
#470=AXIS2_PLACEMENT_3D('',#467,#468,#469);
#471=PLANE('',#470);
#472=CARTESIAN_POINT('',(-9.194161585,-5.372955294,22.370683676));
#473=VERTEX_POINT('',#472);
#474=CARTESIAN_POINT('',(-1.067287249,-0.327523446,25.292334258));
#475=DIRECTION('',(-0.253092158,-0.146122825,0.956343285));
#476=DIRECTION('',(-0.966719614,0.,-0.255838208));
#477=AXIS2_PLACEMENT_3D('',#474,#475,#476);
#478=CIRCLE('',#477,10.001925372);
#479=EDGE_CURVE('',#443,#473,#478,.T.);
#480=ORIENTED_EDGE('',*,*,#479,.T.);
#481=CARTESIAN_POINT('',(-9.194161585,-5.372955294,22.370683676));
#482=DIRECTION('',(-0.82821758,-0.478171643,-0.292245651));
#483=VECTOR('',#482,1.184910754);
#484=LINE('',#481,#483);
#485=EDGE_CURVE('',#473,#291,#484,.T.);
#486=ORIENTED_EDGE('',*,*,#485,.T.);
#487=ORIENTED_EDGE('',*,*,#296,.F.);
#488=ORIENTED_EDGE('',*,*,#455,.F.);
#489=EDGE_LOOP('',(#480,#486,#487,#488));
#490=FACE_BOUND('',#489,.T.);
#491=ADVANCED_FACE('',(#490),#471,.T.);
#492=CARTESIAN_POINT('',(-8.404264155,-5.567783782,21.529075826));
#493=DIRECTION('',(-0.306466623,0.823061413,-0.478171643));
#494=DIRECTION('',(-0.469184238,0.306466623,0.82821758));
#495=AXIS2_PLACEMENT_3D('',#492,#493,#494);
#496=PLANE('',#495);
#497=CARTESIAN_POINT('',(-8.538074052,-5.962581609,20.935283628));
#498=VERTEX_POINT('',#497);
#499=CARTESIAN_POINT('',(-0.075314831,-1.14055479,23.811386772));
#500=DIRECTION('',(0.306466623,-0.823061413,0.478171643));
#501=DIRECTION('',(0.,0.502343717,0.864668023));
#502=AXIS2_PLACEMENT_3D('',#499,#500,#501);
#503=CIRCLE('',#502,10.155895114);
#504=EDGE_CURVE('',#473,#498,#503,.T.);
#505=ORIENTED_EDGE('',*,*,#504,.T.);
#506=CARTESIAN_POINT('',(-8.538074052,-5.962581609,20.935283628));
#507=DIRECTION('',(-0.82821758,-0.478171643,-0.292245651));
#508=VECTOR('',#507,1.026861978);
#509=LINE('',#506,#508);
#510=EDGE_CURVE('',#498,#299,#509,.T.);
#511=ORIENTED_EDGE('',*,*,#510,.T.);
#512=ORIENTED_EDGE('',*,*,#304,.F.);
#513=ORIENTED_EDGE('',*,*,#485,.F.);
#514=EDGE_LOOP('',(#505,#511,#512,#513));
#515=FACE_BOUND('',#514,.T.);
#516=ADVANCED_FACE('',(#515),#496,.T.);
#517=CARTESIAN_POINT('',(-8.163161494,-5.428583095,20.618036488));
#518=DIRECTION('',(-0.559558781,0.676938587,0.478171643));
#519=DIRECTION('',(0.030815762,-0.559558781,0.82821758));
#520=AXIS2_PLACEMENT_3D('',#517,#518,#519);
#521=PLANE('',#520);
#522=CARTESIAN_POINT('',(-8.646587642,-5.056813331,19.526021407));
#523=VERTEX_POINT('',#522);
#524=CARTESIAN_POINT('',(-0.165971833,-0.404097949,22.863317727));
#525=DIRECTION('',(0.559558781,-0.676938587,-0.478171643));
#526=DIRECTION('',(-0.7707668,-0.637117368,0.));
#527=AXIS2_PLACEMENT_3D('',#524,#525,#526);
#528=CIRCLE('',#527,10.232602389);
#529=EDGE_CURVE('',#498,#523,#528,.T.);
#530=ORIENTED_EDGE('',*,*,#529,.T.);
#531=CARTESIAN_POINT('',(-8.646587642,-5.056813331,19.526021407));
#532=DIRECTION('',(-0.82821758,-0.478171643,-0.292245651));
#533=VECTOR('',#532,0.958251066);
#534=LINE('',#531,#533);
#535=EDGE_CURVE('',#523,#307,#534,.T.);
#536=ORIENTED_EDGE('',*,*,#535,.T.);
#537=ORIENTED_EDGE('',*,*,#312,.F.);
#538=ORIENTED_EDGE('',*,*,#510,.F.);
#539=EDGE_LOOP('',(#530,#536,#537,#538));
#540=FACE_BOUND('',#539,.T.);
#541=ADVANCED_FACE('',(#540),#521,.T.);
#542=CARTESIAN_POINT('',(-8.328564084,-4.571450381,19.684345177));
#543=DIRECTION('',(-0.253092158,-0.146122825,0.956343285));
#544=DIRECTION('',(0.5,-0.866025404,0.));
#545=AXIS2_PLACEMENT_3D('',#542,#543,#544);
#546=PLANE('',#545);
#547=CARTESIAN_POINT('',(-8.909805269,-4.605278173,19.525353526));
#548=VERTEX_POINT('',#547);
#549=CARTESIAN_POINT('',(-0.331989768,0.097000753,22.513912297));
#550=DIRECTION('',(0.253092158,0.146122825,-0.956343285));
#551=DIRECTION('',(0.966719614,-0.,0.255838208));
#552=AXIS2_PLACEMENT_3D('',#549,#550,#551);
#553=CIRCLE('',#552,10.228481285);
#554=EDGE_CURVE('',#523,#548,#553,.T.);
#555=ORIENTED_EDGE('',*,*,#554,.T.);
#556=CARTESIAN_POINT('',(-8.909805269,-4.605278173,19.525353526));
#557=DIRECTION('',(-0.82821758,-0.478171643,-0.292245651));
#558=VECTOR('',#557,0.955965723);
#559=LINE('',#556,#558);
#560=EDGE_CURVE('',#548,#273,#559,.T.);
#561=ORIENTED_EDGE('',*,*,#560,.T.);
#562=ORIENTED_EDGE('',*,*,#318,.F.);
#563=ORIENTED_EDGE('',*,*,#535,.F.);
#564=EDGE_LOOP('',(#555,#561,#562,#563));
#565=FACE_BOUND('',#564,.T.);
#566=ADVANCED_FACE('',(#565),#546,.T.);
#567=CARTESIAN_POINT('',(-8.988161494,-3.999641179,20.618036488));
#568=DIRECTION('',(0.306466623,-0.823061413,0.478171643));
#569=DIRECTION('',(0.469184238,-0.306466623,-0.82821758));
#570=AXIS2_PLACEMENT_3D('',#567,#568,#569);
#571=PLANE('',#570);
#572=CARTESIAN_POINT('',(-0.659212169,0.427587813,22.900347434));
#573=DIRECTION('',(-0.306466623,0.823061413,-0.478171643));
#574=DIRECTION('',(0.,-0.502343717,-0.864668023));
#575=AXIS2_PLACEMENT_3D('',#572,#573,#574);
#576=CIRCLE('',#575,10.236826188);
#577=EDGE_CURVE('',#548,#441,#576,.T.);
#578=ORIENTED_EDGE('',*,*,#577,.T.);
#579=ORIENTED_EDGE('',*,*,#462,.T.);
#580=ORIENTED_EDGE('',*,*,#280,.F.);
#581=ORIENTED_EDGE('',*,*,#560,.F.);
#582=EDGE_LOOP('',(#578,#579,#580,#581));
#583=FACE_BOUND('',#582,.T.);
#584=ADVANCED_FACE('',(#583),#571,.T.);
#585=CARTESIAN_POINT('',(0.418726185,9.714083762,21.529075826));
#586=DIRECTION('',(-0.866025404,-0.146122825,-0.478171643));
#587=DIRECTION('',(0.5,-0.253092158,-0.82821758));
#588=AXIS2_PLACEMENT_3D('',#585,#586,#587);
#589=PLANE('',#588);
#590=CARTESIAN_POINT('',(0.693726185,9.942446302,20.961233777));
#591=VERTEX_POINT('',#590);
#592=CARTESIAN_POINT('',(-0.14494895,10.216191658,22.396520745));
#593=VERTEX_POINT('',#592);
#594=CARTESIAN_POINT('',(0.747597605,0.21050478,23.837616753));
#595=DIRECTION('',(0.866025404,0.146122825,0.478171643));
#596=DIRECTION('',(-0.483359807,0.,0.875421782));
#597=AXIS2_PLACEMENT_3D('',#594,#595,#596);
#598=CIRCLE('',#597,10.148259307);
#599=EDGE_CURVE('',#591,#593,#598,.T.);
#600=ORIENTED_EDGE('',*,*,#599,.T.);
#601=CARTESIAN_POINT('',(-0.14494895,10.216191658,22.396520745));
#602=DIRECTION('',(0.,0.956343285,-0.292245651));
#603=VECTOR('',#602,1.57331949);
#604=LINE('',#601,#603);
#605=EDGE_CURVE('',#593,#339,#604,.T.);
#606=ORIENTED_EDGE('',*,*,#605,.T.);
#607=ORIENTED_EDGE('',*,*,#344,.F.);
#608=CARTESIAN_POINT('',(0.693726185,9.942446302,20.961233777));
#609=DIRECTION('',(0.,0.956343285,-0.292245651));
#610=VECTOR('',#609,1.415657649);
#611=LINE('',#608,#610);
#612=EDGE_CURVE('',#591,#331,#611,.T.);
#613=ORIENTED_EDGE('',*,*,#612,.F.);
#614=EDGE_LOOP('',(#600,#606,#607,#613));
#615=FACE_BOUND('',#614,.T.);
#616=ADVANCED_FACE('',(#615),#589,.T.);
#617=CARTESIAN_POINT('',(-0.406273815,9.999407274,22.462767138));
#618=DIRECTION('',(-0.,-0.292245651,-0.956343285));
#619=DIRECTION('',(1.,-0.,-0.));
#620=AXIS2_PLACEMENT_3D('',#617,#618,#619);
#621=PLANE('',#620);
#622=CARTESIAN_POINT('',(-0.667598681,10.220879925,22.395088074));
#623=VERTEX_POINT('',#622);
#624=CARTESIAN_POINT('',(-0.5,0.662297846,25.316062248));
#625=DIRECTION('',(0.,0.292245651,0.956343285));
#626=DIRECTION('',(0.,0.956343285,-0.292245651));
#627=AXIS2_PLACEMENT_3D('',#624,#625,#626);
#628=CIRCLE('',#627,9.996332867);
#629=EDGE_CURVE('',#593,#623,#628,.T.);
#630=ORIENTED_EDGE('',*,*,#629,.T.);
#631=CARTESIAN_POINT('',(-0.667598681,10.220879925,22.395088074));
#632=DIRECTION('',(0.,0.956343285,-0.292245651));
#633=VECTOR('',#632,1.568417205);
#634=LINE('',#631,#633);
#635=EDGE_CURVE('',#623,#347,#634,.T.);
#636=ORIENTED_EDGE('',*,*,#635,.T.);
#637=ORIENTED_EDGE('',*,*,#352,.F.);
#638=ORIENTED_EDGE('',*,*,#605,.F.);
#639=EDGE_LOOP('',(#630,#636,#637,#638));
#640=FACE_BOUND('',#639,.T.);
#641=ADVANCED_FACE('',(#640),#621,.T.);
#642=CARTESIAN_POINT('',(-1.231273815,9.714083762,21.529075826));
#643=DIRECTION('',(0.866025404,-0.146122825,-0.478171643));
#644=DIRECTION('',(0.5,0.253092158,0.82821758));
#645=AXIS2_PLACEMENT_3D('',#642,#643,#644);
#646=PLANE('',#645);
#647=CARTESIAN_POINT('',(-1.506273815,9.96185946,20.955301377));
#648=VERTEX_POINT('',#647);
#649=CARTESIAN_POINT('',(-1.607008328,0.186783417,23.759991079));
#650=DIRECTION('',(-0.866025404,0.146122825,0.478171643));
#651=DIRECTION('',(-0.483359807,0.,-0.875421782));
#652=AXIS2_PLACEMENT_3D('',#649,#650,#651);
#653=CIRCLE('',#652,10.169982469);
#654=EDGE_CURVE('',#623,#648,#653,.T.);
#655=ORIENTED_EDGE('',*,*,#654,.T.);
#656=CARTESIAN_POINT('',(-1.506273815,9.96185946,20.955301377));
#657=DIRECTION('',(0.,0.956343285,-0.292245651));
#658=VECTOR('',#657,1.395358287);
#659=LINE('',#656,#658);
#660=EDGE_CURVE('',#648,#355,#659,.T.);
#661=ORIENTED_EDGE('',*,*,#660,.T.);
#662=ORIENTED_EDGE('',*,*,#360,.F.);
#663=ORIENTED_EDGE('',*,*,#635,.F.);
#664=EDGE_LOOP('',(#655,#661,#662,#663));
#665=FACE_BOUND('',#664,.T.);
#666=ADVANCED_FACE('',(#665),#646,.T.);
#667=CARTESIAN_POINT('',(-1.231273815,9.435682389,20.618036488));
#668=DIRECTION('',(0.866025404,0.146122825,0.478171643));
#669=DIRECTION('',(-0.5,0.253092158,0.82821758));
#670=AXIS2_PLACEMENT_3D('',#667,#668,#669);
#671=PLANE('',#670);
#672=CARTESIAN_POINT('',(-0.667598681,9.595386868,19.548350606));
#673=VERTEX_POINT('',#672);
#674=CARTESIAN_POINT('',(-0.902402395,-0.067896594,22.926577415));
#675=DIRECTION('',(-0.866025404,-0.146122825,-0.478171643));
#676=DIRECTION('',(0.483359807,-0.,-0.875421782));
#677=AXIS2_PLACEMENT_3D('',#674,#675,#676);
#678=CIRCLE('',#677,10.239462702);
#679=EDGE_CURVE('',#648,#673,#678,.T.);
#680=ORIENTED_EDGE('',*,*,#679,.T.);
#681=CARTESIAN_POINT('',(-0.667598681,9.595386868,19.548350606));
#682=DIRECTION('',(0.,0.956343285,-0.292245651));
#683=VECTOR('',#682,1.334656647);
#684=LINE('',#681,#683);
#685=EDGE_CURVE('',#673,#363,#684,.T.);
#686=ORIENTED_EDGE('',*,*,#685,.T.);
#687=ORIENTED_EDGE('',*,*,#368,.F.);
#688=ORIENTED_EDGE('',*,*,#660,.F.);
#689=EDGE_LOOP('',(#680,#686,#687,#688));
#690=FACE_BOUND('',#689,.T.);
#691=ADVANCED_FACE('',(#690),#671,.T.);
#692=CARTESIAN_POINT('',(-0.406273815,9.150358877,19.684345177));
#693=DIRECTION('',(0.,0.292245651,0.956343285));
#694=DIRECTION('',(-1.,0.,0.));
#695=AXIS2_PLACEMENT_3D('',#692,#693,#694);
#696=PLANE('',#695);
#697=CARTESIAN_POINT('',(-0.14494895,9.590805795,19.54975052));
#698=VERTEX_POINT('',#697);
#699=CARTESIAN_POINT('',(-0.5,-0.186750551,22.537640286));
#700=DIRECTION('',(-0.,-0.292245651,-0.956343285));
#701=DIRECTION('',(0.,-0.956343285,0.292245651));
#702=AXIS2_PLACEMENT_3D('',#699,#700,#701);
#703=CIRCLE('',#702,10.230061319);
#704=EDGE_CURVE('',#673,#698,#703,.T.);
#705=ORIENTED_EDGE('',*,*,#704,.T.);
#706=CARTESIAN_POINT('',(-0.14494895,9.590805795,19.54975052));
#707=DIRECTION('',(0.,0.956343285,-0.292245651));
#708=VECTOR('',#707,1.339446844);
#709=LINE('',#706,#708);
#710=EDGE_CURVE('',#698,#329,#709,.T.);
#711=ORIENTED_EDGE('',*,*,#710,.T.);
#712=ORIENTED_EDGE('',*,*,#374,.F.);
#713=ORIENTED_EDGE('',*,*,#685,.F.);
#714=EDGE_LOOP('',(#705,#711,#712,#713));
#715=FACE_BOUND('',#714,.T.);
#716=ADVANCED_FACE('',(#715),#696,.T.);
#717=CARTESIAN_POINT('',(0.418726185,9.435682389,20.618036488));
#718=DIRECTION('',(-0.866025404,0.146122825,0.478171643));
#719=DIRECTION('',(-0.5,-0.253092158,-0.82821758));
#720=AXIS2_PLACEMENT_3D('',#717,#718,#719);
#721=PLANE('',#720);
#722=CARTESIAN_POINT('',(0.042991672,-0.091617956,22.848951741));
#723=DIRECTION('',(0.866025404,-0.146122825,-0.478171643));
#724=DIRECTION('',(0.483359807,0.,0.875421782));
#725=AXIS2_PLACEMENT_3D('',#722,#723,#724);
#726=CIRCLE('',#725,10.230805445);
#727=EDGE_CURVE('',#698,#591,#726,.T.);
#728=ORIENTED_EDGE('',*,*,#727,.T.);
#729=ORIENTED_EDGE('',*,*,#612,.T.);
#730=ORIENTED_EDGE('',*,*,#336,.F.);
#731=ORIENTED_EDGE('',*,*,#710,.F.);
#732=EDGE_LOOP('',(#728,#729,#730,#731));
#733=FACE_BOUND('',#732,.T.);
#734=ADVANCED_FACE('',(#733),#721,.T.);
#735=CARTESIAN_POINT('',(7.591716525,-5.567783782,21.529075826));
#736=DIRECTION('',(0.306466623,0.823061413,-0.478171643));
#737=DIRECTION('',(-0.469184238,-0.306466623,-0.82821758));
#738=AXIS2_PLACEMENT_3D('',#735,#736,#737);
#739=PLANE('',#738);
#740=CARTESIAN_POINT('',(7.602190881,-5.891373802,20.978803925));
#741=VERTEX_POINT('',#740);
#742=CARTESIAN_POINT('',(8.24613871,-5.294738625,22.418487601));
#743=VERTEX_POINT('',#742);
#744=CARTESIAN_POINT('',(-0.907079307,-1.093271645,23.783916818));
#745=DIRECTION('',(-0.306466623,-0.823061413,0.478171643));
#746=DIRECTION('',(-0.,0.502343717,0.864668023));
#747=AXIS2_PLACEMENT_3D('',#744,#745,#746);
#748=CIRCLE('',#747,10.163568359);
#749=EDGE_CURVE('',#741,#743,#748,.T.);
#750=ORIENTED_EDGE('',*,*,#749,.T.);
#751=CARTESIAN_POINT('',(8.24613871,-5.294738625,22.418487601));
#752=DIRECTION('',(0.82821758,-0.478171643,-0.292245651));
#753=VECTOR('',#752,1.348485216);
#754=LINE('',#751,#753);
#755=EDGE_CURVE('',#743,#395,#754,.T.);
#756=ORIENTED_EDGE('',*,*,#755,.T.);
#757=ORIENTED_EDGE('',*,*,#400,.F.);
#758=CARTESIAN_POINT('',(7.602190881,-5.891373802,20.978803925));
#759=DIRECTION('',(0.82821758,-0.478171643,-0.292245651));
#760=VECTOR('',#759,1.175778812);
#761=LINE('',#758,#760);
#762=EDGE_CURVE('',#741,#387,#761,.T.);
#763=ORIENTED_EDGE('',*,*,#762,.F.);
#764=EDGE_LOOP('',(#750,#756,#757,#763));
#765=FACE_BOUND('',#764,.T.);
#766=ADVANCED_FACE('',(#765),#739,.T.);
#767=CARTESIAN_POINT('',(8.251313934,-4.99597458,22.462767138));
#768=DIRECTION('',(-0.253092158,0.146122825,-0.956343285));
#769=DIRECTION('',(-0.5,-0.866025404,-0.));
#770=AXIS2_PLACEMENT_3D('',#767,#768,#769);
#771=PLANE('',#770);
#772=CARTESIAN_POINT('',(8.505339202,-4.840884173,22.41923721));
#773=VERTEX_POINT('',#772);
#774=CARTESIAN_POINT('',(0.07929463,-0.334455911,25.33770579));
#775=DIRECTION('',(0.253092158,-0.146122825,0.956343285));
#776=DIRECTION('',(-0.966719614,-0.,0.255838208));
#777=AXIS2_PLACEMENT_3D('',#774,#775,#776);
#778=CIRCLE('',#777,9.991175189);
#779=EDGE_CURVE('',#743,#773,#778,.T.);
#780=ORIENTED_EDGE('',*,*,#779,.T.);
#781=CARTESIAN_POINT('',(8.505339202,-4.840884173,22.41923721));
#782=DIRECTION('',(0.82821758,-0.478171643,-0.292245651));
#783=VECTOR('',#782,1.35105021);
#784=LINE('',#781,#783);
#785=EDGE_CURVE('',#773,#403,#784,.T.);
#786=ORIENTED_EDGE('',*,*,#785,.T.);
#787=ORIENTED_EDGE('',*,*,#408,.F.);
#788=ORIENTED_EDGE('',*,*,#755,.F.);
#789=EDGE_LOOP('',(#780,#786,#787,#788));
#790=FACE_BOUND('',#789,.T.);
#791=ADVANCED_FACE('',(#790),#771,.T.);
#792=CARTESIAN_POINT('',(8.416716525,-4.138841865,21.529075826));
#793=DIRECTION('',(-0.559558781,-0.676938587,-0.478171643));
#794=DIRECTION('',(-0.030815762,-0.559558781,0.82821758));
#795=AXIS2_PLACEMENT_3D('',#792,#793,#794);
#796=PLANE('',#795);
#797=CARTESIAN_POINT('',(8.693397228,-3.981040896,20.981906862));
#798=VERTEX_POINT('',#797);
#799=CARTESIAN_POINT('',(0.290766962,0.956647788,23.824512785));
#800=DIRECTION('',(0.559558781,0.676938587,0.478171643));
#801=DIRECTION('',(0.7707668,-0.637117368,-0.));
#802=AXIS2_PLACEMENT_3D('',#799,#800,#801);
#803=CIRCLE('',#802,10.152111769);
#804=EDGE_CURVE('',#773,#798,#803,.T.);
#805=ORIENTED_EDGE('',*,*,#804,.T.);
#806=CARTESIAN_POINT('',(8.693397228,-3.981040896,20.981906862));
#807=DIRECTION('',(0.82821758,-0.478171643,-0.292245651));
#808=VECTOR('',#807,1.186396376);
#809=LINE('',#806,#808);
#810=EDGE_CURVE('',#798,#411,#809,.T.);
#811=ORIENTED_EDGE('',*,*,#810,.T.);
#812=ORIENTED_EDGE('',*,*,#416,.F.);
#813=ORIENTED_EDGE('',*,*,#785,.F.);
#814=EDGE_LOOP('',(#805,#811,#812,#813));
#815=FACE_BOUND('',#814,.T.);
#816=ADVANCED_FACE('',(#815),#796,.T.);
#817=CARTESIAN_POINT('',(8.175613863,-3.999641179,20.618036488));
#818=DIRECTION('',(-0.306466623,-0.823061413,0.478171643));
#819=DIRECTION('',(0.469184238,0.306466623,0.82821758));
#820=AXIS2_PLACEMENT_3D('',#817,#818,#819);
#821=PLANE('',#820);
#822=CARTESIAN_POINT('',(7.969135245,-4.531306675,19.570562916));
#823=VERTEX_POINT('',#822);
#824=CARTESIAN_POINT('',(-0.323181968,0.474870958,22.87287748));
#825=DIRECTION('',(0.306466623,0.823061413,-0.478171643));
#826=DIRECTION('',(-0.,-0.502343717,-0.864668023));
#827=AXIS2_PLACEMENT_3D('',#824,#825,#826);
#828=CIRCLE('',#827,10.233749105);
#829=EDGE_CURVE('',#798,#823,#828,.T.);
#830=ORIENTED_EDGE('',*,*,#829,.T.);
#831=CARTESIAN_POINT('',(7.969135245,-4.531306675,19.570562916));
#832=DIRECTION('',(0.82821758,-0.478171643,-0.292245651));
#833=VECTOR('',#832,1.110662262);
#834=LINE('',#831,#833);
#835=EDGE_CURVE('',#823,#419,#834,.T.);
#836=ORIENTED_EDGE('',*,*,#835,.T.);
#837=ORIENTED_EDGE('',*,*,#424,.F.);
#838=ORIENTED_EDGE('',*,*,#810,.F.);
#839=EDGE_LOOP('',(#830,#836,#837,#838));
#840=FACE_BOUND('',#839,.T.);
#841=ADVANCED_FACE('',(#840),#821,.T.);
#842=CARTESIAN_POINT('',(7.516016453,-4.571450381,19.684345177));
#843=DIRECTION('',(0.253092158,-0.146122825,0.956343285));
#844=DIRECTION('',(0.5,0.866025404,0.));
#845=AXIS2_PLACEMENT_3D('',#842,#843,#844);
#846=PLANE('',#845);
#847=CARTESIAN_POINT('',(7.709884831,-4.985132303,19.569830923));
#848=VERTEX_POINT('',#847);
#849=CARTESIAN_POINT('',(-0.656002851,0.090068288,22.559283828));
#850=DIRECTION('',(-0.253092158,0.146122825,-0.956343285));
#851=DIRECTION('',(0.966719614,0.,-0.255838208));
#852=AXIS2_PLACEMENT_3D('',#849,#850,#851);
#853=CIRCLE('',#852,10.231449868);
#854=EDGE_CURVE('',#823,#848,#853,.T.);
#855=ORIENTED_EDGE('',*,*,#854,.T.);
#856=CARTESIAN_POINT('',(7.709884831,-4.985132303,19.569830923));
#857=DIRECTION('',(0.82821758,-0.478171643,-0.292245651));
#858=VECTOR('',#857,1.108157545);
#859=LINE('',#856,#858);
#860=EDGE_CURVE('',#848,#385,#859,.T.);
#861=ORIENTED_EDGE('',*,*,#860,.T.);
#862=ORIENTED_EDGE('',*,*,#430,.F.);
#863=ORIENTED_EDGE('',*,*,#835,.F.);
#864=EDGE_LOOP('',(#855,#861,#862,#863));
#865=FACE_BOUND('',#864,.T.);
#866=ADVANCED_FACE('',(#865),#846,.T.);
#867=CARTESIAN_POINT('',(7.350613863,-5.428583095,20.618036488));
#868=DIRECTION('',(0.559558781,0.676938587,0.478171643));
#869=DIRECTION('',(0.030815762,0.559558781,-0.82821758));
#870=AXIS2_PLACEMENT_3D('',#867,#868,#869);
#871=PLANE('',#870);
#872=CARTESIAN_POINT('',(-0.7753357,-0.333093441,22.913473447));
#873=DIRECTION('',(-0.559558781,-0.676938587,-0.478171643));
#874=DIRECTION('',(-0.7707668,0.637117368,0.));
#875=AXIS2_PLACEMENT_3D('',#872,#873,#874);
#876=CIRCLE('',#875,10.238182375);
#877=EDGE_CURVE('',#848,#741,#876,.T.);
#878=ORIENTED_EDGE('',*,*,#877,.T.);
#879=ORIENTED_EDGE('',*,*,#762,.T.);
#880=ORIENTED_EDGE('',*,*,#392,.F.);
#881=ORIENTED_EDGE('',*,*,#860,.F.);
#882=EDGE_LOOP('',(#878,#879,#880,#881));
#883=FACE_BOUND('',#882,.T.);
#884=ADVANCED_FACE('',(#883),#871,.T.);
#885=CARTESIAN_POINT('',(-0.,5.502486038,15.5));
#886=DIRECTION('',(-1.,-0.,0.));
#887=DIRECTION('',(0.,-1.,0.));
#888=AXIS2_PLACEMENT_3D('',#885,#886,#887);
#889=CYLINDRICAL_SURFACE('',#888,12.);
#890=CARTESIAN_POINT('',(-5.906273815,17.502486038,15.5));
#891=VERTEX_POINT('',#890);
#892=CARTESIAN_POINT('',(-5.906273815,7.651977623,27.305917411));
#893=VERTEX_POINT('',#892);
#894=CARTESIAN_POINT('',(-5.906273815,5.502486038,15.5));
#895=DIRECTION('',(1.,0.,-0.));
#896=DIRECTION('',(0.,-1.,0.));
#897=AXIS2_PLACEMENT_3D('',#894,#895,#896);
#898=CIRCLE('',#897,12.);
#899=EDGE_CURVE('',#891,#893,#898,.T.);
#900=ORIENTED_EDGE('',*,*,#899,.T.);
#901=CARTESIAN_POINT('',(5.093726185,7.501353927,27.332350872));
#902=VERTEX_POINT('',#901);
#903=CARTESIAN_POINT('',(-5.906273815,7.651977623,27.305917411));
#904=CARTESIAN_POINT('',(-5.512507873,7.960719184,27.249706029));
#905=CARTESIAN_POINT('',(-5.100955805,8.23605935,27.187147079));
#906=CARTESIAN_POINT('',(-4.670034463,8.476955231,27.125512162));
#907=CARTESIAN_POINT('',(-4.239113121,8.717851112,27.063877245));
#908=CARTESIAN_POINT('',(-3.788268877,8.924576139,27.003060109));
#909=CARTESIAN_POINT('',(-3.316281544,9.092816648,26.950306813));
#910=CARTESIAN_POINT('',(-2.844294211,9.261057157,26.897553518));
#911=CARTESIAN_POINT('',(-2.364345526,9.386164515,26.854497529));
#912=CARTESIAN_POINT('',(-1.876194305,9.468283998,26.825742649));
#913=CARTESIAN_POINT('',(-1.388043084,9.550403481,26.796987768));
#914=CARTESIAN_POINT('',(-0.890794812,9.589563895,26.782546189));
#915=CARTESIAN_POINT('',(-0.386494713,9.582642374,26.785048705));
#916=CARTESIAN_POINT('',(0.117805385,9.575720854,26.787551221));
#917=CARTESIAN_POINT('',(0.613185418,9.523086787,26.806856894));
#918=CARTESIAN_POINT('',(1.10029032,9.427439287,26.839962169));
#919=CARTESIAN_POINT('',(1.343842771,9.379615538,26.856514807));
#920=CARTESIAN_POINT('',(1.585318344,9.320981179,26.876486078));
#921=CARTESIAN_POINT('',(1.824753843,9.251559267,26.899317959));
#922=CARTESIAN_POINT('',(2.064189342,9.182137355,26.922149839));
#923=CARTESIAN_POINT('',(2.302569305,9.101487567,26.947971504));
#924=CARTESIAN_POINT('',(2.535164741,9.011456093,26.975501259));
#925=CARTESIAN_POINT('',(3.000355613,8.831393147,27.03056077));
#926=CARTESIAN_POINT('',(3.444893153,8.613707086,27.092580226));
#927=CARTESIAN_POINT('',(3.871181639,8.361168551,27.154524198));
#928=CARTESIAN_POINT('',(4.297470126,8.108630016,27.216468171));
#929=CARTESIAN_POINT('',(4.707008557,7.819722644,27.278568234));
#930=CARTESIAN_POINT('',(5.093726185,7.501353927,27.332350872));
#931=B_SPLINE_CURVE_WITH_KNOTS('',3,(#903,#904,#905,#906,#907,#908,#909,#910,#911,#912,#913,#914,#915,#916,#917,#918,#919,#920,#921,#922,#923,#924,#925,#926,#927,#928,
#929,#930),.UNSPECIFIED.,.F.,.F.,(4,3,3,3,3,3,3,3,3,4),(0.000000253,0.001492787,0.002985321,0.004477855,0.005970388,0.007462922,0.008209189,0.008955456,0.01044799,0.011940524),.UNSPECIFIED.);
#932=EDGE_CURVE('',#893,#902,#931,.T.);
#933=ORIENTED_EDGE('',*,*,#932,.T.);
#934=CARTESIAN_POINT('',(5.093726185,17.502486038,15.5));
#935=VERTEX_POINT('',#934);
#936=CARTESIAN_POINT('',(5.093726185,5.502486038,15.5));
#937=DIRECTION('',(-1.,-0.,0.));
#938=DIRECTION('',(0.,-1.,0.));
#939=AXIS2_PLACEMENT_3D('',#936,#937,#938);
#940=CIRCLE('',#939,12.);
#941=EDGE_CURVE('',#902,#935,#940,.T.);
#942=ORIENTED_EDGE('',*,*,#941,.T.);
#943=CARTESIAN_POINT('',(-5.906273815,17.502486038,15.5));
#944=DIRECTION('',(1.,0.,-0.));
#945=VECTOR('',#944,11.);
#946=LINE('',#943,#945);
#947=EDGE_CURVE('',#891,#935,#946,.T.);
#948=ORIENTED_EDGE('',*,*,#947,.F.);
#949=EDGE_LOOP('',(#900,#933,#942,#948));
#950=FACE_BOUND('',#949,.T.);
#951=ADVANCED_FACE('',(#950),#889,.T.);
#952=CARTESIAN_POINT('',(5.093726185,5.502486038,15.5));
#953=DIRECTION('',(0.,0.,1.));
#954=DIRECTION('',(1.,0.,-0.));
#955=AXIS2_PLACEMENT_3D('',#952,#953,#954);
#956=SPHERICAL_SURFACE('',#955,12.);
#957=ORIENTED_EDGE('',*,*,#941,.F.);
#958=CARTESIAN_POINT('',(7.066074369,5.502486038,27.336800355));
#959=VERTEX_POINT('',#958);
#960=CARTESIAN_POINT('',(1.389873533,1.859047509,20.564582379));
#961=DIRECTION('',(0.510484678,0.502158082,-0.698027689));
#962=DIRECTION('',(-0.807177598,0.,-0.59030867));
#963=AXIS2_PLACEMENT_3D('',#960,#961,#962);
#964=CIRCLE('',#963,9.558077032);
#965=EDGE_CURVE('',#902,#959,#964,.T.);
#966=ORIENTED_EDGE('',*,*,#965,.T.);
#967=CARTESIAN_POINT('',(17.093726185,5.502486038,15.5));
#968=VERTEX_POINT('',#967);
#969=CARTESIAN_POINT('',(5.093726185,5.502486038,15.5));
#970=DIRECTION('',(0.,-1.,0.));
#971=DIRECTION('',(1.,0.,0.));
#972=AXIS2_PLACEMENT_3D('',#969,#970,#971);
#973=CIRCLE('',#972,12.);
#974=EDGE_CURVE('',#968,#959,#973,.T.);
#975=ORIENTED_EDGE('',*,*,#974,.F.);
#976=CARTESIAN_POINT('',(5.093726185,5.502486038,15.5));
#977=DIRECTION('',(-0.,-0.,1.));
#978=DIRECTION('',(-1.,0.,0.));
#979=AXIS2_PLACEMENT_3D('',#976,#977,#978);
#980=CIRCLE('',#979,12.);
#981=EDGE_CURVE('',#968,#935,#980,.T.);
#982=ORIENTED_EDGE('',*,*,#981,.T.);
#983=EDGE_LOOP('',(#957,#966,#975,#982));
#984=FACE_BOUND('',#983,.T.);
#985=ADVANCED_FACE('',(#984),#956,.T.);
#986=CARTESIAN_POINT('',(5.093726185,0.002486038,15.5));
#987=DIRECTION('',(0.,-1.,0.));
#988=DIRECTION('',(1.,0.,0.));
#989=AXIS2_PLACEMENT_3D('',#986,#987,#988);
#990=CYLINDRICAL_SURFACE('',#989,12.);
#991=ORIENTED_EDGE('',*,*,#974,.T.);
#992=CARTESIAN_POINT('',(7.070055186,-5.497513962,27.336136349));
#993=VERTEX_POINT('',#992);
#994=CARTESIAN_POINT('',(7.066074369,5.502486038,27.336800355));
#995=CARTESIAN_POINT('',(7.3789688,5.111929588,27.284664122));
#996=CARTESIAN_POINT('',(7.658943687,4.703482368,27.225344014));
#997=CARTESIAN_POINT('',(7.904949415,4.27558393,27.166062916));
#998=CARTESIAN_POINT('',(8.150955143,3.847685492,27.106781818));
#999=CARTESIAN_POINT('',(8.36307478,3.400306499,27.047491611));
#1000=CARTESIAN_POINT('',(8.537625692,2.930658325,26.995197092));
#1001=CARTESIAN_POINT('',(8.712176604,2.461010152,26.942902573));
#1002=CARTESIAN_POINT('',(8.843899631,1.983088929,26.899343454));
#1003=CARTESIAN_POINT('',(8.932939046,1.496640662,26.869276345));
#1004=CARTESIAN_POINT('',(9.021978461,1.010192394,26.839209236));
#1005=CARTESIAN_POINT('',(9.068380893,0.515225329,26.822637522));
#1006=CARTESIAN_POINT('',(9.069051505,0.011011507,26.822402068));
#1007=CARTESIAN_POINT('',(9.069722117,-0.493202315,26.822166615));
#1008=CARTESIAN_POINT('',(9.024559229,-0.989716003,26.838307753));
#1009=CARTESIAN_POINT('',(8.93634361,-1.47792056,26.868126113));
#1010=CARTESIAN_POINT('',(8.8922358,-1.722022839,26.883035293));
#1011=CARTESIAN_POINT('',(8.837308471,-1.964141223,26.901331582));
#1012=CARTESIAN_POINT('',(8.771596117,-2.204310191,26.922489779));
#1013=CARTESIAN_POINT('',(8.705883763,-2.444479159,26.943647977));
#1014=CARTESIAN_POINT('',(8.628952268,-2.683788489,26.967796376));
#1015=CARTESIAN_POINT('',(8.542336795,-2.9179523,26.993784618));
#1016=CARTESIAN_POINT('',(8.36910585,-3.386279923,27.045761103));
#1017=CARTESIAN_POINT('',(8.157935195,-3.834071237,27.104945322));
#1018=CARTESIAN_POINT('',(7.911750678,-4.263733752,27.164421887));
#1019=CARTESIAN_POINT('',(7.78865842,-4.478565009,27.194160169));
#1020=CARTESIAN_POINT('',(7.656773026,-4.688844243,27.22396634));
#1021=CARTESIAN_POINT('',(7.516212622,-4.894749336,27.252938333));
#1022=CARTESIAN_POINT('',(7.375652218,-5.100654429,27.281910326));
#1023=CARTESIAN_POINT('',(7.226469019,-5.302025685,27.31001935));
#1024=CARTESIAN_POINT('',(7.070055186,-5.497513962,27.336136349));
#1025=B_SPLINE_CURVE_WITH_KNOTS('',3,(#994,#995,#996,#997,#998,#999,#1000,#1001,#1002,#1003,#1004,#1005,#1006,#1007,#1008,#1009,#1010,#1011,#1012,#1013,#1014,#1015,#1016,#1017,#1018,#1019,
#1020,#1021,#1022,#1023,#1024),.UNSPECIFIED.,.F.,.F.,(4,3,3,3,3,3,3,3,3,3,4),(0.000000255,0.001491601,0.002982947,0.004474293,0.00596564,0.007456986,0.008202659,0.008948332,0.010439679,0.011185352,0.011931025),.UNSPECIFIED.);
#1026=EDGE_CURVE('',#959,#993,#1025,.T.);
#1027=ORIENTED_EDGE('',*,*,#1026,.T.);
#1028=CARTESIAN_POINT('',(17.093726185,-5.497513962,15.5));
#1029=VERTEX_POINT('',#1028);
#1030=CARTESIAN_POINT('',(5.093726185,-5.497513962,15.5));
#1031=DIRECTION('',(-0.,1.,-0.));
#1032=DIRECTION('',(1.,0.,0.));
#1033=AXIS2_PLACEMENT_3D('',#1030,#1031,#1032);
#1034=CIRCLE('',#1033,12.);
#1035=EDGE_CURVE('',#993,#1029,#1034,.T.);
#1036=ORIENTED_EDGE('',*,*,#1035,.T.);
#1037=CARTESIAN_POINT('',(17.093726185,5.502486038,15.5));
#1038=DIRECTION('',(0.,-1.,0.));
#1039=VECTOR('',#1038,11.);
#1040=LINE('',#1037,#1039);
#1041=EDGE_CURVE('',#968,#1029,#1040,.T.);
#1042=ORIENTED_EDGE('',*,*,#1041,.F.);
#1043=EDGE_LOOP('',(#991,#1027,#1036,#1042));
#1044=FACE_BOUND('',#1043,.T.);
#1045=ADVANCED_FACE('',(#1044),#990,.T.);
#1046=CARTESIAN_POINT('',(5.093726185,-5.497513962,15.5));
#1047=DIRECTION('',(0.,0.,1.));
#1048=DIRECTION('',(1.,0.,-0.));
#1049=AXIS2_PLACEMENT_3D('',#1046,#1047,#1048);
#1050=SPHERICAL_SURFACE('',#1049,12.);
#1051=ORIENTED_EDGE('',*,*,#1035,.F.);
#1052=CARTESIAN_POINT('',(5.093726185,-7.501871823,27.331422128));
#1053=VERTEX_POINT('',#1052);
#1054=CARTESIAN_POINT('',(1.389460207,-1.856961446,20.565147555));
#1055=DIRECTION('',(0.510600982,-0.501818633,-0.698186721));
#1056=DIRECTION('',(-0.807177598,-0.,-0.59030867));
#1057=AXIS2_PLACEMENT_3D('',#1054,#1055,#1056);
#1058=CIRCLE('',#1057,9.558717027);
#1059=EDGE_CURVE('',#993,#1053,#1058,.T.);
#1060=ORIENTED_EDGE('',*,*,#1059,.T.);
#1061=CARTESIAN_POINT('',(5.093726185,-17.497513962,15.5));
#1062=VERTEX_POINT('',#1061);
#1063=CARTESIAN_POINT('',(5.093726185,-5.497513962,15.5));
#1064=DIRECTION('',(-1.,-0.,-0.));
#1065=DIRECTION('',(-0.,1.,0.));
#1066=AXIS2_PLACEMENT_3D('',#1063,#1064,#1065);
#1067=CIRCLE('',#1066,12.);
#1068=EDGE_CURVE('',#1062,#1053,#1067,.T.);
#1069=ORIENTED_EDGE('',*,*,#1068,.F.);
#1070=CARTESIAN_POINT('',(5.093726185,-5.497513962,15.5));
#1071=DIRECTION('',(-0.,-0.,-1.));
#1072=DIRECTION('',(1.,0.,-0.));
#1073=AXIS2_PLACEMENT_3D('',#1070,#1071,#1072);
#1074=CIRCLE('',#1073,12.);
#1075=EDGE_CURVE('',#1029,#1062,#1074,.T.);
#1076=ORIENTED_EDGE('',*,*,#1075,.F.);
#1077=EDGE_LOOP('',(#1051,#1060,#1069,#1076));
#1078=FACE_BOUND('',#1077,.T.);
#1079=ADVANCED_FACE('',(#1078),#1050,.T.);
#1080=CARTESIAN_POINT('',(0.,-5.497513962,15.5));
#1081=DIRECTION('',(1.,0.,0.));
#1082=DIRECTION('',(-0.,1.,0.));
#1083=AXIS2_PLACEMENT_3D('',#1080,#1081,#1082);
#1084=CYLINDRICAL_SURFACE('',#1083,12.);
#1085=ORIENTED_EDGE('',*,*,#1068,.T.);
#1086=CARTESIAN_POINT('',(-5.906273815,-7.652524127,27.304911316));
#1087=VERTEX_POINT('',#1086);
#1088=CARTESIAN_POINT('',(5.093726185,-7.501871823,27.331422128));
#1089=CARTESIAN_POINT('',(4.707213696,-7.820132851,27.277506528));
#1090=CARTESIAN_POINT('',(4.302504452,-8.105783181,27.215983551));
#1091=CARTESIAN_POINT('',(3.877977363,-8.35780093,27.154130532));
#1092=CARTESIAN_POINT('',(3.453450275,-8.609818679,27.092277513));
#1093=CARTESIAN_POINT('',(3.009145593,-8.828261646,27.03005072));
#1094=CARTESIAN_POINT('',(2.54196304,-9.009563611,26.974559131));
#1095=CARTESIAN_POINT('',(2.074780487,-9.190865576,26.919067543));
#1096=CARTESIAN_POINT('',(1.598607141,-9.329552389,26.872151395));
#1097=CARTESIAN_POINT('',(1.113320396,-9.425649697,26.838860156));
#1098=CARTESIAN_POINT('',(0.628033651,-9.521747005,26.805568918));
#1099=CARTESIAN_POINT('',(0.133580741,-9.575325991,26.785899144));
#1100=CARTESIAN_POINT('',(-0.370865947,-9.583204087,26.783046406));
#1101=CARTESIAN_POINT('',(-0.875312635,-9.591082184,26.780193668));
#1102=CARTESIAN_POINT('',(-1.373272551,-9.552863244,26.794318011));
#1103=CARTESIAN_POINT('',(-1.86306208,-9.471265522,26.822954497));
#1104=CARTESIAN_POINT('',(-2.107956844,-9.43046666,26.83727274));
#1105=CARTESIAN_POINT('',(-2.350986478,-9.378769249,26.855184426));
#1106=CARTESIAN_POINT('',(-2.592181428,-9.316199662,26.876187389));
#1107=CARTESIAN_POINT('',(-2.833376377,-9.253630075,26.897190353));
#1108=CARTESIAN_POINT('',(-3.073844437,-9.179763558,26.921415821));
#1109=CARTESIAN_POINT('',(-3.30932325,-9.096044515,26.947732433));
#1110=CARTESIAN_POINT('',(-3.780280876,-8.92860643,27.000365657));
#1111=CARTESIAN_POINT('',(-4.230845043,-8.722714741,27.061150002));
#1112=CARTESIAN_POINT('',(-4.663428195,-8.48132404,27.123118231));
#1113=CARTESIAN_POINT('',(-5.096011346,-8.23993334,27.185086461));
#1114=CARTESIAN_POINT('',(-5.512233464,-7.961538834,27.248500207));
#1115=CARTESIAN_POINT('',(-5.906273815,-7.652524127,27.304911316));
#1116=B_SPLINE_CURVE_WITH_KNOTS('',3,(#1088,#1089,#1090,#1091,#1092,#1093,#1094,#1095,#1096,#1097,#1098,#1099,#1100,#1101,#1102,#1103,#1104,#1105,#1106,#1107,#1108,#1109,#1110,#1111,#1112,#1113,
#1114,#1115),.UNSPECIFIED.,.F.,.F.,(4,3,3,3,3,3,3,3,3,4),(0.000000257,0.001492904,0.002985552,0.004478199,0.005970846,0.007463493,0.008209816,0.00895614,0.010448787,0.011941434),.UNSPECIFIED.);
#1117=EDGE_CURVE('',#1053,#1087,#1116,.T.);
#1118=ORIENTED_EDGE('',*,*,#1117,.T.);
#1119=CARTESIAN_POINT('',(-5.906273815,-17.497513962,15.5));
#1120=VERTEX_POINT('',#1119);
#1121=CARTESIAN_POINT('',(-5.906273815,-5.497513962,15.5));
#1122=DIRECTION('',(1.,0.,0.));
#1123=DIRECTION('',(-0.,1.,0.));
#1124=AXIS2_PLACEMENT_3D('',#1121,#1122,#1123);
#1125=CIRCLE('',#1124,12.);
#1126=EDGE_CURVE('',#1087,#1120,#1125,.T.);
#1127=ORIENTED_EDGE('',*,*,#1126,.T.);
#1128=CARTESIAN_POINT('',(5.093726185,-17.497513962,15.5));
#1129=DIRECTION('',(-1.,-0.,-0.));
#1130=VECTOR('',#1129,11.);
#1131=LINE('',#1128,#1130);
#1132=EDGE_CURVE('',#1062,#1120,#1131,.T.);
#1133=ORIENTED_EDGE('',*,*,#1132,.F.);
#1134=EDGE_LOOP('',(#1085,#1118,#1127,#1133));
#1135=FACE_BOUND('',#1134,.T.);
#1136=ADVANCED_FACE('',(#1135),#1084,.T.);
#1137=CARTESIAN_POINT('',(-5.906273815,-5.497513962,15.5));
#1138=DIRECTION('',(0.,0.,1.));
#1139=DIRECTION('',(1.,0.,-0.));
#1140=AXIS2_PLACEMENT_3D('',#1137,#1138,#1139);
#1141=SPHERICAL_SURFACE('',#1140,12.);
#1142=ORIENTED_EDGE('',*,*,#1126,.F.);
#1143=CARTESIAN_POINT('',(-8.090147251,-5.497513962,27.299605791));
#1144=VERTEX_POINT('',#1143);
#1145=CARTESIAN_POINT('',(-2.310811256,-1.841371803,20.586837626));
#1146=DIRECTION('',(-0.497784849,-0.506185822,-0.704262847));
#1147=DIRECTION('',(0.,0.812017065,-0.583633692));
#1148=AXIS2_PLACEMENT_3D('',#1145,#1146,#1147);
#1149=CIRCLE('',#1148,9.582763509);
#1150=EDGE_CURVE('',#1087,#1144,#1149,.T.);
#1151=ORIENTED_EDGE('',*,*,#1150,.T.);
#1152=CARTESIAN_POINT('',(-17.906273815,-5.497513962,15.5));
#1153=VERTEX_POINT('',#1152);
#1154=CARTESIAN_POINT('',(-5.906273815,-5.497513962,15.5));
#1155=DIRECTION('',(0.,1.,0.));
#1156=DIRECTION('',(0.,-0.,1.));
#1157=AXIS2_PLACEMENT_3D('',#1154,#1155,#1156);
#1158=CIRCLE('',#1157,12.);
#1159=EDGE_CURVE('',#1153,#1144,#1158,.T.);
#1160=ORIENTED_EDGE('',*,*,#1159,.F.);
#1161=CARTESIAN_POINT('',(-5.906273815,-5.497513962,15.5));
#1162=DIRECTION('',(-0.,-0.,-1.));
#1163=DIRECTION('',(1.,0.,-0.));
#1164=AXIS2_PLACEMENT_3D('',#1161,#1162,#1163);
#1165=CIRCLE('',#1164,12.);
#1166=EDGE_CURVE('',#1120,#1153,#1165,.T.);
#1167=ORIENTED_EDGE('',*,*,#1166,.F.);
#1168=EDGE_LOOP('',(#1142,#1151,#1160,#1167));
#1169=FACE_BOUND('',#1168,.T.);
#1170=ADVANCED_FACE('',(#1169),#1141,.T.);
#1171=CARTESIAN_POINT('',(-5.906273815,0.002486038,15.5));
#1172=DIRECTION('',(0.,1.,0.));
#1173=DIRECTION('',(0.,-0.,1.));
#1174=AXIS2_PLACEMENT_3D('',#1171,#1172,#1173);
#1175=CYLINDRICAL_SURFACE('',#1174,12.);
#1176=ORIENTED_EDGE('',*,*,#1159,.T.);
#1177=CARTESIAN_POINT('',(-8.086137844,5.502486038,27.300347148));
#1178=VERTEX_POINT('',#1177);
#1179=CARTESIAN_POINT('',(-8.090147251,-5.497513962,27.299605791));
#1180=CARTESIAN_POINT('',(-8.404194611,-5.107809927,27.241482742));
#1181=CARTESIAN_POINT('',(-8.685157458,-4.700012686,27.176595671));
#1182=CARTESIAN_POINT('',(-8.932023975,-4.272477966,27.112270922));
#1183=CARTESIAN_POINT('',(-9.178890493,-3.844943245,27.047946174));
#1184=CARTESIAN_POINT('',(-9.391892693,-3.397250188,26.984085722));
#1185=CARTESIAN_POINT('',(-9.566883965,-2.927665758,26.928032785));
#1186=CARTESIAN_POINT('',(-9.741875238,-2.458081328,26.871979847));
#1187=CARTESIAN_POINT('',(-9.87390721,-1.979934266,26.825496113));
#1188=CARTESIAN_POINT('',(-9.963075498,-1.492929595,26.793465372));
#1189=CARTESIAN_POINT('',(-10.052243786,-1.005924923,26.761434631));
#1190=CARTESIAN_POINT('',(-10.098599339,-0.509491781,26.743860849));
#1191=CARTESIAN_POINT('',(-10.098879864,-0.004588343,26.743756246));
#1192=CARTESIAN_POINT('',(-10.099160389,0.500315095,26.743651643));
#1193=CARTESIAN_POINT('',(-10.053451702,0.996823521,26.760988601));
#1194=CARTESIAN_POINT('',(-9.964427719,1.485525426,26.79297954));
#1195=CARTESIAN_POINT('',(-9.919915728,1.729876379,26.80897501));
#1196=CARTESIAN_POINT('',(-9.864516932,1.972268173,26.828602003));
#1197=CARTESIAN_POINT('',(-9.798244033,2.212733195,26.851324496));
#1198=CARTESIAN_POINT('',(-9.731971135,2.453198217,26.87404699));
#1199=CARTESIAN_POINT('',(-9.654384716,2.692773353,26.900001528));
#1200=CARTESIAN_POINT('',(-9.567253755,2.926673253,26.927914328));
#1201=CARTESIAN_POINT('',(-9.392991832,3.394473053,26.983739928));
#1202=CARTESIAN_POINT('',(-9.180619544,3.841768069,27.047475053));
#1203=CARTESIAN_POINT('',(-8.9329043,4.270953048,27.112041505));
#1204=CARTESIAN_POINT('',(-8.685189055,4.700138028,27.176607957));
#1205=CARTESIAN_POINT('',(-8.400637148,5.112727597,27.242250236));
#1206=CARTESIAN_POINT('',(-8.086137844,5.502486038,27.300347148));
#1207=B_SPLINE_CURVE_WITH_KNOTS('',3,(#1179,#1180,#1181,#1182,#1183,#1184,#1185,#1186,#1187,#1188,#1189,#1190,#1191,#1192,#1193,#1194,#1195,#1196,#1197,#1198,#1199,#1200,#1201,#1202,#1203,#1204,
#1205,#1206),.UNSPECIFIED.,.F.,.F.,(4,3,3,3,3,3,3,3,3,4),(0.000000256,0.001493825,0.002987394,0.004480963,0.005974532,0.007468101,0.008214886,0.00896167,0.010455239,0.011948808),.UNSPECIFIED.);
#1208=EDGE_CURVE('',#1144,#1178,#1207,.T.);
#1209=ORIENTED_EDGE('',*,*,#1208,.T.);
#1210=CARTESIAN_POINT('',(-17.906273815,5.502486038,15.5));
#1211=VERTEX_POINT('',#1210);
#1212=CARTESIAN_POINT('',(-5.906273815,5.502486038,15.5));
#1213=DIRECTION('',(-0.,-1.,-0.));
#1214=DIRECTION('',(0.,-0.,1.));
#1215=AXIS2_PLACEMENT_3D('',#1212,#1213,#1214);
#1216=CIRCLE('',#1215,12.);
#1217=EDGE_CURVE('',#1178,#1211,#1216,.T.);
#1218=ORIENTED_EDGE('',*,*,#1217,.T.);
#1219=CARTESIAN_POINT('',(-17.906273815,-5.497513962,15.5));
#1220=DIRECTION('',(0.,1.,0.));
#1221=VECTOR('',#1220,11.);
#1222=LINE('',#1219,#1221);
#1223=EDGE_CURVE('',#1153,#1211,#1222,.T.);
#1224=ORIENTED_EDGE('',*,*,#1223,.F.);
#1225=EDGE_LOOP('',(#1176,#1209,#1218,#1224));
#1226=FACE_BOUND('',#1225,.T.);
#1227=ADVANCED_FACE('',(#1226),#1175,.T.);
#1228=CARTESIAN_POINT('',(17.093726185,0.002486038,27.5));
#1229=DIRECTION('',(1.,0.,0.));
#1230=DIRECTION('',(-0.,1.,0.));
#1231=AXIS2_PLACEMENT_3D('',#1228,#1229,#1230);
#1232=PLANE('',#1231);
#1233=ORIENTED_EDGE('',*,*,#145,.F.);
#1234=CARTESIAN_POINT('',(17.093726185,5.502486038,13.));
#1235=DIRECTION('',(-0.,-0.,1.));
#1236=VECTOR('',#1235,2.5);
#1237=LINE('',#1234,#1236);
#1238=EDGE_CURVE('',#131,#968,#1237,.T.);
#1239=ORIENTED_EDGE('',*,*,#1238,.T.);
#1240=ORIENTED_EDGE('',*,*,#1041,.T.);
#1241=CARTESIAN_POINT('',(17.093726185,-5.497513962,15.5));
#1242=DIRECTION('',(-0.,-0.,-1.));
#1243=VECTOR('',#1242,2.5);
#1244=LINE('',#1241,#1243);
#1245=EDGE_CURVE('',#1029,#140,#1244,.T.);
#1246=ORIENTED_EDGE('',*,*,#1245,.T.);
#1247=EDGE_LOOP('',(#1233,#1239,#1240,#1246));
#1248=FACE_BOUND('',#1247,.T.);
#1249=ADVANCED_FACE('',(#1248),#1232,.T.);
#1250=CARTESIAN_POINT('',(5.093726185,5.502486038,27.5));
#1251=DIRECTION('',(0.,0.,-1.));
#1252=DIRECTION('',(-1.,0.,0.));
#1253=AXIS2_PLACEMENT_3D('',#1250,#1251,#1252);
#1254=CYLINDRICAL_SURFACE('',#1253,12.);
#1255=ORIENTED_EDGE('',*,*,#128,.F.);
#1256=CARTESIAN_POINT('',(5.093726185,17.502486038,15.5));
#1257=DIRECTION('',(0.,0.,-1.));
#1258=VECTOR('',#1257,2.5);
#1259=LINE('',#1256,#1258);
#1260=EDGE_CURVE('',#935,#114,#1259,.T.);
#1261=ORIENTED_EDGE('',*,*,#1260,.F.);
#1262=ORIENTED_EDGE('',*,*,#981,.F.);
#1263=ORIENTED_EDGE('',*,*,#1238,.F.);
#1264=ORIENTED_EDGE('',*,*,#137,.F.);
#1265=EDGE_LOOP('',(#1255,#1261,#1262,#1263,#1264));
#1266=FACE_BOUND('',#1265,.T.);
#1267=ADVANCED_FACE('',(#1266),#1254,.T.);
#1268=CARTESIAN_POINT('',(5.093726185,-5.497513962,27.5));
#1269=DIRECTION('',(0.,0.,1.));
#1270=DIRECTION('',(1.,0.,-0.));
#1271=AXIS2_PLACEMENT_3D('',#1268,#1269,#1270);
#1272=CYLINDRICAL_SURFACE('',#1271,12.);
#1273=ORIENTED_EDGE('',*,*,#163,.F.);
#1274=ORIENTED_EDGE('',*,*,#154,.F.);
#1275=ORIENTED_EDGE('',*,*,#1245,.F.);
#1276=ORIENTED_EDGE('',*,*,#1075,.T.);
#1277=CARTESIAN_POINT('',(5.093726185,-17.497513962,13.));
#1278=DIRECTION('',(0.,0.,1.));
#1279=VECTOR('',#1278,2.5);
#1280=LINE('',#1277,#1279);
#1281=EDGE_CURVE('',#157,#1062,#1280,.T.);
#1282=ORIENTED_EDGE('',*,*,#1281,.F.);
#1283=EDGE_LOOP('',(#1273,#1274,#1275,#1276,#1282));
#1284=FACE_BOUND('',#1283,.T.);
#1285=ADVANCED_FACE('',(#1284),#1272,.T.);
#1286=CARTESIAN_POINT('',(-17.906273815,0.002486038,27.5));
#1287=DIRECTION('',(-1.,0.,0.));
#1288=DIRECTION('',(0.,0.,1.));
#1289=AXIS2_PLACEMENT_3D('',#1286,#1287,#1288);
#1290=PLANE('',#1289);
#1291=ORIENTED_EDGE('',*,*,#197,.F.);
#1292=CARTESIAN_POINT('',(-17.906273815,-5.497513962,13.));
#1293=DIRECTION('',(0.,0.,1.));
#1294=VECTOR('',#1293,2.5);
#1295=LINE('',#1292,#1294);
#1296=EDGE_CURVE('',#183,#1153,#1295,.T.);
#1297=ORIENTED_EDGE('',*,*,#1296,.T.);
#1298=ORIENTED_EDGE('',*,*,#1223,.T.);
#1299=CARTESIAN_POINT('',(-17.906273815,5.502486038,15.5));
#1300=DIRECTION('',(-0.,-0.,-1.));
#1301=VECTOR('',#1300,2.5);
#1302=LINE('',#1299,#1301);
#1303=EDGE_CURVE('',#1211,#192,#1302,.T.);
#1304=ORIENTED_EDGE('',*,*,#1303,.T.);
#1305=EDGE_LOOP('',(#1291,#1297,#1298,#1304));
#1306=FACE_BOUND('',#1305,.T.);
#1307=ADVANCED_FACE('',(#1306),#1290,.T.);
#1308=CARTESIAN_POINT('',(-5.906273815,5.502486038,27.5));
#1309=DIRECTION('',(0.,0.,1.));
#1310=DIRECTION('',(1.,0.,-0.));
#1311=AXIS2_PLACEMENT_3D('',#1308,#1309,#1310);
#1312=CYLINDRICAL_SURFACE('',#1311,12.);
#1313=ORIENTED_EDGE('',*,*,#111,.F.);
#1314=ORIENTED_EDGE('',*,*,#204,.F.);
#1315=ORIENTED_EDGE('',*,*,#1303,.F.);
#1316=CARTESIAN_POINT('',(-5.906273815,5.502486038,15.5));
#1317=DIRECTION('',(-0.,-0.,-1.));
#1318=DIRECTION('',(1.,0.,-0.));
#1319=AXIS2_PLACEMENT_3D('',#1316,#1317,#1318);
#1320=CIRCLE('',#1319,12.);
#1321=EDGE_CURVE('',#1211,#891,#1320,.T.);
#1322=ORIENTED_EDGE('',*,*,#1321,.T.);
#1323=CARTESIAN_POINT('',(-5.906273815,17.502486038,13.));
#1324=DIRECTION('',(0.,0.,1.));
#1325=VECTOR('',#1324,2.5);
#1326=LINE('',#1323,#1325);
#1327=EDGE_CURVE('',#105,#891,#1326,.T.);
#1328=ORIENTED_EDGE('',*,*,#1327,.F.);
#1329=EDGE_LOOP('',(#1313,#1314,#1315,#1322,#1328));
#1330=FACE_BOUND('',#1329,.T.);
#1331=ADVANCED_FACE('',(#1330),#1312,.T.);
#1332=CARTESIAN_POINT('',(-5.906273815,-5.497513962,27.5));
#1333=DIRECTION('',(0.,0.,1.));
#1334=DIRECTION('',(1.,0.,-0.));
#1335=AXIS2_PLACEMENT_3D('',#1332,#1333,#1334);
#1336=CYLINDRICAL_SURFACE('',#1335,12.);
#1337=ORIENTED_EDGE('',*,*,#180,.F.);
#1338=CARTESIAN_POINT('',(-5.906273815,-17.497513962,15.5));
#1339=DIRECTION('',(-0.,-0.,-1.));
#1340=VECTOR('',#1339,2.5);
#1341=LINE('',#1338,#1340);
#1342=EDGE_CURVE('',#1120,#166,#1341,.T.);
#1343=ORIENTED_EDGE('',*,*,#1342,.F.);
#1344=ORIENTED_EDGE('',*,*,#1166,.T.);
#1345=ORIENTED_EDGE('',*,*,#1296,.F.);
#1346=ORIENTED_EDGE('',*,*,#189,.F.);
#1347=EDGE_LOOP('',(#1337,#1343,#1344,#1345,#1346));
#1348=FACE_BOUND('',#1347,.T.);
#1349=ADVANCED_FACE('',(#1348),#1336,.T.);
#1350=CARTESIAN_POINT('',(-0.406273815,17.502486038,27.5));
#1351=DIRECTION('',(-0.,1.,0.));
#1352=DIRECTION('',(-1.,-0.,0.));
#1353=AXIS2_PLACEMENT_3D('',#1350,#1351,#1352);
#1354=PLANE('',#1353);
#1355=ORIENTED_EDGE('',*,*,#119,.F.);
#1356=ORIENTED_EDGE('',*,*,#1327,.T.);
#1357=ORIENTED_EDGE('',*,*,#947,.T.);
#1358=ORIENTED_EDGE('',*,*,#1260,.T.);
#1359=EDGE_LOOP('',(#1355,#1356,#1357,#1358));
#1360=FACE_BOUND('',#1359,.T.);
#1361=ADVANCED_FACE('',(#1360),#1354,.T.);
#1362=CARTESIAN_POINT('',(-0.406273815,-17.497513962,27.5));
#1363=DIRECTION('',(0.,-1.,0.));
#1364=DIRECTION('',(1.,0.,0.));
#1365=AXIS2_PLACEMENT_3D('',#1362,#1363,#1364);
#1366=PLANE('',#1365);
#1367=ORIENTED_EDGE('',*,*,#171,.F.);
#1368=ORIENTED_EDGE('',*,*,#1281,.T.);
#1369=ORIENTED_EDGE('',*,*,#1132,.T.);
#1370=ORIENTED_EDGE('',*,*,#1342,.T.);
#1371=EDGE_LOOP('',(#1367,#1368,#1369,#1370));
#1372=FACE_BOUND('',#1371,.T.);
#1373=ADVANCED_FACE('',(#1372),#1366,.T.);
#1374=CARTESIAN_POINT('',(-5.906273815,5.502486038,15.5));
#1375=DIRECTION('',(0.,0.,1.));
#1376=DIRECTION('',(1.,0.,-0.));
#1377=AXIS2_PLACEMENT_3D('',#1374,#1375,#1376);
#1378=SPHERICAL_SURFACE('',#1377,12.);
#1379=ORIENTED_EDGE('',*,*,#1217,.F.);
#1380=CARTESIAN_POINT('',(-2.311224817,1.843458102,20.586252523));
#1381=DIRECTION('',(-0.497669483,0.506526209,-0.704099628));
#1382=DIRECTION('',(0.,0.811766908,0.583981582));
#1383=AXIS2_PLACEMENT_3D('',#1380,#1381,#1382);
#1384=CIRCLE('',#1383,9.582127767);
#1385=EDGE_CURVE('',#1178,#893,#1384,.T.);
#1386=ORIENTED_EDGE('',*,*,#1385,.T.);
#1387=ORIENTED_EDGE('',*,*,#899,.F.);
#1388=ORIENTED_EDGE('',*,*,#1321,.F.);
#1389=EDGE_LOOP('',(#1379,#1386,#1387,#1388));
#1390=FACE_BOUND('',#1389,.T.);
#1391=ADVANCED_FACE('',(#1390),#1378,.T.);
#1392=CARTESIAN_POINT('',(-0.5,-0.,23.148761907));
#1393=DIRECTION('',(0.,-1.,0.));
#1394=DIRECTION('',(-1.,-0.,0.));
#1395=AXIS2_PLACEMENT_3D('',#1392,#1393,#1394);
#1396=SPHERICAL_SURFACE('',#1395,10.25);
#1397=CARTESIAN_POINT('',(5.592996641,-0.,14.906317371));
#1398=VERTEX_POINT('',#1397);
#1399=CARTESIAN_POINT('',(-6.592996641,0.,14.906317371));
#1400=VERTEX_POINT('',#1399);
#1401=CARTESIAN_POINT('',(-0.5,-0.,14.906317371));
#1402=DIRECTION('',(-0.,-0.,-1.));
#1403=DIRECTION('',(1.,0.,-0.));
#1404=AXIS2_PLACEMENT_3D('',#1401,#1402,#1403);
#1405=CIRCLE('',#1404,6.092996641);
#1406=EDGE_CURVE('',#1398,#1400,#1405,.T.);
#1407=ORIENTED_EDGE('',*,*,#1406,.T.);
#1408=CARTESIAN_POINT('',(-0.5,-0.,14.906317371));
#1409=DIRECTION('',(-0.,-0.,-1.));
#1410=DIRECTION('',(1.,0.,-0.));
#1411=AXIS2_PLACEMENT_3D('',#1408,#1409,#1410);
#1412=CIRCLE('',#1411,6.092996641);
#1413=EDGE_CURVE('',#1400,#1398,#1412,.T.);
#1414=ORIENTED_EDGE('',*,*,#1413,.T.);
#1415=EDGE_LOOP('',(#1407,#1414));
#1416=FACE_BOUND('',#1415,.T.);
#1417=ORIENTED_EDGE('',*,*,#1385,.F.);
#1418=ORIENTED_EDGE('',*,*,#1208,.F.);
#1419=ORIENTED_EDGE('',*,*,#1150,.F.);
#1420=ORIENTED_EDGE('',*,*,#1117,.F.);
#1421=ORIENTED_EDGE('',*,*,#1059,.F.);
#1422=ORIENTED_EDGE('',*,*,#1026,.F.);
#1423=ORIENTED_EDGE('',*,*,#965,.F.);
#1424=ORIENTED_EDGE('',*,*,#932,.F.);
#1425=EDGE_LOOP('',(#1417,#1418,#1419,#1420,#1421,#1422,#1423,#1424));
#1426=FACE_BOUND('',#1425,.T.);
#1427=ORIENTED_EDGE('',*,*,#877,.F.);
#1428=ORIENTED_EDGE('',*,*,#854,.F.);
#1429=ORIENTED_EDGE('',*,*,#829,.F.);
#1430=ORIENTED_EDGE('',*,*,#804,.F.);
#1431=ORIENTED_EDGE('',*,*,#779,.F.);
#1432=ORIENTED_EDGE('',*,*,#749,.F.);
#1433=EDGE_LOOP('',(#1427,#1428,#1429,#1430,#1431,#1432));
#1434=FACE_BOUND('',#1433,.T.);
#1435=ORIENTED_EDGE('',*,*,#727,.F.);
#1436=ORIENTED_EDGE('',*,*,#704,.F.);
#1437=ORIENTED_EDGE('',*,*,#679,.F.);
#1438=ORIENTED_EDGE('',*,*,#654,.F.);
#1439=ORIENTED_EDGE('',*,*,#629,.F.);
#1440=ORIENTED_EDGE('',*,*,#599,.F.);
#1441=EDGE_LOOP('',(#1435,#1436,#1437,#1438,#1439,#1440));
#1442=FACE_BOUND('',#1441,.T.);
#1443=ORIENTED_EDGE('',*,*,#577,.F.);
#1444=ORIENTED_EDGE('',*,*,#554,.F.);
#1445=ORIENTED_EDGE('',*,*,#529,.F.);
#1446=ORIENTED_EDGE('',*,*,#504,.F.);
#1447=ORIENTED_EDGE('',*,*,#479,.F.);
#1448=ORIENTED_EDGE('',*,*,#449,.F.);
#1449=EDGE_LOOP('',(#1443,#1444,#1445,#1446,#1447,#1448));
#1450=FACE_BOUND('',#1449,.T.);
#1451=CARTESIAN_POINT('',(-0.5,-10.25,23.148761907));
#1452=VERTEX_POINT('',#1451);
#1453=CARTESIAN_POINT('',(-0.5,10.25,23.148761907));
#1454=VERTEX_POINT('',#1453);
#1455=CARTESIAN_POINT('',(-0.5,-0.,23.148761907));
#1456=DIRECTION('',(-0.,-0.,-1.));
#1457=DIRECTION('',(-1.,-0.,0.));
#1458=AXIS2_PLACEMENT_3D('',#1455,#1456,#1457);
#1459=CIRCLE('',#1458,10.25);
#1460=EDGE_CURVE('',#1452,#1454,#1459,.T.);
#1461=ORIENTED_EDGE('',*,*,#1460,.F.);
#1462=ORIENTED_EDGE('',*,*,#1460,.T.);
#1463=EDGE_LOOP('',(#1461,#1462));
#1464=FACE_BOUND('',#1463,.T.);
#1465=ADVANCED_FACE('',(#1416,#1426,#1434,#1442,#1450,#1464),#1396,.F.);
#1466=CARTESIAN_POINT('',(-0.5,-0.,14.262571558));
#1467=DIRECTION('',(0.,0.,-1.));
#1468=DIRECTION('',(-1.,0.,0.));
#1469=AXIS2_PLACEMENT_3D('',#1466,#1467,#1468);
#1470=CONICAL_SURFACE('',#1469,6.233832437,12.340480213);
#1471=CARTESIAN_POINT('',(-7.010052129,-0.,13.));
#1472=DIRECTION('',(0.213720628,-0.,0.976894822));
#1473=VECTOR('',#1472,1.951404929);
#1474=LINE('',#1471,#1473);
#1475=EDGE_CURVE('',#85,#1400,#1474,.T.);
#1476=ORIENTED_EDGE('',*,*,#1475,.F.);
#1477=ORIENTED_EDGE('',*,*,#91,.F.);
#1478=ORIENTED_EDGE('',*,*,#98,.F.);
#1479=ORIENTED_EDGE('',*,*,#1475,.T.);
#1480=ORIENTED_EDGE('',*,*,#1406,.F.);
#1481=ORIENTED_EDGE('',*,*,#1413,.F.);
#1482=EDGE_LOOP('',(#1476,#1477,#1478,#1479,#1480,#1481));
#1483=FACE_BOUND('',#1482,.T.);
#1484=ADVANCED_FACE('',(#1483),#1470,.F.);
#1485=OVER_RIDING_STYLED_ITEM('',(#265),#1484,#26);
#1486=CARTESIAN_POINT('',(11.472243186,-7.95,9.9));
#1487=DIRECTION('',(-0.5,-0.866025404,0.));
#1488=DIRECTION('',(0.866025404,-0.5,0.));
#1489=AXIS2_PLACEMENT_3D('',#1486,#1487,#1488);
#1490=PLANE('',#1489);
#1491=ORIENTED_EDGE('',*,*,#40,.T.);
#1492=CARTESIAN_POINT('',(12.944486373,-8.8,16.1));
#1493=VERTEX_POINT('',#1492);
#1494=CARTESIAN_POINT('',(12.944486373,-8.8,13.));
#1495=DIRECTION('',(0.,0.,1.));
#1496=VECTOR('',#1495,3.1);
#1497=LINE('',#1494,#1496);
#1498=EDGE_CURVE('',#35,#1493,#1497,.T.);
#1499=ORIENTED_EDGE('',*,*,#1498,.T.);
#1500=CARTESIAN_POINT('',(10.,-7.1,16.1));
#1501=VERTEX_POINT('',#1500);
#1502=CARTESIAN_POINT('',(10.,-7.1,16.1));
#1503=DIRECTION('',(0.866025404,-0.5,0.));
#1504=VECTOR('',#1503,3.4);
#1505=LINE('',#1502,#1504);
#1506=EDGE_CURVE('',#1501,#1493,#1505,.T.);
#1507=ORIENTED_EDGE('',*,*,#1506,.F.);
#1508=CARTESIAN_POINT('',(10.,-7.1,13.));
#1509=DIRECTION('',(0.,0.,1.));
#1510=VECTOR('',#1509,3.1);
#1511=LINE('',#1508,#1510);
#1512=EDGE_CURVE('',#33,#1501,#1511,.T.);
#1513=ORIENTED_EDGE('',*,*,#1512,.F.);
#1514=EDGE_LOOP('',(#1491,#1499,#1507,#1513));
#1515=FACE_BOUND('',#1514,.T.);
#1516=ADVANCED_FACE('',(#1515),#1490,.T.);
#1517=OVER_RIDING_STYLED_ITEM('',(#265),#1516,#26);
#1518=CARTESIAN_POINT('',(12.944486373,-10.5,9.9));
#1519=DIRECTION('',(-1.,0.,0.));
#1520=DIRECTION('',(-0.,-1.,0.));
#1521=AXIS2_PLACEMENT_3D('',#1518,#1519,#1520);
#1522=PLANE('',#1521);
#1523=ORIENTED_EDGE('',*,*,#78,.T.);
#1524=CARTESIAN_POINT('',(12.944486373,-12.2,16.1));
#1525=VERTEX_POINT('',#1524);
#1526=CARTESIAN_POINT('',(12.944486373,-12.2,13.));
#1527=DIRECTION('',(0.,0.,1.));
#1528=VECTOR('',#1527,3.1);
#1529=LINE('',#1526,#1528);
#1530=EDGE_CURVE('',#67,#1525,#1529,.T.);
#1531=ORIENTED_EDGE('',*,*,#1530,.T.);
#1532=CARTESIAN_POINT('',(12.944486373,-8.8,16.1));
#1533=DIRECTION('',(-0.,-1.,0.));
#1534=VECTOR('',#1533,3.4);
#1535=LINE('',#1532,#1534);
#1536=EDGE_CURVE('',#1493,#1525,#1535,.T.);
#1537=ORIENTED_EDGE('',*,*,#1536,.F.);
#1538=ORIENTED_EDGE('',*,*,#1498,.F.);
#1539=EDGE_LOOP('',(#1523,#1531,#1537,#1538));
#1540=FACE_BOUND('',#1539,.T.);
#1541=ADVANCED_FACE('',(#1540),#1522,.T.);
#1542=OVER_RIDING_STYLED_ITEM('',(#265),#1541,#26);
#1543=CARTESIAN_POINT('',(11.472243186,-13.05,9.9));
#1544=DIRECTION('',(-0.5,0.866025404,0.));
#1545=DIRECTION('',(-0.866025404,-0.5,0.));
#1546=AXIS2_PLACEMENT_3D('',#1543,#1544,#1545);
#1547=PLANE('',#1546);
#1548=ORIENTED_EDGE('',*,*,#72,.T.);
#1549=CARTESIAN_POINT('',(10.,-13.9,16.1));
#1550=VERTEX_POINT('',#1549);
#1551=CARTESIAN_POINT('',(10.,-13.9,13.));
#1552=DIRECTION('',(0.,0.,1.));
#1553=VECTOR('',#1552,3.1);
#1554=LINE('',#1551,#1553);
#1555=EDGE_CURVE('',#59,#1550,#1554,.T.);
#1556=ORIENTED_EDGE('',*,*,#1555,.T.);
#1557=CARTESIAN_POINT('',(12.944486373,-12.2,16.1));
#1558=DIRECTION('',(-0.866025404,-0.5,0.));
#1559=VECTOR('',#1558,3.4);
#1560=LINE('',#1557,#1559);
#1561=EDGE_CURVE('',#1525,#1550,#1560,.T.);
#1562=ORIENTED_EDGE('',*,*,#1561,.F.);
#1563=ORIENTED_EDGE('',*,*,#1530,.F.);
#1564=EDGE_LOOP('',(#1548,#1556,#1562,#1563));
#1565=FACE_BOUND('',#1564,.T.);
#1566=ADVANCED_FACE('',(#1565),#1547,.T.);
#1567=OVER_RIDING_STYLED_ITEM('',(#265),#1566,#26);
#1568=CARTESIAN_POINT('',(8.527756814,-13.05,9.9));
#1569=DIRECTION('',(0.5,0.866025404,0.));
#1570=DIRECTION('',(-0.866025404,0.5,0.));
#1571=AXIS2_PLACEMENT_3D('',#1568,#1569,#1570);
#1572=PLANE('',#1571);
#1573=ORIENTED_EDGE('',*,*,#64,.T.);
#1574=CARTESIAN_POINT('',(7.055513627,-12.2,16.1));
#1575=VERTEX_POINT('',#1574);
#1576=CARTESIAN_POINT('',(7.055513627,-12.2,13.));
#1577=DIRECTION('',(0.,0.,1.));
#1578=VECTOR('',#1577,3.1);
#1579=LINE('',#1576,#1578);
#1580=EDGE_CURVE('',#51,#1575,#1579,.T.);
#1581=ORIENTED_EDGE('',*,*,#1580,.T.);
#1582=CARTESIAN_POINT('',(10.,-13.9,16.1));
#1583=DIRECTION('',(-0.866025404,0.5,0.));
#1584=VECTOR('',#1583,3.4);
#1585=LINE('',#1582,#1584);
#1586=EDGE_CURVE('',#1550,#1575,#1585,.T.);
#1587=ORIENTED_EDGE('',*,*,#1586,.F.);
#1588=ORIENTED_EDGE('',*,*,#1555,.F.);
#1589=EDGE_LOOP('',(#1573,#1581,#1587,#1588));
#1590=FACE_BOUND('',#1589,.T.);
#1591=ADVANCED_FACE('',(#1590),#1572,.T.);
#1592=OVER_RIDING_STYLED_ITEM('',(#265),#1591,#26);
#1593=CARTESIAN_POINT('',(7.055513627,-10.5,9.9));
#1594=DIRECTION('',(1.,0.,0.));
#1595=DIRECTION('',(0.,0.,-1.));
#1596=AXIS2_PLACEMENT_3D('',#1593,#1594,#1595);
#1597=PLANE('',#1596);
#1598=ORIENTED_EDGE('',*,*,#56,.T.);
#1599=CARTESIAN_POINT('',(7.055513627,-8.8,16.1));
#1600=VERTEX_POINT('',#1599);
#1601=CARTESIAN_POINT('',(7.055513627,-8.8,13.));
#1602=DIRECTION('',(0.,0.,1.));
#1603=VECTOR('',#1602,3.1);
#1604=LINE('',#1601,#1603);
#1605=EDGE_CURVE('',#43,#1600,#1604,.T.);
#1606=ORIENTED_EDGE('',*,*,#1605,.T.);
#1607=CARTESIAN_POINT('',(7.055513627,-12.2,16.1));
#1608=DIRECTION('',(0.,1.,0.));
#1609=VECTOR('',#1608,3.4);
#1610=LINE('',#1607,#1609);
#1611=EDGE_CURVE('',#1575,#1600,#1610,.T.);
#1612=ORIENTED_EDGE('',*,*,#1611,.F.);
#1613=ORIENTED_EDGE('',*,*,#1580,.F.);
#1614=EDGE_LOOP('',(#1598,#1606,#1612,#1613));
#1615=FACE_BOUND('',#1614,.T.);
#1616=ADVANCED_FACE('',(#1615),#1597,.T.);
#1617=OVER_RIDING_STYLED_ITEM('',(#265),#1616,#26);
#1618=CARTESIAN_POINT('',(8.527756814,-7.95,9.9));
#1619=DIRECTION('',(0.5,-0.866025404,0.));
#1620=DIRECTION('',(0.866025404,0.5,0.));
#1621=AXIS2_PLACEMENT_3D('',#1618,#1619,#1620);
#1622=PLANE('',#1621);
#1623=ORIENTED_EDGE('',*,*,#48,.T.);
#1624=ORIENTED_EDGE('',*,*,#1512,.T.);
#1625=CARTESIAN_POINT('',(7.055513627,-8.8,16.1));
#1626=DIRECTION('',(0.866025404,0.5,0.));
#1627=VECTOR('',#1626,3.4);
#1628=LINE('',#1625,#1627);
#1629=EDGE_CURVE('',#1600,#1501,#1628,.T.);
#1630=ORIENTED_EDGE('',*,*,#1629,.F.);
#1631=ORIENTED_EDGE('',*,*,#1605,.F.);
#1632=EDGE_LOOP('',(#1623,#1624,#1630,#1631));
#1633=FACE_BOUND('',#1632,.T.);
#1634=ADVANCED_FACE('',(#1633),#1622,.T.);
#1635=OVER_RIDING_STYLED_ITEM('',(#265),#1634,#26);
#1636=CARTESIAN_POINT('',(0.,0.,16.1));
#1637=DIRECTION('',(0.,0.,1.));
#1638=DIRECTION('',(1.,0.,0.));
#1639=AXIS2_PLACEMENT_3D('',#1636,#1637,#1638);
#1640=PLANE('',#1639);
#1641=ORIENTED_EDGE('',*,*,#1506,.T.);
#1642=ORIENTED_EDGE('',*,*,#1536,.T.);
#1643=ORIENTED_EDGE('',*,*,#1561,.T.);
#1644=ORIENTED_EDGE('',*,*,#1586,.T.);
#1645=ORIENTED_EDGE('',*,*,#1611,.T.);
#1646=ORIENTED_EDGE('',*,*,#1629,.T.);
#1647=EDGE_LOOP('',(#1641,#1642,#1643,#1644,#1645,#1646));
#1648=FACE_BOUND('',#1647,.T.);
#1649=ADVANCED_FACE('',(#1648),#1640,.F.);
#1650=OVER_RIDING_STYLED_ITEM('',(#265),#1649,#26);
#1651=CARTESIAN_POINT('',(-9.527756814,13.05,9.9));
#1652=DIRECTION('',(-0.5,-0.866025404,0.));
#1653=DIRECTION('',(0.866025404,-0.5,0.));
#1654=AXIS2_PLACEMENT_3D('',#1651,#1652,#1653);
#1655=PLANE('',#1654);
#1656=ORIENTED_EDGE('',*,*,#216,.T.);
#1657=CARTESIAN_POINT('',(-8.055513627,12.2,16.1));
#1658=VERTEX_POINT('',#1657);
#1659=CARTESIAN_POINT('',(-8.055513627,12.2,13.));
#1660=DIRECTION('',(0.,0.,1.));
#1661=VECTOR('',#1660,3.1);
#1662=LINE('',#1659,#1661);
#1663=EDGE_CURVE('',#211,#1658,#1662,.T.);
#1664=ORIENTED_EDGE('',*,*,#1663,.T.);
#1665=CARTESIAN_POINT('',(-11.,13.9,16.1));
#1666=VERTEX_POINT('',#1665);
#1667=CARTESIAN_POINT('',(-11.,13.9,16.1));
#1668=DIRECTION('',(0.866025404,-0.5,0.));
#1669=VECTOR('',#1668,3.4);
#1670=LINE('',#1667,#1669);
#1671=EDGE_CURVE('',#1666,#1658,#1670,.T.);
#1672=ORIENTED_EDGE('',*,*,#1671,.F.);
#1673=CARTESIAN_POINT('',(-11.,13.9,13.));
#1674=DIRECTION('',(0.,0.,1.));
#1675=VECTOR('',#1674,3.1);
#1676=LINE('',#1673,#1675);
#1677=EDGE_CURVE('',#209,#1666,#1676,.T.);
#1678=ORIENTED_EDGE('',*,*,#1677,.F.);
#1679=EDGE_LOOP('',(#1656,#1664,#1672,#1678));
#1680=FACE_BOUND('',#1679,.T.);
#1681=ADVANCED_FACE('',(#1680),#1655,.T.);
#1682=OVER_RIDING_STYLED_ITEM('',(#265),#1681,#26);
#1683=CARTESIAN_POINT('',(-8.055513627,10.5,9.9));
#1684=DIRECTION('',(-1.,-0.,0.));
#1685=DIRECTION('',(0.,-1.,0.));
#1686=AXIS2_PLACEMENT_3D('',#1683,#1684,#1685);
#1687=PLANE('',#1686);
#1688=ORIENTED_EDGE('',*,*,#254,.T.);
#1689=CARTESIAN_POINT('',(-8.055513627,8.8,16.1));
#1690=VERTEX_POINT('',#1689);
#1691=CARTESIAN_POINT('',(-8.055513627,8.8,13.));
#1692=DIRECTION('',(0.,0.,1.));
#1693=VECTOR('',#1692,3.1);
#1694=LINE('',#1691,#1693);
#1695=EDGE_CURVE('',#243,#1690,#1694,.T.);
#1696=ORIENTED_EDGE('',*,*,#1695,.T.);
#1697=CARTESIAN_POINT('',(-8.055513627,12.2,16.1));
#1698=DIRECTION('',(0.,-1.,0.));
#1699=VECTOR('',#1698,3.4);
#1700=LINE('',#1697,#1699);
#1701=EDGE_CURVE('',#1658,#1690,#1700,.T.);
#1702=ORIENTED_EDGE('',*,*,#1701,.F.);
#1703=ORIENTED_EDGE('',*,*,#1663,.F.);
#1704=EDGE_LOOP('',(#1688,#1696,#1702,#1703));
#1705=FACE_BOUND('',#1704,.T.);
#1706=ADVANCED_FACE('',(#1705),#1687,.T.);
#1707=OVER_RIDING_STYLED_ITEM('',(#265),#1706,#26);
#1708=CARTESIAN_POINT('',(-9.527756814,7.95,9.9));
#1709=DIRECTION('',(-0.5,0.866025404,0.));
#1710=DIRECTION('',(-0.866025404,-0.5,0.));
#1711=AXIS2_PLACEMENT_3D('',#1708,#1709,#1710);
#1712=PLANE('',#1711);
#1713=ORIENTED_EDGE('',*,*,#248,.T.);
#1714=CARTESIAN_POINT('',(-11.,7.1,16.1));
#1715=VERTEX_POINT('',#1714);
#1716=CARTESIAN_POINT('',(-11.,7.1,13.));
#1717=DIRECTION('',(0.,0.,1.));
#1718=VECTOR('',#1717,3.1);
#1719=LINE('',#1716,#1718);
#1720=EDGE_CURVE('',#235,#1715,#1719,.T.);
#1721=ORIENTED_EDGE('',*,*,#1720,.T.);
#1722=CARTESIAN_POINT('',(-8.055513627,8.8,16.1));
#1723=DIRECTION('',(-0.866025404,-0.5,0.));
#1724=VECTOR('',#1723,3.4);
#1725=LINE('',#1722,#1724);
#1726=EDGE_CURVE('',#1690,#1715,#1725,.T.);
#1727=ORIENTED_EDGE('',*,*,#1726,.F.);
#1728=ORIENTED_EDGE('',*,*,#1695,.F.);
#1729=EDGE_LOOP('',(#1713,#1721,#1727,#1728));
#1730=FACE_BOUND('',#1729,.T.);
#1731=ADVANCED_FACE('',(#1730),#1712,.T.);
#1732=OVER_RIDING_STYLED_ITEM('',(#265),#1731,#26);
#1733=CARTESIAN_POINT('',(-12.472243186,7.95,9.9));
#1734=DIRECTION('',(0.5,0.866025404,0.));
#1735=DIRECTION('',(-0.866025404,0.5,0.));
#1736=AXIS2_PLACEMENT_3D('',#1733,#1734,#1735);
#1737=PLANE('',#1736);
#1738=ORIENTED_EDGE('',*,*,#240,.T.);
#1739=CARTESIAN_POINT('',(-13.944486373,8.8,16.1));
#1740=VERTEX_POINT('',#1739);
#1741=CARTESIAN_POINT('',(-13.944486373,8.8,13.));
#1742=DIRECTION('',(0.,0.,1.));
#1743=VECTOR('',#1742,3.1);
#1744=LINE('',#1741,#1743);
#1745=EDGE_CURVE('',#227,#1740,#1744,.T.);
#1746=ORIENTED_EDGE('',*,*,#1745,.T.);
#1747=CARTESIAN_POINT('',(-11.,7.1,16.1));
#1748=DIRECTION('',(-0.866025404,0.5,0.));
#1749=VECTOR('',#1748,3.4);
#1750=LINE('',#1747,#1749);
#1751=EDGE_CURVE('',#1715,#1740,#1750,.T.);
#1752=ORIENTED_EDGE('',*,*,#1751,.F.);
#1753=ORIENTED_EDGE('',*,*,#1720,.F.);
#1754=EDGE_LOOP('',(#1738,#1746,#1752,#1753));
#1755=FACE_BOUND('',#1754,.T.);
#1756=ADVANCED_FACE('',(#1755),#1737,.T.);
#1757=OVER_RIDING_STYLED_ITEM('',(#265),#1756,#26);
#1758=CARTESIAN_POINT('',(-13.944486373,10.5,9.9));
#1759=DIRECTION('',(1.,0.,0.));
#1760=DIRECTION('',(-0.,1.,0.));
#1761=AXIS2_PLACEMENT_3D('',#1758,#1759,#1760);
#1762=PLANE('',#1761);
#1763=ORIENTED_EDGE('',*,*,#232,.T.);
#1764=CARTESIAN_POINT('',(-13.944486373,12.2,16.1));
#1765=VERTEX_POINT('',#1764);
#1766=CARTESIAN_POINT('',(-13.944486373,12.2,13.));
#1767=DIRECTION('',(0.,0.,1.));
#1768=VECTOR('',#1767,3.1);
#1769=LINE('',#1766,#1768);
#1770=EDGE_CURVE('',#219,#1765,#1769,.T.);
#1771=ORIENTED_EDGE('',*,*,#1770,.T.);
#1772=CARTESIAN_POINT('',(-13.944486373,8.8,16.1));
#1773=DIRECTION('',(-0.,1.,0.));
#1774=VECTOR('',#1773,3.4);
#1775=LINE('',#1772,#1774);
#1776=EDGE_CURVE('',#1740,#1765,#1775,.T.);
#1777=ORIENTED_EDGE('',*,*,#1776,.F.);
#1778=ORIENTED_EDGE('',*,*,#1745,.F.);
#1779=EDGE_LOOP('',(#1763,#1771,#1777,#1778));
#1780=FACE_BOUND('',#1779,.T.);
#1781=ADVANCED_FACE('',(#1780),#1762,.T.);
#1782=OVER_RIDING_STYLED_ITEM('',(#265),#1781,#26);
#1783=CARTESIAN_POINT('',(-12.472243186,13.05,9.9));
#1784=DIRECTION('',(0.5,-0.866025404,0.));
#1785=DIRECTION('',(0.866025404,0.5,0.));
#1786=AXIS2_PLACEMENT_3D('',#1783,#1784,#1785);
#1787=PLANE('',#1786);
#1788=ORIENTED_EDGE('',*,*,#224,.T.);
#1789=ORIENTED_EDGE('',*,*,#1677,.T.);
#1790=CARTESIAN_POINT('',(-13.944486373,12.2,16.1));
#1791=DIRECTION('',(0.866025404,0.5,0.));
#1792=VECTOR('',#1791,3.4);
#1793=LINE('',#1790,#1792);
#1794=EDGE_CURVE('',#1765,#1666,#1793,.T.);
#1795=ORIENTED_EDGE('',*,*,#1794,.F.);
#1796=ORIENTED_EDGE('',*,*,#1770,.F.);
#1797=EDGE_LOOP('',(#1788,#1789,#1795,#1796));
#1798=FACE_BOUND('',#1797,.T.);
#1799=ADVANCED_FACE('',(#1798),#1787,.T.);
#1800=OVER_RIDING_STYLED_ITEM('',(#265),#1799,#26);
#1801=CARTESIAN_POINT('',(0.,0.,16.1));
#1802=DIRECTION('',(0.,0.,1.));
#1803=DIRECTION('',(1.,0.,0.));
#1804=AXIS2_PLACEMENT_3D('',#1801,#1802,#1803);
#1805=PLANE('',#1804);
#1806=ORIENTED_EDGE('',*,*,#1671,.T.);
#1807=ORIENTED_EDGE('',*,*,#1701,.T.);
#1808=ORIENTED_EDGE('',*,*,#1726,.T.);
#1809=ORIENTED_EDGE('',*,*,#1751,.T.);
#1810=ORIENTED_EDGE('',*,*,#1776,.T.);
#1811=ORIENTED_EDGE('',*,*,#1794,.T.);
#1812=EDGE_LOOP('',(#1806,#1807,#1808,#1809,#1810,#1811));
#1813=FACE_BOUND('',#1812,.T.);
#1814=ADVANCED_FACE('',(#1813),#1805,.F.);
#1815=OVER_RIDING_STYLED_ITEM('',(#265),#1814,#26);
#1816=CLOSED_SHELL('',(#258,#322,#378,#434,#466,#491,#516,#541,#566,#584,#616,#641,#666,#691,#716,#734,#766,#791,#816,#841,#866,#884,#951,#985,#1045,#1079,
#1136,#1170,#1227,#1249,#1267,#1285,#1307,#1331,#1349,#1361,#1373,#1391,#1465,#1484,#1516,#1541,#1566,#1591,#1616,#1634,#1649,#1681,#1706,#1731,#1756,
#1781,#1799,#1814));
#1817=MANIFOLD_SOLID_BREP('19mmlCase',#1816);
#1818=COLOUR_RGB('',0.627451003,0.627451003,0.643137276);
#1819=FILL_AREA_STYLE_COLOUR('',#1818);
#1820=FILL_AREA_STYLE('',(#1819));
#1821=SURFACE_STYLE_FILL_AREA(#1820);
#1822=SURFACE_SIDE_STYLE('',(#1821));
#1823=SURFACE_STYLE_USAGE(.BOTH.,#1822);
#1824=PRESENTATION_STYLE_ASSIGNMENT((#1823));
#26=STYLED_ITEM('',(#1824),#1817);
#1825=(NAMED_UNIT(*)PLANE_ANGLE_UNIT()SI_UNIT($,.RADIAN.));
#1826=PLANE_ANGLE_MEASURE_WITH_UNIT(PLANE_ANGLE_MEASURE(0.0174532925),#1825);
#1827=(CONVERSION_BASED_UNIT('DEGREE',#1826)NAMED_UNIT(#1828)PLANE_ANGLE_UNIT());
#1828=DIMENSIONAL_EXPONENTS(0.,0.,0.,0.,0.,0.,0.);
#1829=(NAMED_UNIT(*)SI_UNIT($,.STERADIAN.)SOLID_ANGLE_UNIT());
#1830=(LENGTH_UNIT()NAMED_UNIT(*)SI_UNIT(.MILLI.,.METRE.));
#1831=UNCERTAINTY_MEASURE_WITH_UNIT(LENGTH_MEASURE(1.000000E-03),#1830,'DISTANCE_ACCURACY_VALUE','Maximum Tolerance applied to model');
#1832=(GEOMETRIC_REPRESENTATION_CONTEXT(3)GLOBAL_UNCERTAINTY_ASSIGNED_CONTEXT((#1831))GLOBAL_UNIT_ASSIGNED_CONTEXT((#1830,#1827,#1829))REPRESENTATION_CONTEXT('','\X2\51865F6272B630D130BF30FC30F3\X0\ 02'));
#1844=CARTESIAN_POINT('',(0.,0.,0.));
#1845=DIRECTION('',(0.,0.,1.));
#1846=DIRECTION('',(1.,0.,-0.));
#1847=AXIS2_PLACEMENT_3D('',#1844,#1845,#1846);
#1848=ITEM_DEFINED_TRANSFORMATION('','',#1847,#15);
#1849=(REPRESENTATION_RELATIONSHIP('','',#1834,#16)REPRESENTATION_RELATIONSHIP_WITH_TRANSFORMATION(#1848)SHAPE_REPRESENTATION_RELATIONSHIP());
#1850=NEXT_ASSEMBLY_USAGE_OCCURRENCE('\X2\51865F6272B630D130BF30FC30F3\X0\ 02_1','\X2\51865F6272B630D130BF30FC30F3\X0\ 02','\X2\51865F6272B630D130BF30FC30F3\X0\ 02',#25,#1843,$);
#1851=PRODUCT_DEFINITION_SHAPE('','',#1850);
#1852=CONTEXT_DEPENDENT_SHAPE_REPRESENTATION(#1849,#1851);
#1834=SHAPE_REPRESENTATION('\X2\51865F6272B630D130BF30FC30F3\X0\ 02',(#15),#1832);
#1853=CARTESIAN_POINT('',(0.,0.,0.));
#1854=DIRECTION('',(0.,0.,1.));
#1855=DIRECTION('',(1.,0.,0.));
#1856=AXIS2_PLACEMENT_3D('',#1853,#1854,#1855);
#1858=MAPPED_ITEM('',#1857,#1856);
#1857=REPRESENTATION_MAP(#1856,#1834);
#1859=APPLICATION_CONTEXT('Managed model based 3d engineering');
#1860=APPLICATION_PROTOCOL_DEFINITION('international standard','ap242_managed_model_based_3d_engineering',2014,#1859);
#1861=PRODUCT_CONTEXT('',#1859,'mechanical');
#1862=PRODUCT_DEFINITION_CONTEXT('part definition',#1859,'design');
#1842=PRODUCT('\X2\51865F6272B630D130BF30FC30F3\X0\ 02','\X2\51865F6272B630D130BF30FC30F3\X0\ 02','',(#1861));
#1863=PRODUCT_RELATED_PRODUCT_CATEGORY('part','',(#1842));
#1864=PRODUCT_DEFINITION_FORMATION_WITH_SPECIFIED_SOURCE('','',#1842,.NOT_KNOWN.);
#1843=PRODUCT_DEFINITION('design','',#1864,#1862);
#1841=PRODUCT_DEFINITION_SHAPE('','',#1843);
#1865=SHAPE_DEFINITION_REPRESENTATION(#1841,#1834);
#1833=DRAUGHTING_MODEL('',(#1858),#1832);
#1866=(NAMED_UNIT(*)PLANE_ANGLE_UNIT()SI_UNIT($,.RADIAN.));
#1867=PLANE_ANGLE_MEASURE_WITH_UNIT(PLANE_ANGLE_MEASURE(0.0174532925),#1866);
#1868=(CONVERSION_BASED_UNIT('DEGREE',#1867)NAMED_UNIT(#1869)PLANE_ANGLE_UNIT());
#1869=DIMENSIONAL_EXPONENTS(0.,0.,0.,0.,0.,0.,0.);
#1870=(NAMED_UNIT(*)SI_UNIT($,.STERADIAN.)SOLID_ANGLE_UNIT());
#1871=(LENGTH_UNIT()NAMED_UNIT(*)SI_UNIT(.MILLI.,.METRE.));
#1872=UNCERTAINTY_MEASURE_WITH_UNIT(LENGTH_MEASURE(1.000000E-03),#1871,'DISTANCE_ACCURACY_VALUE','Maximum Tolerance applied to model');
#1873=(GEOMETRIC_REPRESENTATION_CONTEXT(3)GLOBAL_UNCERTAINTY_ASSIGNED_CONTEXT((#1872))GLOBAL_UNIT_ASSIGNED_CONTEXT((#1871,#1868,#1870))REPRESENTATION_CONTEXT('','Nape_V2.shapr'));
#1885=CARTESIAN_POINT('',(0.,0.,0.));
#1886=DIRECTION('',(0.,0.,1.));
#1887=DIRECTION('',(1.,0.,-0.));
#1888=AXIS2_PLACEMENT_3D('',#1885,#1886,#1887);
#1889=ITEM_DEFINED_TRANSFORMATION('','',#1888,#15);
#1890=(REPRESENTATION_RELATIONSHIP('','',#1875,#16)REPRESENTATION_RELATIONSHIP_WITH_TRANSFORMATION(#1889)SHAPE_REPRESENTATION_RELATIONSHIP());
#1891=NEXT_ASSEMBLY_USAGE_OCCURRENCE('Nape_V2.shapr_2','Nape_V2.shapr','Nape_V2.shapr',#25,#1884,$);
#1892=PRODUCT_DEFINITION_SHAPE('','',#1891);
#1893=CONTEXT_DEPENDENT_SHAPE_REPRESENTATION(#1890,#1892);
#1894=(NAMED_UNIT(*)PLANE_ANGLE_UNIT()SI_UNIT($,.RADIAN.));
#1895=PLANE_ANGLE_MEASURE_WITH_UNIT(PLANE_ANGLE_MEASURE(0.0174532925),#1894);
#1896=(CONVERSION_BASED_UNIT('DEGREE',#1895)NAMED_UNIT(#1897)PLANE_ANGLE_UNIT());
#1897=DIMENSIONAL_EXPONENTS(0.,0.,0.,0.,0.,0.,0.);
#1898=(NAMED_UNIT(*)SI_UNIT($,.STERADIAN.)SOLID_ANGLE_UNIT());
#1899=(LENGTH_UNIT()NAMED_UNIT(*)SI_UNIT(.MILLI.,.METRE.));
#1900=UNCERTAINTY_MEASURE_WITH_UNIT(LENGTH_MEASURE(1.000000E-03),#1899,'DISTANCE_ACCURACY_VALUE','Maximum Tolerance applied to model');
#1901=(GEOMETRIC_REPRESENTATION_CONTEXT(3)GLOBAL_UNCERTAINTY_ASSIGNED_CONTEXT((#1900))GLOBAL_UNIT_ASSIGNED_CONTEXT((#1899,#1896,#1898))REPRESENTATION_CONTEXT('','SwitchHoles'));
#1913=CARTESIAN_POINT('',(0.,0.,0.));
#1914=DIRECTION('',(0.,0.,1.));
#1915=DIRECTION('',(1.,0.,-0.));
#1916=AXIS2_PLACEMENT_3D('',#1913,#1914,#1915);
#1917=ITEM_DEFINED_TRANSFORMATION('','',#1916,#15);
#1918=(REPRESENTATION_RELATIONSHIP('','',#1903,#1875)REPRESENTATION_RELATIONSHIP_WITH_TRANSFORMATION(#1917)SHAPE_REPRESENTATION_RELATIONSHIP());
#1919=NEXT_ASSEMBLY_USAGE_OCCURRENCE('SwitchHoles_3','SwitchHoles','SwitchHoles',#1884,#1912,$);
#1920=PRODUCT_DEFINITION_SHAPE('','',#1919);
#1921=CONTEXT_DEPENDENT_SHAPE_REPRESENTATION(#1918,#1920);
#1903=SHAPE_REPRESENTATION('SwitchHoles',(#15),#1901);
#1922=CARTESIAN_POINT('',(0.,0.,0.));
#1923=DIRECTION('',(0.,0.,1.));
#1924=DIRECTION('',(1.,0.,0.));
#1925=AXIS2_PLACEMENT_3D('',#1922,#1923,#1924);
#1927=MAPPED_ITEM('',#1926,#1925);
#1926=REPRESENTATION_MAP(#1925,#1903);
#1911=PRODUCT('SwitchHoles','SwitchHoles','',(#1861));
#1928=PRODUCT_RELATED_PRODUCT_CATEGORY('part','',(#1911));
#1929=PRODUCT_DEFINITION_FORMATION_WITH_SPECIFIED_SOURCE('','',#1911,.NOT_KNOWN.);
#1912=PRODUCT_DEFINITION('design','',#1929,#1862);
#1910=PRODUCT_DEFINITION_SHAPE('','',#1912);
#1930=SHAPE_DEFINITION_REPRESENTATION(#1910,#1903);
#1902=DRAUGHTING_MODEL('',(#1927),#1901);
#1931=(NAMED_UNIT(*)PLANE_ANGLE_UNIT()SI_UNIT($,.RADIAN.));
#1932=PLANE_ANGLE_MEASURE_WITH_UNIT(PLANE_ANGLE_MEASURE(0.0174532925),#1931);
#1933=(CONVERSION_BASED_UNIT('DEGREE',#1932)NAMED_UNIT(#1934)PLANE_ANGLE_UNIT());
#1934=DIMENSIONAL_EXPONENTS(0.,0.,0.,0.,0.,0.,0.);
#1935=(NAMED_UNIT(*)SI_UNIT($,.STERADIAN.)SOLID_ANGLE_UNIT());
#1936=(LENGTH_UNIT()NAMED_UNIT(*)SI_UNIT(.MILLI.,.METRE.));
#1937=UNCERTAINTY_MEASURE_WITH_UNIT(LENGTH_MEASURE(1.000000E-03),#1936,'DISTANCE_ACCURACY_VALUE','Maximum Tolerance applied to model');
#1938=(GEOMETRIC_REPRESENTATION_CONTEXT(3)GLOBAL_UNCERTAINTY_ASSIGNED_CONTEXT((#1937))GLOBAL_UNIT_ASSIGNED_CONTEXT((#1936,#1933,#1935))REPRESENTATION_CONTEXT('','Battery'));
#1950=CARTESIAN_POINT('',(0.,0.,0.));
#1951=DIRECTION('',(0.,0.,1.));
#1952=DIRECTION('',(1.,0.,-0.));
#1953=AXIS2_PLACEMENT_3D('',#1950,#1951,#1952);
#1954=ITEM_DEFINED_TRANSFORMATION('','',#1953,#15);
#1955=(REPRESENTATION_RELATIONSHIP('','',#1940,#1875)REPRESENTATION_RELATIONSHIP_WITH_TRANSFORMATION(#1954)SHAPE_REPRESENTATION_RELATIONSHIP());
#1956=NEXT_ASSEMBLY_USAGE_OCCURRENCE('Battery_4','Battery','Battery',#1884,#1949,$);
#1957=PRODUCT_DEFINITION_SHAPE('','',#1956);
#1958=CONTEXT_DEPENDENT_SHAPE_REPRESENTATION(#1955,#1957);
#1940=SHAPE_REPRESENTATION('Battery',(#15),#1938);
#1959=CARTESIAN_POINT('',(0.,0.,0.));
#1960=DIRECTION('',(0.,0.,1.));
#1961=DIRECTION('',(1.,0.,0.));
#1962=AXIS2_PLACEMENT_3D('',#1959,#1960,#1961);
#1964=MAPPED_ITEM('',#1963,#1962);
#1963=REPRESENTATION_MAP(#1962,#1940);
#1948=PRODUCT('Battery','Battery','',(#1861));
#1965=PRODUCT_RELATED_PRODUCT_CATEGORY('part','',(#1948));
#1966=PRODUCT_DEFINITION_FORMATION_WITH_SPECIFIED_SOURCE('','',#1948,.NOT_KNOWN.);
#1949=PRODUCT_DEFINITION('design','',#1966,#1862);
#1947=PRODUCT_DEFINITION_SHAPE('','',#1949);
#1967=SHAPE_DEFINITION_REPRESENTATION(#1947,#1940);
#1939=DRAUGHTING_MODEL('',(#1964),#1938);
#1875=SHAPE_REPRESENTATION('Nape_V2.shapr',(#15,#1916,#1953),#1873);
#1968=CARTESIAN_POINT('',(0.,0.,0.));
#1969=DIRECTION('',(0.,0.,1.));
#1970=DIRECTION('',(1.,0.,0.));
#1971=AXIS2_PLACEMENT_3D('',#1968,#1969,#1970);
#1973=MAPPED_ITEM('',#1972,#1971);
#1972=REPRESENTATION_MAP(#1971,#1875);
#1883=PRODUCT('Nape_V2.shapr','Nape_V2.shapr','',(#1861));
#1974=PRODUCT_RELATED_PRODUCT_CATEGORY('part','',(#1883));
#1975=PRODUCT_DEFINITION_FORMATION_WITH_SPECIFIED_SOURCE('','',#1883,.NOT_KNOWN.);
#1884=PRODUCT_DEFINITION('design','',#1975,#1862);
#1882=PRODUCT_DEFINITION_SHAPE('','',#1884);
#1976=SHAPE_DEFINITION_REPRESENTATION(#1882,#1875);
#1874=DRAUGHTING_MODEL('',(#1973),#1873);
#1977=(NAMED_UNIT(*)PLANE_ANGLE_UNIT()SI_UNIT($,.RADIAN.));
#1978=PLANE_ANGLE_MEASURE_WITH_UNIT(PLANE_ANGLE_MEASURE(0.0174532925),#1977);
#1979=(CONVERSION_BASED_UNIT('DEGREE',#1978)NAMED_UNIT(#1980)PLANE_ANGLE_UNIT());
#1980=DIMENSIONAL_EXPONENTS(0.,0.,0.,0.,0.,0.,0.);
#1981=(NAMED_UNIT(*)SI_UNIT($,.STERADIAN.)SOLID_ANGLE_UNIT());
#1982=(LENGTH_UNIT()NAMED_UNIT(*)SI_UNIT(.MILLI.,.METRE.));
#1983=UNCERTAINTY_MEASURE_WITH_UNIT(LENGTH_MEASURE(1.000000E-03),#1982,'DISTANCE_ACCURACY_VALUE','Maximum Tolerance applied to model');
#1984=(GEOMETRIC_REPRESENTATION_CONTEXT(3)GLOBAL_UNCERTAINTY_ASSIGNED_CONTEXT((#1983))GLOBAL_UNIT_ASSIGNED_CONTEXT((#1982,#1979,#1981))REPRESENTATION_CONTEXT('','Top'));
#1996=CARTESIAN_POINT('',(0.,0.,0.));
#1997=DIRECTION('',(0.,0.,1.));
#1998=DIRECTION('',(1.,0.,-0.));
#1999=AXIS2_PLACEMENT_3D('',#1996,#1997,#1998);
#2000=ITEM_DEFINED_TRANSFORMATION('','',#1999,#15);
#2001=(REPRESENTATION_RELATIONSHIP('','',#1986,#16)REPRESENTATION_RELATIONSHIP_WITH_TRANSFORMATION(#2000)SHAPE_REPRESENTATION_RELATIONSHIP());
#2002=NEXT_ASSEMBLY_USAGE_OCCURRENCE('Top_5','Top','Top',#25,#1995,$);
#2003=PRODUCT_DEFINITION_SHAPE('','',#2002);
#2004=CONTEXT_DEPENDENT_SHAPE_REPRESENTATION(#2001,#2003);
#1986=SHAPE_REPRESENTATION('Top',(#15),#1984);
#2005=CARTESIAN_POINT('',(0.,0.,0.));
#2006=DIRECTION('',(0.,0.,1.));
#2007=DIRECTION('',(1.,0.,0.));
#2008=AXIS2_PLACEMENT_3D('',#2005,#2006,#2007);
#2010=MAPPED_ITEM('',#2009,#2008);
#2009=REPRESENTATION_MAP(#2008,#1986);
#1994=PRODUCT('Top','Top','',(#1861));
#2011=PRODUCT_RELATED_PRODUCT_CATEGORY('part','',(#1994));
#2012=PRODUCT_DEFINITION_FORMATION_WITH_SPECIFIED_SOURCE('','',#1994,.NOT_KNOWN.);
#1995=PRODUCT_DEFINITION('design','',#2012,#1862);
#1993=PRODUCT_DEFINITION_SHAPE('','',#1995);
#2013=SHAPE_DEFINITION_REPRESENTATION(#1993,#1986);
#1985=DRAUGHTING_MODEL('',(#2010),#1984);
#16=SHAPE_REPRESENTATION('root',(#15,#1847,#1888,#1999),#10);
#17=ADVANCED_BREP_SHAPE_REPRESENTATION('root',(#1817),#10);
#2021=SHAPE_REPRESENTATION_RELATIONSHIP('','',#16,#17);
#2022=CARTESIAN_POINT('',(0.,0.,0.));
#2023=DIRECTION('',(0.,0.,1.));
#2024=DIRECTION('',(1.,0.,0.));
#2025=AXIS2_PLACEMENT_3D('',#2022,#2023,#2024);
#2027=MAPPED_ITEM('',#2026,#2025);
#2026=REPRESENTATION_MAP(#2025,#16);
#24=PRODUCT('root','root','',(#1861));
#2028=PRODUCT_RELATED_PRODUCT_CATEGORY('part','',(#24));
#2029=PRODUCT_DEFINITION_FORMATION_WITH_SPECIFIED_SOURCE('','',#24,.NOT_KNOWN.);
#25=PRODUCT_DEFINITION('design','',#2029,#1862);
#23=PRODUCT_DEFINITION_SHAPE('','',#25);
#2030=SHAPE_DEFINITION_REPRESENTATION(#23,#16);
#11=DRAUGHTING_MODEL('',(#2027),#10);
#2031=DESCRIPTIVE_REPRESENTATION_ITEM('KEY','/Users/koichiro.amito/Library/Containers/com.shapr3d.shapr/Data/tmp/0E4547C8-CD9E-4A3E-931B-07E3A7A236D1.tmp');
#2032=PROPERTY_DEFINITION('KEY','',#25);
#2033=REPRESENTATION('',(#2031),#10);
#2034=PROPERTY_DEFINITION_REPRESENTATION(#2032,#2033);
#2035=GENERAL_PROPERTY('','KEY','');
#2036=GENERAL_PROPERTY_ASSOCIATION('','',#2035,#2032);
#1=MECHANICAL_DESIGN_GEOMETRIC_PRESENTATION_REPRESENTATION('',(#266,#1485,#1517,#1542,#1567,#1592,#1617,#1635,#1650,#1682,#1707,#1732,#1757,#1782,#1800,#1815,#26),#10);
ENDSEC;
END-ISO-10303-21;
