ISO-10303-21;
HEADER;

/* File generated by Shapr3D Version 26.123.0.11423 */

FILE_DESCRIPTION(('HOOPS Exchange Step'),'2;1');

FILE_NAME('/Users/koichiro.amito/Library/Containers/com.shapr3d.shapr/Data/tmp/export/temp_export',
'2026-08-02T22:32:43+09:00',
('koichiro.amito'),
('Shapr3D Limited'),
'HOOPS Exchange 2026.3',
'Shapr3D',
'Authorized');

FILE_SCHEMA( ('AP242_MANAGED_MODEL_BASED_3D_ENGINEERING_MIM_LF {1 0 10303 442 1 1 4}') );

ENDSEC;

DATA;
#3=(NAMED_UNIT(*)PLANE_ANGLE_UNIT()SI_UNIT($,.RADIAN.));
#4=PLANE_ANGLE_MEASURE_WITH_UNIT(PLANE_ANGLE_MEASURE(0.0174532925),#3);
#5=(CONVERSION_BASED_UNIT('DEGREE',#4)NAMED_UNIT(#6)PLANE_ANGLE_UNIT());
#6=DIMENSIONAL_EXPONENTS(0.,0.,0.,0.,0.,0.,0.);
#7=(NAMED_UNIT(*)SI_UNIT($,.STERADIAN.)SOLID_ANGLE_UNIT());
#8=(LENGTH_UNIT()NAMED_UNIT(*)SI_UNIT(.MILLI.,.METRE.));
#9=UNCERTAINTY_MEASURE_WITH_UNIT(LENGTH_MEASURE(1.000000E-05),#8,'DISTANCE_ACCURACY_VALUE','Maximum Tolerance applied to model');
#10=(GEOMETRIC_REPRESENTATION_CONTEXT(3)GLOBAL_UNCERTAINTY_ASSIGNED_CONTEXT((#9))GLOBAL_UNIT_ASSIGNED_CONTEXT((#8,#5,#7))REPRESENTATION_CONTEXT('','root'));
#12=CARTESIAN_POINT('',(0.,0.,0.));
#13=DIRECTION('',(0.,0.,1.));
#14=DIRECTION('',(1.,0.,0.));
#15=AXIS2_PLACEMENT_3D('',#12,#13,#14);
#27=CARTESIAN_POINT('',(-0.5,-0.25,26.239018634));
#28=DIRECTION('',(0.,1.,0.));
#29=DIRECTION('',(-1.,0.,0.));
#30=AXIS2_PLACEMENT_3D('',#27,#28,#29);
#31=SPHERICAL_SURFACE('',#30,13.25);
#32=CARTESIAN_POINT('',(-7.,-0.25,14.692915395));
#33=VERTEX_POINT('',#32);
#34=CARTESIAN_POINT('',(6.,-0.25,14.692915395));
#35=VERTEX_POINT('',#34);
#36=CARTESIAN_POINT('',(-0.5,-0.25,14.692915395));
#37=DIRECTION('',(0.,0.,1.));
#38=DIRECTION('',(1.,0.,-0.));
#39=AXIS2_PLACEMENT_3D('',#36,#37,#38);
#40=CIRCLE('',#39,6.5);
#41=EDGE_CURVE('',#33,#35,#40,.T.);
#42=ORIENTED_EDGE('',*,*,#41,.F.);
#43=CARTESIAN_POINT('',(-0.5,-0.25,14.692915395));
#44=DIRECTION('',(0.,0.,1.));
#45=DIRECTION('',(1.,0.,-0.));
#46=AXIS2_PLACEMENT_3D('',#43,#44,#45);
#47=CIRCLE('',#46,6.5);
#48=EDGE_CURVE('',#35,#33,#47,.T.);
#49=ORIENTED_EDGE('',*,*,#48,.F.);
#50=EDGE_LOOP('',(#42,#49));
#51=FACE_BOUND('',#50,.T.);
#52=CARTESIAN_POINT('',(10.498775847,5.502486038,30.875648256));
#53=VERTEX_POINT('',#52);
#54=CARTESIAN_POINT('',(10.770277812,-5.497513962,30.822350966));
#55=VERTEX_POINT('',#54);
#56=CARTESIAN_POINT('',(10.498775847,5.502486038,30.875648256));
#57=CARTESIAN_POINT('',(10.973727895,4.662671798,30.790916816));
#58=CARTESIAN_POINT('',(11.35072153,3.789395453,30.680218518));
#59=CARTESIAN_POINT('',(11.618744428,2.873814542,30.59106599));
#60=CARTESIAN_POINT('',(11.685750153,2.644919315,30.568777858));
#61=CARTESIAN_POINT('',(11.745878921,2.41335954,30.547797615));
#62=CARTESIAN_POINT('',(11.798806594,2.178949797,30.528780776));
#63=CARTESIAN_POINT('',(11.851734267,1.944540055,30.509763937));
#64=CARTESIAN_POINT('',(11.897600837,1.706246599,30.492657512));
#65=CARTESIAN_POINT('',(11.935403239,1.468079196,30.478293356));
#66=CARTESIAN_POINT('',(12.011008045,0.991744391,30.449565044));
#67=CARTESIAN_POINT('',(12.0548014,0.515687626,30.431838245));
#68=CARTESIAN_POINT('',(12.067466604,0.039908364,30.42676699));
#69=CARTESIAN_POINT('',(12.080131808,-0.435870898,30.421695734));
#70=CARTESIAN_POINT('',(12.061667996,-0.911372656,30.429278121));
#71=CARTESIAN_POINT('',(12.011943611,-1.386598062,30.448758759));
#72=CARTESIAN_POINT('',(11.987081418,-1.624210766,30.458499078));
#73=CARTESIAN_POINT('',(11.954391409,-1.861754391,30.471176455));
#74=CARTESIAN_POINT('',(11.913781785,-2.099229139,30.486473563));
#75=CARTESIAN_POINT('',(11.873172162,-2.336703887,30.501770671));
#76=CARTESIAN_POINT('',(11.824504225,-2.574412401,30.519731332));
#77=CARTESIAN_POINT('',(11.768754193,-2.808502794,30.539510937));
#78=CARTESIAN_POINT('',(11.545754064,-3.744864366,30.618629353));
#79=CARTESIAN_POINT('',(11.208624207,-4.638119134,30.728402488));
#80=CARTESIAN_POINT('',(10.770277812,-5.497513962,30.822350967));
#81=B_SPLINE_CURVE_WITH_KNOTS('',3,(#56,#57,#58,#59,#60,#61,#62,#63,#64,#65,#66,#67,#68,#69,#70,#71,#72,#73,#74,#75,#76,#77,#78,#79,#80),.UNSPECIFIED.,.F.,.F.,(4,3,3,3,3,3,3,3,4),(0.000000228,0.002868104,0.003585073,0.004302042,0.00573598,0.007169919,0.007886888,0.008603857,0.011471733),.UNSPECIFIED.);
#82=EDGE_CURVE('',#53,#55,#81,.T.);
#83=ORIENTED_EDGE('',*,*,#82,.F.);
#84=CARTESIAN_POINT('',(5.093726185,10.824327292,30.890040285));
#85=VERTEX_POINT('',#84);
#86=CARTESIAN_POINT('',(5.093726185,10.824327292,30.890040285));
#87=CARTESIAN_POINT('',(5.659562638,10.51688728,30.941548137));
#88=CARTESIAN_POINT('',(6.20129568,10.177097809,30.965190201));
#89=CARTESIAN_POINT('',(6.715925668,9.801692145,30.97783724));
#90=CARTESIAN_POINT('',(7.230555656,9.42628648,30.99048428));
#91=CARTESIAN_POINT('',(7.717899815,9.015055238,30.992887392));
#92=CARTESIAN_POINT('',(8.175404457,8.564962263,30.992574968));
#93=CARTESIAN_POINT('',(8.404156777,8.339915775,30.992418755));
#94=CARTESIAN_POINT('',(8.62624073,8.104256241,30.99133206));
#95=CARTESIAN_POINT('',(8.838337455,7.86164968,30.988659993));
#96=CARTESIAN_POINT('',(9.05043418,7.619043119,30.985987927));
#97=CARTESIAN_POINT('',(9.25276248,7.36944438,30.9817118));
#98=CARTESIAN_POINT('',(9.445897221,7.1133365,30.974301525));
#99=CARTESIAN_POINT('',(9.832166702,6.601120741,30.959480974));
#100=CARTESIAN_POINT('',(10.181799615,6.062964639,30.932199059));
#101=CARTESIAN_POINT('',(10.498775847,5.502486038,30.875648256));
#102=B_SPLINE_CURVE_WITH_KNOTS('',3,(#86,#87,#88,#89,#90,#91,#92,#93,#94,#95,#96,#97,#98,#99,#100,#101),.UNSPECIFIED.,.F.,.F.,(4,3,3,3,3,4),(0.000000225,0.001910966,0.003821706,0.004777077,0.005732447,0.007643187),.UNSPECIFIED.);
#103=EDGE_CURVE('',#85,#53,#102,.T.);
#104=ORIENTED_EDGE('',*,*,#103,.F.);
#105=CARTESIAN_POINT('',(-5.906273815,10.924265422,30.87264526));
#106=VERTEX_POINT('',#105);
#107=CARTESIAN_POINT('',(-5.906273815,10.924265423,30.87264526));
#108=CARTESIAN_POINT('',(-5.052320646,11.370863685,30.791992744));
#109=CARTESIAN_POINT('',(-4.167070862,11.716876384,30.691379368));
#110=CARTESIAN_POINT('',(-3.24309371,11.951686006,30.615866301));
#111=CARTESIAN_POINT('',(-3.012099422,12.010388412,30.596988034));
#112=CARTESIAN_POINT('',(-2.778668321,12.062076303,30.579623933));
#113=CARTESIAN_POINT('',(-2.542647608,12.106438669,30.564352629));
#114=CARTESIAN_POINT('',(-2.306626894,12.150801035,30.549081325));
#115=CARTESIAN_POINT('',(-2.066979931,12.187941641,30.535866552));
#116=CARTESIAN_POINT('',(-1.827681103,12.217033897,30.525372411));
#117=CARTESIAN_POINT('',(-1.349083448,12.275218408,30.504384129));
#118=CARTESIAN_POINT('',(-0.871949815,12.301606102,30.494327855));
#119=CARTESIAN_POINT('',(-0.396254269,12.297102816,30.496006741));
#120=CARTESIAN_POINT('',(0.079441277,12.29259953,30.497685628));
#121=CARTESIAN_POINT('',(0.553698831,12.257204072,30.511089432));
#122=CARTESIAN_POINT('',(1.026544613,12.19103184,30.534701154));
#123=CARTESIAN_POINT('',(1.262967503,12.157945723,30.546507015));
#124=CARTESIAN_POINT('',(1.499037475,12.117153809,30.560829338));
#125=CARTESIAN_POINT('',(1.734757826,12.06860021,30.577272468));
#126=CARTESIAN_POINT('',(1.970478176,12.02004661,30.593715599));
#127=CARTESIAN_POINT('',(2.205764394,11.96367651,30.612287856));
#128=CARTESIAN_POINT('',(2.437396697,11.900502481,30.632137128));
#129=CARTESIAN_POINT('',(3.363925907,11.647806364,30.711534217));
#130=CARTESIAN_POINT('',(4.246270596,11.284779772,30.812900965));
#131=CARTESIAN_POINT('',(5.093726185,10.824327292,30.890040285));
#132=B_SPLINE_CURVE_WITH_KNOTS('',3,(#107,#108,#109,#110,#111,#112,#113,#114,#115,#116,#117,#118,#119,#120,#121,#122,#123,#124,#125,#126,#127,#128,#129,#130,#131),.UNSPECIFIED.,.F.,.F.,(4,3,3,3,3,3,3,3,4),(0.000000223,0.002862507,0.003578077,0.004293648,0.00572479,0.007155931,0.007871502,0.008587073,0.011449356),.UNSPECIFIED.);
#133=EDGE_CURVE('',#106,#85,#132,.T.);
#134=ORIENTED_EDGE('',*,*,#133,.F.);
#135=CARTESIAN_POINT('',(-11.51517876,5.502486038,30.836544192));
#136=VERTEX_POINT('',#135);
#137=CARTESIAN_POINT('',(-11.51517876,5.502486038,30.836544193));
#138=CARTESIAN_POINT('',(-11.186957595,6.077124196,30.903931935));
#139=CARTESIAN_POINT('',(-10.82551501,6.626676082,30.938791537));
#140=CARTESIAN_POINT('',(-10.427669038,7.147846394,30.958738562));
#141=CARTESIAN_POINT('',(-10.029823067,7.669016706,30.978685587));
#142=CARTESIAN_POINT('',(-9.595375729,8.16161697,30.984431442));
#143=CARTESIAN_POINT('',(-9.120615932,8.622273106,30.985622776));
#144=CARTESIAN_POINT('',(-8.883236034,8.852601174,30.986218443));
#145=CARTESIAN_POINT('',(-8.634988741,9.075533706,30.985448991));
#146=CARTESIAN_POINT('',(-8.380246763,9.287246405,30.982977104));
#147=CARTESIAN_POINT('',(-8.125504784,9.498959104,30.980505217));
#148=CARTESIAN_POINT('',(-7.863618927,9.700196632,30.976317558));
#149=CARTESIAN_POINT('',(-7.595009041,9.891492176,30.969080277));
#150=CARTESIAN_POINT('',(-7.057789268,10.274083264,30.954605716));
#151=CARTESIAN_POINT('',(-6.493749115,10.617027908,30.928132514));
#152=CARTESIAN_POINT('',(-5.906273815,10.924265422,30.87264526));
#153=B_SPLINE_CURVE_WITH_KNOTS('',3,(#137,#138,#139,#140,#141,#142,#143,#144,#145,#146,#147,#148,#149,#150,#151,#152),.UNSPECIFIED.,.F.,.F.,(4,3,3,3,3,4),(0.000000228,0.001967694,0.00393516,0.004918893,0.005902626,0.007870091),.UNSPECIFIED.);
#154=EDGE_CURVE('',#136,#106,#153,.T.);
#155=ORIENTED_EDGE('',*,*,#154,.F.);
#156=CARTESIAN_POINT('',(-11.789328597,-5.497513962,30.775223771));
#157=VERTEX_POINT('',#156);
#158=CARTESIAN_POINT('',(-11.789328597,-5.497513962,30.775223771));
#159=CARTESIAN_POINT('',(-12.230694535,-4.640376103,30.668332922));
#160=CARTESIAN_POINT('',(-12.568687135,-3.751854614,30.547800859));
#161=CARTESIAN_POINT('',(-12.792796698,-2.8236538,30.461098153));
#162=CARTESIAN_POINT('',(-12.848824088,-2.591603596,30.439422477));
#163=CARTESIAN_POINT('',(-12.897663479,-2.357056449,30.419810122));
#164=CARTESIAN_POINT('',(-12.938988571,-2.119844067,30.402880602));
#165=CARTESIAN_POINT('',(-12.980313664,-1.882631684,30.385951082));
#166=CARTESIAN_POINT('',(-13.014217184,-1.64164534,30.371666177));
#167=CARTESIAN_POINT('',(-13.039882184,-1.401201494,30.360740357));
#168=CARTESIAN_POINT('',(-13.091212182,-0.920313802,30.338888715));
#169=CARTESIAN_POINT('',(-13.110053998,-0.441412014,30.330483008));
#170=CARTESIAN_POINT('',(-13.097461029,0.035549743,30.335961025));
#171=CARTESIAN_POINT('',(-13.08486806,0.512511501,30.341439043));
#172=CARTESIAN_POINT('',(-13.040835095,0.98753327,30.360785907));
#173=CARTESIAN_POINT('',(-12.965521949,1.460666791,30.391955144));
#174=CARTESIAN_POINT('',(-12.927865377,1.697233551,30.407539763));
#175=CARTESIAN_POINT('',(-12.882375321,1.933328336,30.426042669));
#176=CARTESIAN_POINT('',(-12.828993967,2.168958095,30.446993146));
#177=CARTESIAN_POINT('',(-12.775612613,2.404587854,30.467943622));
#178=CARTESIAN_POINT('',(-12.71459562,2.63844017,30.491231002));
#179=CARTESIAN_POINT('',(-12.646761131,2.868721556,30.515964959));
#180=CARTESIAN_POINT('',(-12.375423176,3.789847101,30.614900788));
#181=CARTESIAN_POINT('',(-11.994018351,4.664147887,30.738236381));
#182=CARTESIAN_POINT('',(-11.51517876,5.502486038,30.836544192));
#183=B_SPLINE_CURVE_WITH_KNOTS('',3,(#158,#159,#160,#161,#162,#163,#164,#165,#166,#167,#168,#169,#170,#171,#172,#173,#174,#175,#176,#177,#178,#179,#180,#181,#182),.UNSPECIFIED.,.F.,.F.,(4,3,3,3,3,3,3,3,4),(0.000000223,0.002869453,0.00358676,0.004304067,0.005738682,0.007173297,0.007890604,0.008607911,0.011477141),.UNSPECIFIED.);
#184=EDGE_CURVE('',#157,#136,#183,.T.);
#185=ORIENTED_EDGE('',*,*,#184,.F.);
#186=CARTESIAN_POINT('',(-5.906273815,-11.473480169,30.752132452));
#187=VERTEX_POINT('',#186);
#188=CARTESIAN_POINT('',(-5.906273815,-11.473480169,30.752132452));
#189=CARTESIAN_POINT('',(-6.533883249,-11.136640478,30.837991661));
#190=CARTESIAN_POINT('',(-7.133838516,-10.760087178,30.885854029));
#191=CARTESIAN_POINT('',(-7.702707509,-10.340697787,30.914627974));
#192=CARTESIAN_POINT('',(-8.271576502,-9.921308396,30.943401919));
#193=CARTESIAN_POINT('',(-8.809170124,-9.458884739,30.953787417));
#194=CARTESIAN_POINT('',(-9.3117879,-8.949193425,30.9548354));
#195=CARTESIAN_POINT('',(-9.563096788,-8.694347767,30.955359391));
#196=CARTESIAN_POINT('',(-9.804191069,-8.429046997,30.95328199));
#197=CARTESIAN_POINT('',(-10.032765743,-8.156488707,30.948191982));
#198=CARTESIAN_POINT('',(-10.261340416,-7.883930416,30.943101975));
#199=CARTESIAN_POINT('',(-10.478247029,-7.603275402,30.934978838));
#200=CARTESIAN_POINT('',(-10.684036506,-7.314992181,30.92237063));
#201=CARTESIAN_POINT('',(-11.095615461,-6.738425739,30.897154214));
#202=CARTESIAN_POINT('',(-11.462894793,-6.13145065,30.8542826));
#203=CARTESIAN_POINT('',(-11.789328597,-5.497513962,30.775223771));
#204=B_SPLINE_CURVE_WITH_KNOTS('',3,(#188,#189,#190,#191,#192,#193,#194,#195,#196,#197,#198,#199,#200,#201,#202,#203),.UNSPECIFIED.,.F.,.F.,(4,3,3,3,3,4),(0.000000225,0.002122124,0.004244024,0.005304973,0.006365923,0.008487822),.UNSPECIFIED.);
#205=EDGE_CURVE('',#187,#157,#204,.T.);
#206=ORIENTED_EDGE('',*,*,#205,.F.);
#207=CARTESIAN_POINT('',(5.093726185,-11.370898079,30.777559511));
#208=VERTEX_POINT('',#207);
#209=CARTESIAN_POINT('',(5.093726185,-11.370898079,30.777559511));
#210=CARTESIAN_POINT('',(4.253052028,-11.839847377,30.664605621));
#211=CARTESIAN_POINT('',(3.378952888,-12.2085664,30.531747997));
#212=CARTESIAN_POINT('',(2.461567531,-12.466290172,30.428752776));
#213=CARTESIAN_POINT('',(2.232221192,-12.530721115,30.403003971));
#214=CARTESIAN_POINT('',(2.000147292,-12.588142419,30.379090757));
#215=CARTESIAN_POINT('',(1.765141308,-12.638219192,30.357715043));
#216=CARTESIAN_POINT('',(1.530135325,-12.688295964,30.336339329));
#217=CARTESIAN_POINT('',(1.291189622,-12.731151073,30.317447286));
#218=CARTESIAN_POINT('',(1.052173085,-12.765832296,30.30192408));
#219=CARTESIAN_POINT('',(0.574140012,-12.83519474,30.270877667));
#220=CARTESIAN_POINT('',(0.095659812,-12.872295898,30.253335766));
#221=CARTESIAN_POINT('',(-0.38327173,-12.877492876,30.250913221));
#222=CARTESIAN_POINT('',(-0.862203272,-12.882689854,30.248490676));
#223=CARTESIAN_POINT('',(-1.341586166,-12.855983513,30.26119154));
#224=CARTESIAN_POINT('',(-1.821421739,-12.796801556,30.287983354));
#225=CARTESIAN_POINT('',(-2.061339525,-12.767210577,30.301379261));
#226=CARTESIAN_POINT('',(-2.301257808,-12.729419719,30.318279502));
#227=CARTESIAN_POINT('',(-2.537658641,-12.684206868,30.337914439));
#228=CARTESIAN_POINT('',(-2.774059475,-12.638994017,30.357549377));
#229=CARTESIAN_POINT('',(-3.007889183,-12.586260984,30.379961939));
#230=CARTESIAN_POINT('',(-3.239309889,-12.526299883,30.404488898));
#231=CARTESIAN_POINT('',(-3.7021513,-12.406377681,30.453542817));
#232=CARTESIAN_POINT('',(-4.155370325,-12.257603453,30.511094279));
#233=CARTESIAN_POINT('',(-4.600085321,-12.081482769,30.571202362));
#234=CARTESIAN_POINT('',(-5.044800318,-11.905362084,30.631310445));
#235=CARTESIAN_POINT('',(-5.481867786,-11.701260032,30.694073072));
#236=CARTESIAN_POINT('',(-5.906273815,-11.473480169,30.752132452));
#237=B_SPLINE_CURVE_WITH_KNOTS('',3,(#209,#210,#211,#212,#213,#214,#215,#216,#217,#218,#219,#220,#221,#222,#223,#224,#225,#226,#227,#228,#229,#230,#231,#232,#233,#234,
#235,#236),.UNSPECIFIED.,.F.,.F.,(4,3,3,3,3,3,3,3,3,4),(0.000000227,0.002868684,0.003585798,0.004302913,0.005737141,0.00717137,0.007888484,0.008605598,0.010039826,0.011474055),.UNSPECIFIED.);
#238=EDGE_CURVE('',#208,#187,#237,.T.);
#239=ORIENTED_EDGE('',*,*,#238,.F.);
#240=CARTESIAN_POINT('',(10.770277812,-5.497513962,30.822350967));
#241=CARTESIAN_POINT('',(10.454706229,-6.116202371,30.889988155));
#242=CARTESIAN_POINT('',(10.100531796,-6.708224201,30.924736338));
#243=CARTESIAN_POINT('',(9.704531078,-7.270516213,30.944589542));
#244=CARTESIAN_POINT('',(9.308530361,-7.832808225,30.964442746));
#245=CARTESIAN_POINT('',(8.87049661,-8.365190911,30.97013439));
#246=CARTESIAN_POINT('',(8.386996025,-8.864901614,30.968423652));
#247=CARTESIAN_POINT('',(8.145245733,-9.114756966,30.967568284));
#248=CARTESIAN_POINT('',(7.892278504,-9.356128023,30.964565718));
#249=CARTESIAN_POINT('',(7.632377028,-9.58551361,30.958672172));
#250=CARTESIAN_POINT('',(7.372475552,-9.814899197,30.952778625));
#251=CARTESIAN_POINT('',(7.104648943,-10.033380072,30.943967376));
#252=CARTESIAN_POINT('',(6.829439244,-10.241548289,30.930583741));
#253=CARTESIAN_POINT('',(6.279019847,-10.657884723,30.90381647));
#254=CARTESIAN_POINT('',(5.699193454,-11.033151946,30.858913421));
#255=CARTESIAN_POINT('',(5.093726185,-11.370898079,30.777559511));
#256=B_SPLINE_CURVE_WITH_KNOTS('',3,(#240,#241,#242,#243,#244,#245,#246,#247,#248,#249,#250,#251,#252,#253,#254,#255),.UNSPECIFIED.,.F.,.F.,(4,3,3,3,3,4),(0.000000222,0.002064096,0.004127969,0.005159905,0.006191842,0.008255715),.UNSPECIFIED.);
#257=EDGE_CURVE('',#55,#208,#256,.T.);
#258=ORIENTED_EDGE('',*,*,#257,.F.);
#259=EDGE_LOOP('',(#83,#104,#134,#155,#185,#206,#239,#258));
#260=FACE_BOUND('',#259,.T.);
#261=CARTESIAN_POINT('',(-6.882353496,-11.784701384,24.905329075));
#262=VERTEX_POINT('',#261);
#263=CARTESIAN_POINT('',(-7.235207494,-11.581574913,24.899283587));
#264=VERTEX_POINT('',#263);
#265=CARTESIAN_POINT('',(-1.242163594,-1.436681207,29.684402768));
#266=DIRECTION('',(0.199569151,0.319100752,-0.92647011));
#267=DIRECTION('',(0.,0.945489824,0.325651643));
#268=AXIS2_PLACEMENT_3D('',#265,#266,#267);
#269=CIRCLE('',#268,12.717421479);
#270=EDGE_CURVE('',#262,#264,#269,.T.);
#271=ORIENTED_EDGE('',*,*,#270,.T.);
#272=CARTESIAN_POINT('',(-7.845499689,-10.887212514,23.331125197));
#273=VERTEX_POINT('',#272);
#274=CARTESIAN_POINT('',(-2.162342522,0.293626606,27.126676762));
#275=DIRECTION('',(0.847555051,-0.277171202,-0.452577685));
#276=DIRECTION('',(-0.471032479,-0.,-0.882115867));
#277=AXIS2_PLACEMENT_3D('',#274,#275,#276);
#278=CIRCLE('',#277,13.104031841);
#279=EDGE_CURVE('',#264,#273,#278,.T.);
#280=ORIENTED_EDGE('',*,*,#279,.T.);
#281=CARTESIAN_POINT('',(-6.855649835,-11.006647165,21.827357162));
#282=VERTEX_POINT('',#281);
#283=CARTESIAN_POINT('',(-0.367251927,-0.37215382,26.336101466));
#284=DIRECTION('',(0.6479859,-0.596271954,0.473892425));
#285=DIRECTION('',(0.677133362,0.73586032,0.));
#286=AXIS2_PLACEMENT_3D('',#283,#284,#285);
#287=CIRCLE('',#286,13.248416181);
#288=EDGE_CURVE('',#273,#282,#287,.T.);
#289=ORIENTED_EDGE('',*,*,#288,.T.);
#290=CARTESIAN_POINT('',(-6.502845758,-11.209860102,21.833362115));
#291=VERTEX_POINT('',#290);
#292=CARTESIAN_POINT('',(-0.622450313,-0.445791718,26.807476005));
#293=DIRECTION('',(-0.199569151,-0.319100752,0.92647011));
#294=DIRECTION('',(0.,-0.945489824,-0.325651643));
#295=AXIS2_PLACEMENT_3D('',#292,#293,#294);
#296=CIRCLE('',#295,13.235785875);
#297=EDGE_CURVE('',#282,#291,#296,.T.);
#298=ORIENTED_EDGE('',*,*,#297,.T.);
#299=CARTESIAN_POINT('',(-5.939186067,-11.984992368,23.363656213));
#300=VERTEX_POINT('',#299);
#301=CARTESIAN_POINT('',(-0.547533271,-0.234455459,26.264400463));
#302=DIRECTION('',(-0.847555051,0.277171202,0.452577685));
#303=DIRECTION('',(0.471032479,-0.,0.882115867));
#304=AXIS2_PLACEMENT_3D('',#301,#302,#303);
#305=CIRCLE('',#304,13.24988131);
#306=EDGE_CURVE('',#291,#300,#305,.T.);
#307=ORIENTED_EDGE('',*,*,#306,.T.);
#308=CARTESIAN_POINT('',(0.867327024,-1.508204472,27.238987799));
#309=DIRECTION('',(-0.6479859,0.596271954,-0.473892425));
#310=DIRECTION('',(-0.677133362,-0.73586032,0.));
#311=AXIS2_PLACEMENT_3D('',#308,#309,#310);
#312=CIRCLE('',#311,13.080898287);
#313=EDGE_CURVE('',#300,#262,#312,.T.);
#314=ORIENTED_EDGE('',*,*,#313,.T.);
#315=EDGE_LOOP('',(#271,#280,#289,#298,#307,#314));
#316=FACE_BOUND('',#315,.T.);
#317=CARTESIAN_POINT('',(-7.298167676,11.044630955,24.905329075));
#318=VERTEX_POINT('',#317);
#319=CARTESIAN_POINT('',(-6.945827993,11.248648246,24.899283587));
#320=VERTEX_POINT('',#319);
#321=CARTESIAN_POINT('',(-1.156614274,0.98607313,29.684402768));
#322=DIRECTION('',(0.176564782,-0.332382331,-0.92647011));
#323=DIRECTION('',(0.,0.941258197,-0.337687735));
#324=AXIS2_PLACEMENT_3D('',#321,#322,#323);
#325=CIRCLE('',#324,12.717421479);
#326=EDGE_CURVE('',#318,#320,#325,.T.);
#327=ORIENTED_EDGE('',*,*,#326,.T.);
#328=CARTESIAN_POINT('',(-6.039346418,11.429995592,23.331125197));
#329=VERTEX_POINT('',#328);
#330=CARTESIAN_POINT('',(0.801965712,0.917817551,27.126676762));
#331=DIRECTION('',(-0.663814828,-0.595418604,-0.452577685));
#332=DIRECTION('',(0.667715515,-0.744416544,0.));
#333=AXIS2_PLACEMENT_3D('',#330,#331,#332);
#334=CIRCLE('',#333,13.104031841);
#335=EDGE_CURVE('',#320,#329,#334,.T.);
#336=ORIENTED_EDGE('',*,*,#335,.T.);
#337=CARTESIAN_POINT('',(-6.637704787,10.632477797,21.827357162));
#338=VERTEX_POINT('',#337);
#339=CARTESIAN_POINT('',(-0.672162348,-0.303886294,26.336101466));
#340=DIRECTION('',(-0.84037961,-0.263036273,0.473892425));
#341=DIRECTION('',(0.491189188,0.,0.871052915));
#342=AXIS2_PLACEMENT_3D('',#339,#340,#341);
#343=CIRCLE('',#342,13.248416181);
#344=EDGE_CURVE('',#329,#338,#343,.T.);
#345=ORIENTED_EDGE('',*,*,#344,.T.);
#346=CARTESIAN_POINT('',(-6.990094391,10.428546972,21.833362115));
#347=VERTEX_POINT('',#346);
#348=CARTESIAN_POINT('',(-0.608335445,-0.046059059,26.807476005));
#349=DIRECTION('',(-0.176564782,0.332382331,0.92647011));
#350=DIRECTION('',(0.,-0.941258197,0.337687735));
#351=AXIS2_PLACEMENT_3D('',#348,#349,#350);
#352=CIRCLE('',#351,13.235785875);
#353=EDGE_CURVE('',#338,#347,#352,.T.);
#354=ORIENTED_EDGE('',*,*,#353,.T.);
#355=CARTESIAN_POINT('',(-7.94320847,10.327969494,23.363656213));
#356=VERTEX_POINT('',#355);
#357=CARTESIAN_POINT('',(-0.462771397,-0.21660725,26.264400463));
#358=DIRECTION('',(0.663814828,0.595418604,0.452577685));
#359=DIRECTION('',(-0.667715515,0.744416544,-0.));
#360=AXIS2_PLACEMENT_3D('',#357,#358,#359);
#361=CIRCLE('',#360,13.24988131);
#362=EDGE_CURVE('',#347,#356,#361,.T.);
#363=ORIENTED_EDGE('',*,*,#362,.T.);
#364=CARTESIAN_POINT('',(-2.273300548,-0.805037702,27.238987799));
#365=DIRECTION('',(0.84037961,0.263036273,-0.473892425));
#366=DIRECTION('',(-0.491189188,0.,-0.871052915));
#367=AXIS2_PLACEMENT_3D('',#364,#365,#366);
#368=CIRCLE('',#367,13.080898287);
#369=EDGE_CURVE('',#356,#318,#368,.T.);
#370=ORIENTED_EDGE('',*,*,#369,.T.);
#371=EDGE_LOOP('',(#327,#336,#345,#354,#363,#370));
#372=FACE_BOUND('',#371,.T.);
#373=CARTESIAN_POINT('',(12.680521171,-0.009929571,24.905329075));
#374=VERTEX_POINT('',#373);
#375=CARTESIAN_POINT('',(12.681035487,-0.417073333,24.899283587));
#376=VERTEX_POINT('',#375);
#377=CARTESIAN_POINT('',(0.898777868,-0.299391923,29.684402768));
#378=DIRECTION('',(-0.376133933,0.013281579,-0.92647011));
#379=DIRECTION('',(-0.926551835,-0.,0.376167112));
#380=AXIS2_PLACEMENT_3D('',#377,#378,#379);
#381=CIRCLE('',#380,12.717421479);
#382=EDGE_CURVE('',#374,#376,#381,.T.);
#383=ORIENTED_EDGE('',*,*,#382,.T.);
#384=CARTESIAN_POINT('',(12.384846107,-1.292783077,23.331125197));
#385=VERTEX_POINT('',#384);
#386=CARTESIAN_POINT('',(-0.13962319,-1.961444157,27.126676762));
#387=DIRECTION('',(-0.183740223,0.872589806,-0.452577685));
#388=DIRECTION('',(0.,0.460416348,0.887703096));
#389=AXIS2_PLACEMENT_3D('',#386,#387,#388);
#390=CIRCLE('',#389,13.104031841);
#391=EDGE_CURVE('',#376,#385,#390,.T.);
#392=ORIENTED_EDGE('',*,*,#391,.T.);
#393=CARTESIAN_POINT('',(11.993354622,-0.375830633,21.827357162));
#394=VERTEX_POINT('',#393);
#395=CARTESIAN_POINT('',(-0.460585725,-0.073959886,26.336101466));
#396=DIRECTION('',(0.19239371,0.859308227,0.473892425));
#397=DIRECTION('',(0.,-0.482914318,0.875667609));
#398=AXIS2_PLACEMENT_3D('',#395,#396,#397);
#399=CIRCLE('',#398,13.248416181);
#400=EDGE_CURVE('',#385,#394,#399,.T.);
#401=ORIENTED_EDGE('',*,*,#400,.T.);
#402=CARTESIAN_POINT('',(11.992940149,0.031313129,21.833362115));
#403=VERTEX_POINT('',#402);
#404=CARTESIAN_POINT('',(-0.269214242,-0.258149223,26.807476005));
#405=DIRECTION('',(0.376133933,-0.013281579,0.92647011));
#406=DIRECTION('',(0.926551835,0.,-0.376167112));
#407=AXIS2_PLACEMENT_3D('',#404,#405,#406);
#408=CIRCLE('',#407,13.235785875);
#409=EDGE_CURVE('',#394,#403,#408,.T.);
#410=ORIENTED_EDGE('',*,*,#409,.T.);
#411=CARTESIAN_POINT('',(12.382394538,0.907022874,23.363656213));
#412=VERTEX_POINT('',#411);
#413=CARTESIAN_POINT('',(-0.489695332,-0.298937291,26.264400463));
#414=DIRECTION('',(0.183740223,-0.872589806,0.452577685));
#415=DIRECTION('',(0.,-0.460416348,-0.887703096));
#416=AXIS2_PLACEMENT_3D('',#413,#414,#415);
#417=CIRCLE('',#416,13.24988131);
#418=EDGE_CURVE('',#403,#412,#417,.T.);
#419=ORIENTED_EDGE('',*,*,#418,.T.);
#420=CARTESIAN_POINT('',(-0.094026476,1.563242174,27.238987799));
#421=DIRECTION('',(-0.19239371,-0.859308227,-0.473892425));
#422=DIRECTION('',(0.,0.482914318,-0.875667609));
#423=AXIS2_PLACEMENT_3D('',#420,#421,#422);
#424=CIRCLE('',#423,13.080898287);
#425=EDGE_CURVE('',#412,#374,#424,.T.);
#426=ORIENTED_EDGE('',*,*,#425,.T.);
#427=EDGE_LOOP('',(#383,#392,#401,#410,#419,#426));
#428=FACE_BOUND('',#427,.T.);
#429=CARTESIAN_POINT('',(-0.5,13.,26.239018634));
#430=VERTEX_POINT('',#429);
#431=CARTESIAN_POINT('',(-0.5,-13.5,26.239018634));
#432=VERTEX_POINT('',#431);
#433=CARTESIAN_POINT('',(-0.5,-0.25,26.239018634));
#434=DIRECTION('',(-0.,-0.,1.));
#435=DIRECTION('',(-1.,0.,0.));
#436=AXIS2_PLACEMENT_3D('',#433,#434,#435);
#437=CIRCLE('',#436,13.25);
#438=EDGE_CURVE('',#430,#432,#437,.T.);
#439=ORIENTED_EDGE('',*,*,#438,.F.);
#440=ORIENTED_EDGE('',*,*,#438,.T.);
#441=EDGE_LOOP('',(#439,#440));
#442=FACE_BOUND('',#441,.T.);
#443=ADVANCED_FACE('',(#51,#260,#316,#372,#428,#442),#31,.F.);
#444=COLOUR_RGB('',0.494117647,0.494117647,0.525490224);
#445=FILL_AREA_STYLE_COLOUR('',#444);
#446=FILL_AREA_STYLE('',(#445));
#447=SURFACE_STYLE_FILL_AREA(#446);
#448=SURFACE_SIDE_STYLE('',(#447));
#449=SURFACE_STYLE_USAGE(.BOTH.,#448);
#450=PRESENTATION_STYLE_ASSIGNMENT((#449));
#451=OVER_RIDING_STYLED_ITEM('',(#450),#443,#26);
#452=CARTESIAN_POINT('',(5.093726185,-5.497513962,23.));
#453=DIRECTION('',(0.,0.,-1.));
#454=DIRECTION('',(-1.,0.,0.));
#455=AXIS2_PLACEMENT_3D('',#452,#453,#454);
#456=DEGENERATE_TOROIDAL_SURFACE('',#455,4.,8.,.T.);
#457=CARTESIAN_POINT('',(17.093726185,-5.497513962,23.));
#458=VERTEX_POINT('',#457);
#459=CARTESIAN_POINT('',(9.093726185,-5.497513962,23.));
#460=DIRECTION('',(0.,1.,0.));
#461=DIRECTION('',(-1.,0.,0.));
#462=AXIS2_PLACEMENT_3D('',#459,#460,#461);
#463=CIRCLE('',#462,8.);
#464=EDGE_CURVE('',#55,#458,#463,.T.);
#465=ORIENTED_EDGE('',*,*,#464,.F.);
#466=ORIENTED_EDGE('',*,*,#257,.T.);
#467=CARTESIAN_POINT('',(5.093726185,-17.497513962,23.));
#468=VERTEX_POINT('',#467);
#469=CARTESIAN_POINT('',(5.093726185,-9.497513962,23.));
#470=DIRECTION('',(-1.,-0.,-0.));
#471=DIRECTION('',(-0.,0.,1.));
#472=AXIS2_PLACEMENT_3D('',#469,#470,#471);
#473=CIRCLE('',#472,8.);
#474=EDGE_CURVE('',#468,#208,#473,.T.);
#475=ORIENTED_EDGE('',*,*,#474,.F.);
#476=CARTESIAN_POINT('',(5.093726185,-5.497513962,23.));
#477=DIRECTION('',(0.,0.,-1.));
#478=DIRECTION('',(-1.,0.,0.));
#479=AXIS2_PLACEMENT_3D('',#476,#477,#478);
#480=CIRCLE('',#479,12.);
#481=EDGE_CURVE('',#458,#468,#480,.T.);
#482=ORIENTED_EDGE('',*,*,#481,.F.);
#483=EDGE_LOOP('',(#465,#466,#475,#482));
#484=FACE_BOUND('',#483,.T.);
#485=ADVANCED_FACE('',(#484),#456,.T.);
#486=CARTESIAN_POINT('',(-0.406273815,-9.497513962,23.));
#487=DIRECTION('',(1.,0.,0.));
#488=DIRECTION('',(-0.,1.,0.));
#489=AXIS2_PLACEMENT_3D('',#486,#487,#488);
#490=CYLINDRICAL_SURFACE('',#489,8.);
#491=ORIENTED_EDGE('',*,*,#474,.T.);
#492=ORIENTED_EDGE('',*,*,#238,.T.);
#493=CARTESIAN_POINT('',(-5.906273815,-17.497513962,23.));
#494=VERTEX_POINT('',#493);
#495=CARTESIAN_POINT('',(-5.906273815,-9.497513962,23.));
#496=DIRECTION('',(-1.,-0.,0.));
#497=DIRECTION('',(0.,-1.,0.));
#498=AXIS2_PLACEMENT_3D('',#495,#496,#497);
#499=CIRCLE('',#498,8.);
#500=EDGE_CURVE('',#494,#187,#499,.T.);
#501=ORIENTED_EDGE('',*,*,#500,.F.);
#502=CARTESIAN_POINT('',(5.093726185,-17.497513962,23.));
#503=DIRECTION('',(-1.,-0.,0.));
#504=VECTOR('',#503,11.);
#505=LINE('',#502,#504);
#506=EDGE_CURVE('',#468,#494,#505,.T.);
#507=ORIENTED_EDGE('',*,*,#506,.F.);
#508=EDGE_LOOP('',(#491,#492,#501,#507));
#509=FACE_BOUND('',#508,.T.);
#510=ADVANCED_FACE('',(#509),#490,.T.);
#511=CARTESIAN_POINT('',(9.093726185,0.002486038,23.));
#512=DIRECTION('',(0.,1.,0.));
#513=DIRECTION('',(0.,-0.,1.));
#514=AXIS2_PLACEMENT_3D('',#511,#512,#513);
#515=CYLINDRICAL_SURFACE('',#514,8.);
#516=CARTESIAN_POINT('',(17.093726185,5.502486038,23.));
#517=VERTEX_POINT('',#516);
#518=CARTESIAN_POINT('',(9.093726185,5.502486038,23.));
#519=DIRECTION('',(0.,1.,0.));
#520=DIRECTION('',(0.,-0.,1.));
#521=AXIS2_PLACEMENT_3D('',#518,#519,#520);
#522=CIRCLE('',#521,8.);
#523=EDGE_CURVE('',#53,#517,#522,.T.);
#524=ORIENTED_EDGE('',*,*,#523,.F.);
#525=ORIENTED_EDGE('',*,*,#82,.T.);
#526=ORIENTED_EDGE('',*,*,#464,.T.);
#527=CARTESIAN_POINT('',(17.093726185,5.502486038,23.));
#528=DIRECTION('',(0.,-1.,0.));
#529=VECTOR('',#528,11.);
#530=LINE('',#527,#529);
#531=EDGE_CURVE('',#517,#458,#530,.T.);
#532=ORIENTED_EDGE('',*,*,#531,.F.);
#533=EDGE_LOOP('',(#524,#525,#526,#532));
#534=FACE_BOUND('',#533,.T.);
#535=ADVANCED_FACE('',(#534),#515,.T.);
#536=CARTESIAN_POINT('',(-5.906273815,-5.497513962,23.));
#537=DIRECTION('',(0.,0.,-1.));
#538=DIRECTION('',(-1.,0.,0.));
#539=AXIS2_PLACEMENT_3D('',#536,#537,#538);
#540=DEGENERATE_TOROIDAL_SURFACE('',#539,4.,8.,.T.);
#541=ORIENTED_EDGE('',*,*,#500,.T.);
#542=ORIENTED_EDGE('',*,*,#205,.T.);
#543=CARTESIAN_POINT('',(-17.906273815,-5.497513962,23.));
#544=VERTEX_POINT('',#543);
#545=CARTESIAN_POINT('',(-9.906273815,-5.497513962,23.));
#546=DIRECTION('',(-0.,1.,0.));
#547=DIRECTION('',(0.,-0.,1.));
#548=AXIS2_PLACEMENT_3D('',#545,#546,#547);
#549=CIRCLE('',#548,8.);
#550=EDGE_CURVE('',#544,#157,#549,.T.);
#551=ORIENTED_EDGE('',*,*,#550,.F.);
#552=CARTESIAN_POINT('',(-5.906273815,-5.497513962,23.));
#553=DIRECTION('',(0.,0.,-1.));
#554=DIRECTION('',(-1.,0.,0.));
#555=AXIS2_PLACEMENT_3D('',#552,#553,#554);
#556=CIRCLE('',#555,12.);
#557=EDGE_CURVE('',#494,#544,#556,.T.);
#558=ORIENTED_EDGE('',*,*,#557,.F.);
#559=EDGE_LOOP('',(#541,#542,#551,#558));
#560=FACE_BOUND('',#559,.T.);
#561=ADVANCED_FACE('',(#560),#540,.T.);
#562=CARTESIAN_POINT('',(5.093726185,5.502486038,23.));
#563=DIRECTION('',(0.,0.,-1.));
#564=DIRECTION('',(-1.,0.,0.));
#565=AXIS2_PLACEMENT_3D('',#562,#563,#564);
#566=DEGENERATE_TOROIDAL_SURFACE('',#565,4.,8.,.T.);
#567=CARTESIAN_POINT('',(5.093726185,17.502486038,23.));
#568=VERTEX_POINT('',#567);
#569=CARTESIAN_POINT('',(5.093726185,9.502486038,23.));
#570=DIRECTION('',(-1.,-0.,0.));
#571=DIRECTION('',(0.,-1.,0.));
#572=AXIS2_PLACEMENT_3D('',#569,#570,#571);
#573=CIRCLE('',#572,8.);
#574=EDGE_CURVE('',#85,#568,#573,.T.);
#575=ORIENTED_EDGE('',*,*,#574,.F.);
#576=ORIENTED_EDGE('',*,*,#103,.T.);
#577=ORIENTED_EDGE('',*,*,#523,.T.);
#578=CARTESIAN_POINT('',(5.093726185,5.502486038,23.));
#579=DIRECTION('',(0.,0.,-1.));
#580=DIRECTION('',(-1.,0.,0.));
#581=AXIS2_PLACEMENT_3D('',#578,#579,#580);
#582=CIRCLE('',#581,12.);
#583=EDGE_CURVE('',#568,#517,#582,.T.);
#584=ORIENTED_EDGE('',*,*,#583,.F.);
#585=EDGE_LOOP('',(#575,#576,#577,#584));
#586=FACE_BOUND('',#585,.T.);
#587=ADVANCED_FACE('',(#586),#566,.T.);
#588=CARTESIAN_POINT('',(-9.906273815,0.002486038,23.));
#589=DIRECTION('',(0.,-1.,0.));
#590=DIRECTION('',(0.,0.,-1.));
#591=AXIS2_PLACEMENT_3D('',#588,#589,#590);
#592=CYLINDRICAL_SURFACE('',#591,8.);
#593=ORIENTED_EDGE('',*,*,#550,.T.);
#594=ORIENTED_EDGE('',*,*,#184,.T.);
#595=CARTESIAN_POINT('',(-17.906273815,5.502486038,23.));
#596=VERTEX_POINT('',#595);
#597=CARTESIAN_POINT('',(-9.906273815,5.502486038,23.));
#598=DIRECTION('',(0.,1.,0.));
#599=DIRECTION('',(0.,-0.,1.));
#600=AXIS2_PLACEMENT_3D('',#597,#598,#599);
#601=CIRCLE('',#600,8.);
#602=EDGE_CURVE('',#596,#136,#601,.T.);
#603=ORIENTED_EDGE('',*,*,#602,.F.);
#604=CARTESIAN_POINT('',(-17.906273815,-5.497513962,23.));
#605=DIRECTION('',(0.,1.,0.));
#606=VECTOR('',#605,11.);
#607=LINE('',#604,#606);
#608=EDGE_CURVE('',#544,#596,#607,.T.);
#609=ORIENTED_EDGE('',*,*,#608,.F.);
#610=EDGE_LOOP('',(#593,#594,#603,#609));
#611=FACE_BOUND('',#610,.T.);
#612=ADVANCED_FACE('',(#611),#592,.T.);
#613=CARTESIAN_POINT('',(-0.406273815,9.502486038,23.));
#614=DIRECTION('',(-1.,-0.,0.));
#615=DIRECTION('',(0.,-1.,0.));
#616=AXIS2_PLACEMENT_3D('',#613,#614,#615);
#617=CYLINDRICAL_SURFACE('',#616,8.);
#618=CARTESIAN_POINT('',(-5.906273815,17.502486038,23.));
#619=VERTEX_POINT('',#618);
#620=CARTESIAN_POINT('',(-5.906273815,9.502486038,23.));
#621=DIRECTION('',(-1.,-0.,0.));
#622=DIRECTION('',(0.,-1.,0.));
#623=AXIS2_PLACEMENT_3D('',#620,#621,#622);
#624=CIRCLE('',#623,8.);
#625=EDGE_CURVE('',#106,#619,#624,.T.);
#626=ORIENTED_EDGE('',*,*,#625,.F.);
#627=ORIENTED_EDGE('',*,*,#133,.T.);
#628=ORIENTED_EDGE('',*,*,#574,.T.);
#629=CARTESIAN_POINT('',(-5.906273815,17.502486038,23.));
#630=DIRECTION('',(1.,0.,0.));
#631=VECTOR('',#630,11.);
#632=LINE('',#629,#631);
#633=EDGE_CURVE('',#619,#568,#632,.T.);
#634=ORIENTED_EDGE('',*,*,#633,.F.);
#635=EDGE_LOOP('',(#626,#627,#628,#634));
#636=FACE_BOUND('',#635,.T.);
#637=ADVANCED_FACE('',(#636),#617,.T.);
#638=CARTESIAN_POINT('',(-5.906273815,5.502486038,23.));
#639=DIRECTION('',(0.,0.,-1.));
#640=DIRECTION('',(-1.,0.,0.));
#641=AXIS2_PLACEMENT_3D('',#638,#639,#640);
#642=DEGENERATE_TOROIDAL_SURFACE('',#641,4.,8.,.T.);
#643=ORIENTED_EDGE('',*,*,#602,.T.);
#644=ORIENTED_EDGE('',*,*,#154,.T.);
#645=ORIENTED_EDGE('',*,*,#625,.T.);
#646=CARTESIAN_POINT('',(-5.906273815,5.502486038,23.));
#647=DIRECTION('',(0.,0.,-1.));
#648=DIRECTION('',(-1.,0.,0.));
#649=AXIS2_PLACEMENT_3D('',#646,#647,#648);
#650=CIRCLE('',#649,12.);
#651=EDGE_CURVE('',#596,#619,#650,.T.);
#652=ORIENTED_EDGE('',*,*,#651,.F.);
#653=EDGE_LOOP('',(#643,#644,#645,#652));
#654=FACE_BOUND('',#653,.T.);
#655=ADVANCED_FACE('',(#654),#642,.T.);
#656=CARTESIAN_POINT('',(-5.906273815,5.502486038,31.));
#657=DIRECTION('',(0.,0.,-1.));
#658=DIRECTION('',(-1.,0.,0.));
#659=AXIS2_PLACEMENT_3D('',#656,#657,#658);
#660=CYLINDRICAL_SURFACE('',#659,12.);
#661=CARTESIAN_POINT('',(-17.906273815,5.502486038,13.));
#662=VERTEX_POINT('',#661);
#663=CARTESIAN_POINT('',(-17.906273815,5.502486038,23.));
#664=DIRECTION('',(0.,0.,-1.));
#665=VECTOR('',#664,10.);
#666=LINE('',#663,#665);
#667=EDGE_CURVE('',#596,#662,#666,.T.);
#668=ORIENTED_EDGE('',*,*,#667,.F.);
#669=ORIENTED_EDGE('',*,*,#651,.T.);
#670=CARTESIAN_POINT('',(-5.906273815,17.502486038,13.));
#671=VERTEX_POINT('',#670);
#672=CARTESIAN_POINT('',(-5.906273815,17.502486038,23.));
#673=DIRECTION('',(0.,0.,-1.));
#674=VECTOR('',#673,10.);
#675=LINE('',#672,#674);
#676=EDGE_CURVE('',#619,#671,#675,.T.);
#677=ORIENTED_EDGE('',*,*,#676,.T.);
#678=CARTESIAN_POINT('',(-5.906273815,5.502486038,13.));
#679=DIRECTION('',(0.,0.,-1.));
#680=DIRECTION('',(-0.553272724,0.833000176,0.));
#681=AXIS2_PLACEMENT_3D('',#678,#679,#680);
#682=CIRCLE('',#681,12.);
#683=EDGE_CURVE('',#662,#671,#682,.T.);
#684=ORIENTED_EDGE('',*,*,#683,.F.);
#685=EDGE_LOOP('',(#668,#669,#677,#684));
#686=FACE_BOUND('',#685,.T.);
#687=ADVANCED_FACE('',(#686),#660,.T.);
#688=CARTESIAN_POINT('',(-0.406273815,17.502486038,31.));
#689=DIRECTION('',(-0.,1.,0.));
#690=DIRECTION('',(-1.,-0.,0.));
#691=AXIS2_PLACEMENT_3D('',#688,#689,#690);
#692=PLANE('',#691);
#693=ORIENTED_EDGE('',*,*,#676,.F.);
#694=ORIENTED_EDGE('',*,*,#633,.T.);
#695=CARTESIAN_POINT('',(5.093726185,17.502486038,13.));
#696=VERTEX_POINT('',#695);
#697=CARTESIAN_POINT('',(5.093726185,17.502486038,23.));
#698=DIRECTION('',(0.,0.,-1.));
#699=VECTOR('',#698,10.);
#700=LINE('',#697,#699);
#701=EDGE_CURVE('',#568,#696,#700,.T.);
#702=ORIENTED_EDGE('',*,*,#701,.T.);
#703=CARTESIAN_POINT('',(-5.906273815,17.502486038,13.));
#704=DIRECTION('',(1.,0.,0.));
#705=VECTOR('',#704,11.);
#706=LINE('',#703,#705);
#707=EDGE_CURVE('',#671,#696,#706,.T.);
#708=ORIENTED_EDGE('',*,*,#707,.F.);
#709=EDGE_LOOP('',(#693,#694,#702,#708));
#710=FACE_BOUND('',#709,.T.);
#711=ADVANCED_FACE('',(#710),#692,.T.);
#712=CARTESIAN_POINT('',(5.093726185,5.502486038,31.));
#713=DIRECTION('',(0.,0.,-1.));
#714=DIRECTION('',(-1.,0.,0.));
#715=AXIS2_PLACEMENT_3D('',#712,#713,#714);
#716=CYLINDRICAL_SURFACE('',#715,12.);
#717=ORIENTED_EDGE('',*,*,#701,.F.);
#718=ORIENTED_EDGE('',*,*,#583,.T.);
#719=CARTESIAN_POINT('',(17.093726185,5.502486038,13.));
#720=VERTEX_POINT('',#719);
#721=CARTESIAN_POINT('',(17.093726185,5.502486038,23.));
#722=DIRECTION('',(0.,0.,-1.));
#723=VECTOR('',#722,10.);
#724=LINE('',#721,#723);
#725=EDGE_CURVE('',#517,#720,#724,.T.);
#726=ORIENTED_EDGE('',*,*,#725,.T.);
#727=CARTESIAN_POINT('',(5.093726185,5.502486038,13.));
#728=DIRECTION('',(0.,0.,-1.));
#729=DIRECTION('',(-0.,1.,0.));
#730=AXIS2_PLACEMENT_3D('',#727,#728,#729);
#731=CIRCLE('',#730,12.);
#732=EDGE_CURVE('',#696,#720,#731,.T.);
#733=ORIENTED_EDGE('',*,*,#732,.F.);
#734=EDGE_LOOP('',(#717,#718,#726,#733));
#735=FACE_BOUND('',#734,.T.);
#736=ADVANCED_FACE('',(#735),#716,.T.);
#737=CARTESIAN_POINT('',(17.093726185,0.002486038,31.));
#738=DIRECTION('',(1.,0.,0.));
#739=DIRECTION('',(0.,0.,-1.));
#740=AXIS2_PLACEMENT_3D('',#737,#738,#739);
#741=PLANE('',#740);
#742=ORIENTED_EDGE('',*,*,#725,.F.);
#743=ORIENTED_EDGE('',*,*,#531,.T.);
#744=CARTESIAN_POINT('',(17.093726185,-5.497513962,13.));
#745=VERTEX_POINT('',#744);
#746=CARTESIAN_POINT('',(17.093726185,-5.497513962,23.));
#747=DIRECTION('',(0.,0.,-1.));
#748=VECTOR('',#747,10.);
#749=LINE('',#746,#748);
#750=EDGE_CURVE('',#458,#745,#749,.T.);
#751=ORIENTED_EDGE('',*,*,#750,.T.);
#752=CARTESIAN_POINT('',(17.093726185,5.502486038,13.));
#753=DIRECTION('',(0.,-1.,0.));
#754=VECTOR('',#753,11.);
#755=LINE('',#752,#754);
#756=EDGE_CURVE('',#720,#745,#755,.T.);
#757=ORIENTED_EDGE('',*,*,#756,.F.);
#758=EDGE_LOOP('',(#742,#743,#751,#757));
#759=FACE_BOUND('',#758,.T.);
#760=ADVANCED_FACE('',(#759),#741,.T.);
#761=CARTESIAN_POINT('',(5.093726185,-5.497513962,31.));
#762=DIRECTION('',(0.,0.,-1.));
#763=DIRECTION('',(-1.,0.,0.));
#764=AXIS2_PLACEMENT_3D('',#761,#762,#763);
#765=CYLINDRICAL_SURFACE('',#764,12.);
#766=ORIENTED_EDGE('',*,*,#750,.F.);
#767=ORIENTED_EDGE('',*,*,#481,.T.);
#768=CARTESIAN_POINT('',(5.093726185,-17.497513962,13.));
#769=VERTEX_POINT('',#768);
#770=CARTESIAN_POINT('',(5.093726185,-17.497513962,23.));
#771=DIRECTION('',(0.,0.,-1.));
#772=VECTOR('',#771,10.);
#773=LINE('',#770,#772);
#774=EDGE_CURVE('',#468,#769,#773,.T.);
#775=ORIENTED_EDGE('',*,*,#774,.T.);
#776=CARTESIAN_POINT('',(5.093726185,-5.497513962,13.));
#777=DIRECTION('',(0.,0.,-1.));
#778=DIRECTION('',(1.,-0.,0.));
#779=AXIS2_PLACEMENT_3D('',#776,#777,#778);
#780=CIRCLE('',#779,12.);
#781=EDGE_CURVE('',#745,#769,#780,.T.);
#782=ORIENTED_EDGE('',*,*,#781,.F.);
#783=EDGE_LOOP('',(#766,#767,#775,#782));
#784=FACE_BOUND('',#783,.T.);
#785=ADVANCED_FACE('',(#784),#765,.T.);
#786=CARTESIAN_POINT('',(-0.406273815,-17.497513962,31.));
#787=DIRECTION('',(0.,-1.,0.));
#788=DIRECTION('',(1.,0.,0.));
#789=AXIS2_PLACEMENT_3D('',#786,#787,#788);
#790=PLANE('',#789);
#791=ORIENTED_EDGE('',*,*,#774,.F.);
#792=ORIENTED_EDGE('',*,*,#506,.T.);
#793=CARTESIAN_POINT('',(-5.906273815,-17.497513962,13.));
#794=VERTEX_POINT('',#793);
#795=CARTESIAN_POINT('',(-5.906273815,-17.497513962,23.));
#796=DIRECTION('',(0.,0.,-1.));
#797=VECTOR('',#796,10.);
#798=LINE('',#795,#797);
#799=EDGE_CURVE('',#494,#794,#798,.T.);
#800=ORIENTED_EDGE('',*,*,#799,.T.);
#801=CARTESIAN_POINT('',(5.093726185,-17.497513962,13.));
#802=DIRECTION('',(-1.,-0.,0.));
#803=VECTOR('',#802,11.);
#804=LINE('',#801,#803);
#805=EDGE_CURVE('',#769,#794,#804,.T.);
#806=ORIENTED_EDGE('',*,*,#805,.F.);
#807=EDGE_LOOP('',(#791,#792,#800,#806));
#808=FACE_BOUND('',#807,.T.);
#809=ADVANCED_FACE('',(#808),#790,.T.);
#810=CARTESIAN_POINT('',(-5.906273815,-5.497513962,31.));
#811=DIRECTION('',(0.,0.,-1.));
#812=DIRECTION('',(-1.,0.,0.));
#813=AXIS2_PLACEMENT_3D('',#810,#811,#812);
#814=CYLINDRICAL_SURFACE('',#813,12.);
#815=ORIENTED_EDGE('',*,*,#799,.F.);
#816=ORIENTED_EDGE('',*,*,#557,.T.);
#817=CARTESIAN_POINT('',(-17.906273815,-5.497513962,13.));
#818=VERTEX_POINT('',#817);
#819=CARTESIAN_POINT('',(-17.906273815,-5.497513962,23.));
#820=DIRECTION('',(0.,0.,-1.));
#821=VECTOR('',#820,10.);
#822=LINE('',#819,#821);
#823=EDGE_CURVE('',#544,#818,#822,.T.);
#824=ORIENTED_EDGE('',*,*,#823,.T.);
#825=CARTESIAN_POINT('',(-5.906273815,-5.497513962,13.));
#826=DIRECTION('',(0.,0.,-1.));
#827=DIRECTION('',(0.,-1.,0.));
#828=AXIS2_PLACEMENT_3D('',#825,#826,#827);
#829=CIRCLE('',#828,12.);
#830=EDGE_CURVE('',#794,#818,#829,.T.);
#831=ORIENTED_EDGE('',*,*,#830,.F.);
#832=EDGE_LOOP('',(#815,#816,#824,#831));
#833=FACE_BOUND('',#832,.T.);
#834=ADVANCED_FACE('',(#833),#814,.T.);
#835=CARTESIAN_POINT('',(-17.906273815,0.002486038,31.));
#836=DIRECTION('',(-1.,0.,0.));
#837=DIRECTION('',(0.,0.,1.));
#838=AXIS2_PLACEMENT_3D('',#835,#836,#837);
#839=PLANE('',#838);
#840=ORIENTED_EDGE('',*,*,#823,.F.);
#841=ORIENTED_EDGE('',*,*,#608,.T.);
#842=ORIENTED_EDGE('',*,*,#667,.T.);
#843=CARTESIAN_POINT('',(-17.906273815,-5.497513962,13.));
#844=DIRECTION('',(0.,1.,0.));
#845=VECTOR('',#844,11.);
#846=LINE('',#843,#845);
#847=EDGE_CURVE('',#818,#662,#846,.T.);
#848=ORIENTED_EDGE('',*,*,#847,.F.);
#849=EDGE_LOOP('',(#840,#841,#842,#848));
#850=FACE_BOUND('',#849,.T.);
#851=ADVANCED_FACE('',(#850),#839,.T.);
#852=CARTESIAN_POINT('',(0.,0.,13.));
#853=DIRECTION('',(0.,0.,-1.));
#854=DIRECTION('',(0.,1.,0.));
#855=AXIS2_PLACEMENT_3D('',#852,#853,#854);
#856=PLANE('',#855);
#857=CARTESIAN_POINT('',(-11.,13.9,13.));
#858=VERTEX_POINT('',#857);
#859=CARTESIAN_POINT('',(-8.055513627,12.2,13.));
#860=VERTEX_POINT('',#859);
#861=CARTESIAN_POINT('',(-11.,13.9,13.));
#862=DIRECTION('',(0.866025404,-0.5,0.));
#863=VECTOR('',#862,3.4);
#864=LINE('',#861,#863);
#865=EDGE_CURVE('',#858,#860,#864,.T.);
#866=ORIENTED_EDGE('',*,*,#865,.F.);
#867=CARTESIAN_POINT('',(-13.944486373,12.2,13.));
#868=VERTEX_POINT('',#867);
#869=CARTESIAN_POINT('',(-13.944486373,12.2,13.));
#870=DIRECTION('',(0.866025404,0.5,0.));
#871=VECTOR('',#870,3.4);
#872=LINE('',#869,#871);
#873=EDGE_CURVE('',#868,#858,#872,.T.);
#874=ORIENTED_EDGE('',*,*,#873,.F.);
#875=CARTESIAN_POINT('',(-13.944486373,8.8,13.));
#876=VERTEX_POINT('',#875);
#877=CARTESIAN_POINT('',(-13.944486373,8.8,13.));
#878=DIRECTION('',(-0.,1.,0.));
#879=VECTOR('',#878,3.4);
#880=LINE('',#877,#879);
#881=EDGE_CURVE('',#876,#868,#880,.T.);
#882=ORIENTED_EDGE('',*,*,#881,.F.);
#883=CARTESIAN_POINT('',(-11.,7.1,13.));
#884=VERTEX_POINT('',#883);
#885=CARTESIAN_POINT('',(-11.,7.1,13.));
#886=DIRECTION('',(-0.866025404,0.5,0.));
#887=VECTOR('',#886,3.4);
#888=LINE('',#885,#887);
#889=EDGE_CURVE('',#884,#876,#888,.T.);
#890=ORIENTED_EDGE('',*,*,#889,.F.);
#891=CARTESIAN_POINT('',(-8.055513627,8.8,13.));
#892=VERTEX_POINT('',#891);
#893=CARTESIAN_POINT('',(-8.055513627,8.8,13.));
#894=DIRECTION('',(-0.866025404,-0.5,0.));
#895=VECTOR('',#894,3.4);
#896=LINE('',#893,#895);
#897=EDGE_CURVE('',#892,#884,#896,.T.);
#898=ORIENTED_EDGE('',*,*,#897,.F.);
#899=CARTESIAN_POINT('',(-8.055513627,12.2,13.));
#900=DIRECTION('',(0.,-1.,0.));
#901=VECTOR('',#900,3.4);
#902=LINE('',#899,#901);
#903=EDGE_CURVE('',#860,#892,#902,.T.);
#904=ORIENTED_EDGE('',*,*,#903,.F.);
#905=EDGE_LOOP('',(#866,#874,#882,#890,#898,#904));
#906=FACE_BOUND('',#905,.T.);
#907=CARTESIAN_POINT('',(10.,-7.1,13.));
#908=VERTEX_POINT('',#907);
#909=CARTESIAN_POINT('',(12.944486373,-8.8,13.));
#910=VERTEX_POINT('',#909);
#911=CARTESIAN_POINT('',(10.,-7.1,13.));
#912=DIRECTION('',(0.866025404,-0.5,0.));
#913=VECTOR('',#912,3.4);
#914=LINE('',#911,#913);
#915=EDGE_CURVE('',#908,#910,#914,.T.);
#916=ORIENTED_EDGE('',*,*,#915,.F.);
#917=CARTESIAN_POINT('',(7.055513627,-8.8,13.));
#918=VERTEX_POINT('',#917);
#919=CARTESIAN_POINT('',(7.055513627,-8.8,13.));
#920=DIRECTION('',(0.866025404,0.5,0.));
#921=VECTOR('',#920,3.4);
#922=LINE('',#919,#921);
#923=EDGE_CURVE('',#918,#908,#922,.T.);
#924=ORIENTED_EDGE('',*,*,#923,.F.);
#925=CARTESIAN_POINT('',(7.055513627,-12.2,13.));
#926=VERTEX_POINT('',#925);
#927=CARTESIAN_POINT('',(7.055513627,-12.2,13.));
#928=DIRECTION('',(0.,1.,0.));
#929=VECTOR('',#928,3.4);
#930=LINE('',#927,#929);
#931=EDGE_CURVE('',#926,#918,#930,.T.);
#932=ORIENTED_EDGE('',*,*,#931,.F.);
#933=CARTESIAN_POINT('',(10.,-13.9,13.));
#934=VERTEX_POINT('',#933);
#935=CARTESIAN_POINT('',(10.,-13.9,13.));
#936=DIRECTION('',(-0.866025404,0.5,0.));
#937=VECTOR('',#936,3.4);
#938=LINE('',#935,#937);
#939=EDGE_CURVE('',#934,#926,#938,.T.);
#940=ORIENTED_EDGE('',*,*,#939,.F.);
#941=CARTESIAN_POINT('',(12.944486373,-12.2,13.));
#942=VERTEX_POINT('',#941);
#943=CARTESIAN_POINT('',(12.944486373,-12.2,13.));
#944=DIRECTION('',(-0.866025404,-0.5,0.));
#945=VECTOR('',#944,3.4);
#946=LINE('',#943,#945);
#947=EDGE_CURVE('',#942,#934,#946,.T.);
#948=ORIENTED_EDGE('',*,*,#947,.F.);
#949=CARTESIAN_POINT('',(12.944486373,-8.8,13.));
#950=DIRECTION('',(-0.,-1.,0.));
#951=VECTOR('',#950,3.4);
#952=LINE('',#949,#951);
#953=EDGE_CURVE('',#910,#942,#952,.T.);
#954=ORIENTED_EDGE('',*,*,#953,.F.);
#955=EDGE_LOOP('',(#916,#924,#932,#940,#948,#954));
#956=FACE_BOUND('',#955,.T.);
#957=CARTESIAN_POINT('',(-7.,-0.25,13.));
#958=VERTEX_POINT('',#957);
#959=CARTESIAN_POINT('',(-0.5,-0.25,13.));
#960=DIRECTION('',(0.,0.,-1.));
#961=DIRECTION('',(-1.,0.,0.));
#962=AXIS2_PLACEMENT_3D('',#959,#960,#961);
#963=CIRCLE('',#962,6.5);
#964=EDGE_CURVE('',#958,#958,#963,.T.);
#965=ORIENTED_EDGE('',*,*,#964,.F.);
#966=EDGE_LOOP('',(#965));
#967=FACE_BOUND('',#966,.T.);
#968=ORIENTED_EDGE('',*,*,#683,.T.);
#969=ORIENTED_EDGE('',*,*,#707,.T.);
#970=ORIENTED_EDGE('',*,*,#732,.T.);
#971=ORIENTED_EDGE('',*,*,#756,.T.);
#972=ORIENTED_EDGE('',*,*,#781,.T.);
#973=ORIENTED_EDGE('',*,*,#805,.T.);
#974=ORIENTED_EDGE('',*,*,#830,.T.);
#975=ORIENTED_EDGE('',*,*,#847,.T.);
#976=EDGE_LOOP('',(#968,#969,#970,#971,#972,#973,#974,#975));
#977=FACE_BOUND('',#976,.T.);
#978=ADVANCED_FACE('',(#906,#956,#967,#977),#856,.T.);
#979=CARTESIAN_POINT('',(-0.5,-0.25,22.));
#980=DIRECTION('',(0.,0.,-1.));
#981=DIRECTION('',(-1.,0.,0.));
#982=AXIS2_PLACEMENT_3D('',#979,#980,#981);
#983=CYLINDRICAL_SURFACE('',#982,6.5);
#984=CARTESIAN_POINT('',(-7.,-0.25,13.));
#985=DIRECTION('',(-0.,-0.,1.));
#986=VECTOR('',#985,1.692915395);
#987=LINE('',#984,#986);
#988=EDGE_CURVE('',#958,#33,#987,.T.);
#989=ORIENTED_EDGE('',*,*,#988,.F.);
#990=ORIENTED_EDGE('',*,*,#964,.T.);
#991=ORIENTED_EDGE('',*,*,#988,.T.);
#992=ORIENTED_EDGE('',*,*,#41,.T.);
#993=ORIENTED_EDGE('',*,*,#48,.T.);
#994=EDGE_LOOP('',(#989,#990,#991,#992,#993));
#995=FACE_BOUND('',#994,.T.);
#996=ADVANCED_FACE('',(#995),#983,.F.);
#997=CARTESIAN_POINT('',(-5.078123958,-6.631276229,25.907213989));
#998=DIRECTION('',(0.847555051,-0.277171202,-0.452577685));
#999=DIRECTION('',(-0.471032479,-0.,-0.882115867));
#1000=AXIS2_PLACEMENT_3D('',#997,#998,#999);
#1001=PLANE('',#1000);
#1002=CARTESIAN_POINT('',(-7.999297241,-12.905017176,24.278864043));
#1003=VERTEX_POINT('',#1002);
#1004=CARTESIAN_POINT('',(-7.235207494,-11.581574913,24.899283587));
#1005=DIRECTION('',(-0.463275918,-0.802417427,-0.376167112));
#1006=VECTOR('',#1005,1.649318942);
#1007=LINE('',#1004,#1006);
#1008=EDGE_CURVE('',#264,#1003,#1007,.T.);
#1009=ORIENTED_EDGE('',*,*,#1008,.T.);
#1010=CARTESIAN_POINT('',(-8.463446824,-11.957528347,22.829369374));
#1011=VERTEX_POINT('',#1010);
#1012=CARTESIAN_POINT('',(-8.463446824,-11.957528347,22.829369374));
#1013=DIRECTION('',(0.258893531,-0.528490678,0.808499686));
#1014=VECTOR('',#1013,1.792820323);
#1015=LINE('',#1012,#1014);
#1016=EDGE_CURVE('',#1011,#1003,#1015,.T.);
#1017=ORIENTED_EDGE('',*,*,#1016,.F.);
#1018=CARTESIAN_POINT('',(-7.845499689,-10.887212514,23.331125197));
#1019=DIRECTION('',(-0.463275918,-0.802417427,-0.376167112));
#1020=VECTOR('',#1019,1.333864142);
#1021=LINE('',#1018,#1020);
#1022=EDGE_CURVE('',#273,#1011,#1021,.T.);
#1023=ORIENTED_EDGE('',*,*,#1022,.F.);
#1024=ORIENTED_EDGE('',*,*,#279,.F.);
#1025=EDGE_LOOP('',(#1009,#1017,#1023,#1024));
#1026=FACE_BOUND('',#1025,.T.);
#1027=ADVANCED_FACE('',(#1026),#1001,.T.);
#1028=COLOUR_RGB('',0.929411769,0.909803927,0.858823538);
#1029=FILL_AREA_STYLE_COLOUR('',#1028);
#1030=FILL_AREA_STYLE('',(#1029));
#1031=SURFACE_STYLE_FILL_AREA(#1030);
#1032=SURFACE_SIDE_STYLE('',(#1031));
#1033=SURFACE_STYLE_USAGE(.BOTH.,#1032);
#1034=PRESENTATION_STYLE_ASSIGNMENT((#1033));
#1035=OVER_RIDING_STYLED_ITEM('',(#1034),#1027,#26);
#1036=CARTESIAN_POINT('',(-4.580575974,-7.390762006,26.914539221));
#1037=DIRECTION('',(0.199569151,0.319100752,-0.92647011));
#1038=DIRECTION('',(0.,0.945489824,0.325651643));
#1039=AXIS2_PLACEMENT_3D('',#1036,#1037,#1038);
#1040=PLANE('',#1039);
#1041=CARTESIAN_POINT('',(-7.647717554,-13.110350819,24.283874825));
#1042=VERTEX_POINT('',#1041);
#1043=CARTESIAN_POINT('',(-6.882353496,-11.784701384,24.905329075));
#1044=DIRECTION('',(-0.463275918,-0.802417427,-0.376167112));
#1045=VECTOR('',#1044,1.652069596);
#1046=LINE('',#1043,#1045);
#1047=EDGE_CURVE('',#262,#1042,#1046,.T.);
#1048=ORIENTED_EDGE('',*,*,#1047,.T.);
#1049=CARTESIAN_POINT('',(-7.999297241,-12.905017176,24.278864043));
#1050=DIRECTION('',(0.86345097,-0.504282642,0.012306071));
#1051=VECTOR('',#1050,0.407179677);
#1052=LINE('',#1049,#1051);
#1053=EDGE_CURVE('',#1003,#1042,#1052,.T.);
#1054=ORIENTED_EDGE('',*,*,#1053,.F.);
#1055=ORIENTED_EDGE('',*,*,#1008,.F.);
#1056=ORIENTED_EDGE('',*,*,#270,.F.);
#1057=EDGE_LOOP('',(#1048,#1054,#1055,#1056));
#1058=FACE_BOUND('',#1057,.T.);
#1059=ADVANCED_FACE('',(#1058),#1040,.T.);
#1060=OVER_RIDING_STYLED_ITEM('',(#1034),#1059,#26);
#1061=CARTESIAN_POINT('',(-3.653429857,-7.463342588,25.927519006));
#1062=DIRECTION('',(-0.6479859,0.596271954,-0.473892425));
#1063=DIRECTION('',(-0.677133362,-0.73586032,0.));
#1064=AXIS2_PLACEMENT_3D('',#1061,#1062,#1063);
#1065=PLANE('',#1064);
#1066=CARTESIAN_POINT('',(-6.563854689,-13.066950159,22.856442731));
#1067=VERTEX_POINT('',#1066);
#1068=CARTESIAN_POINT('',(-5.939186067,-11.984992368,23.363656213));
#1069=DIRECTION('',(-0.463275918,-0.802417427,-0.376167112));
#1070=VECTOR('',#1069,1.348372747);
#1071=LINE('',#1068,#1070);
#1072=EDGE_CURVE('',#300,#1067,#1071,.T.);
#1073=ORIENTED_EDGE('',*,*,#1072,.T.);
#1074=CARTESIAN_POINT('',(-7.647717554,-13.110350819,24.283874825));
#1075=DIRECTION('',(0.60455744,0.024208037,-0.796193615));
#1076=VECTOR('',#1075,1.792820323);
#1077=LINE('',#1074,#1076);
#1078=EDGE_CURVE('',#1042,#1067,#1077,.T.);
#1079=ORIENTED_EDGE('',*,*,#1078,.F.);
#1080=ORIENTED_EDGE('',*,*,#1047,.F.);
#1081=ORIENTED_EDGE('',*,*,#313,.F.);
#1082=EDGE_LOOP('',(#1073,#1079,#1080,#1081));
#1083=FACE_BOUND('',#1082,.T.);
#1084=ADVANCED_FACE('',(#1083),#1065,.T.);
#1085=OVER_RIDING_STYLED_ITEM('',(#1034),#1084,#26);
#1086=CARTESIAN_POINT('',(-3.463314707,-7.159358295,25.04493769));
#1087=DIRECTION('',(-0.847555051,0.277171202,0.452577685));
#1088=DIRECTION('',(0.471032479,0.,0.882115867));
#1089=AXIS2_PLACEMENT_3D('',#1086,#1087,#1088);
#1090=PLANE('',#1089);
#1091=CARTESIAN_POINT('',(-7.028004272,-12.11946133,21.406948062));
#1092=VERTEX_POINT('',#1091);
#1093=CARTESIAN_POINT('',(-6.502845758,-11.209860102,21.833362115));
#1094=DIRECTION('',(-0.463275918,-0.802417427,-0.376167112));
#1095=VECTOR('',#1094,1.133576114);
#1096=LINE('',#1093,#1095);
#1097=EDGE_CURVE('',#291,#1092,#1096,.T.);
#1098=ORIENTED_EDGE('',*,*,#1097,.T.);
#1099=CARTESIAN_POINT('',(-6.563854689,-13.066950159,22.856442731));
#1100=DIRECTION('',(-0.258893531,0.528490678,-0.808499686));
#1101=VECTOR('',#1100,1.792820323);
#1102=LINE('',#1099,#1101);
#1103=EDGE_CURVE('',#1067,#1092,#1102,.T.);
#1104=ORIENTED_EDGE('',*,*,#1103,.F.);
#1105=ORIENTED_EDGE('',*,*,#1072,.F.);
#1106=ORIENTED_EDGE('',*,*,#306,.F.);
#1107=EDGE_LOOP('',(#1098,#1104,#1105,#1106));
#1108=FACE_BOUND('',#1107,.T.);
#1109=ADVANCED_FACE('',(#1108),#1090,.T.);
#1110=OVER_RIDING_STYLED_ITEM('',(#1034),#1109,#26);
#1111=CARTESIAN_POINT('',(-3.960862692,-6.399872518,24.037612458));
#1112=DIRECTION('',(-0.199569151,-0.319100752,0.92647011));
#1113=DIRECTION('',(-0.,-0.945489824,-0.325651643));
#1114=AXIS2_PLACEMENT_3D('',#1111,#1112,#1113);
#1115=PLANE('',#1114);
#1116=CARTESIAN_POINT('',(-7.379583959,-11.914127687,21.40193728));
#1117=VERTEX_POINT('',#1116);
#1118=CARTESIAN_POINT('',(-6.855649835,-11.006647165,21.827357162));
#1119=DIRECTION('',(-0.463275918,-0.802417427,-0.376167112));
#1120=VECTOR('',#1119,1.130933217);
#1121=LINE('',#1118,#1120);
#1122=EDGE_CURVE('',#282,#1117,#1121,.T.);
#1123=ORIENTED_EDGE('',*,*,#1122,.T.);
#1124=CARTESIAN_POINT('',(-7.028004272,-12.11946133,21.406948062));
#1125=DIRECTION('',(-0.86345097,0.504282642,-0.012306071));
#1126=VECTOR('',#1125,0.407179677);
#1127=LINE('',#1124,#1126);
#1128=EDGE_CURVE('',#1092,#1117,#1127,.T.);
#1129=ORIENTED_EDGE('',*,*,#1128,.F.);
#1130=ORIENTED_EDGE('',*,*,#1097,.F.);
#1131=ORIENTED_EDGE('',*,*,#297,.F.);
#1132=EDGE_LOOP('',(#1123,#1129,#1130,#1131));
#1133=FACE_BOUND('',#1132,.T.);
#1134=ADVANCED_FACE('',(#1133),#1115,.T.);
#1135=OVER_RIDING_STYLED_ITEM('',(#1034),#1134,#26);
#1136=CARTESIAN_POINT('',(-4.888008808,-6.327291936,25.024632673));
#1137=DIRECTION('',(0.6479859,-0.596271954,0.473892425));
#1138=DIRECTION('',(0.677133362,0.73586032,-0.));
#1139=AXIS2_PLACEMENT_3D('',#1136,#1137,#1138);
#1140=PLANE('',#1139);
#1141=ORIENTED_EDGE('',*,*,#1022,.T.);
#1142=CARTESIAN_POINT('',(-7.379583959,-11.914127687,21.40193728));
#1143=DIRECTION('',(-0.60455744,-0.024208037,0.796193615));
#1144=VECTOR('',#1143,1.792820323);
#1145=LINE('',#1142,#1144);
#1146=EDGE_CURVE('',#1117,#1011,#1145,.T.);
#1147=ORIENTED_EDGE('',*,*,#1146,.F.);
#1148=ORIENTED_EDGE('',*,*,#1122,.F.);
#1149=ORIENTED_EDGE('',*,*,#288,.F.);
#1150=EDGE_LOOP('',(#1141,#1147,#1148,#1149));
#1151=FACE_BOUND('',#1150,.T.);
#1152=ADVANCED_FACE('',(#1151),#1140,.T.);
#1153=OVER_RIDING_STYLED_ITEM('',(#1034),#1152,#26);
#1154=CARTESIAN_POINT('',(-68.156089839,22.499689276,22.842906052));
#1155=DIRECTION('',(0.463275918,0.802417427,0.376167112));
#1156=DIRECTION('',(-0.188083556,-0.325770275,0.926551835));
#1157=AXIS2_PLACEMENT_3D('',#1154,#1155,#1156);
#1158=PLANE('',#1157);
#1159=ORIENTED_EDGE('',*,*,#1016,.T.);
#1160=ORIENTED_EDGE('',*,*,#1053,.T.);
#1161=ORIENTED_EDGE('',*,*,#1078,.T.);
#1162=ORIENTED_EDGE('',*,*,#1103,.T.);
#1163=ORIENTED_EDGE('',*,*,#1128,.T.);
#1164=ORIENTED_EDGE('',*,*,#1146,.T.);
#1165=EDGE_LOOP('',(#1159,#1160,#1161,#1162,#1163,#1164));
#1166=FACE_BOUND('',#1165,.T.);
#1167=ADVANCED_FACE('',(#1166),#1158,.T.);
#1168=OVER_RIDING_STYLED_ITEM('',(#1034),#1167,#26);
#1169=CARTESIAN_POINT('',(-3.737285344,6.905409764,25.907213989));
#1170=DIRECTION('',(-0.663814828,-0.595418604,-0.452577685));
#1171=DIRECTION('',(0.23551624,0.407926093,-0.882115867));
#1172=AXIS2_PLACEMENT_3D('',#1169,#1170,#1171);
#1173=PLANE('',#1172);
#1174=CARTESIAN_POINT('',(-7.709917739,12.572090509,24.278864043));
#1175=VERTEX_POINT('',#1174);
#1176=CARTESIAN_POINT('',(-6.945827993,11.248648246,24.899283587));
#1177=DIRECTION('',(-0.463275918,0.802417427,-0.376167112));
#1178=VECTOR('',#1177,1.649318942);
#1179=LINE('',#1176,#1178);
#1180=EDGE_CURVE('',#320,#1175,#1179,.T.);
#1181=ORIENTED_EDGE('',*,*,#1180,.T.);
#1182=CARTESIAN_POINT('',(-6.657293552,12.500311425,22.829369374));
#1183=VERTEX_POINT('',#1182);
#1184=CARTESIAN_POINT('',(-6.657293552,12.500311425,22.829369374));
#1185=DIRECTION('',(-0.587133118,0.040036965,0.808499686));
#1186=VECTOR('',#1185,1.792820323);
#1187=LINE('',#1184,#1186);
#1188=EDGE_CURVE('',#1183,#1175,#1187,.T.);
#1189=ORIENTED_EDGE('',*,*,#1188,.F.);
#1190=CARTESIAN_POINT('',(-6.039346418,11.429995592,23.331125197));
#1191=DIRECTION('',(-0.463275918,0.802417427,-0.376167112));
#1192=VECTOR('',#1191,1.333864142);
#1193=LINE('',#1190,#1192);
#1194=EDGE_CURVE('',#329,#1183,#1193,.T.);
#1195=ORIENTED_EDGE('',*,*,#1194,.F.);
#1196=ORIENTED_EDGE('',*,*,#335,.F.);
#1197=EDGE_LOOP('',(#1181,#1189,#1195,#1196));
#1198=FACE_BOUND('',#1197,.T.);
#1199=ADVANCED_FACE('',(#1198),#1173,.T.);
#1200=OVER_RIDING_STYLED_ITEM('',(#1034),#1199,#26);
#1201=CARTESIAN_POINT('',(-4.643793313,6.854263458,26.914539221));
#1202=DIRECTION('',(0.176564782,-0.332382331,-0.92647011));
#1203=DIRECTION('',(0.818818207,-0.472744912,0.325651643));
#1204=AXIS2_PLACEMENT_3D('',#1201,#1202,#1203);
#1205=PLANE('',#1204);
#1206=CARTESIAN_POINT('',(-8.063531734,12.37028039,24.283874825));
#1207=VERTEX_POINT('',#1206);
#1208=CARTESIAN_POINT('',(-7.298167676,11.044630955,24.905329075));
#1209=DIRECTION('',(-0.463275918,0.802417427,-0.376167112));
#1210=VECTOR('',#1209,1.652069596);
#1211=LINE('',#1208,#1210);
#1212=EDGE_CURVE('',#318,#1207,#1211,.T.);
#1213=ORIENTED_EDGE('',*,*,#1212,.T.);
#1214=CARTESIAN_POINT('',(-7.709917739,12.572090509,24.278864043));
#1215=DIRECTION('',(-0.868447063,-0.495629154,0.012306071));
#1216=VECTOR('',#1215,0.407179677);
#1217=LINE('',#1214,#1216);
#1218=EDGE_CURVE('',#1175,#1207,#1217,.T.);
#1219=ORIENTED_EDGE('',*,*,#1218,.F.);
#1220=ORIENTED_EDGE('',*,*,#1180,.F.);
#1221=ORIENTED_EDGE('',*,*,#326,.F.);
#1222=EDGE_LOOP('',(#1213,#1219,#1220,#1221));
#1223=FACE_BOUND('',#1222,.T.);
#1224=ADVANCED_FACE('',(#1223),#1205,.T.);
#1225=OVER_RIDING_STYLED_ITEM('',(#1034),#1224,#26);
#1226=CARTESIAN_POINT('',(-5.170222999,6.08762166,25.927519006));
#1227=DIRECTION('',(0.84037961,0.263036273,-0.473892425));
#1228=DIRECTION('',(-0.298707049,0.954344853,0.));
#1229=AXIS2_PLACEMENT_3D('',#1226,#1227,#1228);
#1230=PLANE('',#1229);
#1231=CARTESIAN_POINT('',(-8.567877092,11.409927285,22.856442731));
#1232=VERTEX_POINT('',#1231);
#1233=CARTESIAN_POINT('',(-7.94320847,10.327969494,23.363656213));
#1234=DIRECTION('',(-0.463275918,0.802417427,-0.376167112));
#1235=VECTOR('',#1234,1.348372747);
#1236=LINE('',#1233,#1235);
#1237=EDGE_CURVE('',#356,#1232,#1236,.T.);
#1238=ORIENTED_EDGE('',*,*,#1237,.T.);
#1239=CARTESIAN_POINT('',(-8.063531734,12.37028039,24.283874825));
#1240=DIRECTION('',(-0.281313945,-0.535666119,-0.796193615));
#1241=VECTOR('',#1240,1.792820323);
#1242=LINE('',#1239,#1241);
#1243=EDGE_CURVE('',#1207,#1232,#1242,.T.);
#1244=ORIENTED_EDGE('',*,*,#1243,.F.);
#1245=ORIENTED_EDGE('',*,*,#1212,.F.);
#1246=ORIENTED_EDGE('',*,*,#369,.F.);
#1247=EDGE_LOOP('',(#1238,#1244,#1245,#1246));
#1248=FACE_BOUND('',#1247,.T.);
#1249=ADVANCED_FACE('',(#1248),#1230,.T.);
#1250=OVER_RIDING_STYLED_ITEM('',(#1034),#1249,#26);
#1251=CARTESIAN_POINT('',(-5.002022453,5.770984963,25.04493769));
#1252=DIRECTION('',(0.663814828,0.595418604,0.452577685));
#1253=DIRECTION('',(-0.23551624,-0.407926093,0.882115867));
#1254=AXIS2_PLACEMENT_3D('',#1251,#1252,#1253);
#1255=PLANE('',#1254);
#1256=CARTESIAN_POINT('',(-7.515252905,11.338148201,21.406948062));
#1257=VERTEX_POINT('',#1256);
#1258=CARTESIAN_POINT('',(-6.990094391,10.428546972,21.833362115));
#1259=DIRECTION('',(-0.463275918,0.802417427,-0.376167112));
#1260=VECTOR('',#1259,1.133576114);
#1261=LINE('',#1258,#1260);
#1262=EDGE_CURVE('',#347,#1257,#1261,.T.);
#1263=ORIENTED_EDGE('',*,*,#1262,.T.);
#1264=CARTESIAN_POINT('',(-8.567877092,11.409927285,22.856442731));
#1265=DIRECTION('',(0.587133118,-0.040036965,-0.808499686));
#1266=VECTOR('',#1265,1.792820323);
#1267=LINE('',#1264,#1266);
#1268=EDGE_CURVE('',#1232,#1257,#1267,.T.);
#1269=ORIENTED_EDGE('',*,*,#1268,.F.);
#1270=ORIENTED_EDGE('',*,*,#1237,.F.);
#1271=ORIENTED_EDGE('',*,*,#362,.F.);
#1272=EDGE_LOOP('',(#1263,#1269,#1270,#1271));
#1273=FACE_BOUND('',#1272,.T.);
#1274=ADVANCED_FACE('',(#1273),#1255,.T.);
#1275=OVER_RIDING_STYLED_ITEM('',(#1034),#1274,#26);
#1276=CARTESIAN_POINT('',(-4.095514484,5.822131269,24.037612458));
#1277=DIRECTION('',(-0.176564782,0.332382331,0.92647011));
#1278=DIRECTION('',(-0.818818207,0.472744912,-0.325651643));
#1279=AXIS2_PLACEMENT_3D('',#1276,#1277,#1278);
#1280=PLANE('',#1279);
#1281=CARTESIAN_POINT('',(-7.16163891,11.53995832,21.40193728));
#1282=VERTEX_POINT('',#1281);
#1283=CARTESIAN_POINT('',(-6.637704787,10.632477797,21.827357162));
#1284=DIRECTION('',(-0.463275918,0.802417427,-0.376167112));
#1285=VECTOR('',#1284,1.130933217);
#1286=LINE('',#1283,#1285);
#1287=EDGE_CURVE('',#338,#1282,#1286,.T.);
#1288=ORIENTED_EDGE('',*,*,#1287,.T.);
#1289=CARTESIAN_POINT('',(-7.515252905,11.338148201,21.406948062));
#1290=DIRECTION('',(0.868447063,0.495629154,-0.012306071));
#1291=VECTOR('',#1290,0.407179677);
#1292=LINE('',#1289,#1291);
#1293=EDGE_CURVE('',#1257,#1282,#1292,.T.);
#1294=ORIENTED_EDGE('',*,*,#1293,.F.);
#1295=ORIENTED_EDGE('',*,*,#1262,.F.);
#1296=ORIENTED_EDGE('',*,*,#353,.F.);
#1297=EDGE_LOOP('',(#1288,#1294,#1295,#1296));
#1298=FACE_BOUND('',#1297,.T.);
#1299=ADVANCED_FACE('',(#1298),#1280,.T.);
#1300=OVER_RIDING_STYLED_ITEM('',(#1034),#1299,#26);
#1301=CARTESIAN_POINT('',(-3.569084799,6.588773068,25.024632673));
#1302=DIRECTION('',(-0.84037961,-0.263036273,0.473892425));
#1303=DIRECTION('',(0.298707049,-0.954344853,0.));
#1304=AXIS2_PLACEMENT_3D('',#1301,#1302,#1303);
#1305=PLANE('',#1304);
#1306=ORIENTED_EDGE('',*,*,#1194,.T.);
#1307=CARTESIAN_POINT('',(-7.16163891,11.53995832,21.40193728));
#1308=DIRECTION('',(0.281313945,0.535666119,0.796193615));
#1309=VECTOR('',#1308,1.792820323);
#1310=LINE('',#1307,#1309);
#1311=EDGE_CURVE('',#1282,#1183,#1310,.T.);
#1312=ORIENTED_EDGE('',*,*,#1311,.F.);
#1313=ORIENTED_EDGE('',*,*,#1287,.F.);
#1314=ORIENTED_EDGE('',*,*,#344,.F.);
#1315=EDGE_LOOP('',(#1306,#1312,#1313,#1314));
#1316=FACE_BOUND('',#1315,.T.);
#1317=ADVANCED_FACE('',(#1316),#1305,.T.);
#1318=OVER_RIDING_STYLED_ITEM('',(#1034),#1317,#26);
#1319=CARTESIAN_POINT('',(53.02985376,46.967047883,22.842906052));
#1320=DIRECTION('',(0.463275918,-0.802417427,0.376167112));
#1321=DIRECTION('',(-0.188083556,0.325770275,0.926551835));
#1322=AXIS2_PLACEMENT_3D('',#1319,#1320,#1321);
#1323=PLANE('',#1322);
#1324=ORIENTED_EDGE('',*,*,#1188,.T.);
#1325=ORIENTED_EDGE('',*,*,#1218,.T.);
#1326=ORIENTED_EDGE('',*,*,#1243,.T.);
#1327=ORIENTED_EDGE('',*,*,#1268,.T.);
#1328=ORIENTED_EDGE('',*,*,#1293,.T.);
#1329=ORIENTED_EDGE('',*,*,#1311,.T.);
#1330=EDGE_LOOP('',(#1324,#1325,#1326,#1327,#1328,#1329));
#1331=FACE_BOUND('',#1330,.T.);
#1332=ADVANCED_FACE('',(#1331),#1323,.T.);
#1333=OVER_RIDING_STYLED_ITEM('',(#1034),#1332,#26);
#1334=CARTESIAN_POINT('',(7.315409302,-1.024133535,25.907213989));
#1335=DIRECTION('',(-0.183740223,0.872589806,-0.452577685));
#1336=DIRECTION('',(0.23551624,-0.407926093,-0.882115867));
#1337=AXIS2_PLACEMENT_3D('',#1334,#1335,#1336);
#1338=PLANE('',#1337);
#1339=CARTESIAN_POINT('',(14.20921498,-0.417073333,24.278864043));
#1340=VERTEX_POINT('',#1339);
#1341=CARTESIAN_POINT('',(12.681035487,-0.417073333,24.899283587));
#1342=DIRECTION('',(0.926551835,0.,-0.376167112));
#1343=VECTOR('',#1342,1.649318942);
#1344=LINE('',#1341,#1343);
#1345=EDGE_CURVE('',#376,#1340,#1344,.T.);
#1346=ORIENTED_EDGE('',*,*,#1345,.T.);
#1347=CARTESIAN_POINT('',(13.620740376,-1.292783077,22.829369374));
#1348=VERTEX_POINT('',#1347);
#1349=CARTESIAN_POINT('',(13.620740376,-1.292783077,22.829369374));
#1350=DIRECTION('',(0.328239588,0.488453713,0.808499686));
#1351=VECTOR('',#1350,1.792820323);
#1352=LINE('',#1349,#1351);
#1353=EDGE_CURVE('',#1348,#1340,#1352,.T.);
#1354=ORIENTED_EDGE('',*,*,#1353,.F.);
#1355=CARTESIAN_POINT('',(12.384846107,-1.292783077,23.331125197));
#1356=DIRECTION('',(0.926551835,0.,-0.376167112));
#1357=VECTOR('',#1356,1.333864142);
#1358=LINE('',#1355,#1357);
#1359=EDGE_CURVE('',#385,#1348,#1358,.T.);
#1360=ORIENTED_EDGE('',*,*,#1359,.F.);
#1361=ORIENTED_EDGE('',*,*,#391,.F.);
#1362=EDGE_LOOP('',(#1346,#1354,#1360,#1361));
#1363=FACE_BOUND('',#1362,.T.);
#1364=ADVANCED_FACE('',(#1363),#1338,.T.);
#1365=OVER_RIDING_STYLED_ITEM('',(#1034),#1364,#26);
#1366=CARTESIAN_POINT('',(7.724369287,-0.213501452,26.914539221));
#1367=DIRECTION('',(-0.376133933,0.013281579,-0.92647011));
#1368=DIRECTION('',(-0.818818207,-0.472744912,0.325651643));
#1369=AXIS2_PLACEMENT_3D('',#1366,#1367,#1368);
#1370=PLANE('',#1369);
#1371=CARTESIAN_POINT('',(14.211249288,-0.009929571,24.283874825));
#1372=VERTEX_POINT('',#1371);
#1373=CARTESIAN_POINT('',(12.680521171,-0.009929571,24.905329075));
#1374=DIRECTION('',(0.926551835,0.,-0.376167112));
#1375=VECTOR('',#1374,1.652069596);
#1376=LINE('',#1373,#1375);
#1377=EDGE_CURVE('',#374,#1372,#1376,.T.);
#1378=ORIENTED_EDGE('',*,*,#1377,.T.);
#1379=CARTESIAN_POINT('',(14.20921498,-0.417073333,24.278864043));
#1380=DIRECTION('',(0.004996093,0.999911796,0.012306071));
#1381=VECTOR('',#1380,0.407179677);
#1382=LINE('',#1379,#1381);
#1383=EDGE_CURVE('',#1340,#1372,#1382,.T.);
#1384=ORIENTED_EDGE('',*,*,#1383,.F.);
#1385=ORIENTED_EDGE('',*,*,#1345,.F.);
#1386=ORIENTED_EDGE('',*,*,#382,.F.);
#1387=EDGE_LOOP('',(#1378,#1384,#1385,#1386));
#1388=FACE_BOUND('',#1387,.T.);
#1389=ADVANCED_FACE('',(#1388),#1370,.T.);
#1390=OVER_RIDING_STYLED_ITEM('',(#1034),#1389,#26);
#1391=CARTESIAN_POINT('',(7.323652856,0.625720928,25.927519006));
#1392=DIRECTION('',(-0.19239371,-0.859308227,-0.473892425));
#1393=DIRECTION('',(0.975840411,-0.218484533,-0.));
#1394=AXIS2_PLACEMENT_3D('',#1391,#1392,#1393);
#1395=PLANE('',#1394);
#1396=CARTESIAN_POINT('',(13.631731781,0.907022874,22.856442731));
#1397=VERTEX_POINT('',#1396);
#1398=CARTESIAN_POINT('',(12.382394538,0.907022874,23.363656213));
#1399=DIRECTION('',(0.926551835,0.,-0.376167112));
#1400=VECTOR('',#1399,1.348372747);
#1401=LINE('',#1398,#1400);
#1402=EDGE_CURVE('',#412,#1397,#1401,.T.);
#1403=ORIENTED_EDGE('',*,*,#1402,.T.);
#1404=CARTESIAN_POINT('',(14.211249288,-0.009929571,24.283874825));
#1405=DIRECTION('',(-0.323243495,0.511458083,-0.796193615));
#1406=VECTOR('',#1405,1.792820323);
#1407=LINE('',#1404,#1406);
#1408=EDGE_CURVE('',#1372,#1397,#1407,.T.);
#1409=ORIENTED_EDGE('',*,*,#1408,.F.);
#1410=ORIENTED_EDGE('',*,*,#1377,.F.);
#1411=ORIENTED_EDGE('',*,*,#425,.F.);
#1412=EDGE_LOOP('',(#1403,#1409,#1410,#1411));
#1413=FACE_BOUND('',#1412,.T.);
#1414=ADVANCED_FACE('',(#1413),#1395,.T.);
#1415=OVER_RIDING_STYLED_ITEM('',(#1034),#1414,#26);
#1416=CARTESIAN_POINT('',(6.965337161,0.638373331,25.04493769));
#1417=DIRECTION('',(0.183740223,-0.872589806,0.452577685));
#1418=DIRECTION('',(-0.23551624,0.407926093,0.882115867));
#1419=AXIS2_PLACEMENT_3D('',#1416,#1417,#1418);
#1420=PLANE('',#1419);
#1421=CARTESIAN_POINT('',(13.043257177,0.031313129,21.406948062));
#1422=VERTEX_POINT('',#1421);
#1423=CARTESIAN_POINT('',(11.992940149,0.031313129,21.833362115));
#1424=DIRECTION('',(0.926551835,0.,-0.376167112));
#1425=VECTOR('',#1424,1.133576114);
#1426=LINE('',#1423,#1425);
#1427=EDGE_CURVE('',#403,#1422,#1426,.T.);
#1428=ORIENTED_EDGE('',*,*,#1427,.T.);
#1429=CARTESIAN_POINT('',(13.631731781,0.907022874,22.856442731));
#1430=DIRECTION('',(-0.328239588,-0.488453713,-0.808499686));
#1431=VECTOR('',#1430,1.792820323);
#1432=LINE('',#1429,#1431);
#1433=EDGE_CURVE('',#1397,#1422,#1432,.T.);
#1434=ORIENTED_EDGE('',*,*,#1433,.F.);
#1435=ORIENTED_EDGE('',*,*,#1402,.F.);
#1436=ORIENTED_EDGE('',*,*,#418,.F.);
#1437=EDGE_LOOP('',(#1428,#1434,#1435,#1436));
#1438=FACE_BOUND('',#1437,.T.);
#1439=ADVANCED_FACE('',(#1438),#1420,.T.);
#1440=OVER_RIDING_STYLED_ITEM('',(#1034),#1439,#26);
#1441=CARTESIAN_POINT('',(6.556377176,-0.172258752,24.037612458));
#1442=DIRECTION('',(0.376133933,-0.013281579,0.92647011));
#1443=DIRECTION('',(0.818818207,0.472744912,-0.325651643));
#1444=AXIS2_PLACEMENT_3D('',#1441,#1442,#1443);
#1445=PLANE('',#1444);
#1446=CARTESIAN_POINT('',(13.04122287,-0.375830633,21.40193728));
#1447=VERTEX_POINT('',#1446);
#1448=CARTESIAN_POINT('',(11.993354622,-0.375830633,21.827357162));
#1449=DIRECTION('',(0.926551835,0.,-0.376167112));
#1450=VECTOR('',#1449,1.130933217);
#1451=LINE('',#1448,#1450);
#1452=EDGE_CURVE('',#394,#1447,#1451,.T.);
#1453=ORIENTED_EDGE('',*,*,#1452,.T.);
#1454=CARTESIAN_POINT('',(13.043257177,0.031313129,21.406948062));
#1455=DIRECTION('',(-0.004996093,-0.999911796,-0.012306071));
#1456=VECTOR('',#1455,0.407179677);
#1457=LINE('',#1454,#1456);
#1458=EDGE_CURVE('',#1422,#1447,#1457,.T.);
#1459=ORIENTED_EDGE('',*,*,#1458,.F.);
#1460=ORIENTED_EDGE('',*,*,#1427,.F.);
#1461=ORIENTED_EDGE('',*,*,#409,.F.);
#1462=EDGE_LOOP('',(#1453,#1459,#1460,#1461));
#1463=FACE_BOUND('',#1462,.T.);
#1464=ADVANCED_FACE('',(#1463),#1445,.T.);
#1465=OVER_RIDING_STYLED_ITEM('',(#1034),#1464,#26);
#1466=CARTESIAN_POINT('',(6.957093607,-1.011481132,25.024632673));
#1467=DIRECTION('',(0.19239371,0.859308227,0.473892425));
#1468=DIRECTION('',(-0.975840411,0.218484533,0.));
#1469=AXIS2_PLACEMENT_3D('',#1466,#1467,#1468);
#1470=PLANE('',#1469);
#1471=ORIENTED_EDGE('',*,*,#1359,.T.);
#1472=CARTESIAN_POINT('',(13.04122287,-0.375830633,21.40193728));
#1473=DIRECTION('',(0.323243495,-0.511458083,0.796193615));
#1474=VECTOR('',#1473,1.792820323);
#1475=LINE('',#1472,#1474);
#1476=EDGE_CURVE('',#1447,#1348,#1475,.T.);
#1477=ORIENTED_EDGE('',*,*,#1476,.F.);
#1478=ORIENTED_EDGE('',*,*,#1452,.F.);
#1479=ORIENTED_EDGE('',*,*,#400,.F.);
#1480=EDGE_LOOP('',(#1471,#1477,#1478,#1479));
#1481=FACE_BOUND('',#1480,.T.);
#1482=ADVANCED_FACE('',(#1481),#1470,.T.);
#1483=OVER_RIDING_STYLED_ITEM('',(#1034),#1482,#26);
#1484=CARTESIAN_POINT('',(13.626236079,-70.216737159,22.842906052));
#1485=DIRECTION('',(-0.926551835,0.,0.376167112));
#1486=DIRECTION('',(0.376167112,-0.,0.926551835));
#1487=AXIS2_PLACEMENT_3D('',#1484,#1485,#1486);
#1488=PLANE('',#1487);
#1489=ORIENTED_EDGE('',*,*,#1353,.T.);
#1490=ORIENTED_EDGE('',*,*,#1383,.T.);
#1491=ORIENTED_EDGE('',*,*,#1408,.T.);
#1492=ORIENTED_EDGE('',*,*,#1433,.T.);
#1493=ORIENTED_EDGE('',*,*,#1458,.T.);
#1494=ORIENTED_EDGE('',*,*,#1476,.T.);
#1495=EDGE_LOOP('',(#1489,#1490,#1491,#1492,#1493,#1494));
#1496=FACE_BOUND('',#1495,.T.);
#1497=ADVANCED_FACE('',(#1496),#1488,.T.);
#1498=OVER_RIDING_STYLED_ITEM('',(#1034),#1497,#26);
#1499=CARTESIAN_POINT('',(11.472243186,-7.95,16.1));
#1500=DIRECTION('',(0.5,0.866025404,0.));
#1501=DIRECTION('',(-0.866025404,0.5,0.));
#1502=AXIS2_PLACEMENT_3D('',#1499,#1500,#1501);
#1503=PLANE('',#1502);
#1504=ORIENTED_EDGE('',*,*,#915,.T.);
#1505=CARTESIAN_POINT('',(12.944486373,-8.8,16.1));
#1506=VERTEX_POINT('',#1505);
#1507=CARTESIAN_POINT('',(12.944486373,-8.8,16.1));
#1508=DIRECTION('',(0.,0.,-1.));
#1509=VECTOR('',#1508,3.1);
#1510=LINE('',#1507,#1509);
#1511=EDGE_CURVE('',#1506,#910,#1510,.T.);
#1512=ORIENTED_EDGE('',*,*,#1511,.F.);
#1513=CARTESIAN_POINT('',(10.,-7.1,16.1));
#1514=VERTEX_POINT('',#1513);
#1515=CARTESIAN_POINT('',(10.,-7.1,16.1));
#1516=DIRECTION('',(0.866025404,-0.5,0.));
#1517=VECTOR('',#1516,3.4);
#1518=LINE('',#1515,#1517);
#1519=EDGE_CURVE('',#1514,#1506,#1518,.T.);
#1520=ORIENTED_EDGE('',*,*,#1519,.F.);
#1521=CARTESIAN_POINT('',(10.,-7.1,16.1));
#1522=DIRECTION('',(0.,0.,-1.));
#1523=VECTOR('',#1522,3.1);
#1524=LINE('',#1521,#1523);
#1525=EDGE_CURVE('',#1514,#908,#1524,.T.);
#1526=ORIENTED_EDGE('',*,*,#1525,.T.);
#1527=EDGE_LOOP('',(#1504,#1512,#1520,#1526));
#1528=FACE_BOUND('',#1527,.T.);
#1529=ADVANCED_FACE('',(#1528),#1503,.F.);
#1530=CARTESIAN_POINT('',(12.944486373,-10.5,16.1));
#1531=DIRECTION('',(1.,-0.,0.));
#1532=DIRECTION('',(0.,1.,0.));
#1533=AXIS2_PLACEMENT_3D('',#1530,#1531,#1532);
#1534=PLANE('',#1533);
#1535=ORIENTED_EDGE('',*,*,#953,.T.);
#1536=CARTESIAN_POINT('',(12.944486373,-12.2,16.1));
#1537=VERTEX_POINT('',#1536);
#1538=CARTESIAN_POINT('',(12.944486373,-12.2,16.1));
#1539=DIRECTION('',(0.,0.,-1.));
#1540=VECTOR('',#1539,3.1);
#1541=LINE('',#1538,#1540);
#1542=EDGE_CURVE('',#1537,#942,#1541,.T.);
#1543=ORIENTED_EDGE('',*,*,#1542,.F.);
#1544=CARTESIAN_POINT('',(12.944486373,-8.8,16.1));
#1545=DIRECTION('',(-0.,-1.,0.));
#1546=VECTOR('',#1545,3.4);
#1547=LINE('',#1544,#1546);
#1548=EDGE_CURVE('',#1506,#1537,#1547,.T.);
#1549=ORIENTED_EDGE('',*,*,#1548,.F.);
#1550=ORIENTED_EDGE('',*,*,#1511,.T.);
#1551=EDGE_LOOP('',(#1535,#1543,#1549,#1550));
#1552=FACE_BOUND('',#1551,.T.);
#1553=ADVANCED_FACE('',(#1552),#1534,.F.);
#1554=CARTESIAN_POINT('',(11.472243186,-13.05,16.1));
#1555=DIRECTION('',(0.5,-0.866025404,0.));
#1556=DIRECTION('',(0.866025404,0.5,0.));
#1557=AXIS2_PLACEMENT_3D('',#1554,#1555,#1556);
#1558=PLANE('',#1557);
#1559=ORIENTED_EDGE('',*,*,#947,.T.);
#1560=CARTESIAN_POINT('',(10.,-13.9,16.1));
#1561=VERTEX_POINT('',#1560);
#1562=CARTESIAN_POINT('',(10.,-13.9,16.1));
#1563=DIRECTION('',(0.,0.,-1.));
#1564=VECTOR('',#1563,3.1);
#1565=LINE('',#1562,#1564);
#1566=EDGE_CURVE('',#1561,#934,#1565,.T.);
#1567=ORIENTED_EDGE('',*,*,#1566,.F.);
#1568=CARTESIAN_POINT('',(12.944486373,-12.2,16.1));
#1569=DIRECTION('',(-0.866025404,-0.5,0.));
#1570=VECTOR('',#1569,3.4);
#1571=LINE('',#1568,#1570);
#1572=EDGE_CURVE('',#1537,#1561,#1571,.T.);
#1573=ORIENTED_EDGE('',*,*,#1572,.F.);
#1574=ORIENTED_EDGE('',*,*,#1542,.T.);
#1575=EDGE_LOOP('',(#1559,#1567,#1573,#1574));
#1576=FACE_BOUND('',#1575,.T.);
#1577=ADVANCED_FACE('',(#1576),#1558,.F.);
#1578=CARTESIAN_POINT('',(8.527756814,-13.05,16.1));
#1579=DIRECTION('',(-0.5,-0.866025404,0.));
#1580=DIRECTION('',(0.866025404,-0.5,0.));
#1581=AXIS2_PLACEMENT_3D('',#1578,#1579,#1580);
#1582=PLANE('',#1581);
#1583=ORIENTED_EDGE('',*,*,#939,.T.);
#1584=CARTESIAN_POINT('',(7.055513627,-12.2,16.1));
#1585=VERTEX_POINT('',#1584);
#1586=CARTESIAN_POINT('',(7.055513627,-12.2,16.1));
#1587=DIRECTION('',(0.,0.,-1.));
#1588=VECTOR('',#1587,3.1);
#1589=LINE('',#1586,#1588);
#1590=EDGE_CURVE('',#1585,#926,#1589,.T.);
#1591=ORIENTED_EDGE('',*,*,#1590,.F.);
#1592=CARTESIAN_POINT('',(10.,-13.9,16.1));
#1593=DIRECTION('',(-0.866025404,0.5,0.));
#1594=VECTOR('',#1593,3.4);
#1595=LINE('',#1592,#1594);
#1596=EDGE_CURVE('',#1561,#1585,#1595,.T.);
#1597=ORIENTED_EDGE('',*,*,#1596,.F.);
#1598=ORIENTED_EDGE('',*,*,#1566,.T.);
#1599=EDGE_LOOP('',(#1583,#1591,#1597,#1598));
#1600=FACE_BOUND('',#1599,.T.);
#1601=ADVANCED_FACE('',(#1600),#1582,.F.);
#1602=CARTESIAN_POINT('',(7.055513627,-10.5,16.1));
#1603=DIRECTION('',(-1.,0.,0.));
#1604=DIRECTION('',(0.,0.,1.));
#1605=AXIS2_PLACEMENT_3D('',#1602,#1603,#1604);
#1606=PLANE('',#1605);
#1607=ORIENTED_EDGE('',*,*,#931,.T.);
#1608=CARTESIAN_POINT('',(7.055513627,-8.8,16.1));
#1609=VERTEX_POINT('',#1608);
#1610=CARTESIAN_POINT('',(7.055513627,-8.8,16.1));
#1611=DIRECTION('',(0.,0.,-1.));
#1612=VECTOR('',#1611,3.1);
#1613=LINE('',#1610,#1612);
#1614=EDGE_CURVE('',#1609,#918,#1613,.T.);
#1615=ORIENTED_EDGE('',*,*,#1614,.F.);
#1616=CARTESIAN_POINT('',(7.055513627,-12.2,16.1));
#1617=DIRECTION('',(0.,1.,0.));
#1618=VECTOR('',#1617,3.4);
#1619=LINE('',#1616,#1618);
#1620=EDGE_CURVE('',#1585,#1609,#1619,.T.);
#1621=ORIENTED_EDGE('',*,*,#1620,.F.);
#1622=ORIENTED_EDGE('',*,*,#1590,.T.);
#1623=EDGE_LOOP('',(#1607,#1615,#1621,#1622));
#1624=FACE_BOUND('',#1623,.T.);
#1625=ADVANCED_FACE('',(#1624),#1606,.F.);
#1626=CARTESIAN_POINT('',(8.527756814,-7.95,16.1));
#1627=DIRECTION('',(-0.5,0.866025404,0.));
#1628=DIRECTION('',(-0.866025404,-0.5,0.));
#1629=AXIS2_PLACEMENT_3D('',#1626,#1627,#1628);
#1630=PLANE('',#1629);
#1631=ORIENTED_EDGE('',*,*,#923,.T.);
#1632=ORIENTED_EDGE('',*,*,#1525,.F.);
#1633=CARTESIAN_POINT('',(7.055513627,-8.8,16.1));
#1634=DIRECTION('',(0.866025404,0.5,0.));
#1635=VECTOR('',#1634,3.4);
#1636=LINE('',#1633,#1635);
#1637=EDGE_CURVE('',#1609,#1514,#1636,.T.);
#1638=ORIENTED_EDGE('',*,*,#1637,.F.);
#1639=ORIENTED_EDGE('',*,*,#1614,.T.);
#1640=EDGE_LOOP('',(#1631,#1632,#1638,#1639));
#1641=FACE_BOUND('',#1640,.T.);
#1642=ADVANCED_FACE('',(#1641),#1630,.F.);
#1643=CARTESIAN_POINT('',(0.,0.,16.1));
#1644=DIRECTION('',(0.,0.,-1.));
#1645=DIRECTION('',(1.,0.,0.));
#1646=AXIS2_PLACEMENT_3D('',#1643,#1644,#1645);
#1647=PLANE('',#1646);
#1648=ORIENTED_EDGE('',*,*,#1519,.T.);
#1649=ORIENTED_EDGE('',*,*,#1548,.T.);
#1650=ORIENTED_EDGE('',*,*,#1572,.T.);
#1651=ORIENTED_EDGE('',*,*,#1596,.T.);
#1652=ORIENTED_EDGE('',*,*,#1620,.T.);
#1653=ORIENTED_EDGE('',*,*,#1637,.T.);
#1654=EDGE_LOOP('',(#1648,#1649,#1650,#1651,#1652,#1653));
#1655=FACE_BOUND('',#1654,.T.);
#1656=ADVANCED_FACE('',(#1655),#1647,.T.);
#1657=CARTESIAN_POINT('',(-9.527756814,13.05,16.1));
#1658=DIRECTION('',(0.5,0.866025404,0.));
#1659=DIRECTION('',(-0.866025404,0.5,0.));
#1660=AXIS2_PLACEMENT_3D('',#1657,#1658,#1659);
#1661=PLANE('',#1660);
#1662=ORIENTED_EDGE('',*,*,#865,.T.);
#1663=CARTESIAN_POINT('',(-8.055513627,12.2,16.1));
#1664=VERTEX_POINT('',#1663);
#1665=CARTESIAN_POINT('',(-8.055513627,12.2,16.1));
#1666=DIRECTION('',(0.,0.,-1.));
#1667=VECTOR('',#1666,3.1);
#1668=LINE('',#1665,#1667);
#1669=EDGE_CURVE('',#1664,#860,#1668,.T.);
#1670=ORIENTED_EDGE('',*,*,#1669,.F.);
#1671=CARTESIAN_POINT('',(-11.,13.9,16.1));
#1672=VERTEX_POINT('',#1671);
#1673=CARTESIAN_POINT('',(-11.,13.9,16.1));
#1674=DIRECTION('',(0.866025404,-0.5,0.));
#1675=VECTOR('',#1674,3.4);
#1676=LINE('',#1673,#1675);
#1677=EDGE_CURVE('',#1672,#1664,#1676,.T.);
#1678=ORIENTED_EDGE('',*,*,#1677,.F.);
#1679=CARTESIAN_POINT('',(-11.,13.9,16.1));
#1680=DIRECTION('',(0.,0.,-1.));
#1681=VECTOR('',#1680,3.1);
#1682=LINE('',#1679,#1681);
#1683=EDGE_CURVE('',#1672,#858,#1682,.T.);
#1684=ORIENTED_EDGE('',*,*,#1683,.T.);
#1685=EDGE_LOOP('',(#1662,#1670,#1678,#1684));
#1686=FACE_BOUND('',#1685,.T.);
#1687=ADVANCED_FACE('',(#1686),#1661,.F.);
#1688=CARTESIAN_POINT('',(-8.055513627,10.5,16.1));
#1689=DIRECTION('',(1.,0.,0.));
#1690=DIRECTION('',(-0.,1.,0.));
#1691=AXIS2_PLACEMENT_3D('',#1688,#1689,#1690);
#1692=PLANE('',#1691);
#1693=ORIENTED_EDGE('',*,*,#903,.T.);
#1694=CARTESIAN_POINT('',(-8.055513627,8.8,16.1));
#1695=VERTEX_POINT('',#1694);
#1696=CARTESIAN_POINT('',(-8.055513627,8.8,16.1));
#1697=DIRECTION('',(0.,0.,-1.));
#1698=VECTOR('',#1697,3.1);
#1699=LINE('',#1696,#1698);
#1700=EDGE_CURVE('',#1695,#892,#1699,.T.);
#1701=ORIENTED_EDGE('',*,*,#1700,.F.);
#1702=CARTESIAN_POINT('',(-8.055513627,12.2,16.1));
#1703=DIRECTION('',(0.,-1.,0.));
#1704=VECTOR('',#1703,3.4);
#1705=LINE('',#1702,#1704);
#1706=EDGE_CURVE('',#1664,#1695,#1705,.T.);
#1707=ORIENTED_EDGE('',*,*,#1706,.F.);
#1708=ORIENTED_EDGE('',*,*,#1669,.T.);
#1709=EDGE_LOOP('',(#1693,#1701,#1707,#1708));
#1710=FACE_BOUND('',#1709,.T.);
#1711=ADVANCED_FACE('',(#1710),#1692,.F.);
#1712=CARTESIAN_POINT('',(-9.527756814,7.95,16.1));
#1713=DIRECTION('',(0.5,-0.866025404,0.));
#1714=DIRECTION('',(0.866025404,0.5,0.));
#1715=AXIS2_PLACEMENT_3D('',#1712,#1713,#1714);
#1716=PLANE('',#1715);
#1717=ORIENTED_EDGE('',*,*,#897,.T.);
#1718=CARTESIAN_POINT('',(-11.,7.1,16.1));
#1719=VERTEX_POINT('',#1718);
#1720=CARTESIAN_POINT('',(-11.,7.1,16.1));
#1721=DIRECTION('',(0.,0.,-1.));
#1722=VECTOR('',#1721,3.1);
#1723=LINE('',#1720,#1722);
#1724=EDGE_CURVE('',#1719,#884,#1723,.T.);
#1725=ORIENTED_EDGE('',*,*,#1724,.F.);
#1726=CARTESIAN_POINT('',(-8.055513627,8.8,16.1));
#1727=DIRECTION('',(-0.866025404,-0.5,0.));
#1728=VECTOR('',#1727,3.4);
#1729=LINE('',#1726,#1728);
#1730=EDGE_CURVE('',#1695,#1719,#1729,.T.);
#1731=ORIENTED_EDGE('',*,*,#1730,.F.);
#1732=ORIENTED_EDGE('',*,*,#1700,.T.);
#1733=EDGE_LOOP('',(#1717,#1725,#1731,#1732));
#1734=FACE_BOUND('',#1733,.T.);
#1735=ADVANCED_FACE('',(#1734),#1716,.F.);
#1736=CARTESIAN_POINT('',(-12.472243186,7.95,16.1));
#1737=DIRECTION('',(-0.5,-0.866025404,0.));
#1738=DIRECTION('',(0.866025404,-0.5,0.));
#1739=AXIS2_PLACEMENT_3D('',#1736,#1737,#1738);
#1740=PLANE('',#1739);
#1741=ORIENTED_EDGE('',*,*,#889,.T.);
#1742=CARTESIAN_POINT('',(-13.944486373,8.8,16.1));
#1743=VERTEX_POINT('',#1742);
#1744=CARTESIAN_POINT('',(-13.944486373,8.8,16.1));
#1745=DIRECTION('',(0.,0.,-1.));
#1746=VECTOR('',#1745,3.1);
#1747=LINE('',#1744,#1746);
#1748=EDGE_CURVE('',#1743,#876,#1747,.T.);
#1749=ORIENTED_EDGE('',*,*,#1748,.F.);
#1750=CARTESIAN_POINT('',(-11.,7.1,16.1));
#1751=DIRECTION('',(-0.866025404,0.5,0.));
#1752=VECTOR('',#1751,3.4);
#1753=LINE('',#1750,#1752);
#1754=EDGE_CURVE('',#1719,#1743,#1753,.T.);
#1755=ORIENTED_EDGE('',*,*,#1754,.F.);
#1756=ORIENTED_EDGE('',*,*,#1724,.T.);
#1757=EDGE_LOOP('',(#1741,#1749,#1755,#1756));
#1758=FACE_BOUND('',#1757,.T.);
#1759=ADVANCED_FACE('',(#1758),#1740,.F.);
#1760=CARTESIAN_POINT('',(-13.944486373,10.5,16.1));
#1761=DIRECTION('',(-1.,-0.,0.));
#1762=DIRECTION('',(0.,-1.,0.));
#1763=AXIS2_PLACEMENT_3D('',#1760,#1761,#1762);
#1764=PLANE('',#1763);
#1765=ORIENTED_EDGE('',*,*,#881,.T.);
#1766=CARTESIAN_POINT('',(-13.944486373,12.2,16.1));
#1767=VERTEX_POINT('',#1766);
#1768=CARTESIAN_POINT('',(-13.944486373,12.2,16.1));
#1769=DIRECTION('',(0.,0.,-1.));
#1770=VECTOR('',#1769,3.1);
#1771=LINE('',#1768,#1770);
#1772=EDGE_CURVE('',#1767,#868,#1771,.T.);
#1773=ORIENTED_EDGE('',*,*,#1772,.F.);
#1774=CARTESIAN_POINT('',(-13.944486373,8.8,16.1));
#1775=DIRECTION('',(-0.,1.,0.));
#1776=VECTOR('',#1775,3.4);
#1777=LINE('',#1774,#1776);
#1778=EDGE_CURVE('',#1743,#1767,#1777,.T.);
#1779=ORIENTED_EDGE('',*,*,#1778,.F.);
#1780=ORIENTED_EDGE('',*,*,#1748,.T.);
#1781=EDGE_LOOP('',(#1765,#1773,#1779,#1780));
#1782=FACE_BOUND('',#1781,.T.);
#1783=ADVANCED_FACE('',(#1782),#1764,.F.);
#1784=CARTESIAN_POINT('',(-12.472243186,13.05,16.1));
#1785=DIRECTION('',(-0.5,0.866025404,0.));
#1786=DIRECTION('',(-0.866025404,-0.5,0.));
#1787=AXIS2_PLACEMENT_3D('',#1784,#1785,#1786);
#1788=PLANE('',#1787);
#1789=ORIENTED_EDGE('',*,*,#873,.T.);
#1790=ORIENTED_EDGE('',*,*,#1683,.F.);
#1791=CARTESIAN_POINT('',(-13.944486373,12.2,16.1));
#1792=DIRECTION('',(0.866025404,0.5,0.));
#1793=VECTOR('',#1792,3.4);
#1794=LINE('',#1791,#1793);
#1795=EDGE_CURVE('',#1767,#1672,#1794,.T.);
#1796=ORIENTED_EDGE('',*,*,#1795,.F.);
#1797=ORIENTED_EDGE('',*,*,#1772,.T.);
#1798=EDGE_LOOP('',(#1789,#1790,#1796,#1797));
#1799=FACE_BOUND('',#1798,.T.);
#1800=ADVANCED_FACE('',(#1799),#1788,.F.);
#1801=CARTESIAN_POINT('',(0.,0.,16.1));
#1802=DIRECTION('',(0.,0.,-1.));
#1803=DIRECTION('',(1.,0.,0.));
#1804=AXIS2_PLACEMENT_3D('',#1801,#1802,#1803);
#1805=PLANE('',#1804);
#1806=ORIENTED_EDGE('',*,*,#1677,.T.);
#1807=ORIENTED_EDGE('',*,*,#1706,.T.);
#1808=ORIENTED_EDGE('',*,*,#1730,.T.);
#1809=ORIENTED_EDGE('',*,*,#1754,.T.);
#1810=ORIENTED_EDGE('',*,*,#1778,.T.);
#1811=ORIENTED_EDGE('',*,*,#1795,.T.);
#1812=EDGE_LOOP('',(#1806,#1807,#1808,#1809,#1810,#1811));
#1813=FACE_BOUND('',#1812,.T.);
#1814=ADVANCED_FACE('',(#1813),#1805,.T.);
#1815=CLOSED_SHELL('',(#443,#485,#510,#535,#561,#587,#612,#637,#655,#687,#711,#736,#760,#785,#809,#834,#851,#978,#996,#1027,#1059,#1084,#1109,#1134,#1152,#1167,
#1199,#1224,#1249,#1274,#1299,#1317,#1332,#1364,#1389,#1414,#1439,#1464,#1482,#1497,#1529,#1553,#1577,#1601,#1625,#1642,#1656,#1687,#1711,#1735,#1759,
#1783,#1800,#1814));
#1816=MANIFOLD_SOLID_BREP('25mmCase',#1815);
#1817=COLOUR_RGB('',0.627451003,0.627451003,0.643137276);
#1818=FILL_AREA_STYLE_COLOUR('',#1817);
#1819=FILL_AREA_STYLE('',(#1818));
#1820=SURFACE_STYLE_FILL_AREA(#1819);
#1821=SURFACE_SIDE_STYLE('',(#1820));
#1822=SURFACE_STYLE_USAGE(.BOTH.,#1821);
#1823=PRESENTATION_STYLE_ASSIGNMENT((#1822));
#26=STYLED_ITEM('',(#1823),#1816);
#1824=(NAMED_UNIT(*)PLANE_ANGLE_UNIT()SI_UNIT($,.RADIAN.));
#1825=PLANE_ANGLE_MEASURE_WITH_UNIT(PLANE_ANGLE_MEASURE(0.0174532925),#1824);
#1826=(CONVERSION_BASED_UNIT('DEGREE',#1825)NAMED_UNIT(#1827)PLANE_ANGLE_UNIT());
#1827=DIMENSIONAL_EXPONENTS(0.,0.,0.,0.,0.,0.,0.);
#1828=(NAMED_UNIT(*)SI_UNIT($,.STERADIAN.)SOLID_ANGLE_UNIT());
#1829=(LENGTH_UNIT()NAMED_UNIT(*)SI_UNIT(.MILLI.,.METRE.));
#1830=UNCERTAINTY_MEASURE_WITH_UNIT(LENGTH_MEASURE(1.000000E-03),#1829,'DISTANCE_ACCURACY_VALUE','Maximum Tolerance applied to model');
#1831=(GEOMETRIC_REPRESENTATION_CONTEXT(3)GLOBAL_UNCERTAINTY_ASSIGNED_CONTEXT((#1830))GLOBAL_UNIT_ASSIGNED_CONTEXT((#1829,#1826,#1828))REPRESENTATION_CONTEXT('','\X2\51865F6272B630D130BF30FC30F3\X0\ 02'));
#1843=CARTESIAN_POINT('',(0.,0.,0.));
#1844=DIRECTION('',(0.,0.,1.));
#1845=DIRECTION('',(1.,0.,-0.));
#1846=AXIS2_PLACEMENT_3D('',#1843,#1844,#1845);
#1847=ITEM_DEFINED_TRANSFORMATION('','',#1846,#15);
#1848=(REPRESENTATION_RELATIONSHIP('','',#1833,#16)REPRESENTATION_RELATIONSHIP_WITH_TRANSFORMATION(#1847)SHAPE_REPRESENTATION_RELATIONSHIP());
#1849=NEXT_ASSEMBLY_USAGE_OCCURRENCE('\X2\51865F6272B630D130BF30FC30F3\X0\ 02_1','\X2\51865F6272B630D130BF30FC30F3\X0\ 02','\X2\51865F6272B630D130BF30FC30F3\X0\ 02',#25,#1842,$);
#1850=PRODUCT_DEFINITION_SHAPE('','',#1849);
#1851=CONTEXT_DEPENDENT_SHAPE_REPRESENTATION(#1848,#1850);
#1833=SHAPE_REPRESENTATION('\X2\51865F6272B630D130BF30FC30F3\X0\ 02',(#15),#1831);
#1852=CARTESIAN_POINT('',(0.,0.,0.));
#1853=DIRECTION('',(0.,0.,1.));
#1854=DIRECTION('',(1.,0.,0.));
#1855=AXIS2_PLACEMENT_3D('',#1852,#1853,#1854);
#1857=MAPPED_ITEM('',#1856,#1855);
#1856=REPRESENTATION_MAP(#1855,#1833);
#1858=APPLICATION_CONTEXT('Managed model based 3d engineering');
#1859=APPLICATION_PROTOCOL_DEFINITION('international standard','ap242_managed_model_based_3d_engineering',2014,#1858);
#1860=PRODUCT_CONTEXT('',#1858,'mechanical');
#1861=PRODUCT_DEFINITION_CONTEXT('part definition',#1858,'design');
#1841=PRODUCT('\X2\51865F6272B630D130BF30FC30F3\X0\ 02','\X2\51865F6272B630D130BF30FC30F3\X0\ 02','',(#1860));
#1862=PRODUCT_RELATED_PRODUCT_CATEGORY('part','',(#1841));
#1863=PRODUCT_DEFINITION_FORMATION_WITH_SPECIFIED_SOURCE('','',#1841,.NOT_KNOWN.);
#1842=PRODUCT_DEFINITION('design','',#1863,#1861);
#1840=PRODUCT_DEFINITION_SHAPE('','',#1842);
#1864=SHAPE_DEFINITION_REPRESENTATION(#1840,#1833);
#1832=DRAUGHTING_MODEL('',(#1857),#1831);
#1865=(NAMED_UNIT(*)PLANE_ANGLE_UNIT()SI_UNIT($,.RADIAN.));
#1866=PLANE_ANGLE_MEASURE_WITH_UNIT(PLANE_ANGLE_MEASURE(0.0174532925),#1865);
#1867=(CONVERSION_BASED_UNIT('DEGREE',#1866)NAMED_UNIT(#1868)PLANE_ANGLE_UNIT());
#1868=DIMENSIONAL_EXPONENTS(0.,0.,0.,0.,0.,0.,0.);
#1869=(NAMED_UNIT(*)SI_UNIT($,.STERADIAN.)SOLID_ANGLE_UNIT());
#1870=(LENGTH_UNIT()NAMED_UNIT(*)SI_UNIT(.MILLI.,.METRE.));
#1871=UNCERTAINTY_MEASURE_WITH_UNIT(LENGTH_MEASURE(1.000000E-03),#1870,'DISTANCE_ACCURACY_VALUE','Maximum Tolerance applied to model');
#1872=(GEOMETRIC_REPRESENTATION_CONTEXT(3)GLOBAL_UNCERTAINTY_ASSIGNED_CONTEXT((#1871))GLOBAL_UNIT_ASSIGNED_CONTEXT((#1870,#1867,#1869))REPRESENTATION_CONTEXT('','Nape_V2.shapr'));
#1884=CARTESIAN_POINT('',(0.,0.,0.));
#1885=DIRECTION('',(0.,0.,1.));
#1886=DIRECTION('',(1.,0.,-0.));
#1887=AXIS2_PLACEMENT_3D('',#1884,#1885,#1886);
#1888=ITEM_DEFINED_TRANSFORMATION('','',#1887,#15);
#1889=(REPRESENTATION_RELATIONSHIP('','',#1874,#16)REPRESENTATION_RELATIONSHIP_WITH_TRANSFORMATION(#1888)SHAPE_REPRESENTATION_RELATIONSHIP());
#1890=NEXT_ASSEMBLY_USAGE_OCCURRENCE('Nape_V2.shapr_2','Nape_V2.shapr','Nape_V2.shapr',#25,#1883,$);
#1891=PRODUCT_DEFINITION_SHAPE('','',#1890);
#1892=CONTEXT_DEPENDENT_SHAPE_REPRESENTATION(#1889,#1891);
#1893=(NAMED_UNIT(*)PLANE_ANGLE_UNIT()SI_UNIT($,.RADIAN.));
#1894=PLANE_ANGLE_MEASURE_WITH_UNIT(PLANE_ANGLE_MEASURE(0.0174532925),#1893);
#1895=(CONVERSION_BASED_UNIT('DEGREE',#1894)NAMED_UNIT(#1896)PLANE_ANGLE_UNIT());
#1896=DIMENSIONAL_EXPONENTS(0.,0.,0.,0.,0.,0.,0.);
#1897=(NAMED_UNIT(*)SI_UNIT($,.STERADIAN.)SOLID_ANGLE_UNIT());
#1898=(LENGTH_UNIT()NAMED_UNIT(*)SI_UNIT(.MILLI.,.METRE.));
#1899=UNCERTAINTY_MEASURE_WITH_UNIT(LENGTH_MEASURE(1.000000E-03),#1898,'DISTANCE_ACCURACY_VALUE','Maximum Tolerance applied to model');
#1900=(GEOMETRIC_REPRESENTATION_CONTEXT(3)GLOBAL_UNCERTAINTY_ASSIGNED_CONTEXT((#1899))GLOBAL_UNIT_ASSIGNED_CONTEXT((#1898,#1895,#1897))REPRESENTATION_CONTEXT('','SwitchHoles'));
#1912=CARTESIAN_POINT('',(0.,0.,0.));
#1913=DIRECTION('',(0.,0.,1.));
#1914=DIRECTION('',(1.,0.,-0.));
#1915=AXIS2_PLACEMENT_3D('',#1912,#1913,#1914);
#1916=ITEM_DEFINED_TRANSFORMATION('','',#1915,#15);
#1917=(REPRESENTATION_RELATIONSHIP('','',#1902,#1874)REPRESENTATION_RELATIONSHIP_WITH_TRANSFORMATION(#1916)SHAPE_REPRESENTATION_RELATIONSHIP());
#1918=NEXT_ASSEMBLY_USAGE_OCCURRENCE('SwitchHoles_3','SwitchHoles','SwitchHoles',#1883,#1911,$);
#1919=PRODUCT_DEFINITION_SHAPE('','',#1918);
#1920=CONTEXT_DEPENDENT_SHAPE_REPRESENTATION(#1917,#1919);
#1902=SHAPE_REPRESENTATION('SwitchHoles',(#15),#1900);
#1921=CARTESIAN_POINT('',(0.,0.,0.));
#1922=DIRECTION('',(0.,0.,1.));
#1923=DIRECTION('',(1.,0.,0.));
#1924=AXIS2_PLACEMENT_3D('',#1921,#1922,#1923);
#1926=MAPPED_ITEM('',#1925,#1924);
#1925=REPRESENTATION_MAP(#1924,#1902);
#1910=PRODUCT('SwitchHoles','SwitchHoles','',(#1860));
#1927=PRODUCT_RELATED_PRODUCT_CATEGORY('part','',(#1910));
#1928=PRODUCT_DEFINITION_FORMATION_WITH_SPECIFIED_SOURCE('','',#1910,.NOT_KNOWN.);
#1911=PRODUCT_DEFINITION('design','',#1928,#1861);
#1909=PRODUCT_DEFINITION_SHAPE('','',#1911);
#1929=SHAPE_DEFINITION_REPRESENTATION(#1909,#1902);
#1901=DRAUGHTING_MODEL('',(#1926),#1900);
#1930=(NAMED_UNIT(*)PLANE_ANGLE_UNIT()SI_UNIT($,.RADIAN.));
#1931=PLANE_ANGLE_MEASURE_WITH_UNIT(PLANE_ANGLE_MEASURE(0.0174532925),#1930);
#1932=(CONVERSION_BASED_UNIT('DEGREE',#1931)NAMED_UNIT(#1933)PLANE_ANGLE_UNIT());
#1933=DIMENSIONAL_EXPONENTS(0.,0.,0.,0.,0.,0.,0.);
#1934=(NAMED_UNIT(*)SI_UNIT($,.STERADIAN.)SOLID_ANGLE_UNIT());
#1935=(LENGTH_UNIT()NAMED_UNIT(*)SI_UNIT(.MILLI.,.METRE.));
#1936=UNCERTAINTY_MEASURE_WITH_UNIT(LENGTH_MEASURE(1.000000E-03),#1935,'DISTANCE_ACCURACY_VALUE','Maximum Tolerance applied to model');
#1937=(GEOMETRIC_REPRESENTATION_CONTEXT(3)GLOBAL_UNCERTAINTY_ASSIGNED_CONTEXT((#1936))GLOBAL_UNIT_ASSIGNED_CONTEXT((#1935,#1932,#1934))REPRESENTATION_CONTEXT('','Battery'));
#1949=CARTESIAN_POINT('',(0.,0.,0.));
#1950=DIRECTION('',(0.,0.,1.));
#1951=DIRECTION('',(1.,0.,-0.));
#1952=AXIS2_PLACEMENT_3D('',#1949,#1950,#1951);
#1953=ITEM_DEFINED_TRANSFORMATION('','',#1952,#15);
#1954=(REPRESENTATION_RELATIONSHIP('','',#1939,#1874)REPRESENTATION_RELATIONSHIP_WITH_TRANSFORMATION(#1953)SHAPE_REPRESENTATION_RELATIONSHIP());
#1955=NEXT_ASSEMBLY_USAGE_OCCURRENCE('Battery_4','Battery','Battery',#1883,#1948,$);
#1956=PRODUCT_DEFINITION_SHAPE('','',#1955);
#1957=CONTEXT_DEPENDENT_SHAPE_REPRESENTATION(#1954,#1956);
#1939=SHAPE_REPRESENTATION('Battery',(#15),#1937);
#1958=CARTESIAN_POINT('',(0.,0.,0.));
#1959=DIRECTION('',(0.,0.,1.));
#1960=DIRECTION('',(1.,0.,0.));
#1961=AXIS2_PLACEMENT_3D('',#1958,#1959,#1960);
#1963=MAPPED_ITEM('',#1962,#1961);
#1962=REPRESENTATION_MAP(#1961,#1939);
#1947=PRODUCT('Battery','Battery','',(#1860));
#1964=PRODUCT_RELATED_PRODUCT_CATEGORY('part','',(#1947));
#1965=PRODUCT_DEFINITION_FORMATION_WITH_SPECIFIED_SOURCE('','',#1947,.NOT_KNOWN.);
#1948=PRODUCT_DEFINITION('design','',#1965,#1861);
#1946=PRODUCT_DEFINITION_SHAPE('','',#1948);
#1966=SHAPE_DEFINITION_REPRESENTATION(#1946,#1939);
#1938=DRAUGHTING_MODEL('',(#1963),#1937);
#1874=SHAPE_REPRESENTATION('Nape_V2.shapr',(#15,#1915,#1952),#1872);
#1967=CARTESIAN_POINT('',(0.,0.,0.));
#1968=DIRECTION('',(0.,0.,1.));
#1969=DIRECTION('',(1.,0.,0.));
#1970=AXIS2_PLACEMENT_3D('',#1967,#1968,#1969);
#1972=MAPPED_ITEM('',#1971,#1970);
#1971=REPRESENTATION_MAP(#1970,#1874);
#1882=PRODUCT('Nape_V2.shapr','Nape_V2.shapr','',(#1860));
#1973=PRODUCT_RELATED_PRODUCT_CATEGORY('part','',(#1882));
#1974=PRODUCT_DEFINITION_FORMATION_WITH_SPECIFIED_SOURCE('','',#1882,.NOT_KNOWN.);
#1883=PRODUCT_DEFINITION('design','',#1974,#1861);
#1881=PRODUCT_DEFINITION_SHAPE('','',#1883);
#1975=SHAPE_DEFINITION_REPRESENTATION(#1881,#1874);
#1873=DRAUGHTING_MODEL('',(#1972),#1872);
#1976=(NAMED_UNIT(*)PLANE_ANGLE_UNIT()SI_UNIT($,.RADIAN.));
#1977=PLANE_ANGLE_MEASURE_WITH_UNIT(PLANE_ANGLE_MEASURE(0.0174532925),#1976);
#1978=(CONVERSION_BASED_UNIT('DEGREE',#1977)NAMED_UNIT(#1979)PLANE_ANGLE_UNIT());
#1979=DIMENSIONAL_EXPONENTS(0.,0.,0.,0.,0.,0.,0.);
#1980=(NAMED_UNIT(*)SI_UNIT($,.STERADIAN.)SOLID_ANGLE_UNIT());
#1981=(LENGTH_UNIT()NAMED_UNIT(*)SI_UNIT(.MILLI.,.METRE.));
#1982=UNCERTAINTY_MEASURE_WITH_UNIT(LENGTH_MEASURE(1.000000E-03),#1981,'DISTANCE_ACCURACY_VALUE','Maximum Tolerance applied to model');
#1983=(GEOMETRIC_REPRESENTATION_CONTEXT(3)GLOBAL_UNCERTAINTY_ASSIGNED_CONTEXT((#1982))GLOBAL_UNIT_ASSIGNED_CONTEXT((#1981,#1978,#1980))REPRESENTATION_CONTEXT('','Top'));
#1995=CARTESIAN_POINT('',(0.,0.,0.));
#1996=DIRECTION('',(0.,0.,1.));
#1997=DIRECTION('',(1.,0.,-0.));
#1998=AXIS2_PLACEMENT_3D('',#1995,#1996,#1997);
#1999=ITEM_DEFINED_TRANSFORMATION('','',#1998,#15);
#2000=(REPRESENTATION_RELATIONSHIP('','',#1985,#16)REPRESENTATION_RELATIONSHIP_WITH_TRANSFORMATION(#1999)SHAPE_REPRESENTATION_RELATIONSHIP());
#2001=NEXT_ASSEMBLY_USAGE_OCCURRENCE('Top_5','Top','Top',#25,#1994,$);
#2002=PRODUCT_DEFINITION_SHAPE('','',#2001);
#2003=CONTEXT_DEPENDENT_SHAPE_REPRESENTATION(#2000,#2002);
#1985=SHAPE_REPRESENTATION('Top',(#15),#1983);
#2004=CARTESIAN_POINT('',(0.,0.,0.));
#2005=DIRECTION('',(0.,0.,1.));
#2006=DIRECTION('',(1.,0.,0.));
#2007=AXIS2_PLACEMENT_3D('',#2004,#2005,#2006);
#2009=MAPPED_ITEM('',#2008,#2007);
#2008=REPRESENTATION_MAP(#2007,#1985);
#1993=PRODUCT('Top','Top','',(#1860));
#2010=PRODUCT_RELATED_PRODUCT_CATEGORY('part','',(#1993));
#2011=PRODUCT_DEFINITION_FORMATION_WITH_SPECIFIED_SOURCE('','',#1993,.NOT_KNOWN.);
#1994=PRODUCT_DEFINITION('design','',#2011,#1861);
#1992=PRODUCT_DEFINITION_SHAPE('','',#1994);
#2012=SHAPE_DEFINITION_REPRESENTATION(#1992,#1985);
#1984=DRAUGHTING_MODEL('',(#2009),#1983);
#16=SHAPE_REPRESENTATION('root',(#15,#1846,#1887,#1998),#10);
#17=ADVANCED_BREP_SHAPE_REPRESENTATION('root',(#1816),#10);
#2020=SHAPE_REPRESENTATION_RELATIONSHIP('','',#16,#17);
#2021=CARTESIAN_POINT('',(0.,0.,0.));
#2022=DIRECTION('',(0.,0.,1.));
#2023=DIRECTION('',(1.,0.,0.));
#2024=AXIS2_PLACEMENT_3D('',#2021,#2022,#2023);
#2026=MAPPED_ITEM('',#2025,#2024);
#2025=REPRESENTATION_MAP(#2024,#16);
#24=PRODUCT('root','root','',(#1860));
#2027=PRODUCT_RELATED_PRODUCT_CATEGORY('part','',(#24));
#2028=PRODUCT_DEFINITION_FORMATION_WITH_SPECIFIED_SOURCE('','',#24,.NOT_KNOWN.);
#25=PRODUCT_DEFINITION('design','',#2028,#1861);
#23=PRODUCT_DEFINITION_SHAPE('','',#25);
#2029=SHAPE_DEFINITION_REPRESENTATION(#23,#16);
#11=DRAUGHTING_MODEL('',(#2026),#10);
#2030=DESCRIPTIVE_REPRESENTATION_ITEM('KEY','/Users/koichiro.amito/Library/Containers/com.shapr3d.shapr/Data/tmp/C884BA1E-6640-4B33-A59B-87D36872C849.tmp');
#2031=PROPERTY_DEFINITION('KEY','',#25);
#2032=REPRESENTATION('',(#2030),#10);
#2033=PROPERTY_DEFINITION_REPRESENTATION(#2031,#2032);
#2034=GENERAL_PROPERTY('','KEY','');
#2035=GENERAL_PROPERTY_ASSOCIATION('','',#2034,#2031);
#1=MECHANICAL_DESIGN_GEOMETRIC_PRESENTATION_REPRESENTATION('',(#451,#1035,#1060,#1085,#1110,#1135,#1153,#1168,#1200,#1225,#1250,#1275,#1300,#1318,#1333,#1365,#1390,#1415,#1440,#1465,#1483,#1498,#26),#10);
ENDSEC;
END-ISO-10303-21;
