ISO-10303-21;
HEADER;

/* File generated by Shapr3D Version 26.123.0.11423 */

FILE_DESCRIPTION(('HOOPS Exchange Step'),'2;1');

FILE_NAME('/Users/koichiro.amito/Library/Containers/com.shapr3d.shapr/Data/tmp/export/temp_export',
'2026-08-02T22:37:45+09:00',
('koichiro.amito'),
('Shapr3D Limited'),
'HOOPS Exchange 2026.3',
'Shapr3D',
'Authorized');

FILE_SCHEMA( ('AP242_MANAGED_MODEL_BASED_3D_ENGINEERING_MIM_LF {1 0 10303 442 1 1 4}') );

ENDSEC;

DATA;
#3=(NAMED_UNIT(*)PLANE_ANGLE_UNIT()SI_UNIT($,.RADIAN.));
#4=PLANE_ANGLE_MEASURE_WITH_UNIT(PLANE_ANGLE_MEASURE(0.0174532925),#3);
#5=(CONVERSION_BASED_UNIT('DEGREE',#4)NAMED_UNIT(#6)PLANE_ANGLE_UNIT());
#6=DIMENSIONAL_EXPONENTS(0.,0.,0.,0.,0.,0.,0.);
#7=(NAMED_UNIT(*)SI_UNIT($,.STERADIAN.)SOLID_ANGLE_UNIT());
#8=(LENGTH_UNIT()NAMED_UNIT(*)SI_UNIT(.MILLI.,.METRE.));
#9=UNCERTAINTY_MEASURE_WITH_UNIT(LENGTH_MEASURE(1.000000E-03),#8,'DISTANCE_ACCURACY_VALUE','Maximum Tolerance applied to model');
#10=(GEOMETRIC_REPRESENTATION_CONTEXT(3)GLOBAL_UNCERTAINTY_ASSIGNED_CONTEXT((#9))GLOBAL_UNIT_ASSIGNED_CONTEXT((#8,#5,#7))REPRESENTATION_CONTEXT('','root'));
#12=CARTESIAN_POINT('',(0.,0.,0.));
#13=DIRECTION('',(0.,0.,1.));
#14=DIRECTION('',(1.,0.,0.));
#15=AXIS2_PLACEMENT_3D('TS3D_PRODUCT_CSYS',#12,#13,#14);
#26=(NAMED_UNIT(*)PLANE_ANGLE_UNIT()SI_UNIT($,.RADIAN.));
#27=PLANE_ANGLE_MEASURE_WITH_UNIT(PLANE_ANGLE_MEASURE(0.0174532925),#26);
#28=(CONVERSION_BASED_UNIT('DEGREE',#27)NAMED_UNIT(#29)PLANE_ANGLE_UNIT());
#29=DIMENSIONAL_EXPONENTS(0.,0.,0.,0.,0.,0.,0.);
#30=(NAMED_UNIT(*)SI_UNIT($,.STERADIAN.)SOLID_ANGLE_UNIT());
#31=(LENGTH_UNIT()NAMED_UNIT(*)SI_UNIT(.MILLI.,.METRE.));
#32=UNCERTAINTY_MEASURE_WITH_UNIT(LENGTH_MEASURE(1.000000E-03),#31,'DISTANCE_ACCURACY_VALUE','Maximum Tolerance applied to model');
#33=(GEOMETRIC_REPRESENTATION_CONTEXT(3)GLOBAL_UNCERTAINTY_ASSIGNED_CONTEXT((#32))GLOBAL_UNIT_ASSIGNED_CONTEXT((#31,#28,#30))REPRESENTATION_CONTEXT('','\X2\51865F6272B630D130BF30FC30F3\X0\ 02'));
#45=CARTESIAN_POINT('',(0.,0.,0.));
#46=DIRECTION('',(0.,0.,1.));
#47=DIRECTION('',(1.,0.,-0.));
#48=AXIS2_PLACEMENT_3D('',#45,#46,#47);
#49=ITEM_DEFINED_TRANSFORMATION('','',#48,#15);
#50=(REPRESENTATION_RELATIONSHIP('','',#35,#16)REPRESENTATION_RELATIONSHIP_WITH_TRANSFORMATION(#49)SHAPE_REPRESENTATION_RELATIONSHIP());
#51=NEXT_ASSEMBLY_USAGE_OCCURRENCE('\X2\51865F6272B630D130BF30FC30F3\X0\ 02_1','\X2\51865F6272B630D130BF30FC30F3\X0\ 02','\X2\51865F6272B630D130BF30FC30F3\X0\ 02',#25,#44,$);
#52=PRODUCT_DEFINITION_SHAPE('','',#51);
#53=CONTEXT_DEPENDENT_SHAPE_REPRESENTATION(#50,#52);
#35=SHAPE_REPRESENTATION('\X2\51865F6272B630D130BF30FC30F3\X0\ 02',(#15),#33);
#54=CARTESIAN_POINT('',(0.,0.,0.));
#55=DIRECTION('',(0.,0.,1.));
#56=DIRECTION('',(1.,0.,0.));
#57=AXIS2_PLACEMENT_3D('',#54,#55,#56);
#59=MAPPED_ITEM('',#58,#57);
#58=REPRESENTATION_MAP(#57,#35);
#60=APPLICATION_CONTEXT('Managed model based 3d engineering');
#61=APPLICATION_PROTOCOL_DEFINITION('international standard','ap242_managed_model_based_3d_engineering',2014,#60);
#62=PRODUCT_CONTEXT('',#60,'mechanical');
#63=PRODUCT_DEFINITION_CONTEXT('part definition',#60,'design');
#43=PRODUCT('\X2\51865F6272B630D130BF30FC30F3\X0\ 02','\X2\51865F6272B630D130BF30FC30F3\X0\ 02','',(#62));
#64=PRODUCT_RELATED_PRODUCT_CATEGORY('part','',(#43));
#65=PRODUCT_DEFINITION_FORMATION_WITH_SPECIFIED_SOURCE('','',#43,.NOT_KNOWN.);
#44=PRODUCT_DEFINITION('design','',#65,#63);
#42=PRODUCT_DEFINITION_SHAPE('','',#44);
#66=SHAPE_DEFINITION_REPRESENTATION(#42,#35);
#34=DRAUGHTING_MODEL('',(#59),#33);
#67=(NAMED_UNIT(*)PLANE_ANGLE_UNIT()SI_UNIT($,.RADIAN.));
#68=PLANE_ANGLE_MEASURE_WITH_UNIT(PLANE_ANGLE_MEASURE(0.0174532925),#67);
#69=(CONVERSION_BASED_UNIT('DEGREE',#68)NAMED_UNIT(#70)PLANE_ANGLE_UNIT());
#70=DIMENSIONAL_EXPONENTS(0.,0.,0.,0.,0.,0.,0.);
#71=(NAMED_UNIT(*)SI_UNIT($,.STERADIAN.)SOLID_ANGLE_UNIT());
#72=(LENGTH_UNIT()NAMED_UNIT(*)SI_UNIT(.MILLI.,.METRE.));
#73=UNCERTAINTY_MEASURE_WITH_UNIT(LENGTH_MEASURE(1.000000E-03),#72,'DISTANCE_ACCURACY_VALUE','Maximum Tolerance applied to model');
#74=(GEOMETRIC_REPRESENTATION_CONTEXT(3)GLOBAL_UNCERTAINTY_ASSIGNED_CONTEXT((#73))GLOBAL_UNIT_ASSIGNED_CONTEXT((#72,#69,#71))REPRESENTATION_CONTEXT('','Nape_V2.shapr'));
#86=CARTESIAN_POINT('',(0.,0.,0.));
#87=DIRECTION('',(0.,0.,1.));
#88=DIRECTION('',(1.,0.,-0.));
#89=AXIS2_PLACEMENT_3D('',#86,#87,#88);
#90=ITEM_DEFINED_TRANSFORMATION('','',#89,#15);
#91=(REPRESENTATION_RELATIONSHIP('','',#76,#16)REPRESENTATION_RELATIONSHIP_WITH_TRANSFORMATION(#90)SHAPE_REPRESENTATION_RELATIONSHIP());
#92=NEXT_ASSEMBLY_USAGE_OCCURRENCE('Nape_V2.shapr_2','Nape_V2.shapr','Nape_V2.shapr',#25,#85,$);
#93=PRODUCT_DEFINITION_SHAPE('','',#92);
#94=CONTEXT_DEPENDENT_SHAPE_REPRESENTATION(#91,#93);
#95=(NAMED_UNIT(*)PLANE_ANGLE_UNIT()SI_UNIT($,.RADIAN.));
#96=PLANE_ANGLE_MEASURE_WITH_UNIT(PLANE_ANGLE_MEASURE(0.0174532925),#95);
#97=(CONVERSION_BASED_UNIT('DEGREE',#96)NAMED_UNIT(#98)PLANE_ANGLE_UNIT());
#98=DIMENSIONAL_EXPONENTS(0.,0.,0.,0.,0.,0.,0.);
#99=(NAMED_UNIT(*)SI_UNIT($,.STERADIAN.)SOLID_ANGLE_UNIT());
#100=(LENGTH_UNIT()NAMED_UNIT(*)SI_UNIT(.MILLI.,.METRE.));
#101=UNCERTAINTY_MEASURE_WITH_UNIT(LENGTH_MEASURE(1.000000E-03),#100,'DISTANCE_ACCURACY_VALUE','Maximum Tolerance applied to model');
#102=(GEOMETRIC_REPRESENTATION_CONTEXT(3)GLOBAL_UNCERTAINTY_ASSIGNED_CONTEXT((#101))GLOBAL_UNIT_ASSIGNED_CONTEXT((#100,#97,#99))REPRESENTATION_CONTEXT('','SwitchHoles'));
#114=CARTESIAN_POINT('',(0.,0.,0.));
#115=DIRECTION('',(0.,0.,1.));
#116=DIRECTION('',(1.,0.,-0.));
#117=AXIS2_PLACEMENT_3D('',#114,#115,#116);
#118=ITEM_DEFINED_TRANSFORMATION('','',#117,#15);
#119=(REPRESENTATION_RELATIONSHIP('','',#104,#76)REPRESENTATION_RELATIONSHIP_WITH_TRANSFORMATION(#118)SHAPE_REPRESENTATION_RELATIONSHIP());
#120=NEXT_ASSEMBLY_USAGE_OCCURRENCE('SwitchHoles_3','SwitchHoles','SwitchHoles',#85,#113,$);
#121=PRODUCT_DEFINITION_SHAPE('','',#120);
#122=CONTEXT_DEPENDENT_SHAPE_REPRESENTATION(#119,#121);
#104=SHAPE_REPRESENTATION('SwitchHoles',(#15),#102);
#123=CARTESIAN_POINT('',(0.,0.,0.));
#124=DIRECTION('',(0.,0.,1.));
#125=DIRECTION('',(1.,0.,0.));
#126=AXIS2_PLACEMENT_3D('',#123,#124,#125);
#128=MAPPED_ITEM('',#127,#126);
#127=REPRESENTATION_MAP(#126,#104);
#112=PRODUCT('SwitchHoles','SwitchHoles','',(#62));
#129=PRODUCT_RELATED_PRODUCT_CATEGORY('part','',(#112));
#130=PRODUCT_DEFINITION_FORMATION_WITH_SPECIFIED_SOURCE('','',#112,.NOT_KNOWN.);
#113=PRODUCT_DEFINITION('design','',#130,#63);
#111=PRODUCT_DEFINITION_SHAPE('','',#113);
#131=SHAPE_DEFINITION_REPRESENTATION(#111,#104);
#103=DRAUGHTING_MODEL('',(#128),#102);
#132=(NAMED_UNIT(*)PLANE_ANGLE_UNIT()SI_UNIT($,.RADIAN.));
#133=PLANE_ANGLE_MEASURE_WITH_UNIT(PLANE_ANGLE_MEASURE(0.0174532925),#132);
#134=(CONVERSION_BASED_UNIT('DEGREE',#133)NAMED_UNIT(#135)PLANE_ANGLE_UNIT());
#135=DIMENSIONAL_EXPONENTS(0.,0.,0.,0.,0.,0.,0.);
#136=(NAMED_UNIT(*)SI_UNIT($,.STERADIAN.)SOLID_ANGLE_UNIT());
#137=(LENGTH_UNIT()NAMED_UNIT(*)SI_UNIT(.MILLI.,.METRE.));
#138=UNCERTAINTY_MEASURE_WITH_UNIT(LENGTH_MEASURE(1.000000E-03),#137,'DISTANCE_ACCURACY_VALUE','Maximum Tolerance applied to model');
#139=(GEOMETRIC_REPRESENTATION_CONTEXT(3)GLOBAL_UNCERTAINTY_ASSIGNED_CONTEXT((#138))GLOBAL_UNIT_ASSIGNED_CONTEXT((#137,#134,#136))REPRESENTATION_CONTEXT('','Battery'));
#151=CARTESIAN_POINT('',(0.,0.,0.));
#152=DIRECTION('',(0.,0.,1.));
#153=DIRECTION('',(1.,0.,-0.));
#154=AXIS2_PLACEMENT_3D('',#151,#152,#153);
#155=ITEM_DEFINED_TRANSFORMATION('','',#154,#15);
#156=(REPRESENTATION_RELATIONSHIP('','',#141,#76)REPRESENTATION_RELATIONSHIP_WITH_TRANSFORMATION(#155)SHAPE_REPRESENTATION_RELATIONSHIP());
#157=NEXT_ASSEMBLY_USAGE_OCCURRENCE('Battery_4','Battery','Battery',#85,#150,$);
#158=PRODUCT_DEFINITION_SHAPE('','',#157);
#159=CONTEXT_DEPENDENT_SHAPE_REPRESENTATION(#156,#158);
#141=SHAPE_REPRESENTATION('Battery',(#15),#139);
#160=CARTESIAN_POINT('',(0.,0.,0.));
#161=DIRECTION('',(0.,0.,1.));
#162=DIRECTION('',(1.,0.,0.));
#163=AXIS2_PLACEMENT_3D('',#160,#161,#162);
#165=MAPPED_ITEM('',#164,#163);
#164=REPRESENTATION_MAP(#163,#141);
#149=PRODUCT('Battery','Battery','',(#62));
#166=PRODUCT_RELATED_PRODUCT_CATEGORY('part','',(#149));
#167=PRODUCT_DEFINITION_FORMATION_WITH_SPECIFIED_SOURCE('','',#149,.NOT_KNOWN.);
#150=PRODUCT_DEFINITION('design','',#167,#63);
#148=PRODUCT_DEFINITION_SHAPE('','',#150);
#168=SHAPE_DEFINITION_REPRESENTATION(#148,#141);
#140=DRAUGHTING_MODEL('',(#165),#139);
#76=SHAPE_REPRESENTATION('Nape_V2.shapr',(#15,#117,#154),#74);
#169=CARTESIAN_POINT('',(0.,0.,0.));
#170=DIRECTION('',(0.,0.,1.));
#171=DIRECTION('',(1.,0.,0.));
#172=AXIS2_PLACEMENT_3D('',#169,#170,#171);
#174=MAPPED_ITEM('',#173,#172);
#173=REPRESENTATION_MAP(#172,#76);
#84=PRODUCT('Nape_V2.shapr','Nape_V2.shapr','',(#62));
#175=PRODUCT_RELATED_PRODUCT_CATEGORY('part','',(#84));
#176=PRODUCT_DEFINITION_FORMATION_WITH_SPECIFIED_SOURCE('','',#84,.NOT_KNOWN.);
#85=PRODUCT_DEFINITION('design','',#176,#63);
#83=PRODUCT_DEFINITION_SHAPE('','',#85);
#177=SHAPE_DEFINITION_REPRESENTATION(#83,#76);
#75=DRAUGHTING_MODEL('',(#174),#74);
#178=(NAMED_UNIT(*)PLANE_ANGLE_UNIT()SI_UNIT($,.RADIAN.));
#179=PLANE_ANGLE_MEASURE_WITH_UNIT(PLANE_ANGLE_MEASURE(0.0174532925),#178);
#180=(CONVERSION_BASED_UNIT('DEGREE',#179)NAMED_UNIT(#181)PLANE_ANGLE_UNIT());
#181=DIMENSIONAL_EXPONENTS(0.,0.,0.,0.,0.,0.,0.);
#182=(NAMED_UNIT(*)SI_UNIT($,.STERADIAN.)SOLID_ANGLE_UNIT());
#183=(LENGTH_UNIT()NAMED_UNIT(*)SI_UNIT(.MILLI.,.METRE.));
#184=UNCERTAINTY_MEASURE_WITH_UNIT(LENGTH_MEASURE(1.000000E-03),#183,'DISTANCE_ACCURACY_VALUE','Maximum Tolerance applied to model');
#185=(GEOMETRIC_REPRESENTATION_CONTEXT(3)GLOBAL_UNCERTAINTY_ASSIGNED_CONTEXT((#184))GLOBAL_UNIT_ASSIGNED_CONTEXT((#183,#180,#182))REPRESENTATION_CONTEXT('','Top'));
#197=CARTESIAN_POINT('',(0.,0.,0.));
#198=DIRECTION('',(0.,0.,1.));
#199=DIRECTION('',(1.,0.,-0.));
#200=AXIS2_PLACEMENT_3D('',#197,#198,#199);
#201=ITEM_DEFINED_TRANSFORMATION('','',#200,#15);
#202=(REPRESENTATION_RELATIONSHIP('','',#187,#16)REPRESENTATION_RELATIONSHIP_WITH_TRANSFORMATION(#201)SHAPE_REPRESENTATION_RELATIONSHIP());
#203=NEXT_ASSEMBLY_USAGE_OCCURRENCE('Top_5','Top','Top',#25,#196,$);
#204=PRODUCT_DEFINITION_SHAPE('','',#203);
#205=CONTEXT_DEPENDENT_SHAPE_REPRESENTATION(#202,#204);
#187=SHAPE_REPRESENTATION('Top',(#15),#185);
#206=CARTESIAN_POINT('',(0.,0.,0.));
#207=DIRECTION('',(0.,0.,1.));
#208=DIRECTION('',(1.,0.,0.));
#209=AXIS2_PLACEMENT_3D('',#206,#207,#208);
#211=MAPPED_ITEM('',#210,#209);
#210=REPRESENTATION_MAP(#209,#187);
#195=PRODUCT('Top','Top','',(#62));
#212=PRODUCT_RELATED_PRODUCT_CATEGORY('part','',(#195));
#213=PRODUCT_DEFINITION_FORMATION_WITH_SPECIFIED_SOURCE('','',#195,.NOT_KNOWN.);
#196=PRODUCT_DEFINITION('design','',#213,#63);
#194=PRODUCT_DEFINITION_SHAPE('','',#196);
#214=SHAPE_DEFINITION_REPRESENTATION(#194,#187);
#186=DRAUGHTING_MODEL('',(#211),#185);
#215=(NAMED_UNIT(*)PLANE_ANGLE_UNIT()SI_UNIT($,.RADIAN.));
#216=PLANE_ANGLE_MEASURE_WITH_UNIT(PLANE_ANGLE_MEASURE(0.0174532925),#215);
#217=(CONVERSION_BASED_UNIT('DEGREE',#216)NAMED_UNIT(#218)PLANE_ANGLE_UNIT());
#218=DIMENSIONAL_EXPONENTS(0.,0.,0.,0.,0.,0.,0.);
#219=(NAMED_UNIT(*)SI_UNIT($,.STERADIAN.)SOLID_ANGLE_UNIT());
#220=(LENGTH_UNIT()NAMED_UNIT(*)SI_UNIT(.MILLI.,.METRE.));
#221=UNCERTAINTY_MEASURE_WITH_UNIT(LENGTH_MEASURE(1.000000E-05),#220,'DISTANCE_ACCURACY_VALUE','Maximum Tolerance applied to model');
#222=(GEOMETRIC_REPRESENTATION_CONTEXT(3)GLOBAL_UNCERTAINTY_ASSIGNED_CONTEXT((#221))GLOBAL_UNIT_ASSIGNED_CONTEXT((#220,#217,#219))REPRESENTATION_CONTEXT('','ResetBtn'));
#234=CARTESIAN_POINT('',(0.,0.,0.));
#235=DIRECTION('',(0.,0.,1.));
#236=DIRECTION('',(1.,0.,-0.));
#237=AXIS2_PLACEMENT_3D('',#234,#235,#236);
#238=ITEM_DEFINED_TRANSFORMATION('','',#237,#15);
#239=(REPRESENTATION_RELATIONSHIP('','',#224,#16)REPRESENTATION_RELATIONSHIP_WITH_TRANSFORMATION(#238)SHAPE_REPRESENTATION_RELATIONSHIP());
#240=NEXT_ASSEMBLY_USAGE_OCCURRENCE('ResetBtn_6','ResetBtn','ResetBtn',#25,#233,$);
#241=PRODUCT_DEFINITION_SHAPE('','',#240);
#242=CONTEXT_DEPENDENT_SHAPE_REPRESENTATION(#239,#241);
#244=CARTESIAN_POINT('',(-64.597252273,-5.716785352,10.733561258));
#245=DIRECTION('',(0.,0.,-1.));
#246=DIRECTION('',(1.,-0.,0.));
#247=AXIS2_PLACEMENT_3D('',#244,#245,#246);
#248=PLANE('',#247);
#249=CARTESIAN_POINT('',(-62.5,-4.5,10.733561258));
#250=VERTEX_POINT('',#249);
#251=CARTESIAN_POINT('',(-62.5,-7.,10.733561258));
#252=VERTEX_POINT('',#251);
#253=CARTESIAN_POINT('',(-62.5,-4.5,10.733561258));
#254=DIRECTION('',(0.,-1.,-0.));
#255=VECTOR('',#254,2.5);
#256=LINE('',#253,#255);
#257=EDGE_CURVE('',#250,#252,#256,.T.);
#258=ORIENTED_EDGE('',*,*,#257,.T.);
#259=CARTESIAN_POINT('',(-66.5,-7.,10.733561258));
#260=VERTEX_POINT('',#259);
#261=CARTESIAN_POINT('',(-62.5,-7.,10.733561258));
#262=DIRECTION('',(-1.,-0.,-0.));
#263=VECTOR('',#262,4.);
#264=LINE('',#261,#263);
#265=EDGE_CURVE('',#252,#260,#264,.T.);
#266=ORIENTED_EDGE('',*,*,#265,.T.);
#267=CARTESIAN_POINT('',(-66.5,-4.5,10.733561258));
#268=VERTEX_POINT('',#267);
#269=CARTESIAN_POINT('',(-66.5,-7.,10.733561258));
#270=DIRECTION('',(-0.,1.,0.));
#271=VECTOR('',#270,2.5);
#272=LINE('',#269,#271);
#273=EDGE_CURVE('',#260,#268,#272,.T.);
#274=ORIENTED_EDGE('',*,*,#273,.T.);
#275=CARTESIAN_POINT('',(-66.5,-4.5,10.733561258));
#276=DIRECTION('',(1.,0.,0.));
#277=VECTOR('',#276,4.);
#278=LINE('',#275,#277);
#279=EDGE_CURVE('',#268,#250,#278,.T.);
#280=ORIENTED_EDGE('',*,*,#279,.T.);
#281=EDGE_LOOP('',(#258,#266,#274,#280));
#282=FACE_BOUND('',#281,.T.);
#283=CARTESIAN_POINT('',(-63.397252273,-5.016785352,10.733561258));
#284=VERTEX_POINT('',#283);
#285=CARTESIAN_POINT('',(-63.397252273,-6.416785352,10.733561258));
#286=VERTEX_POINT('',#285);
#287=CARTESIAN_POINT('',(-63.397252273,-5.016785352,10.733561258));
#288=DIRECTION('',(-0.,-1.,-0.));
#289=VECTOR('',#288,1.4);
#290=LINE('',#287,#289);
#291=EDGE_CURVE('',#284,#286,#290,.T.);
#292=ORIENTED_EDGE('',*,*,#291,.F.);
#293=CARTESIAN_POINT('',(-65.797252273,-5.016785352,10.733561258));
#294=VERTEX_POINT('',#293);
#295=CARTESIAN_POINT('',(-65.797252273,-5.016785352,10.733561258));
#296=DIRECTION('',(1.,-0.,0.));
#297=VECTOR('',#296,2.4);
#298=LINE('',#295,#297);
#299=EDGE_CURVE('',#294,#284,#298,.T.);
#300=ORIENTED_EDGE('',*,*,#299,.F.);
#301=CARTESIAN_POINT('',(-65.797252273,-6.416785352,10.733561258));
#302=VERTEX_POINT('',#301);
#303=CARTESIAN_POINT('',(-65.797252273,-6.416785352,10.733561258));
#304=DIRECTION('',(0.,1.,0.));
#305=VECTOR('',#304,1.4);
#306=LINE('',#303,#305);
#307=EDGE_CURVE('',#302,#294,#306,.T.);
#308=ORIENTED_EDGE('',*,*,#307,.F.);
#309=CARTESIAN_POINT('',(-63.397252273,-6.416785352,10.733561258));
#310=DIRECTION('',(-1.,0.,-0.));
#311=VECTOR('',#310,2.4);
#312=LINE('',#309,#311);
#313=EDGE_CURVE('',#286,#302,#312,.T.);
#314=ORIENTED_EDGE('',*,*,#313,.F.);
#315=EDGE_LOOP('',(#292,#300,#308,#314));
#316=FACE_BOUND('',#315,.T.);
#317=ADVANCED_FACE('',(#282,#316),#248,.T.);
#318=CARTESIAN_POINT('',(-62.5,-5.75,12.803561258));
#319=DIRECTION('',(1.,-0.,0.));
#320=DIRECTION('',(0.,0.,-1.));
#321=AXIS2_PLACEMENT_3D('',#318,#319,#320);
#322=PLANE('',#321);
#323=ORIENTED_EDGE('',*,*,#257,.F.);
#324=CARTESIAN_POINT('',(-62.5,-4.5,12.633561258));
#325=VERTEX_POINT('',#324);
#326=CARTESIAN_POINT('',(-62.5,-4.5,12.633561258));
#327=DIRECTION('',(0.,0.,-1.));
#328=VECTOR('',#327,1.9);
#329=LINE('',#326,#328);
#330=EDGE_CURVE('',#325,#250,#329,.T.);
#331=ORIENTED_EDGE('',*,*,#330,.F.);
#332=CARTESIAN_POINT('',(-62.5,-7.,12.633561258));
#333=VERTEX_POINT('',#332);
#334=CARTESIAN_POINT('',(-62.5,-4.5,12.633561258));
#335=DIRECTION('',(0.,-1.,-0.));
#336=VECTOR('',#335,2.5);
#337=LINE('',#334,#336);
#338=EDGE_CURVE('',#325,#333,#337,.T.);
#339=ORIENTED_EDGE('',*,*,#338,.T.);
#340=CARTESIAN_POINT('',(-62.5,-7.,12.633561258));
#341=DIRECTION('',(0.,0.,-1.));
#342=VECTOR('',#341,1.9);
#343=LINE('',#340,#342);
#344=EDGE_CURVE('',#333,#252,#343,.T.);
#345=ORIENTED_EDGE('',*,*,#344,.T.);
#346=EDGE_LOOP('',(#323,#331,#339,#345));
#347=FACE_BOUND('',#346,.T.);
#348=ADVANCED_FACE('',(#347),#322,.T.);
#349=CARTESIAN_POINT('',(-64.5,-4.5,12.803561258));
#350=DIRECTION('',(-0.,1.,0.));
#351=DIRECTION('',(0.,-0.,1.));
#352=AXIS2_PLACEMENT_3D('',#349,#350,#351);
#353=PLANE('',#352);
#354=ORIENTED_EDGE('',*,*,#279,.F.);
#355=CARTESIAN_POINT('',(-66.5,-4.5,12.633561258));
#356=VERTEX_POINT('',#355);
#357=CARTESIAN_POINT('',(-66.5,-4.5,12.633561258));
#358=DIRECTION('',(0.,0.,-1.));
#359=VECTOR('',#358,1.9);
#360=LINE('',#357,#359);
#361=EDGE_CURVE('',#356,#268,#360,.T.);
#362=ORIENTED_EDGE('',*,*,#361,.F.);
#363=CARTESIAN_POINT('',(-66.5,-4.5,12.633561258));
#364=DIRECTION('',(1.,0.,0.));
#365=VECTOR('',#364,4.);
#366=LINE('',#363,#365);
#367=EDGE_CURVE('',#356,#325,#366,.T.);
#368=ORIENTED_EDGE('',*,*,#367,.T.);
#369=ORIENTED_EDGE('',*,*,#330,.T.);
#370=EDGE_LOOP('',(#354,#362,#368,#369));
#371=FACE_BOUND('',#370,.T.);
#372=ADVANCED_FACE('',(#371),#353,.T.);
#373=CARTESIAN_POINT('',(-66.5,-5.75,12.803561258));
#374=DIRECTION('',(-1.,0.,-0.));
#375=DIRECTION('',(-0.,0.,1.));
#376=AXIS2_PLACEMENT_3D('',#373,#374,#375);
#377=PLANE('',#376);
#378=ORIENTED_EDGE('',*,*,#273,.F.);
#379=CARTESIAN_POINT('',(-66.5,-7.,12.633561258));
#380=VERTEX_POINT('',#379);
#381=CARTESIAN_POINT('',(-66.5,-7.,12.633561258));
#382=DIRECTION('',(0.,0.,-1.));
#383=VECTOR('',#382,1.9);
#384=LINE('',#381,#383);
#385=EDGE_CURVE('',#380,#260,#384,.T.);
#386=ORIENTED_EDGE('',*,*,#385,.F.);
#387=CARTESIAN_POINT('',(-66.5,-7.,12.633561258));
#388=DIRECTION('',(-0.,1.,0.));
#389=VECTOR('',#388,2.5);
#390=LINE('',#387,#389);
#391=EDGE_CURVE('',#380,#356,#390,.T.);
#392=ORIENTED_EDGE('',*,*,#391,.T.);
#393=ORIENTED_EDGE('',*,*,#361,.T.);
#394=EDGE_LOOP('',(#378,#386,#392,#393));
#395=FACE_BOUND('',#394,.T.);
#396=ADVANCED_FACE('',(#395),#377,.T.);
#397=CARTESIAN_POINT('',(-64.5,-7.,12.803561258));
#398=DIRECTION('',(0.,-1.,-0.));
#399=DIRECTION('',(0.,0.,-1.));
#400=AXIS2_PLACEMENT_3D('',#397,#398,#399);
#401=PLANE('',#400);
#402=ORIENTED_EDGE('',*,*,#265,.F.);
#403=ORIENTED_EDGE('',*,*,#344,.F.);
#404=CARTESIAN_POINT('',(-62.5,-7.,12.633561258));
#405=DIRECTION('',(-1.,-0.,-0.));
#406=VECTOR('',#405,4.);
#407=LINE('',#404,#406);
#408=EDGE_CURVE('',#333,#380,#407,.T.);
#409=ORIENTED_EDGE('',*,*,#408,.T.);
#410=ORIENTED_EDGE('',*,*,#385,.T.);
#411=EDGE_LOOP('',(#402,#403,#409,#410));
#412=FACE_BOUND('',#411,.T.);
#413=ADVANCED_FACE('',(#412),#401,.T.);
#414=CARTESIAN_POINT('',(-64.597252273,-5.716785352,12.633561258));
#415=DIRECTION('',(0.,0.,-1.));
#416=DIRECTION('',(1.,-0.,0.));
#417=AXIS2_PLACEMENT_3D('',#414,#415,#416);
#418=PLANE('',#417);
#419=CARTESIAN_POINT('',(-66.24,-4.76,12.633561258));
#420=VERTEX_POINT('',#419);
#421=CARTESIAN_POINT('',(-62.86,-4.76,12.633561258));
#422=VERTEX_POINT('',#421);
#423=CARTESIAN_POINT('',(-66.24,-4.76,12.633561258));
#424=DIRECTION('',(1.,0.,0.));
#425=VECTOR('',#424,3.38);
#426=LINE('',#423,#425);
#427=EDGE_CURVE('',#420,#422,#426,.T.);
#428=ORIENTED_EDGE('',*,*,#427,.T.);
#429=CARTESIAN_POINT('',(-62.86,-6.64,12.633561258));
#430=VERTEX_POINT('',#429);
#431=CARTESIAN_POINT('',(-62.86,-4.76,12.633561258));
#432=DIRECTION('',(0.,-1.,-0.));
#433=VECTOR('',#432,1.88);
#434=LINE('',#431,#433);
#435=EDGE_CURVE('',#422,#430,#434,.T.);
#436=ORIENTED_EDGE('',*,*,#435,.T.);
#437=CARTESIAN_POINT('',(-66.24,-6.64,12.633561258));
#438=VERTEX_POINT('',#437);
#439=CARTESIAN_POINT('',(-62.86,-6.64,12.633561258));
#440=DIRECTION('',(-1.,-0.,-0.));
#441=VECTOR('',#440,3.38);
#442=LINE('',#439,#441);
#443=EDGE_CURVE('',#430,#438,#442,.T.);
#444=ORIENTED_EDGE('',*,*,#443,.T.);
#445=CARTESIAN_POINT('',(-66.24,-6.64,12.633561258));
#446=DIRECTION('',(-0.,1.,0.));
#447=VECTOR('',#446,1.88);
#448=LINE('',#445,#447);
#449=EDGE_CURVE('',#438,#420,#448,.T.);
#450=ORIENTED_EDGE('',*,*,#449,.T.);
#451=EDGE_LOOP('',(#428,#436,#444,#450));
#452=FACE_BOUND('',#451,.T.);
#453=ORIENTED_EDGE('',*,*,#338,.F.);
#454=ORIENTED_EDGE('',*,*,#367,.F.);
#455=ORIENTED_EDGE('',*,*,#391,.F.);
#456=ORIENTED_EDGE('',*,*,#408,.F.);
#457=EDGE_LOOP('',(#453,#454,#455,#456));
#458=FACE_BOUND('',#457,.T.);
#459=ADVANCED_FACE('',(#452,#458),#418,.F.);
#460=CARTESIAN_POINT('',(-62.86,-5.7,15.803561258));
#461=DIRECTION('',(1.,0.,0.));
#462=DIRECTION('',(0.,0.,-1.));
#463=AXIS2_PLACEMENT_3D('',#460,#461,#462);
#464=PLANE('',#463);
#465=CARTESIAN_POINT('',(-62.86,-4.76,15.583561258));
#466=VERTEX_POINT('',#465);
#467=CARTESIAN_POINT('',(-62.86,-4.76,15.583561258));
#468=DIRECTION('',(0.,0.,-1.));
#469=VECTOR('',#468,2.95);
#470=LINE('',#467,#469);
#471=EDGE_CURVE('',#466,#422,#470,.T.);
#472=ORIENTED_EDGE('',*,*,#471,.F.);
#473=CARTESIAN_POINT('',(-62.86,-6.64,15.583561258));
#474=VERTEX_POINT('',#473);
#475=CARTESIAN_POINT('',(-62.86,-4.76,15.583561258));
#476=DIRECTION('',(0.,-1.,-0.));
#477=VECTOR('',#476,1.88);
#478=LINE('',#475,#477);
#479=EDGE_CURVE('',#466,#474,#478,.T.);
#480=ORIENTED_EDGE('',*,*,#479,.T.);
#481=CARTESIAN_POINT('',(-62.86,-6.64,15.583561258));
#482=DIRECTION('',(0.,0.,-1.));
#483=VECTOR('',#482,2.95);
#484=LINE('',#481,#483);
#485=EDGE_CURVE('',#474,#430,#484,.T.);
#486=ORIENTED_EDGE('',*,*,#485,.T.);
#487=ORIENTED_EDGE('',*,*,#435,.F.);
#488=EDGE_LOOP('',(#472,#480,#486,#487));
#489=FACE_BOUND('',#488,.T.);
#490=ADVANCED_FACE('',(#489),#464,.T.);
#491=CARTESIAN_POINT('',(-64.55,-4.76,15.803561258));
#492=DIRECTION('',(-0.,1.,0.));
#493=DIRECTION('',(0.,-0.,1.));
#494=AXIS2_PLACEMENT_3D('',#491,#492,#493);
#495=PLANE('',#494);
#496=CARTESIAN_POINT('',(-66.24,-4.76,15.583561258));
#497=VERTEX_POINT('',#496);
#498=CARTESIAN_POINT('',(-66.24,-4.76,15.583561258));
#499=DIRECTION('',(0.,0.,-1.));
#500=VECTOR('',#499,2.95);
#501=LINE('',#498,#500);
#502=EDGE_CURVE('',#497,#420,#501,.T.);
#503=ORIENTED_EDGE('',*,*,#502,.F.);
#504=CARTESIAN_POINT('',(-66.24,-4.76,15.583561258));
#505=DIRECTION('',(1.,0.,0.));
#506=VECTOR('',#505,3.38);
#507=LINE('',#504,#506);
#508=EDGE_CURVE('',#497,#466,#507,.T.);
#509=ORIENTED_EDGE('',*,*,#508,.T.);
#510=ORIENTED_EDGE('',*,*,#471,.T.);
#511=ORIENTED_EDGE('',*,*,#427,.F.);
#512=EDGE_LOOP('',(#503,#509,#510,#511));
#513=FACE_BOUND('',#512,.T.);
#514=ADVANCED_FACE('',(#513),#495,.T.);
#515=CARTESIAN_POINT('',(-66.24,-5.7,15.803561258));
#516=DIRECTION('',(-1.,0.,-0.));
#517=DIRECTION('',(-0.,0.,1.));
#518=AXIS2_PLACEMENT_3D('',#515,#516,#517);
#519=PLANE('',#518);
#520=CARTESIAN_POINT('',(-66.24,-6.64,15.583561258));
#521=VERTEX_POINT('',#520);
#522=CARTESIAN_POINT('',(-66.24,-6.64,15.583561258));
#523=DIRECTION('',(0.,0.,-1.));
#524=VECTOR('',#523,2.95);
#525=LINE('',#522,#524);
#526=EDGE_CURVE('',#521,#438,#525,.T.);
#527=ORIENTED_EDGE('',*,*,#526,.F.);
#528=CARTESIAN_POINT('',(-66.24,-6.64,15.583561258));
#529=DIRECTION('',(-0.,1.,0.));
#530=VECTOR('',#529,1.88);
#531=LINE('',#528,#530);
#532=EDGE_CURVE('',#521,#497,#531,.T.);
#533=ORIENTED_EDGE('',*,*,#532,.T.);
#534=ORIENTED_EDGE('',*,*,#502,.T.);
#535=ORIENTED_EDGE('',*,*,#449,.F.);
#536=EDGE_LOOP('',(#527,#533,#534,#535));
#537=FACE_BOUND('',#536,.T.);
#538=ADVANCED_FACE('',(#537),#519,.T.);
#539=CARTESIAN_POINT('',(-64.55,-6.64,15.803561258));
#540=DIRECTION('',(0.,-1.,-0.));
#541=DIRECTION('',(0.,0.,-1.));
#542=AXIS2_PLACEMENT_3D('',#539,#540,#541);
#543=PLANE('',#542);
#544=ORIENTED_EDGE('',*,*,#485,.F.);
#545=CARTESIAN_POINT('',(-62.86,-6.64,15.583561258));
#546=DIRECTION('',(-1.,-0.,-0.));
#547=VECTOR('',#546,3.38);
#548=LINE('',#545,#547);
#549=EDGE_CURVE('',#474,#521,#548,.T.);
#550=ORIENTED_EDGE('',*,*,#549,.T.);
#551=ORIENTED_EDGE('',*,*,#526,.T.);
#552=ORIENTED_EDGE('',*,*,#443,.F.);
#553=EDGE_LOOP('',(#544,#550,#551,#552));
#554=FACE_BOUND('',#553,.T.);
#555=ADVANCED_FACE('',(#554),#543,.T.);
#556=CARTESIAN_POINT('',(-0.,-0.,15.803561258));
#557=DIRECTION('',(-0.,-0.,1.));
#558=DIRECTION('',(1.,-0.,0.));
#559=AXIS2_PLACEMENT_3D('',#556,#557,#558);
#560=PLANE('',#559);
#561=CARTESIAN_POINT('',(-63.08,-4.98,15.803561258));
#562=VERTEX_POINT('',#561);
#563=CARTESIAN_POINT('',(-66.02,-4.98,15.803561258));
#564=VERTEX_POINT('',#563);
#565=CARTESIAN_POINT('',(-63.08,-4.98,15.803561258));
#566=DIRECTION('',(-1.,-0.,-0.));
#567=VECTOR('',#566,2.94);
#568=LINE('',#565,#567);
#569=EDGE_CURVE('',#562,#564,#568,.T.);
#570=ORIENTED_EDGE('',*,*,#569,.T.);
#571=CARTESIAN_POINT('',(-66.02,-6.42,15.803561258));
#572=VERTEX_POINT('',#571);
#573=CARTESIAN_POINT('',(-66.02,-4.98,15.803561258));
#574=DIRECTION('',(0.,-1.,-0.));
#575=VECTOR('',#574,1.44);
#576=LINE('',#573,#575);
#577=EDGE_CURVE('',#564,#572,#576,.T.);
#578=ORIENTED_EDGE('',*,*,#577,.T.);
#579=CARTESIAN_POINT('',(-63.08,-6.42,15.803561258));
#580=VERTEX_POINT('',#579);
#581=CARTESIAN_POINT('',(-66.02,-6.42,15.803561258));
#582=DIRECTION('',(1.,0.,0.));
#583=VECTOR('',#582,2.94);
#584=LINE('',#581,#583);
#585=EDGE_CURVE('',#572,#580,#584,.T.);
#586=ORIENTED_EDGE('',*,*,#585,.T.);
#587=CARTESIAN_POINT('',(-63.08,-6.42,15.803561258));
#588=DIRECTION('',(-0.,1.,0.));
#589=VECTOR('',#588,1.44);
#590=LINE('',#587,#589);
#591=EDGE_CURVE('',#580,#562,#590,.T.);
#592=ORIENTED_EDGE('',*,*,#591,.T.);
#593=EDGE_LOOP('',(#570,#578,#586,#592));
#594=FACE_BOUND('',#593,.T.);
#595=ADVANCED_FACE('',(#594),#560,.T.);
#596=CARTESIAN_POINT('',(-64.597252273,-5.716785352,10.733561258));
#597=DIRECTION('',(0.,0.,-1.));
#598=DIRECTION('',(1.,-0.,0.));
#599=AXIS2_PLACEMENT_3D('',#596,#597,#598);
#600=PLANE('',#599);
#601=ORIENTED_EDGE('',*,*,#299,.T.);
#602=ORIENTED_EDGE('',*,*,#291,.T.);
#603=ORIENTED_EDGE('',*,*,#313,.T.);
#604=ORIENTED_EDGE('',*,*,#307,.T.);
#605=EDGE_LOOP('',(#601,#602,#603,#604));
#606=FACE_BOUND('',#605,.T.);
#607=ADVANCED_FACE('',(#606),#600,.T.);
#608=CARTESIAN_POINT('',(-63.08,-5.7,15.583561258));
#609=DIRECTION('',(0.,-1.,-0.));
#610=DIRECTION('',(0.,0.,-1.));
#611=AXIS2_PLACEMENT_3D('',#608,#609,#610);
#612=CYLINDRICAL_SURFACE('',#611,0.22);
#613=CARTESIAN_POINT('',(-63.08,-4.98,15.583561258));
#614=DIRECTION('',(-0.707106781,0.707106781,-0.));
#615=DIRECTION('',(0.707106781,0.707106781,0.));
#616=AXIS2_PLACEMENT_3D('',#613,#614,#615);
#617=ELLIPSE('',#616,0.311126984,0.22);
#618=EDGE_CURVE('',#562,#466,#617,.T.);
#619=ORIENTED_EDGE('',*,*,#618,.F.);
#620=ORIENTED_EDGE('',*,*,#591,.F.);
#621=CARTESIAN_POINT('',(-63.08,-6.42,15.583561258));
#622=DIRECTION('',(-0.707106781,-0.707106781,-0.));
#623=DIRECTION('',(-0.707106781,0.707106781,-0.));
#624=AXIS2_PLACEMENT_3D('',#621,#622,#623);
#625=ELLIPSE('',#624,0.311126984,0.22);
#626=EDGE_CURVE('',#474,#580,#625,.T.);
#627=ORIENTED_EDGE('',*,*,#626,.F.);
#628=ORIENTED_EDGE('',*,*,#479,.F.);
#629=EDGE_LOOP('',(#619,#620,#627,#628));
#630=FACE_BOUND('',#629,.T.);
#631=ADVANCED_FACE('',(#630),#612,.T.);
#632=CARTESIAN_POINT('',(-64.55,-6.42,15.583561258));
#633=DIRECTION('',(-1.,-0.,-0.));
#634=DIRECTION('',(-0.,0.,1.));
#635=AXIS2_PLACEMENT_3D('',#632,#633,#634);
#636=CYLINDRICAL_SURFACE('',#635,0.22);
#637=ORIENTED_EDGE('',*,*,#626,.T.);
#638=ORIENTED_EDGE('',*,*,#585,.F.);
#639=CARTESIAN_POINT('',(-66.02,-6.42,15.583561258));
#640=DIRECTION('',(-0.707106781,0.707106781,-0.));
#641=DIRECTION('',(0.707106781,0.707106781,0.));
#642=AXIS2_PLACEMENT_3D('',#639,#640,#641);
#643=ELLIPSE('',#642,0.311126984,0.22);
#644=EDGE_CURVE('',#521,#572,#643,.T.);
#645=ORIENTED_EDGE('',*,*,#644,.F.);
#646=ORIENTED_EDGE('',*,*,#549,.F.);
#647=EDGE_LOOP('',(#637,#638,#645,#646));
#648=FACE_BOUND('',#647,.T.);
#649=ADVANCED_FACE('',(#648),#636,.T.);
#650=CARTESIAN_POINT('',(-64.55,-4.98,15.583561258));
#651=DIRECTION('',(1.,0.,0.));
#652=DIRECTION('',(0.,0.,-1.));
#653=AXIS2_PLACEMENT_3D('',#650,#651,#652);
#654=CYLINDRICAL_SURFACE('',#653,0.22);
#655=ORIENTED_EDGE('',*,*,#618,.T.);
#656=ORIENTED_EDGE('',*,*,#508,.F.);
#657=CARTESIAN_POINT('',(-66.02,-4.98,15.583561258));
#658=DIRECTION('',(-0.707106781,-0.707106781,-0.));
#659=DIRECTION('',(-0.707106781,0.707106781,-0.));
#660=AXIS2_PLACEMENT_3D('',#657,#658,#659);
#661=ELLIPSE('',#660,0.311126984,0.22);
#662=EDGE_CURVE('',#564,#497,#661,.T.);
#663=ORIENTED_EDGE('',*,*,#662,.F.);
#664=ORIENTED_EDGE('',*,*,#569,.F.);
#665=EDGE_LOOP('',(#655,#656,#663,#664));
#666=FACE_BOUND('',#665,.T.);
#667=ADVANCED_FACE('',(#666),#654,.T.);
#668=CARTESIAN_POINT('',(-66.02,-5.7,15.583561258));
#669=DIRECTION('',(-0.,1.,0.));
#670=DIRECTION('',(0.,-0.,1.));
#671=AXIS2_PLACEMENT_3D('',#668,#669,#670);
#672=CYLINDRICAL_SURFACE('',#671,0.22);
#673=ORIENTED_EDGE('',*,*,#644,.T.);
#674=ORIENTED_EDGE('',*,*,#577,.F.);
#675=ORIENTED_EDGE('',*,*,#662,.T.);
#676=ORIENTED_EDGE('',*,*,#532,.F.);
#677=EDGE_LOOP('',(#673,#674,#675,#676));
#678=FACE_BOUND('',#677,.T.);
#679=ADVANCED_FACE('',(#678),#672,.T.);
#680=CLOSED_SHELL('',(#317,#348,#372,#396,#413,#459,#490,#514,#538,#555,#595,#607,#631,#649,#667,#679));
#681=MANIFOLD_SOLID_BREP('ResetBtn',#680);
#682=COLOUR_RGB('',0.898039222,0.360784322,0.101960786);
#683=FILL_AREA_STYLE_COLOUR('',#682);
#684=FILL_AREA_STYLE('',(#683));
#685=SURFACE_STYLE_FILL_AREA(#684);
#686=SURFACE_SIDE_STYLE('',(#685));
#687=SURFACE_STYLE_USAGE(.BOTH.,#686);
#688=PRESENTATION_STYLE_ASSIGNMENT((#687));
#243=STYLED_ITEM('',(#688),#681);
#689=(NAMED_UNIT(*)PLANE_ANGLE_UNIT()SI_UNIT($,.RADIAN.));
#690=PLANE_ANGLE_MEASURE_WITH_UNIT(PLANE_ANGLE_MEASURE(0.0174532925),#689);
#691=(CONVERSION_BASED_UNIT('DEGREE',#690)NAMED_UNIT(#692)PLANE_ANGLE_UNIT());
#692=DIMENSIONAL_EXPONENTS(0.,0.,0.,0.,0.,0.,0.);
#693=(NAMED_UNIT(*)SI_UNIT($,.STERADIAN.)SOLID_ANGLE_UNIT());
#694=(LENGTH_UNIT()NAMED_UNIT(*)SI_UNIT(.MILLI.,.METRE.));
#695=UNCERTAINTY_MEASURE_WITH_UNIT(LENGTH_MEASURE(1.000000E-03),#694,'DISTANCE_ACCURACY_VALUE','Maximum Tolerance applied to model');
#696=(GEOMETRIC_REPRESENTATION_CONTEXT(3)GLOBAL_UNCERTAINTY_ASSIGNED_CONTEXT((#695))GLOBAL_UNIT_ASSIGNED_CONTEXT((#694,#691,#693))REPRESENTATION_CONTEXT('','\X2\51865F6272B630D130BF30FC30F3\X0\ 02'));
#708=CARTESIAN_POINT('',(0.,0.,0.));
#709=DIRECTION('',(0.,0.,1.));
#710=DIRECTION('',(1.,0.,-0.));
#711=AXIS2_PLACEMENT_3D('',#708,#709,#710);
#712=ITEM_DEFINED_TRANSFORMATION('','',#711,#15);
#713=(REPRESENTATION_RELATIONSHIP('','',#698,#224)REPRESENTATION_RELATIONSHIP_WITH_TRANSFORMATION(#712)SHAPE_REPRESENTATION_RELATIONSHIP());
#714=NEXT_ASSEMBLY_USAGE_OCCURRENCE('\X2\51865F6272B630D130BF30FC30F3\X0\ 02_7','\X2\51865F6272B630D130BF30FC30F3\X0\ 02','\X2\51865F6272B630D130BF30FC30F3\X0\ 02',#233,#707,$);
#715=PRODUCT_DEFINITION_SHAPE('','',#714);
#716=CONTEXT_DEPENDENT_SHAPE_REPRESENTATION(#713,#715);
#698=SHAPE_REPRESENTATION('\X2\51865F6272B630D130BF30FC30F3\X0\ 02',(#15),#696);
#717=CARTESIAN_POINT('',(0.,0.,0.));
#718=DIRECTION('',(0.,0.,1.));
#719=DIRECTION('',(1.,0.,0.));
#720=AXIS2_PLACEMENT_3D('',#717,#718,#719);
#722=MAPPED_ITEM('',#721,#720);
#721=REPRESENTATION_MAP(#720,#698);
#706=PRODUCT('\X2\51865F6272B630D130BF30FC30F3\X0\ 02','\X2\51865F6272B630D130BF30FC30F3\X0\ 02','',(#62));
#723=PRODUCT_RELATED_PRODUCT_CATEGORY('part','',(#706));
#724=PRODUCT_DEFINITION_FORMATION_WITH_SPECIFIED_SOURCE('','',#706,.NOT_KNOWN.);
#707=PRODUCT_DEFINITION('design','',#724,#63);
#705=PRODUCT_DEFINITION_SHAPE('','',#707);
#725=SHAPE_DEFINITION_REPRESENTATION(#705,#698);
#697=DRAUGHTING_MODEL('',(#722),#696);
#224=SHAPE_REPRESENTATION('ResetBtn',(#15,#711),#222);
#225=ADVANCED_BREP_SHAPE_REPRESENTATION('ResetBtn',(#681),#222);
#733=SHAPE_REPRESENTATION_RELATIONSHIP('','',#224,#225);
#734=CARTESIAN_POINT('',(0.,0.,0.));
#735=DIRECTION('',(0.,0.,1.));
#736=DIRECTION('',(1.,0.,0.));
#737=AXIS2_PLACEMENT_3D('',#734,#735,#736);
#739=MAPPED_ITEM('',#738,#737);
#738=REPRESENTATION_MAP(#737,#224);
#232=PRODUCT('ResetBtn','ResetBtn','',(#62));
#740=PRODUCT_RELATED_PRODUCT_CATEGORY('part','',(#232));
#741=PRODUCT_DEFINITION_FORMATION_WITH_SPECIFIED_SOURCE('','',#232,.NOT_KNOWN.);
#233=PRODUCT_DEFINITION('design','',#741,#63);
#231=PRODUCT_DEFINITION_SHAPE('','',#233);
#742=SHAPE_DEFINITION_REPRESENTATION(#231,#224);
#223=DRAUGHTING_MODEL('',(#739),#222);
#16=SHAPE_REPRESENTATION('root',(#15,#48,#89,#200,#237),#10);
#743=CARTESIAN_POINT('',(0.,0.,0.));
#744=DIRECTION('',(0.,0.,1.));
#745=DIRECTION('',(1.,0.,0.));
#746=AXIS2_PLACEMENT_3D('',#743,#744,#745);
#748=MAPPED_ITEM('',#747,#746);
#747=REPRESENTATION_MAP(#746,#16);
#24=PRODUCT('root','root','',(#62));
#749=PRODUCT_RELATED_PRODUCT_CATEGORY('part','',(#24));
#750=PRODUCT_DEFINITION_FORMATION_WITH_SPECIFIED_SOURCE('','',#24,.NOT_KNOWN.);
#25=PRODUCT_DEFINITION('design','',#750,#63);
#23=PRODUCT_DEFINITION_SHAPE('','',#25);
#751=SHAPE_DEFINITION_REPRESENTATION(#23,#16);
#11=DRAUGHTING_MODEL('',(#748),#10);
#752=DESCRIPTIVE_REPRESENTATION_ITEM('KEY','/Users/koichiro.amito/Library/Containers/com.shapr3d.shapr/Data/tmp/1C455C8E-E289-48E2-A8CC-A8CE575AA5D5.tmp');
#753=PROPERTY_DEFINITION('KEY','',#25);
#754=REPRESENTATION('',(#752),#10);
#755=PROPERTY_DEFINITION_REPRESENTATION(#753,#754);
#756=GENERAL_PROPERTY('','KEY','');
#757=GENERAL_PROPERTY_ASSOCIATION('','',#756,#753);
#1=MECHANICAL_DESIGN_GEOMETRIC_PRESENTATION_REPRESENTATION('',(#243),#10);
ENDSEC;
END-ISO-10303-21;
