ISO-10303-21;
HEADER;

/* File generated by Shapr3D Version 26.123.0.11423 */

FILE_DESCRIPTION(('HOOPS Exchange Step'),'2;1');

FILE_NAME('/Users/koichiro.amito/Library/Containers/com.shapr3d.shapr/Data/tmp/export/temp_export',
'2026-08-02T22:36:58+09:00',
('koichiro.amito'),
('Shapr3D Limited'),
'HOOPS Exchange 2026.3',
'Shapr3D',
'Authorized');

FILE_SCHEMA( ('AP242_MANAGED_MODEL_BASED_3D_ENGINEERING_MIM_LF {1 0 10303 442 1 1 4}') );

ENDSEC;

DATA;
#3=(NAMED_UNIT(*)PLANE_ANGLE_UNIT()SI_UNIT($,.RADIAN.));
#4=PLANE_ANGLE_MEASURE_WITH_UNIT(PLANE_ANGLE_MEASURE(0.0174532925),#3);
#5=(CONVERSION_BASED_UNIT('DEGREE',#4)NAMED_UNIT(#6)PLANE_ANGLE_UNIT());
#6=DIMENSIONAL_EXPONENTS(0.,0.,0.,0.,0.,0.,0.);
#7=(NAMED_UNIT(*)SI_UNIT($,.STERADIAN.)SOLID_ANGLE_UNIT());
#8=(LENGTH_UNIT()NAMED_UNIT(*)SI_UNIT(.MILLI.,.METRE.));
#9=UNCERTAINTY_MEASURE_WITH_UNIT(LENGTH_MEASURE(1.000000E-05),#8,'DISTANCE_ACCURACY_VALUE','Maximum Tolerance applied to model');
#10=(GEOMETRIC_REPRESENTATION_CONTEXT(3)GLOBAL_UNCERTAINTY_ASSIGNED_CONTEXT((#9))GLOBAL_UNIT_ASSIGNED_CONTEXT((#8,#5,#7))REPRESENTATION_CONTEXT('','root'));
#12=CARTESIAN_POINT('',(0.,0.,0.));
#13=DIRECTION('',(0.,0.,1.));
#14=DIRECTION('',(1.,0.,0.));
#15=AXIS2_PLACEMENT_3D('TS3D_PRODUCT_CSYS',#12,#13,#14);
#27=CARTESIAN_POINT('',(61.570515727,-5.003053055,5.8));
#28=DIRECTION('',(0.000049586,0.999999999,0.));
#29=DIRECTION('',(-0.999999999,0.000049586,0.));
#30=AXIS2_PLACEMENT_3D('',#27,#28,#29);
#31=PLANE('',#30);
#32=CARTESIAN_POINT('',(61.399751993,-5.003044587,2.9));
#33=VERTEX_POINT('',#32);
#34=CARTESIAN_POINT('',(66.470515721,-5.003296027,2.9));
#35=VERTEX_POINT('',#34);
#36=CARTESIAN_POINT('',(61.399751993,-5.003044587,2.9));
#37=DIRECTION('',(0.999999999,-0.000049586,0.));
#38=VECTOR('',#37,5.070763733);
#39=LINE('',#36,#38);
#40=EDGE_CURVE('',#33,#35,#39,.T.);
#41=ORIENTED_EDGE('',*,*,#40,.T.);
#42=CARTESIAN_POINT('',(66.470515721,-5.003296027,8.7));
#43=VERTEX_POINT('',#42);
#44=CARTESIAN_POINT('',(66.470515721,-5.003296027,2.9));
#45=DIRECTION('',(0.,0.,1.));
#46=VECTOR('',#45,5.8);
#47=LINE('',#44,#46);
#48=EDGE_CURVE('',#35,#43,#47,.T.);
#49=ORIENTED_EDGE('',*,*,#48,.T.);
#50=CARTESIAN_POINT('',(61.570515727,-5.003053055,8.7));
#51=VERTEX_POINT('',#50);
#52=CARTESIAN_POINT('',(61.570515727,-5.003053055,8.7));
#53=DIRECTION('',(0.999999999,-0.000049586,0.));
#54=VECTOR('',#53,4.9);
#55=LINE('',#52,#54);
#56=EDGE_CURVE('',#51,#43,#55,.T.);
#57=ORIENTED_EDGE('',*,*,#56,.F.);
#58=CARTESIAN_POINT('',(61.570515727,-5.003053055,3.7));
#59=VERTEX_POINT('',#58);
#60=CARTESIAN_POINT('',(61.570515727,-5.003053055,3.7));
#61=DIRECTION('',(0.,0.,1.));
#62=VECTOR('',#61,5.);
#63=LINE('',#60,#62);
#64=EDGE_CURVE('',#59,#51,#63,.T.);
#65=ORIENTED_EDGE('',*,*,#64,.F.);
#66=CARTESIAN_POINT('',(61.399751993,-5.003044587,3.7));
#67=VERTEX_POINT('',#66);
#68=CARTESIAN_POINT('',(61.399751993,-5.003044587,3.7));
#69=DIRECTION('',(0.999999999,-0.000049586,0.));
#70=VECTOR('',#69,0.170763733);
#71=LINE('',#68,#70);
#72=EDGE_CURVE('',#67,#59,#71,.T.);
#73=ORIENTED_EDGE('',*,*,#72,.F.);
#74=CARTESIAN_POINT('',(61.399751993,-5.003044587,2.9));
#75=DIRECTION('',(0.,0.,1.));
#76=VECTOR('',#75,0.8);
#77=LINE('',#74,#76);
#78=EDGE_CURVE('',#33,#67,#77,.T.);
#79=ORIENTED_EDGE('',*,*,#78,.F.);
#80=EDGE_LOOP('',(#41,#49,#57,#65,#73,#79));
#81=FACE_BOUND('',#80,.T.);
#82=ADVANCED_FACE('',(#81),#31,.F.);
#83=CARTESIAN_POINT('',(61.570838037,1.496946937,5.8));
#84=DIRECTION('',(-0.000049586,-0.999999999,-0.));
#85=DIRECTION('',(0.999999999,-0.000049586,0.));
#86=AXIS2_PLACEMENT_3D('',#83,#84,#85);
#87=PLANE('',#86);
#88=CARTESIAN_POINT('',(61.570838037,1.496946937,8.7));
#89=VERTEX_POINT('',#88);
#90=CARTESIAN_POINT('',(66.470838031,1.496703965,8.7));
#91=VERTEX_POINT('',#90);
#92=CARTESIAN_POINT('',(61.570838037,1.496946937,8.7));
#93=DIRECTION('',(0.999999999,-0.000049586,0.));
#94=VECTOR('',#93,4.9);
#95=LINE('',#92,#94);
#96=EDGE_CURVE('',#89,#91,#95,.T.);
#97=ORIENTED_EDGE('',*,*,#96,.T.);
#98=CARTESIAN_POINT('',(66.470838031,1.496703965,2.9));
#99=VERTEX_POINT('',#98);
#100=CARTESIAN_POINT('',(66.470838031,1.496703965,8.7));
#101=DIRECTION('',(0.,0.,-1.));
#102=VECTOR('',#101,5.8);
#103=LINE('',#100,#102);
#104=EDGE_CURVE('',#91,#99,#103,.T.);
#105=ORIENTED_EDGE('',*,*,#104,.T.);
#106=CARTESIAN_POINT('',(61.400074304,1.496955405,2.9));
#107=VERTEX_POINT('',#106);
#108=CARTESIAN_POINT('',(61.400074304,1.496955405,2.9));
#109=DIRECTION('',(0.999999999,-0.000049586,0.));
#110=VECTOR('',#109,5.070763733);
#111=LINE('',#108,#110);
#112=EDGE_CURVE('',#107,#99,#111,.T.);
#113=ORIENTED_EDGE('',*,*,#112,.F.);
#114=CARTESIAN_POINT('',(61.400074304,1.496955405,3.7));
#115=VERTEX_POINT('',#114);
#116=CARTESIAN_POINT('',(61.400074304,1.496955405,3.7));
#117=DIRECTION('',(0.,0.,-1.));
#118=VECTOR('',#117,0.8);
#119=LINE('',#116,#118);
#120=EDGE_CURVE('',#115,#107,#119,.T.);
#121=ORIENTED_EDGE('',*,*,#120,.F.);
#122=CARTESIAN_POINT('',(61.570838037,1.496946937,3.7));
#123=VERTEX_POINT('',#122);
#124=CARTESIAN_POINT('',(61.400074304,1.496955405,3.7));
#125=DIRECTION('',(0.999999999,-0.000049586,0.));
#126=VECTOR('',#125,0.170763733);
#127=LINE('',#124,#126);
#128=EDGE_CURVE('',#115,#123,#127,.T.);
#129=ORIENTED_EDGE('',*,*,#128,.T.);
#130=CARTESIAN_POINT('',(61.570838037,1.496946937,8.7));
#131=DIRECTION('',(0.,0.,-1.));
#132=VECTOR('',#131,5.);
#133=LINE('',#130,#132);
#134=EDGE_CURVE('',#89,#123,#133,.T.);
#135=ORIENTED_EDGE('',*,*,#134,.F.);
#136=EDGE_LOOP('',(#97,#105,#113,#121,#129,#135));
#137=FACE_BOUND('',#136,.T.);
#138=ADVANCED_FACE('',(#137),#87,.F.);
#139=CARTESIAN_POINT('',(61.570763658,-0.003053061,0.));
#140=DIRECTION('',(0.999999999,-0.000049586,0.));
#141=DIRECTION('',(0.000049586,0.999999999,0.));
#142=AXIS2_PLACEMENT_3D('',#139,#140,#141);
#143=PLANE('',#142);
#144=CARTESIAN_POINT('',(61.570624733,-2.804733036,8.7));
#145=VERTEX_POINT('',#144);
#146=CARTESIAN_POINT('',(61.570515727,-5.003053055,8.7));
#147=DIRECTION('',(0.000049586,0.999999999,0.));
#148=VECTOR('',#147,2.198320021);
#149=LINE('',#146,#148);
#150=EDGE_CURVE('',#51,#145,#149,.T.);
#151=ORIENTED_EDGE('',*,*,#150,.T.);
#152=CARTESIAN_POINT('',(61.570624733,-2.804733036,4.606770045));
#153=VERTEX_POINT('',#152);
#154=CARTESIAN_POINT('',(61.570624733,-2.804733036,8.7));
#155=DIRECTION('',(0.,0.,-1.));
#156=VECTOR('',#155,4.093229955);
#157=LINE('',#154,#156);
#158=EDGE_CURVE('',#145,#153,#157,.T.);
#159=ORIENTED_EDGE('',*,*,#158,.T.);
#160=CARTESIAN_POINT('',(61.570704036,-1.205438172,4.606770045));
#161=VERTEX_POINT('',#160);
#162=CARTESIAN_POINT('',(61.570624733,-2.804733036,4.606770045));
#163=DIRECTION('',(0.000049586,0.999999999,0.));
#164=VECTOR('',#163,1.599294866);
#165=LINE('',#162,#164);
#166=EDGE_CURVE('',#153,#161,#165,.T.);
#167=ORIENTED_EDGE('',*,*,#166,.T.);
#168=CARTESIAN_POINT('',(61.570704036,-1.205438172,8.7));
#169=VERTEX_POINT('',#168);
#170=CARTESIAN_POINT('',(61.570704036,-1.205438172,4.606770045));
#171=DIRECTION('',(0.,0.,1.));
#172=VECTOR('',#171,4.093229955);
#173=LINE('',#170,#172);
#174=EDGE_CURVE('',#161,#169,#173,.T.);
#175=ORIENTED_EDGE('',*,*,#174,.T.);
#176=CARTESIAN_POINT('',(61.570704036,-1.205438172,8.7));
#177=DIRECTION('',(0.000049586,0.999999999,0.));
#178=VECTOR('',#177,2.702385113);
#179=LINE('',#176,#178);
#180=EDGE_CURVE('',#169,#89,#179,.T.);
#181=ORIENTED_EDGE('',*,*,#180,.T.);
#182=ORIENTED_EDGE('',*,*,#134,.T.);
#183=CARTESIAN_POINT('',(61.570838037,1.496946937,3.7));
#184=DIRECTION('',(-0.000049586,-0.999999999,0.));
#185=VECTOR('',#184,6.5);
#186=LINE('',#183,#185);
#187=EDGE_CURVE('',#123,#59,#186,.T.);
#188=ORIENTED_EDGE('',*,*,#187,.T.);
#189=ORIENTED_EDGE('',*,*,#64,.T.);
#190=EDGE_LOOP('',(#151,#159,#167,#175,#181,#182,#188,#189));
#191=FACE_BOUND('',#190,.T.);
#192=ADVANCED_FACE('',(#191),#143,.F.);
#193=CARTESIAN_POINT('',(61.570639692,-2.503053058,8.7));
#194=DIRECTION('',(0.,0.,-1.));
#195=DIRECTION('',(-1.,0.,0.));
#196=AXIS2_PLACEMENT_3D('',#193,#194,#195);
#197=PLANE('',#196);
#198=CARTESIAN_POINT('',(64.07062473,-1.205562134,8.7));
#199=VERTEX_POINT('',#198);
#200=CARTESIAN_POINT('',(64.07062473,-2.804857002,8.7));
#201=VERTEX_POINT('',#200);
#202=CARTESIAN_POINT('',(64.07062473,-1.205562134,8.7));
#203=DIRECTION('',(0.,-1.,0.));
#204=VECTOR('',#203,1.599294868);
#205=LINE('',#202,#204);
#206=EDGE_CURVE('',#199,#201,#205,.T.);
#207=ORIENTED_EDGE('',*,*,#206,.T.);
#208=CARTESIAN_POINT('',(64.07062473,-2.804857002,8.7));
#209=DIRECTION('',(-0.999999999,0.000049586,0.));
#210=VECTOR('',#209,2.5);
#211=LINE('',#208,#210);
#212=EDGE_CURVE('',#201,#145,#211,.T.);
#213=ORIENTED_EDGE('',*,*,#212,.T.);
#214=ORIENTED_EDGE('',*,*,#150,.F.);
#215=ORIENTED_EDGE('',*,*,#56,.T.);
#216=CARTESIAN_POINT('',(66.470515721,-5.003296027,8.7));
#217=DIRECTION('',(0.000049586,0.999999999,0.));
#218=VECTOR('',#217,6.5);
#219=LINE('',#216,#218);
#220=EDGE_CURVE('',#43,#91,#219,.T.);
#221=ORIENTED_EDGE('',*,*,#220,.T.);
#222=ORIENTED_EDGE('',*,*,#96,.F.);
#223=ORIENTED_EDGE('',*,*,#180,.F.);
#224=CARTESIAN_POINT('',(64.07062473,-1.205562134,8.7));
#225=DIRECTION('',(-0.999999999,0.000049586,0.));
#226=VECTOR('',#225,2.499920697);
#227=LINE('',#224,#226);
#228=EDGE_CURVE('',#199,#169,#227,.T.);
#229=ORIENTED_EDGE('',*,*,#228,.F.);
#230=EDGE_LOOP('',(#207,#213,#214,#215,#221,#222,#223,#229));
#231=FACE_BOUND('',#230,.T.);
#232=ADVANCED_FACE('',(#231),#197,.F.);
#233=CARTESIAN_POINT('',(61.570639692,-2.503053058,2.9));
#234=DIRECTION('',(-0.,-0.,1.));
#235=DIRECTION('',(0.,-1.,-0.));
#236=AXIS2_PLACEMENT_3D('',#233,#234,#235);
#237=PLANE('',#236);
#238=ORIENTED_EDGE('',*,*,#112,.T.);
#239=CARTESIAN_POINT('',(66.470838031,1.496703965,2.9));
#240=DIRECTION('',(-0.000049586,-0.999999999,-0.));
#241=VECTOR('',#240,6.5);
#242=LINE('',#239,#241);
#243=EDGE_CURVE('',#99,#35,#242,.T.);
#244=ORIENTED_EDGE('',*,*,#243,.T.);
#245=ORIENTED_EDGE('',*,*,#40,.F.);
#246=CARTESIAN_POINT('',(61.399543731,-9.203044582,2.9));
#247=VERTEX_POINT('',#246);
#248=CARTESIAN_POINT('',(61.399543731,-9.203044582,2.9));
#249=DIRECTION('',(0.000049586,0.999999999,0.));
#250=VECTOR('',#249,4.2);
#251=LINE('',#248,#250);
#252=EDGE_CURVE('',#247,#33,#251,.T.);
#253=ORIENTED_EDGE('',*,*,#252,.F.);
#254=CARTESIAN_POINT('',(57.770307469,-9.202864622,2.9));
#255=VERTEX_POINT('',#254);
#256=CARTESIAN_POINT('',(57.770307469,-9.202864622,2.9));
#257=DIRECTION('',(0.999999999,-0.000049586,0.));
#258=VECTOR('',#257,3.629236267);
#259=LINE('',#256,#258);
#260=EDGE_CURVE('',#255,#247,#259,.T.);
#261=ORIENTED_EDGE('',*,*,#260,.F.);
#262=CARTESIAN_POINT('',(57.771071097,6.197135359,2.9));
#263=VERTEX_POINT('',#262);
#264=CARTESIAN_POINT('',(57.770307469,-9.202864622,2.9));
#265=DIRECTION('',(0.000049586,0.999999999,0.));
#266=VECTOR('',#265,15.4);
#267=LINE('',#264,#266);
#268=EDGE_CURVE('',#255,#263,#267,.T.);
#269=ORIENTED_EDGE('',*,*,#268,.T.);
#270=CARTESIAN_POINT('',(61.400307359,6.196955399,2.9));
#271=VERTEX_POINT('',#270);
#272=CARTESIAN_POINT('',(61.400307359,6.196955399,2.9));
#273=DIRECTION('',(-0.999999999,0.000049586,-0.));
#274=VECTOR('',#273,3.629236267);
#275=LINE('',#272,#274);
#276=EDGE_CURVE('',#271,#263,#275,.T.);
#277=ORIENTED_EDGE('',*,*,#276,.F.);
#278=CARTESIAN_POINT('',(61.400307359,6.196955399,2.9));
#279=DIRECTION('',(-0.000049586,-0.999999999,-0.));
#280=VECTOR('',#279,4.7);
#281=LINE('',#278,#280);
#282=EDGE_CURVE('',#271,#107,#281,.T.);
#283=ORIENTED_EDGE('',*,*,#282,.T.);
#284=EDGE_LOOP('',(#238,#244,#245,#253,#261,#269,#277,#283));
#285=FACE_BOUND('',#284,.T.);
#286=ADVANCED_FACE('',(#285),#237,.F.);
#287=CARTESIAN_POINT('',(67.170763651,-0.003330744,0.));
#288=DIRECTION('',(0.999999999,-0.000049586,0.));
#289=DIRECTION('',(0.000049586,0.999999999,0.));
#290=AXIS2_PLACEMENT_3D('',#287,#288,#289);
#291=PLANE('',#290);
#292=CARTESIAN_POINT('',(67.17080332,0.796669255,8.));
#293=VERTEX_POINT('',#292);
#294=CARTESIAN_POINT('',(67.17055043,-4.303330739,8.));
#295=VERTEX_POINT('',#294);
#296=CARTESIAN_POINT('',(67.17080332,0.796669255,8.));
#297=DIRECTION('',(-0.000049586,-0.999999999,-0.));
#298=VECTOR('',#297,5.1);
#299=LINE('',#296,#298);
#300=EDGE_CURVE('',#293,#295,#299,.T.);
#301=ORIENTED_EDGE('',*,*,#300,.T.);
#302=CARTESIAN_POINT('',(67.17055043,-4.303330739,3.6));
#303=VERTEX_POINT('',#302);
#304=CARTESIAN_POINT('',(67.17055043,-4.303330739,8.));
#305=DIRECTION('',(-0.,-0.,-1.));
#306=VECTOR('',#305,4.4);
#307=LINE('',#304,#306);
#308=EDGE_CURVE('',#295,#303,#307,.T.);
#309=ORIENTED_EDGE('',*,*,#308,.T.);
#310=CARTESIAN_POINT('',(67.17080332,0.796669255,3.6));
#311=VERTEX_POINT('',#310);
#312=CARTESIAN_POINT('',(67.17055043,-4.303330739,3.6));
#313=DIRECTION('',(0.000049586,0.999999999,0.));
#314=VECTOR('',#313,5.1);
#315=LINE('',#312,#314);
#316=EDGE_CURVE('',#303,#311,#315,.T.);
#317=ORIENTED_EDGE('',*,*,#316,.T.);
#318=CARTESIAN_POINT('',(67.17080332,0.796669255,3.6));
#319=DIRECTION('',(-0.,-0.,1.));
#320=VECTOR('',#319,4.4);
#321=LINE('',#318,#320);
#322=EDGE_CURVE('',#311,#293,#321,.T.);
#323=ORIENTED_EDGE('',*,*,#322,.T.);
#324=EDGE_LOOP('',(#301,#309,#317,#323));
#325=FACE_BOUND('',#324,.T.);
#326=ADVANCED_FACE('',(#325),#291,.T.);
#327=CARTESIAN_POINT('',(64.07062473,-2.804857002,5.355165651));
#328=DIRECTION('',(0.000049586,0.999999999,0.));
#329=DIRECTION('',(-0.999999999,0.000049586,0.));
#330=AXIS2_PLACEMENT_3D('',#327,#328,#329);
#331=PLANE('',#330);
#332=ORIENTED_EDGE('',*,*,#158,.F.);
#333=ORIENTED_EDGE('',*,*,#212,.F.);
#334=CARTESIAN_POINT('',(64.07062473,-2.804857002,6.103561258));
#335=VERTEX_POINT('',#334);
#336=CARTESIAN_POINT('',(64.07062473,-2.804857002,8.7));
#337=DIRECTION('',(0.,0.,-1.));
#338=VECTOR('',#337,2.596438742);
#339=LINE('',#336,#338);
#340=EDGE_CURVE('',#201,#335,#339,.T.);
#341=ORIENTED_EDGE('',*,*,#340,.T.);
#342=CARTESIAN_POINT('',(64.07062473,-2.804857002,4.606770045));
#343=VERTEX_POINT('',#342);
#344=CARTESIAN_POINT('',(64.07062473,-2.804857002,6.103561258));
#345=DIRECTION('',(0.,0.,-1.));
#346=VECTOR('',#345,1.496791214);
#347=LINE('',#344,#346);
#348=EDGE_CURVE('',#335,#343,#347,.T.);
#349=ORIENTED_EDGE('',*,*,#348,.T.);
#350=CARTESIAN_POINT('',(64.07062473,-2.804857002,4.606770045));
#351=DIRECTION('',(-0.999999999,0.000049586,0.));
#352=VECTOR('',#351,2.5);
#353=LINE('',#350,#352);
#354=EDGE_CURVE('',#343,#153,#353,.T.);
#355=ORIENTED_EDGE('',*,*,#354,.T.);
#356=EDGE_LOOP('',(#332,#333,#341,#349,#355));
#357=FACE_BOUND('',#356,.T.);
#358=ADVANCED_FACE('',(#357),#331,.T.);
#359=CARTESIAN_POINT('',(64.070704033,-1.205562138,5.355165651));
#360=DIRECTION('',(-0.000049586,-0.999999999,0.));
#361=DIRECTION('',(0.999999999,-0.000049586,0.));
#362=AXIS2_PLACEMENT_3D('',#359,#360,#361);
#363=PLANE('',#362);
#364=ORIENTED_EDGE('',*,*,#174,.F.);
#365=CARTESIAN_POINT('',(64.070704033,-1.205562138,4.606770045));
#366=VERTEX_POINT('',#365);
#367=CARTESIAN_POINT('',(64.070704033,-1.205562138,4.606770045));
#368=DIRECTION('',(-0.999999999,0.000049586,0.));
#369=VECTOR('',#368,2.5);
#370=LINE('',#367,#369);
#371=EDGE_CURVE('',#366,#161,#370,.T.);
#372=ORIENTED_EDGE('',*,*,#371,.F.);
#373=CARTESIAN_POINT('',(64.070664381,-1.205562136,6.103561258));
#374=VERTEX_POINT('',#373);
#375=CARTESIAN_POINT('',(64.070704033,-1.205562138,4.606770045));
#376=DIRECTION('',(0.,0.,1.));
#377=VECTOR('',#376,1.496791214);
#378=LINE('',#375,#377);
#379=EDGE_CURVE('',#366,#374,#378,.T.);
#380=ORIENTED_EDGE('',*,*,#379,.T.);
#381=CARTESIAN_POINT('',(64.07062473,-1.205562134,8.7));
#382=DIRECTION('',(0.,0.,-1.));
#383=VECTOR('',#382,2.596438742);
#384=LINE('',#381,#383);
#385=EDGE_CURVE('',#199,#374,#384,.T.);
#386=ORIENTED_EDGE('',*,*,#385,.F.);
#387=ORIENTED_EDGE('',*,*,#228,.T.);
#388=EDGE_LOOP('',(#364,#372,#380,#386,#387));
#389=FACE_BOUND('',#388,.T.);
#390=ADVANCED_FACE('',(#389),#363,.T.);
#391=CARTESIAN_POINT('',(64.070666861,-1.95520957,4.606770045));
#392=DIRECTION('',(0.,0.,1.));
#393=DIRECTION('',(1.,0.,0.));
#394=AXIS2_PLACEMENT_3D('',#391,#392,#393);
#395=PLANE('',#394);
#396=ORIENTED_EDGE('',*,*,#166,.F.);
#397=ORIENTED_EDGE('',*,*,#354,.F.);
#398=CARTESIAN_POINT('',(64.07062473,-2.804857002,4.606770045));
#399=DIRECTION('',(0.000049586,0.999999999,0.));
#400=VECTOR('',#399,1.599294866);
#401=LINE('',#398,#400);
#402=EDGE_CURVE('',#343,#366,#401,.T.);
#403=ORIENTED_EDGE('',*,*,#402,.T.);
#404=ORIENTED_EDGE('',*,*,#371,.T.);
#405=EDGE_LOOP('',(#396,#397,#403,#404));
#406=FACE_BOUND('',#405,.T.);
#407=ADVANCED_FACE('',(#406),#395,.T.);
#408=CARTESIAN_POINT('',(64.070763655,-0.003177027,0.));
#409=DIRECTION('',(-0.999999999,0.000049586,0.));
#410=DIRECTION('',(-0.000049586,-0.999999999,0.));
#411=AXIS2_PLACEMENT_3D('',#408,#409,#410);
#412=PLANE('',#411);
#413=ORIENTED_EDGE('',*,*,#348,.F.);
#414=CARTESIAN_POINT('',(64.070704033,-1.205562138,6.103561258));
#415=DIRECTION('',(-0.000049586,-0.999999999,0.));
#416=VECTOR('',#415,1.599294866);
#417=LINE('',#414,#416);
#418=EDGE_CURVE('',#374,#335,#417,.T.);
#419=ORIENTED_EDGE('',*,*,#418,.F.);
#420=ORIENTED_EDGE('',*,*,#379,.F.);
#421=ORIENTED_EDGE('',*,*,#402,.F.);
#422=EDGE_LOOP('',(#413,#419,#420,#421));
#423=FACE_BOUND('',#422,.T.);
#424=ADVANCED_FACE('',(#423),#412,.T.);
#425=CARTESIAN_POINT('',(60.270639694,-2.502988596,3.7));
#426=DIRECTION('',(0.,0.,1.));
#427=DIRECTION('',(1.,0.,0.));
#428=AXIS2_PLACEMENT_3D('',#425,#426,#427);
#429=PLANE('',#428);
#430=ORIENTED_EDGE('',*,*,#187,.F.);
#431=ORIENTED_EDGE('',*,*,#128,.F.);
#432=CARTESIAN_POINT('',(61.400307359,6.196955399,3.7));
#433=VERTEX_POINT('',#432);
#434=CARTESIAN_POINT('',(61.400307359,6.196955399,3.7));
#435=DIRECTION('',(-0.000049586,-0.999999999,0.));
#436=VECTOR('',#435,4.7);
#437=LINE('',#434,#436);
#438=EDGE_CURVE('',#433,#115,#437,.T.);
#439=ORIENTED_EDGE('',*,*,#438,.F.);
#440=CARTESIAN_POINT('',(57.771071097,6.197135359,3.7));
#441=VERTEX_POINT('',#440);
#442=CARTESIAN_POINT('',(57.771071097,6.197135359,3.7));
#443=DIRECTION('',(0.999999999,-0.000049586,0.));
#444=VECTOR('',#443,3.629236267);
#445=LINE('',#442,#444);
#446=EDGE_CURVE('',#441,#433,#445,.T.);
#447=ORIENTED_EDGE('',*,*,#446,.F.);
#448=CARTESIAN_POINT('',(57.770307469,-9.202864622,3.7));
#449=VERTEX_POINT('',#448);
#450=CARTESIAN_POINT('',(57.771071097,6.197135359,3.7));
#451=DIRECTION('',(-0.000049586,-0.999999999,0.));
#452=VECTOR('',#451,15.4);
#453=LINE('',#450,#452);
#454=EDGE_CURVE('',#441,#449,#453,.T.);
#455=ORIENTED_EDGE('',*,*,#454,.T.);
#456=CARTESIAN_POINT('',(61.399543731,-9.203044582,3.7));
#457=VERTEX_POINT('',#456);
#458=CARTESIAN_POINT('',(61.399543731,-9.203044582,3.7));
#459=DIRECTION('',(-0.999999999,0.000049586,0.));
#460=VECTOR('',#459,3.629236267);
#461=LINE('',#458,#460);
#462=EDGE_CURVE('',#457,#449,#461,.T.);
#463=ORIENTED_EDGE('',*,*,#462,.F.);
#464=CARTESIAN_POINT('',(61.399543731,-9.203044582,3.7));
#465=DIRECTION('',(0.000049586,0.999999999,0.));
#466=VECTOR('',#465,4.2);
#467=LINE('',#464,#466);
#468=EDGE_CURVE('',#457,#67,#467,.T.);
#469=ORIENTED_EDGE('',*,*,#468,.T.);
#470=ORIENTED_EDGE('',*,*,#72,.T.);
#471=EDGE_LOOP('',(#430,#431,#439,#447,#455,#463,#469,#470));
#472=FACE_BOUND('',#471,.T.);
#473=ADVANCED_FACE('',(#472),#429,.T.);
#474=CARTESIAN_POINT('',(57.770763662,-0.002864634,0.));
#475=DIRECTION('',(-0.999999999,0.000049586,0.));
#476=DIRECTION('',(-0.000049586,-0.999999999,0.));
#477=AXIS2_PLACEMENT_3D('',#474,#475,#476);
#478=PLANE('',#477);
#479=ORIENTED_EDGE('',*,*,#268,.F.);
#480=CARTESIAN_POINT('',(57.770307469,-9.202864622,3.7));
#481=DIRECTION('',(0.,0.,-1.));
#482=VECTOR('',#481,0.8);
#483=LINE('',#480,#482);
#484=EDGE_CURVE('',#449,#255,#483,.T.);
#485=ORIENTED_EDGE('',*,*,#484,.F.);
#486=ORIENTED_EDGE('',*,*,#454,.F.);
#487=CARTESIAN_POINT('',(57.771071097,6.197135359,2.9));
#488=DIRECTION('',(-0.,-0.,1.));
#489=VECTOR('',#488,0.8);
#490=LINE('',#487,#489);
#491=EDGE_CURVE('',#263,#441,#490,.T.);
#492=ORIENTED_EDGE('',*,*,#491,.F.);
#493=EDGE_LOOP('',(#479,#485,#486,#492));
#494=FACE_BOUND('',#493,.T.);
#495=ADVANCED_FACE('',(#494),#478,.T.);
#496=CARTESIAN_POINT('',(61.400307359,6.196955399,3.65));
#497=DIRECTION('',(-0.999999999,0.000049586,0.));
#498=DIRECTION('',(-0.000049586,-0.999999999,-0.));
#499=AXIS2_PLACEMENT_3D('',#496,#497,#498);
#500=PLANE('',#499);
#501=ORIENTED_EDGE('',*,*,#120,.T.);
#502=ORIENTED_EDGE('',*,*,#282,.F.);
#503=CARTESIAN_POINT('',(61.400307359,6.196955399,3.7));
#504=DIRECTION('',(0.,0.,-1.));
#505=VECTOR('',#504,0.8);
#506=LINE('',#503,#505);
#507=EDGE_CURVE('',#433,#271,#506,.T.);
#508=ORIENTED_EDGE('',*,*,#507,.F.);
#509=ORIENTED_EDGE('',*,*,#438,.T.);
#510=EDGE_LOOP('',(#501,#502,#508,#509));
#511=FACE_BOUND('',#510,.T.);
#512=ADVANCED_FACE('',(#511),#500,.F.);
#513=CARTESIAN_POINT('',(0.000307435,6.199999992,0.));
#514=DIRECTION('',(0.000049586,0.999999999,0.));
#515=DIRECTION('',(-0.,-0.,1.));
#516=AXIS2_PLACEMENT_3D('',#513,#514,#515);
#517=PLANE('',#516);
#518=ORIENTED_EDGE('',*,*,#491,.T.);
#519=ORIENTED_EDGE('',*,*,#446,.T.);
#520=ORIENTED_EDGE('',*,*,#507,.T.);
#521=ORIENTED_EDGE('',*,*,#276,.T.);
#522=EDGE_LOOP('',(#518,#519,#520,#521));
#523=FACE_BOUND('',#522,.T.);
#524=ADVANCED_FACE('',(#523),#517,.T.);
#525=CARTESIAN_POINT('',(61.399632987,-7.403044585,3.65));
#526=DIRECTION('',(-0.999999999,0.000049586,0.));
#527=DIRECTION('',(-0.000049586,-0.999999999,0.));
#528=AXIS2_PLACEMENT_3D('',#525,#526,#527);
#529=PLANE('',#528);
#530=ORIENTED_EDGE('',*,*,#78,.T.);
#531=ORIENTED_EDGE('',*,*,#468,.F.);
#532=CARTESIAN_POINT('',(61.399543731,-9.203044582,2.9));
#533=DIRECTION('',(0.,0.,1.));
#534=VECTOR('',#533,0.8);
#535=LINE('',#532,#534);
#536=EDGE_CURVE('',#247,#457,#535,.T.);
#537=ORIENTED_EDGE('',*,*,#536,.F.);
#538=ORIENTED_EDGE('',*,*,#252,.T.);
#539=EDGE_LOOP('',(#530,#531,#537,#538));
#540=FACE_BOUND('',#539,.T.);
#541=ADVANCED_FACE('',(#540),#529,.F.);
#542=CARTESIAN_POINT('',(-0.000456193,-9.199999989,0.));
#543=DIRECTION('',(-0.000049586,-0.999999999,0.));
#544=DIRECTION('',(0.,0.,-1.));
#545=AXIS2_PLACEMENT_3D('',#542,#543,#544);
#546=PLANE('',#545);
#547=ORIENTED_EDGE('',*,*,#484,.T.);
#548=ORIENTED_EDGE('',*,*,#260,.T.);
#549=ORIENTED_EDGE('',*,*,#536,.T.);
#550=ORIENTED_EDGE('',*,*,#462,.T.);
#551=EDGE_LOOP('',(#547,#548,#549,#550));
#552=FACE_BOUND('',#551,.T.);
#553=ADVANCED_FACE('',(#552),#546,.T.);
#554=CARTESIAN_POINT('',(66.470803321,0.796703965,5.8));
#555=DIRECTION('',(-0.,-0.,1.));
#556=DIRECTION('',(0.,-1.,-0.));
#557=AXIS2_PLACEMENT_3D('',#554,#555,#556);
#558=CYLINDRICAL_SURFACE('',#557,0.7);
#559=CARTESIAN_POINT('',(66.470803321,0.796703965,8.));
#560=DIRECTION('',(-0.000035063,-0.70710678,0.707106781));
#561=DIRECTION('',(-0.000035063,-0.70710678,-0.707106781));
#562=AXIS2_PLACEMENT_3D('',#559,#560,#561);
#563=ELLIPSE('',#562,0.989949494,0.7);
#564=EDGE_CURVE('',#293,#91,#563,.T.);
#565=ORIENTED_EDGE('',*,*,#564,.F.);
#566=ORIENTED_EDGE('',*,*,#322,.F.);
#567=CARTESIAN_POINT('',(66.470803321,0.796703965,3.6));
#568=DIRECTION('',(-0.000035063,-0.70710678,-0.707106781));
#569=DIRECTION('',(0.000035063,0.70710678,-0.707106781));
#570=AXIS2_PLACEMENT_3D('',#567,#568,#569);
#571=ELLIPSE('',#570,0.989949494,0.7);
#572=EDGE_CURVE('',#99,#311,#571,.T.);
#573=ORIENTED_EDGE('',*,*,#572,.F.);
#574=ORIENTED_EDGE('',*,*,#104,.F.);
#575=EDGE_LOOP('',(#565,#566,#573,#574));
#576=FACE_BOUND('',#575,.T.);
#577=ADVANCED_FACE('',(#576),#558,.T.);
#578=CARTESIAN_POINT('',(66.470639686,-2.503296031,3.6));
#579=DIRECTION('',(0.000049586,0.999999999,0.));
#580=DIRECTION('',(-0.999999999,0.000049586,0.));
#581=AXIS2_PLACEMENT_3D('',#578,#579,#580);
#582=CYLINDRICAL_SURFACE('',#581,0.7);
#583=ORIENTED_EDGE('',*,*,#572,.T.);
#584=ORIENTED_EDGE('',*,*,#316,.F.);
#585=CARTESIAN_POINT('',(66.470550431,-4.303296028,3.6));
#586=DIRECTION('',(-0.000035063,-0.70710678,0.707106781));
#587=DIRECTION('',(-0.000035063,-0.70710678,-0.707106781));
#588=AXIS2_PLACEMENT_3D('',#585,#586,#587);
#589=ELLIPSE('',#588,0.989949494,0.7);
#590=EDGE_CURVE('',#35,#303,#589,.T.);
#591=ORIENTED_EDGE('',*,*,#590,.F.);
#592=ORIENTED_EDGE('',*,*,#243,.F.);
#593=EDGE_LOOP('',(#583,#584,#591,#592));
#594=FACE_BOUND('',#593,.T.);
#595=ADVANCED_FACE('',(#594),#582,.T.);
#596=CARTESIAN_POINT('',(66.470639686,-2.503296031,8.));
#597=DIRECTION('',(-0.000049586,-0.999999999,0.));
#598=DIRECTION('',(0.999999999,-0.000049586,0.));
#599=AXIS2_PLACEMENT_3D('',#596,#597,#598);
#600=CYLINDRICAL_SURFACE('',#599,0.7);
#601=ORIENTED_EDGE('',*,*,#564,.T.);
#602=ORIENTED_EDGE('',*,*,#220,.F.);
#603=CARTESIAN_POINT('',(66.470550431,-4.303296028,8.));
#604=DIRECTION('',(-0.000035063,-0.70710678,-0.707106781));
#605=DIRECTION('',(0.000035063,0.70710678,-0.707106781));
#606=AXIS2_PLACEMENT_3D('',#603,#604,#605);
#607=ELLIPSE('',#606,0.989949494,0.7);
#608=EDGE_CURVE('',#295,#43,#607,.T.);
#609=ORIENTED_EDGE('',*,*,#608,.F.);
#610=ORIENTED_EDGE('',*,*,#300,.F.);
#611=EDGE_LOOP('',(#601,#602,#609,#610));
#612=FACE_BOUND('',#611,.T.);
#613=ADVANCED_FACE('',(#612),#600,.T.);
#614=CARTESIAN_POINT('',(66.470550431,-4.303296028,5.8));
#615=DIRECTION('',(0.,0.,-1.));
#616=DIRECTION('',(-1.,0.,0.));
#617=AXIS2_PLACEMENT_3D('',#614,#615,#616);
#618=CYLINDRICAL_SURFACE('',#617,0.7);
#619=ORIENTED_EDGE('',*,*,#590,.T.);
#620=ORIENTED_EDGE('',*,*,#308,.F.);
#621=ORIENTED_EDGE('',*,*,#608,.T.);
#622=ORIENTED_EDGE('',*,*,#48,.F.);
#623=EDGE_LOOP('',(#619,#620,#621,#622));
#624=FACE_BOUND('',#623,.T.);
#625=ADVANCED_FACE('',(#624),#618,.T.);
#626=CARTESIAN_POINT('',(64.07062473,-2.005147587,11.203561258));
#627=DIRECTION('',(1.,0.,0.));
#628=DIRECTION('',(0.,0.,-1.));
#629=AXIS2_PLACEMENT_3D('',#626,#627,#628);
#630=PLANE('',#629);
#631=ORIENTED_EDGE('',*,*,#385,.T.);
#632=ORIENTED_EDGE('',*,*,#418,.T.);
#633=ORIENTED_EDGE('',*,*,#340,.F.);
#634=ORIENTED_EDGE('',*,*,#206,.F.);
#635=EDGE_LOOP('',(#631,#632,#633,#634));
#636=FACE_BOUND('',#635,.T.);
#637=ADVANCED_FACE('',(#636),#630,.F.);
#638=CLOSED_SHELL('',(#82,#138,#192,#232,#286,#326,#358,#390,#407,#424,#473,#495,#512,#524,#541,#553,#577,#595,#613,#625,#637));
#639=MANIFOLD_SOLID_BREP('PowerSwitch',#638);
#640=COLOUR_RGB('',0.898039222,0.360784322,0.101960786);
#641=FILL_AREA_STYLE_COLOUR('',#640);
#642=FILL_AREA_STYLE('',(#641));
#643=SURFACE_STYLE_FILL_AREA(#642);
#644=SURFACE_SIDE_STYLE('',(#643));
#645=SURFACE_STYLE_USAGE(.BOTH.,#644);
#646=PRESENTATION_STYLE_ASSIGNMENT((#645));
#26=STYLED_ITEM('',(#646),#639);
#647=(NAMED_UNIT(*)PLANE_ANGLE_UNIT()SI_UNIT($,.RADIAN.));
#648=PLANE_ANGLE_MEASURE_WITH_UNIT(PLANE_ANGLE_MEASURE(0.0174532925),#647);
#649=(CONVERSION_BASED_UNIT('DEGREE',#648)NAMED_UNIT(#650)PLANE_ANGLE_UNIT());
#650=DIMENSIONAL_EXPONENTS(0.,0.,0.,0.,0.,0.,0.);
#651=(NAMED_UNIT(*)SI_UNIT($,.STERADIAN.)SOLID_ANGLE_UNIT());
#652=(LENGTH_UNIT()NAMED_UNIT(*)SI_UNIT(.MILLI.,.METRE.));
#653=UNCERTAINTY_MEASURE_WITH_UNIT(LENGTH_MEASURE(1.000000E-03),#652,'DISTANCE_ACCURACY_VALUE','Maximum Tolerance applied to model');
#654=(GEOMETRIC_REPRESENTATION_CONTEXT(3)GLOBAL_UNCERTAINTY_ASSIGNED_CONTEXT((#653))GLOBAL_UNIT_ASSIGNED_CONTEXT((#652,#649,#651))REPRESENTATION_CONTEXT('','\X2\51865F6272B630D130BF30FC30F3\X0\ 02'));
#666=CARTESIAN_POINT('',(0.,0.,0.));
#667=DIRECTION('',(0.,0.,1.));
#668=DIRECTION('',(1.,0.,-0.));
#669=AXIS2_PLACEMENT_3D('',#666,#667,#668);
#670=ITEM_DEFINED_TRANSFORMATION('','',#669,#15);
#671=(REPRESENTATION_RELATIONSHIP('','',#656,#16)REPRESENTATION_RELATIONSHIP_WITH_TRANSFORMATION(#670)SHAPE_REPRESENTATION_RELATIONSHIP());
#672=NEXT_ASSEMBLY_USAGE_OCCURRENCE('\X2\51865F6272B630D130BF30FC30F3\X0\ 02_1','\X2\51865F6272B630D130BF30FC30F3\X0\ 02','\X2\51865F6272B630D130BF30FC30F3\X0\ 02',#25,#665,$);
#673=PRODUCT_DEFINITION_SHAPE('','',#672);
#674=CONTEXT_DEPENDENT_SHAPE_REPRESENTATION(#671,#673);
#656=SHAPE_REPRESENTATION('\X2\51865F6272B630D130BF30FC30F3\X0\ 02',(#15),#654);
#675=CARTESIAN_POINT('',(0.,0.,0.));
#676=DIRECTION('',(0.,0.,1.));
#677=DIRECTION('',(1.,0.,0.));
#678=AXIS2_PLACEMENT_3D('',#675,#676,#677);
#680=MAPPED_ITEM('',#679,#678);
#679=REPRESENTATION_MAP(#678,#656);
#681=APPLICATION_CONTEXT('Managed model based 3d engineering');
#682=APPLICATION_PROTOCOL_DEFINITION('international standard','ap242_managed_model_based_3d_engineering',2014,#681);
#683=PRODUCT_CONTEXT('',#681,'mechanical');
#684=PRODUCT_DEFINITION_CONTEXT('part definition',#681,'design');
#664=PRODUCT('\X2\51865F6272B630D130BF30FC30F3\X0\ 02','\X2\51865F6272B630D130BF30FC30F3\X0\ 02','',(#683));
#685=PRODUCT_RELATED_PRODUCT_CATEGORY('part','',(#664));
#686=PRODUCT_DEFINITION_FORMATION_WITH_SPECIFIED_SOURCE('','',#664,.NOT_KNOWN.);
#665=PRODUCT_DEFINITION('design','',#686,#684);
#663=PRODUCT_DEFINITION_SHAPE('','',#665);
#687=SHAPE_DEFINITION_REPRESENTATION(#663,#656);
#655=DRAUGHTING_MODEL('',(#680),#654);
#688=(NAMED_UNIT(*)PLANE_ANGLE_UNIT()SI_UNIT($,.RADIAN.));
#689=PLANE_ANGLE_MEASURE_WITH_UNIT(PLANE_ANGLE_MEASURE(0.0174532925),#688);
#690=(CONVERSION_BASED_UNIT('DEGREE',#689)NAMED_UNIT(#691)PLANE_ANGLE_UNIT());
#691=DIMENSIONAL_EXPONENTS(0.,0.,0.,0.,0.,0.,0.);
#692=(NAMED_UNIT(*)SI_UNIT($,.STERADIAN.)SOLID_ANGLE_UNIT());
#693=(LENGTH_UNIT()NAMED_UNIT(*)SI_UNIT(.MILLI.,.METRE.));
#694=UNCERTAINTY_MEASURE_WITH_UNIT(LENGTH_MEASURE(1.000000E-03),#693,'DISTANCE_ACCURACY_VALUE','Maximum Tolerance applied to model');
#695=(GEOMETRIC_REPRESENTATION_CONTEXT(3)GLOBAL_UNCERTAINTY_ASSIGNED_CONTEXT((#694))GLOBAL_UNIT_ASSIGNED_CONTEXT((#693,#690,#692))REPRESENTATION_CONTEXT('','Nape_V2.shapr'));
#707=CARTESIAN_POINT('',(0.,0.,0.));
#708=DIRECTION('',(0.,0.,1.));
#709=DIRECTION('',(1.,0.,-0.));
#710=AXIS2_PLACEMENT_3D('',#707,#708,#709);
#711=ITEM_DEFINED_TRANSFORMATION('','',#710,#15);
#712=(REPRESENTATION_RELATIONSHIP('','',#697,#16)REPRESENTATION_RELATIONSHIP_WITH_TRANSFORMATION(#711)SHAPE_REPRESENTATION_RELATIONSHIP());
#713=NEXT_ASSEMBLY_USAGE_OCCURRENCE('Nape_V2.shapr_2','Nape_V2.shapr','Nape_V2.shapr',#25,#706,$);
#714=PRODUCT_DEFINITION_SHAPE('','',#713);
#715=CONTEXT_DEPENDENT_SHAPE_REPRESENTATION(#712,#714);
#716=(NAMED_UNIT(*)PLANE_ANGLE_UNIT()SI_UNIT($,.RADIAN.));
#717=PLANE_ANGLE_MEASURE_WITH_UNIT(PLANE_ANGLE_MEASURE(0.0174532925),#716);
#718=(CONVERSION_BASED_UNIT('DEGREE',#717)NAMED_UNIT(#719)PLANE_ANGLE_UNIT());
#719=DIMENSIONAL_EXPONENTS(0.,0.,0.,0.,0.,0.,0.);
#720=(NAMED_UNIT(*)SI_UNIT($,.STERADIAN.)SOLID_ANGLE_UNIT());
#721=(LENGTH_UNIT()NAMED_UNIT(*)SI_UNIT(.MILLI.,.METRE.));
#722=UNCERTAINTY_MEASURE_WITH_UNIT(LENGTH_MEASURE(1.000000E-03),#721,'DISTANCE_ACCURACY_VALUE','Maximum Tolerance applied to model');
#723=(GEOMETRIC_REPRESENTATION_CONTEXT(3)GLOBAL_UNCERTAINTY_ASSIGNED_CONTEXT((#722))GLOBAL_UNIT_ASSIGNED_CONTEXT((#721,#718,#720))REPRESENTATION_CONTEXT('','SwitchHoles'));
#735=CARTESIAN_POINT('',(0.,0.,0.));
#736=DIRECTION('',(0.,0.,1.));
#737=DIRECTION('',(1.,0.,-0.));
#738=AXIS2_PLACEMENT_3D('',#735,#736,#737);
#739=ITEM_DEFINED_TRANSFORMATION('','',#738,#15);
#740=(REPRESENTATION_RELATIONSHIP('','',#725,#697)REPRESENTATION_RELATIONSHIP_WITH_TRANSFORMATION(#739)SHAPE_REPRESENTATION_RELATIONSHIP());
#741=NEXT_ASSEMBLY_USAGE_OCCURRENCE('SwitchHoles_3','SwitchHoles','SwitchHoles',#706,#734,$);
#742=PRODUCT_DEFINITION_SHAPE('','',#741);
#743=CONTEXT_DEPENDENT_SHAPE_REPRESENTATION(#740,#742);
#725=SHAPE_REPRESENTATION('SwitchHoles',(#15),#723);
#744=CARTESIAN_POINT('',(0.,0.,0.));
#745=DIRECTION('',(0.,0.,1.));
#746=DIRECTION('',(1.,0.,0.));
#747=AXIS2_PLACEMENT_3D('',#744,#745,#746);
#749=MAPPED_ITEM('',#748,#747);
#748=REPRESENTATION_MAP(#747,#725);
#733=PRODUCT('SwitchHoles','SwitchHoles','',(#683));
#750=PRODUCT_RELATED_PRODUCT_CATEGORY('part','',(#733));
#751=PRODUCT_DEFINITION_FORMATION_WITH_SPECIFIED_SOURCE('','',#733,.NOT_KNOWN.);
#734=PRODUCT_DEFINITION('design','',#751,#684);
#732=PRODUCT_DEFINITION_SHAPE('','',#734);
#752=SHAPE_DEFINITION_REPRESENTATION(#732,#725);
#724=DRAUGHTING_MODEL('',(#749),#723);
#753=(NAMED_UNIT(*)PLANE_ANGLE_UNIT()SI_UNIT($,.RADIAN.));
#754=PLANE_ANGLE_MEASURE_WITH_UNIT(PLANE_ANGLE_MEASURE(0.0174532925),#753);
#755=(CONVERSION_BASED_UNIT('DEGREE',#754)NAMED_UNIT(#756)PLANE_ANGLE_UNIT());
#756=DIMENSIONAL_EXPONENTS(0.,0.,0.,0.,0.,0.,0.);
#757=(NAMED_UNIT(*)SI_UNIT($,.STERADIAN.)SOLID_ANGLE_UNIT());
#758=(LENGTH_UNIT()NAMED_UNIT(*)SI_UNIT(.MILLI.,.METRE.));
#759=UNCERTAINTY_MEASURE_WITH_UNIT(LENGTH_MEASURE(1.000000E-03),#758,'DISTANCE_ACCURACY_VALUE','Maximum Tolerance applied to model');
#760=(GEOMETRIC_REPRESENTATION_CONTEXT(3)GLOBAL_UNCERTAINTY_ASSIGNED_CONTEXT((#759))GLOBAL_UNIT_ASSIGNED_CONTEXT((#758,#755,#757))REPRESENTATION_CONTEXT('','Battery'));
#772=CARTESIAN_POINT('',(0.,0.,0.));
#773=DIRECTION('',(0.,0.,1.));
#774=DIRECTION('',(1.,0.,-0.));
#775=AXIS2_PLACEMENT_3D('',#772,#773,#774);
#776=ITEM_DEFINED_TRANSFORMATION('','',#775,#15);
#777=(REPRESENTATION_RELATIONSHIP('','',#762,#697)REPRESENTATION_RELATIONSHIP_WITH_TRANSFORMATION(#776)SHAPE_REPRESENTATION_RELATIONSHIP());
#778=NEXT_ASSEMBLY_USAGE_OCCURRENCE('Battery_4','Battery','Battery',#706,#771,$);
#779=PRODUCT_DEFINITION_SHAPE('','',#778);
#780=CONTEXT_DEPENDENT_SHAPE_REPRESENTATION(#777,#779);
#762=SHAPE_REPRESENTATION('Battery',(#15),#760);
#781=CARTESIAN_POINT('',(0.,0.,0.));
#782=DIRECTION('',(0.,0.,1.));
#783=DIRECTION('',(1.,0.,0.));
#784=AXIS2_PLACEMENT_3D('',#781,#782,#783);
#786=MAPPED_ITEM('',#785,#784);
#785=REPRESENTATION_MAP(#784,#762);
#770=PRODUCT('Battery','Battery','',(#683));
#787=PRODUCT_RELATED_PRODUCT_CATEGORY('part','',(#770));
#788=PRODUCT_DEFINITION_FORMATION_WITH_SPECIFIED_SOURCE('','',#770,.NOT_KNOWN.);
#771=PRODUCT_DEFINITION('design','',#788,#684);
#769=PRODUCT_DEFINITION_SHAPE('','',#771);
#789=SHAPE_DEFINITION_REPRESENTATION(#769,#762);
#761=DRAUGHTING_MODEL('',(#786),#760);
#697=SHAPE_REPRESENTATION('Nape_V2.shapr',(#15,#738,#775),#695);
#790=CARTESIAN_POINT('',(0.,0.,0.));
#791=DIRECTION('',(0.,0.,1.));
#792=DIRECTION('',(1.,0.,0.));
#793=AXIS2_PLACEMENT_3D('',#790,#791,#792);
#795=MAPPED_ITEM('',#794,#793);
#794=REPRESENTATION_MAP(#793,#697);
#705=PRODUCT('Nape_V2.shapr','Nape_V2.shapr','',(#683));
#796=PRODUCT_RELATED_PRODUCT_CATEGORY('part','',(#705));
#797=PRODUCT_DEFINITION_FORMATION_WITH_SPECIFIED_SOURCE('','',#705,.NOT_KNOWN.);
#706=PRODUCT_DEFINITION('design','',#797,#684);
#704=PRODUCT_DEFINITION_SHAPE('','',#706);
#798=SHAPE_DEFINITION_REPRESENTATION(#704,#697);
#696=DRAUGHTING_MODEL('',(#795),#695);
#799=(NAMED_UNIT(*)PLANE_ANGLE_UNIT()SI_UNIT($,.RADIAN.));
#800=PLANE_ANGLE_MEASURE_WITH_UNIT(PLANE_ANGLE_MEASURE(0.0174532925),#799);
#801=(CONVERSION_BASED_UNIT('DEGREE',#800)NAMED_UNIT(#802)PLANE_ANGLE_UNIT());
#802=DIMENSIONAL_EXPONENTS(0.,0.,0.,0.,0.,0.,0.);
#803=(NAMED_UNIT(*)SI_UNIT($,.STERADIAN.)SOLID_ANGLE_UNIT());
#804=(LENGTH_UNIT()NAMED_UNIT(*)SI_UNIT(.MILLI.,.METRE.));
#805=UNCERTAINTY_MEASURE_WITH_UNIT(LENGTH_MEASURE(1.000000E-03),#804,'DISTANCE_ACCURACY_VALUE','Maximum Tolerance applied to model');
#806=(GEOMETRIC_REPRESENTATION_CONTEXT(3)GLOBAL_UNCERTAINTY_ASSIGNED_CONTEXT((#805))GLOBAL_UNIT_ASSIGNED_CONTEXT((#804,#801,#803))REPRESENTATION_CONTEXT('','Top'));
#818=CARTESIAN_POINT('',(0.,0.,0.));
#819=DIRECTION('',(0.,0.,1.));
#820=DIRECTION('',(1.,0.,-0.));
#821=AXIS2_PLACEMENT_3D('',#818,#819,#820);
#822=ITEM_DEFINED_TRANSFORMATION('','',#821,#15);
#823=(REPRESENTATION_RELATIONSHIP('','',#808,#16)REPRESENTATION_RELATIONSHIP_WITH_TRANSFORMATION(#822)SHAPE_REPRESENTATION_RELATIONSHIP());
#824=NEXT_ASSEMBLY_USAGE_OCCURRENCE('Top_5','Top','Top',#25,#817,$);
#825=PRODUCT_DEFINITION_SHAPE('','',#824);
#826=CONTEXT_DEPENDENT_SHAPE_REPRESENTATION(#823,#825);
#808=SHAPE_REPRESENTATION('Top',(#15),#806);
#827=CARTESIAN_POINT('',(0.,0.,0.));
#828=DIRECTION('',(0.,0.,1.));
#829=DIRECTION('',(1.,0.,0.));
#830=AXIS2_PLACEMENT_3D('',#827,#828,#829);
#832=MAPPED_ITEM('',#831,#830);
#831=REPRESENTATION_MAP(#830,#808);
#816=PRODUCT('Top','Top','',(#683));
#833=PRODUCT_RELATED_PRODUCT_CATEGORY('part','',(#816));
#834=PRODUCT_DEFINITION_FORMATION_WITH_SPECIFIED_SOURCE('','',#816,.NOT_KNOWN.);
#817=PRODUCT_DEFINITION('design','',#834,#684);
#815=PRODUCT_DEFINITION_SHAPE('','',#817);
#835=SHAPE_DEFINITION_REPRESENTATION(#815,#808);
#807=DRAUGHTING_MODEL('',(#832),#806);
#16=SHAPE_REPRESENTATION('root',(#15,#669,#710,#821),#10);
#17=ADVANCED_BREP_SHAPE_REPRESENTATION('root',(#639),#10);
#843=SHAPE_REPRESENTATION_RELATIONSHIP('','',#16,#17);
#844=CARTESIAN_POINT('',(0.,0.,0.));
#845=DIRECTION('',(0.,0.,1.));
#846=DIRECTION('',(1.,0.,0.));
#847=AXIS2_PLACEMENT_3D('',#844,#845,#846);
#849=MAPPED_ITEM('',#848,#847);
#848=REPRESENTATION_MAP(#847,#16);
#24=PRODUCT('root','root','',(#683));
#850=PRODUCT_RELATED_PRODUCT_CATEGORY('part','',(#24));
#851=PRODUCT_DEFINITION_FORMATION_WITH_SPECIFIED_SOURCE('','',#24,.NOT_KNOWN.);
#25=PRODUCT_DEFINITION('design','',#851,#684);
#23=PRODUCT_DEFINITION_SHAPE('','',#25);
#852=SHAPE_DEFINITION_REPRESENTATION(#23,#16);
#11=DRAUGHTING_MODEL('',(#849),#10);
#853=DESCRIPTIVE_REPRESENTATION_ITEM('KEY','/Users/koichiro.amito/Library/Containers/com.shapr3d.shapr/Data/tmp/7468D13D-126F-4F0E-9C2A-CD2E0444C18F.tmp');
#854=PROPERTY_DEFINITION('KEY','',#25);
#855=REPRESENTATION('',(#853),#10);
#856=PROPERTY_DEFINITION_REPRESENTATION(#854,#855);
#857=GENERAL_PROPERTY('','KEY','');
#858=GENERAL_PROPERTY_ASSOCIATION('','',#857,#854);
#1=MECHANICAL_DESIGN_GEOMETRIC_PRESENTATION_REPRESENTATION('',(#26),#10);
ENDSEC;
END-ISO-10303-21;
