G04 #@! TF.GenerationSoftware,KiCad,Pcbnew,8.0.5*
G04 #@! TF.CreationDate,2025-04-15T10:26:43+09:00*
G04 #@! TF.ProjectId,Nape,4e617065-2e6b-4696-9361-645f70636258,rev?*
G04 #@! TF.SameCoordinates,Original*
G04 #@! TF.FileFunction,Legend,Top*
G04 #@! TF.FilePolarity,Positive*
%FSLAX46Y46*%
G04 Gerber Fmt 4.6, Leading zero omitted, Abs format (unit mm)*
G04 Created by KiCad (PCBNEW 8.0.5) date 2025-04-15 10:26:43*
%MOMM*%
%LPD*%
G01*
G04 APERTURE LIST*
G04 Aperture macros list*
%AMRoundRect*
0 Rectangle with rounded corners*
0 $1 Rounding radius*
0 $2 $3 $4 $5 $6 $7 $8 $9 X,Y pos of 4 corners*
0 Add a 4 corners polygon primitive as box body*
4,1,4,$2,$3,$4,$5,$6,$7,$8,$9,$2,$3,0*
0 Add four circle primitives for the rounded corners*
1,1,$1+$1,$2,$3*
1,1,$1+$1,$4,$5*
1,1,$1+$1,$6,$7*
1,1,$1+$1,$8,$9*
0 Add four rect primitives between the rounded corners*
20,1,$1+$1,$2,$3,$4,$5,0*
20,1,$1+$1,$4,$5,$6,$7,0*
20,1,$1+$1,$6,$7,$8,$9,0*
20,1,$1+$1,$8,$9,$2,$3,0*%
G04 Aperture macros list end*
%ADD10C,2.000000*%
%ADD11O,1.800000X2.750000*%
%ADD12C,1.500000*%
%ADD13C,3.000000*%
%ADD14C,4.800000*%
%ADD15RoundRect,0.187500X-0.437500X0.437500X-0.437500X-0.437500X0.437500X-0.437500X0.437500X0.437500X0*%
%ADD16O,1.250000X1.250000*%
%ADD17O,1.000000X1.300000*%
G04 APERTURE END LIST*
D10*
X147192420Y-100000000D03*
X140692420Y-100000000D03*
X147192420Y-107500000D03*
X140692420Y-107500000D03*
X147192420Y-92500000D03*
X140692420Y-92500000D03*
%LPC*%
D11*
X97628920Y-108120000D03*
X100168920Y-108120000D03*
X102708920Y-108120000D03*
X105248920Y-108120000D03*
X107788920Y-108120000D03*
X110328920Y-108120000D03*
X112868920Y-108120000D03*
X112868920Y-91880000D03*
X110328920Y-91880000D03*
X107788920Y-91880000D03*
X105248920Y-91880000D03*
X102708920Y-91880000D03*
X100168920Y-91880000D03*
X97628920Y-91880000D03*
D12*
X104931920Y-104445000D03*
X103026920Y-104445000D03*
D10*
X147192420Y-100000000D03*
X140692420Y-100000000D03*
X147192420Y-107500000D03*
X140692420Y-107500000D03*
X147192420Y-92500000D03*
X140692420Y-92500000D03*
D13*
X128717420Y-94100000D03*
D14*
X128717420Y-100000000D03*
D13*
X133717420Y-96300000D03*
D15*
X166246170Y-96820000D03*
D16*
X166246170Y-98600000D03*
X166246170Y-100380000D03*
X166246170Y-102160000D03*
X166246170Y-103940000D03*
X166246170Y-105720000D03*
X166246170Y-107500000D03*
X166246170Y-109280000D03*
X155546170Y-110170000D03*
X155546170Y-108390000D03*
X155546170Y-106610000D03*
X155546170Y-104830000D03*
X155546170Y-103050000D03*
X155546170Y-101270000D03*
X155546170Y-99490000D03*
X155546170Y-97710000D03*
D17*
X220154381Y-103750285D03*
X220154381Y-101250285D03*
X220154381Y-98750285D03*
D13*
X212061170Y-105900000D03*
D14*
X212061170Y-100000000D03*
D13*
X207061170Y-103700000D03*
X193074920Y-94100000D03*
D14*
X193074920Y-100000000D03*
D13*
X198074920Y-96300000D03*
%LPD*%
M02*
