M48
; DRILL file {KiCad 8.0.5} date 2025-04-15T10:26:57+0900
; FORMAT={-:-/ absolute / metric / decimal}
; #@! TF.CreationDate,2025-04-15T10:26:57+09:00
; #@! TF.GenerationSoftware,Kicad,Pcbnew,8.0.5
; #@! TF.FileFunction,Plated,1,2,PTH
FMAT,2
METRIC
; #@! TA.AperFunction,Plated,PTH,ViaDrill
T1C0.300
; #@! TA.AperFunction,Plated,PTH,ComponentDrill
T2C0.500
; #@! TA.AperFunction,Plated,PTH,ComponentDrill
T3C0.750
; #@! TA.AperFunction,Plated,PTH,ComponentDrill
T4C0.813
; #@! TA.AperFunction,Plated,PTH,ComponentDrill
T5C1.000
; #@! TA.AperFunction,Plated,PTH,ComponentDrill
T6C1.300
%
G90
G05
T1
X100.2Y-88.9
X100.2Y-104.3
X101.0Y-98.6
X102.706Y-88.049
X107.7Y-111.0
X113.315Y-111.681
X116.2Y-90.6
X116.2Y-98.6
X122.5Y-102.8
X134.9Y-100.0
X134.9Y-110.2
X135.6Y-99.4
X135.6Y-110.6
X137.1Y-110.2
X140.6Y-103.8
X147.2Y-88.9
X147.2Y-110.1
X148.7Y-94.4
X148.7Y-104.7
X149.4Y-90.7
X149.4Y-102.8
X151.419Y-92.924
X153.0Y-91.475
X158.4Y-91.5
X160.9Y-88.049
X161.825Y-92.924
X163.296Y-89.7
X166.8Y-93.7
X167.829Y-89.7
X169.075Y-92.9
X169.075Y-92.9
X170.7Y-96.8
X172.066Y-89.7
X173.0Y-94.4
X173.0Y-100.4
X189.516Y-87.862
X201.9Y-89.8
X204.3Y-95.9
X215.6Y-88.5
X218.6Y-93.0
T3
X155.546Y-97.71
X155.546Y-99.49
X155.546Y-101.27
X155.546Y-103.05
X155.546Y-104.83
X155.546Y-106.61
X155.546Y-108.39
X155.546Y-110.17
X166.246Y-96.82
X166.246Y-98.6
X166.246Y-100.38
X166.246Y-102.16
X166.246Y-103.94
X166.246Y-105.72
X166.246Y-107.5
X166.246Y-109.28
T4
X97.629Y-92.38
X97.629Y-107.62
X100.169Y-92.38
X100.169Y-107.62
X102.709Y-92.38
X102.709Y-107.62
X105.249Y-92.38
X105.249Y-107.62
X107.789Y-92.38
X107.789Y-107.62
X110.329Y-92.38
X110.329Y-107.62
X112.869Y-92.38
X112.869Y-107.62
T5
X103.027Y-104.445
X104.932Y-104.445
T6
X140.692Y-92.5
X140.692Y-100.0
X140.692Y-107.5
X147.192Y-92.5
X147.192Y-100.0
X147.192Y-107.5
T2
X220.154Y-98.9G85X220.154Y-98.6
G05
X220.154Y-101.4G85X220.154Y-101.1
G05
X220.154Y-103.9G85X220.154Y-103.6
G05
M30
