G04 #@! TF.GenerationSoftware,KiCad,Pcbnew,8.0.5*
G04 #@! TF.CreationDate,2025-04-15T10:26:43+09:00*
G04 #@! TF.ProjectId,Nape,4e617065-2e6b-4696-9361-645f70636258,rev?*
G04 #@! TF.SameCoordinates,Original*
G04 #@! TF.FileFunction,Soldermask,Bot*
G04 #@! TF.FilePolarity,Negative*
%FSLAX46Y46*%
G04 Gerber Fmt 4.6, Leading zero omitted, Abs format (unit mm)*
G04 Created by KiCad (PCBNEW 8.0.5) date 2025-04-15 10:26:43*
%MOMM*%
%LPD*%
G01*
G04 APERTURE LIST*
G04 Aperture macros list*
%AMRoundRect*
0 Rectangle with rounded corners*
0 $1 Rounding radius*
0 $2 $3 $4 $5 $6 $7 $8 $9 X,Y pos of 4 corners*
0 Add a 4 corners polygon primitive as box body*
4,1,4,$2,$3,$4,$5,$6,$7,$8,$9,$2,$3,0*
0 Add four circle primitives for the rounded corners*
1,1,$1+$1,$2,$3*
1,1,$1+$1,$4,$5*
1,1,$1+$1,$6,$7*
1,1,$1+$1,$8,$9*
0 Add four rect primitives between the rounded corners*
20,1,$1+$1,$2,$3,$4,$5,0*
20,1,$1+$1,$4,$5,$6,$7,0*
20,1,$1+$1,$6,$7,$8,$9,0*
20,1,$1+$1,$8,$9,$2,$3,0*%
G04 Aperture macros list end*
%ADD10O,1.800000X2.750000*%
%ADD11C,1.500000*%
%ADD12C,2.000000*%
%ADD13RoundRect,0.225000X0.225000X0.250000X-0.225000X0.250000X-0.225000X-0.250000X0.225000X-0.250000X0*%
%ADD14C,3.000000*%
%ADD15C,4.800000*%
%ADD16R,3.000000X3.500000*%
%ADD17RoundRect,0.187500X-0.437500X0.437500X-0.437500X-0.437500X0.437500X-0.437500X0.437500X0.437500X0*%
%ADD18O,1.250000X1.250000*%
%ADD19RoundRect,0.225000X-0.250000X0.225000X-0.250000X-0.225000X0.250000X-0.225000X0.250000X0.225000X0*%
%ADD20RoundRect,0.150000X0.150000X-0.587500X0.150000X0.587500X-0.150000X0.587500X-0.150000X-0.587500X0*%
%ADD21O,1.000000X1.300000*%
%ADD22RoundRect,0.225000X-0.225000X-0.250000X0.225000X-0.250000X0.225000X0.250000X-0.225000X0.250000X0*%
%ADD23RoundRect,0.225000X0.250000X-0.225000X0.250000X0.225000X-0.250000X0.225000X-0.250000X-0.225000X0*%
%ADD24RoundRect,0.102000X1.700000X-0.750000X1.700000X0.750000X-1.700000X0.750000X-1.700000X-0.750000X0*%
%ADD25RoundRect,0.102000X1.750000X-0.500000X1.750000X0.500000X-1.750000X0.500000X-1.750000X-0.500000X0*%
G04 APERTURE END LIST*
D10*
X97628920Y-108120000D03*
X100168920Y-108120000D03*
X102708920Y-108120000D03*
X105248920Y-108120000D03*
X107788920Y-108120000D03*
X110328920Y-108120000D03*
X112868920Y-108120000D03*
X112868920Y-91880000D03*
X110328920Y-91880000D03*
X107788920Y-91880000D03*
X105248920Y-91880000D03*
X102708920Y-91880000D03*
X100168920Y-91880000D03*
X97628920Y-91880000D03*
D11*
X104931920Y-104445000D03*
X103026920Y-104445000D03*
D12*
X147192420Y-100000000D03*
X140692420Y-100000000D03*
X147192420Y-107500000D03*
X140692420Y-107500000D03*
X147192420Y-92500000D03*
X140692420Y-92500000D03*
D13*
X170650000Y-98000000D03*
X169100000Y-98000000D03*
X170650000Y-100500000D03*
X169100000Y-100500000D03*
D14*
X128717420Y-94100000D03*
D15*
X128717420Y-100000000D03*
D14*
X133717420Y-96300000D03*
D16*
X137067420Y-96300000D03*
X125167420Y-94100000D03*
D17*
X166246170Y-96820000D03*
D18*
X166246170Y-98600000D03*
X166246170Y-100380000D03*
X166246170Y-102160000D03*
X166246170Y-103940000D03*
X166246170Y-105720000D03*
X166246170Y-107500000D03*
X166246170Y-109280000D03*
X155546170Y-110170000D03*
X155546170Y-108390000D03*
X155546170Y-106610000D03*
X155546170Y-104830000D03*
X155546170Y-103050000D03*
X155546170Y-101270000D03*
X155546170Y-99490000D03*
X155546170Y-97710000D03*
D13*
X152975000Y-101300000D03*
X151425000Y-101300000D03*
D19*
X152900000Y-103525000D03*
X152900000Y-105075000D03*
D20*
X161850000Y-91537500D03*
X159950000Y-91537500D03*
X160900000Y-89662500D03*
D21*
X220154381Y-103750285D03*
X220154381Y-101250285D03*
X220154381Y-98750285D03*
D22*
X169100000Y-107500000D03*
X170650000Y-107500000D03*
D23*
X150200000Y-108875000D03*
X150200000Y-107325000D03*
D22*
X169100000Y-105700000D03*
X170650000Y-105700000D03*
D13*
X152975000Y-98700000D03*
X151425000Y-98700000D03*
D14*
X212061170Y-105900000D03*
D15*
X212061170Y-100000000D03*
D14*
X207061170Y-103700000D03*
D16*
X203711170Y-103700000D03*
X215611170Y-105900000D03*
D14*
X193074920Y-94100000D03*
D15*
X193074920Y-100000000D03*
D14*
X198074920Y-96300000D03*
D16*
X201424920Y-96300000D03*
X189524920Y-94100000D03*
D24*
X118445805Y-104008083D03*
X118445805Y-97308083D03*
D25*
X112695805Y-99658083D03*
X112695805Y-101658083D03*
D23*
X152900000Y-108850000D03*
X152900000Y-107300000D03*
D13*
X152975000Y-96100000D03*
X151425000Y-96100000D03*
M02*
